<svg width="341" height="272" viewBox="0 0 341 272" fill="none" xmlns="http://www.w3.org/2000/svg">
<path d="M153.237 210.065V233H149.475V210.065H153.237ZM167.35 214.52C168.78 214.52 170.056 214.817 171.178 215.411C172.322 216.005 173.213 216.885 173.851 218.051C174.489 219.217 174.808 220.625 174.808 222.275V233H171.079V222.836C171.079 221.208 170.672 219.965 169.858 219.107C169.044 218.227 167.933 217.787 166.525 217.787C165.117 217.787 163.995 218.227 163.159 219.107C162.345 219.965 161.938 221.208 161.938 222.836V233H158.176V214.817H161.938V216.896C162.554 216.148 163.335 215.565 164.281 215.147C165.249 214.729 166.272 214.52 167.35 214.52ZM188.781 214.52C190.211 214.52 191.487 214.817 192.609 215.411C193.753 216.005 194.644 216.885 195.282 218.051C195.92 219.217 196.239 220.625 196.239 222.275V233H192.51V222.836C192.51 221.208 192.103 219.965 191.289 219.107C190.475 218.227 189.364 217.787 187.956 217.787C186.548 217.787 185.426 218.227 184.59 219.107C183.776 219.965 183.369 221.208 183.369 222.836V233H179.607V214.817H183.369V216.896C183.985 216.148 184.766 215.565 185.712 215.147C186.68 214.729 187.703 214.52 188.781 214.52ZM208.925 233.297C207.209 233.297 205.658 232.912 204.272 232.142C202.886 231.35 201.797 230.25 201.005 228.842C200.213 227.412 199.817 225.762 199.817 223.892C199.817 222.044 200.224 220.405 201.038 218.975C201.852 217.545 202.963 216.445 204.371 215.675C205.779 214.905 207.352 214.52 209.09 214.52C210.828 214.52 212.401 214.905 213.809 215.675C215.217 216.445 216.328 217.545 217.142 218.975C217.956 220.405 218.363 222.044 218.363 223.892C218.363 225.74 217.945 227.379 217.109 228.809C216.273 230.239 215.129 231.35 213.677 232.142C212.247 232.912 210.663 233.297 208.925 233.297ZM208.925 230.03C209.893 230.03 210.795 229.799 211.631 229.337C212.489 228.875 213.182 228.182 213.71 227.258C214.238 226.334 214.502 225.212 214.502 223.892C214.502 222.572 214.249 221.461 213.743 220.559C213.237 219.635 212.566 218.942 211.73 218.48C210.894 218.018 209.992 217.787 209.024 217.787C208.056 217.787 207.154 218.018 206.318 218.48C205.504 218.942 204.855 219.635 204.371 220.559C203.887 221.461 203.645 222.572 203.645 223.892C203.645 225.85 204.14 227.368 205.13 228.446C206.142 229.502 207.407 230.03 208.925 230.03ZM229.11 229.634L234.258 214.817H238.251L231.321 233H226.833L219.936 214.817H223.962L229.11 229.634ZM239.841 223.826C239.841 222 240.215 220.383 240.963 218.975C241.733 217.567 242.767 216.478 244.065 215.708C245.385 214.916 246.837 214.52 248.421 214.52C249.851 214.52 251.094 214.806 252.15 215.378C253.228 215.928 254.086 216.621 254.724 217.457V214.817H258.519V233H254.724V230.294C254.086 231.152 253.217 231.867 252.117 232.439C251.017 233.011 249.763 233.297 248.355 233.297C246.793 233.297 245.363 232.901 244.065 232.109C242.767 231.295 241.733 230.173 240.963 228.743C240.215 227.291 239.841 225.652 239.841 223.826ZM254.724 223.892C254.724 222.638 254.46 221.549 253.932 220.625C253.426 219.701 252.755 218.997 251.919 218.513C251.083 218.029 250.181 217.787 249.213 217.787C248.245 217.787 247.343 218.029 246.507 218.513C245.671 218.975 244.989 219.668 244.461 220.592C243.955 221.494 243.702 222.572 243.702 223.826C243.702 225.08 243.955 226.18 244.461 227.126C244.989 228.072 245.671 228.798 246.507 229.304C247.365 229.788 248.267 230.03 249.213 230.03C250.181 230.03 251.083 229.788 251.919 229.304C252.755 228.82 253.426 228.116 253.932 227.192C254.46 226.246 254.724 225.146 254.724 223.892ZM267.849 217.886V227.951C267.849 228.633 268.003 229.128 268.311 229.436C268.641 229.722 269.191 229.865 269.961 229.865H272.271V233H269.301C267.607 233 266.309 232.604 265.407 231.812C264.505 231.02 264.054 229.733 264.054 227.951V217.886H261.909V214.817H264.054V210.296H267.849V214.817H272.271V217.886H267.849ZM277.653 212.408C276.971 212.408 276.399 212.177 275.937 211.715C275.475 211.253 275.244 210.681 275.244 209.999C275.244 209.317 275.475 208.745 275.937 208.283C276.399 207.821 276.971 207.59 277.653 207.59C278.313 207.59 278.874 207.821 279.336 208.283C279.798 208.745 280.029 209.317 280.029 209.999C280.029 210.681 279.798 211.253 279.336 211.715C278.874 212.177 278.313 212.408 277.653 212.408ZM279.501 214.817V233H275.739V214.817H279.501ZM292.327 233.297C290.611 233.297 289.06 232.912 287.674 232.142C286.288 231.35 285.199 230.25 284.407 228.842C283.615 227.412 283.219 225.762 283.219 223.892C283.219 222.044 283.626 220.405 284.44 218.975C285.254 217.545 286.365 216.445 287.773 215.675C289.181 214.905 290.754 214.52 292.492 214.52C294.23 214.52 295.803 214.905 297.211 215.675C298.619 216.445 299.73 217.545 300.544 218.975C301.358 220.405 301.765 222.044 301.765 223.892C301.765 225.74 301.347 227.379 300.511 228.809C299.675 230.239 298.531 231.35 297.079 232.142C295.649 232.912 294.065 233.297 292.327 233.297ZM292.327 230.03C293.295 230.03 294.197 229.799 295.033 229.337C295.891 228.875 296.584 228.182 297.112 227.258C297.64 226.334 297.904 225.212 297.904 223.892C297.904 222.572 297.651 221.461 297.145 220.559C296.639 219.635 295.968 218.942 295.132 218.48C294.296 218.018 293.394 217.787 292.426 217.787C291.458 217.787 290.556 218.018 289.72 218.48C288.906 218.942 288.257 219.635 287.773 220.559C287.289 221.461 287.047 222.572 287.047 223.892C287.047 225.85 287.542 227.368 288.532 228.446C289.544 229.502 290.809 230.03 292.327 230.03ZM314.658 214.52C316.088 214.52 317.364 214.817 318.486 215.411C319.63 216.005 320.521 216.885 321.159 218.051C321.797 219.217 322.116 220.625 322.116 222.275V233H318.387V222.836C318.387 221.208 317.98 219.965 317.166 219.107C316.352 218.227 315.241 217.787 313.833 217.787C312.425 217.787 311.303 218.227 310.467 219.107C309.653 219.965 309.246 221.208 309.246 222.836V233H305.484V214.817H309.246V216.896C309.862 216.148 310.643 215.565 311.589 215.147C312.557 214.729 313.58 214.52 314.658 214.52Z" fill="#B6D7E4"/>
<path d="M95.536 245.32V262H92.8V245.32H95.536ZM98.2161 255.328C98.2161 254 98.4881 252.824 99.0321 251.8C99.5921 250.776 100.344 249.984 101.288 249.424C102.248 248.848 103.312 248.56 104.48 248.56C105.344 248.56 106.192 248.752 107.024 249.136C107.872 249.504 108.544 250 109.04 250.624V244.24H111.8V262H109.04V260.008C108.592 260.648 107.968 261.176 107.168 261.592C106.384 262.008 105.48 262.216 104.456 262.216C103.304 262.216 102.248 261.928 101.288 261.352C100.344 260.76 99.5921 259.944 99.0321 258.904C98.4881 257.848 98.2161 256.656 98.2161 255.328ZM109.04 255.376C109.04 254.464 108.848 253.672 108.464 253C108.096 252.328 107.608 251.816 107 251.464C106.392 251.112 105.736 250.936 105.032 250.936C104.328 250.936 103.672 251.112 103.064 251.464C102.456 251.8 101.96 252.304 101.576 252.976C101.208 253.632 101.024 254.416 101.024 255.328C101.024 256.24 101.208 257.04 101.576 257.728C101.96 258.416 102.456 258.944 103.064 259.312C103.688 259.664 104.344 259.84 105.032 259.84C105.736 259.84 106.392 259.664 107 259.312C107.608 258.96 108.096 258.448 108.464 257.776C108.848 257.088 109.04 256.288 109.04 255.376ZM127.514 255.064C127.514 255.56 127.482 256.008 127.418 256.408H117.314C117.394 257.464 117.786 258.312 118.49 258.952C119.194 259.592 120.058 259.912 121.082 259.912C122.554 259.912 123.594 259.296 124.202 258.064H127.154C126.754 259.28 126.026 260.28 124.97 261.064C123.93 261.832 122.634 262.216 121.082 262.216C119.818 262.216 118.682 261.936 117.674 261.376C116.682 260.8 115.898 260 115.322 258.976C114.762 257.936 114.482 256.736 114.482 255.376C114.482 254.016 114.754 252.824 115.298 251.8C115.858 250.76 116.634 249.96 117.626 249.4C118.634 248.84 119.786 248.56 121.082 248.56C122.33 248.56 123.442 248.832 124.418 249.376C125.394 249.92 126.154 250.688 126.698 251.68C127.242 252.656 127.514 253.784 127.514 255.064ZM124.658 254.2C124.642 253.192 124.282 252.384 123.578 251.776C122.874 251.168 122.002 250.864 120.962 250.864C120.018 250.864 119.21 251.168 118.538 251.776C117.866 252.368 117.466 253.176 117.338 254.2H124.658ZM129.294 255.328C129.294 254 129.566 252.824 130.11 251.8C130.67 250.776 131.422 249.984 132.366 249.424C133.326 248.848 134.382 248.56 135.534 248.56C136.574 248.56 137.478 248.768 138.246 249.184C139.03 249.584 139.654 250.088 140.118 250.696V248.776H142.878V262H140.118V260.032C139.654 260.656 139.022 261.176 138.222 261.592C137.422 262.008 136.51 262.216 135.486 262.216C134.35 262.216 133.31 261.928 132.366 261.352C131.422 260.76 130.67 259.944 130.11 258.904C129.566 257.848 129.294 256.656 129.294 255.328ZM140.118 255.376C140.118 254.464 139.926 253.672 139.542 253C139.174 252.328 138.686 251.816 138.078 251.464C137.47 251.112 136.814 250.936 136.11 250.936C135.406 250.936 134.75 251.112 134.142 251.464C133.534 251.8 133.038 252.304 132.654 252.976C132.286 253.632 132.102 254.416 132.102 255.328C132.102 256.24 132.286 257.04 132.654 257.728C133.038 258.416 133.534 258.944 134.142 259.312C134.766 259.664 135.422 259.84 136.11 259.84C136.814 259.84 137.47 259.664 138.078 259.312C138.686 258.96 139.174 258.448 139.542 257.776C139.926 257.088 140.118 256.288 140.118 255.376ZM151.272 262.216C150.232 262.216 149.296 262.032 148.464 261.664C147.648 261.28 147 260.768 146.52 260.128C146.04 259.472 145.784 258.744 145.752 257.944H148.584C148.632 258.504 148.896 258.976 149.376 259.36C149.872 259.728 150.488 259.912 151.224 259.912C151.992 259.912 152.584 259.768 153 259.48C153.432 259.176 153.648 258.792 153.648 258.328C153.648 257.832 153.408 257.464 152.928 257.224C152.464 256.984 151.72 256.72 150.696 256.432C149.704 256.16 148.896 255.896 148.272 255.64C147.648 255.384 147.104 254.992 146.64 254.464C146.192 253.936 145.968 253.24 145.968 252.376C145.968 251.672 146.176 251.032 146.592 250.456C147.008 249.864 147.6 249.4 148.368 249.064C149.152 248.728 150.048 248.56 151.056 248.56C152.56 248.56 153.768 248.944 154.68 249.712C155.608 250.464 156.104 251.496 156.168 252.808H153.432C153.384 252.216 153.144 251.744 152.712 251.392C152.28 251.04 151.696 250.864 150.96 250.864C150.24 250.864 149.688 251 149.304 251.272C148.92 251.544 148.728 251.904 148.728 252.352C148.728 252.704 148.856 253 149.112 253.24C149.368 253.48 149.68 253.672 150.048 253.816C150.416 253.944 150.96 254.112 151.68 254.32C152.64 254.576 153.424 254.84 154.032 255.112C154.656 255.368 155.192 255.752 155.64 256.264C156.088 256.776 156.32 257.456 156.336 258.304C156.336 259.056 156.128 259.728 155.712 260.32C155.296 260.912 154.704 261.376 153.936 261.712C153.184 262.048 152.296 262.216 151.272 262.216Z" fill="#D4C0D6"/>
<path d="M11.616 198.32V200.552H4.536V205.472H10.056V207.704H4.536V215H1.8V198.32H11.616ZM26.2716 208.064C26.2716 208.56 26.2396 209.008 26.1756 209.408H16.0716C16.1516 210.464 16.5436 211.312 17.2476 211.952C17.9516 212.592 18.8156 212.912 19.8396 212.912C21.3116 212.912 22.3516 212.296 22.9596 211.064H25.9116C25.5116 212.28 24.7836 213.28 23.7276 214.064C22.6876 214.832 21.3916 215.216 19.8396 215.216C18.5756 215.216 17.4396 214.936 16.4316 214.376C15.4396 213.8 14.6556 213 14.0796 211.976C13.5196 210.936 13.2396 209.736 13.2396 208.376C13.2396 207.016 13.5116 205.824 14.0556 204.8C14.6156 203.76 15.3916 202.96 16.3836 202.4C17.3916 201.84 18.5436 201.56 19.8396 201.56C21.0876 201.56 22.1996 201.832 23.1756 202.376C24.1516 202.92 24.9116 203.688 25.4556 204.68C25.9996 205.656 26.2716 206.784 26.2716 208.064ZM23.4156 207.2C23.3996 206.192 23.0396 205.384 22.3356 204.776C21.6316 204.168 20.7596 203.864 19.7196 203.864C18.7756 203.864 17.9676 204.168 17.2956 204.776C16.6236 205.368 16.2236 206.176 16.0956 207.2H23.4156ZM41.0841 208.064C41.0841 208.56 41.0521 209.008 40.9881 209.408H30.8841C30.9641 210.464 31.3561 211.312 32.0601 211.952C32.7641 212.592 33.6281 212.912 34.6521 212.912C36.1241 212.912 37.1641 212.296 37.7721 211.064H40.7241C40.3241 212.28 39.5961 213.28 38.5401 214.064C37.5001 214.832 36.2041 215.216 34.6521 215.216C33.3881 215.216 32.2521 214.936 31.2441 214.376C30.2521 213.8 29.4681 213 28.8921 211.976C28.3321 210.936 28.0521 209.736 28.0521 208.376C28.0521 207.016 28.3241 205.824 28.8681 204.8C29.4281 203.76 30.2041 202.96 31.1961 202.4C32.2041 201.84 33.3561 201.56 34.6521 201.56C35.9001 201.56 37.0121 201.832 37.9881 202.376C38.9641 202.92 39.7241 203.688 40.2681 204.68C40.8121 205.656 41.0841 206.784 41.0841 208.064ZM38.2281 207.2C38.2121 206.192 37.8521 205.384 37.1481 204.776C36.4441 204.168 35.5721 203.864 34.5321 203.864C33.5881 203.864 32.7801 204.168 32.1081 204.776C31.4361 205.368 31.0361 206.176 30.9081 207.2H38.2281ZM42.8646 208.328C42.8646 207 43.1366 205.824 43.6806 204.8C44.2406 203.776 44.9926 202.984 45.9366 202.424C46.8966 201.848 47.9606 201.56 49.1286 201.56C49.9926 201.56 50.8406 201.752 51.6726 202.136C52.5206 202.504 53.1926 203 53.6886 203.624V197.24H56.4486V215H53.6886V213.008C53.2406 213.648 52.6166 214.176 51.8166 214.592C51.0326 215.008 50.1286 215.216 49.1046 215.216C47.9526 215.216 46.8966 214.928 45.9366 214.352C44.9926 213.76 44.2406 212.944 43.6806 211.904C43.1366 210.848 42.8646 209.656 42.8646 208.328ZM53.6886 208.376C53.6886 207.464 53.4966 206.672 53.1126 206C52.7446 205.328 52.2566 204.816 51.6486 204.464C51.0406 204.112 50.3846 203.936 49.6806 203.936C48.9766 203.936 48.3206 204.112 47.7126 204.464C47.1046 204.8 46.6086 205.304 46.2246 205.976C45.8566 206.632 45.6726 207.416 45.6726 208.328C45.6726 209.24 45.8566 210.04 46.2246 210.728C46.6086 211.416 47.1046 211.944 47.7126 212.312C48.3366 212.664 48.9926 212.84 49.6806 212.84C50.3846 212.84 51.0406 212.664 51.6486 212.312C52.2566 211.96 52.7446 211.448 53.1126 210.776C53.4966 210.088 53.6886 209.288 53.6886 208.376ZM62.7782 203.744C63.2422 203.104 63.8742 202.584 64.6742 202.184C65.4902 201.768 66.3942 201.56 67.3862 201.56C68.5542 201.56 69.6102 201.84 70.5542 202.4C71.4982 202.96 72.2422 203.76 72.7862 204.8C73.3302 205.824 73.6022 207 73.6022 208.328C73.6022 209.656 73.3302 210.848 72.7862 211.904C72.2422 212.944 71.4902 213.76 70.5302 214.352C69.5862 214.928 68.5382 215.216 67.3862 215.216C66.3622 215.216 65.4502 215.016 64.6502 214.616C63.8662 214.216 63.2422 213.704 62.7782 213.08V215H60.0422V197.24H62.7782V203.744ZM70.8182 208.328C70.8182 207.416 70.6262 206.632 70.2422 205.976C69.8742 205.304 69.3782 204.8 68.7542 204.464C68.1462 204.112 67.4902 203.936 66.7862 203.936C66.0982 203.936 65.4422 204.112 64.8182 204.464C64.2102 204.816 63.7142 205.328 63.3302 206C62.9622 206.672 62.7782 207.464 62.7782 208.376C62.7782 209.288 62.9622 210.088 63.3302 210.776C63.7142 211.448 64.2102 211.96 64.8182 212.312C65.4422 212.664 66.0982 212.84 66.7862 212.84C67.4902 212.84 68.1462 212.664 68.7542 212.312C69.3782 211.944 69.8742 211.416 70.2422 210.728C70.6262 210.04 70.8182 209.24 70.8182 208.328ZM75.3958 208.328C75.3958 207 75.6678 205.824 76.2118 204.8C76.7718 203.776 77.5238 202.984 78.4678 202.424C79.4278 201.848 80.4838 201.56 81.6358 201.56C82.6758 201.56 83.5798 201.768 84.3478 202.184C85.1318 202.584 85.7558 203.088 86.2198 203.696V201.776H88.9798V215H86.2198V213.032C85.7558 213.656 85.1238 214.176 84.3238 214.592C83.5238 215.008 82.6118 215.216 81.5878 215.216C80.4518 215.216 79.4118 214.928 78.4678 214.352C77.5238 213.76 76.7718 212.944 76.2118 211.904C75.6678 210.848 75.3958 209.656 75.3958 208.328ZM86.2198 208.376C86.2198 207.464 86.0278 206.672 85.6438 206C85.2758 205.328 84.7878 204.816 84.1798 204.464C83.5718 204.112 82.9158 203.936 82.2118 203.936C81.5078 203.936 80.8518 204.112 80.2438 204.464C79.6358 204.8 79.1398 205.304 78.7558 205.976C78.3878 206.632 78.2038 207.416 78.2038 208.328C78.2038 209.24 78.3878 210.04 78.7558 210.728C79.1398 211.416 79.6358 211.944 80.2438 212.312C80.8678 212.664 81.5238 212.84 82.2118 212.84C82.9158 212.84 83.5718 212.664 84.1798 212.312C84.7878 211.96 85.2758 211.448 85.6438 210.776C86.0278 210.088 86.2198 209.288 86.2198 208.376ZM91.6614 208.376C91.6614 207.016 91.9334 205.824 92.4774 204.8C93.0374 203.76 93.8054 202.96 94.7814 202.4C95.7574 201.84 96.8774 201.56 98.1414 201.56C99.7414 201.56 101.061 201.944 102.101 202.712C103.157 203.464 103.869 204.544 104.237 205.952H101.285C101.045 205.296 100.661 204.784 100.133 204.416C99.6054 204.048 98.9414 203.864 98.1414 203.864C97.0214 203.864 96.1254 204.264 95.4534 205.064C94.7974 205.848 94.4694 206.952 94.4694 208.376C94.4694 209.8 94.7974 210.912 95.4534 211.712C96.1254 212.512 97.0214 212.912 98.1414 212.912C99.7254 212.912 100.773 212.216 101.285 210.824H104.237C103.853 212.168 103.133 213.24 102.077 214.04C101.021 214.824 99.7094 215.216 98.1414 215.216C96.8774 215.216 95.7574 214.936 94.7814 214.376C93.8054 213.8 93.0374 213 92.4774 211.976C91.9334 210.936 91.6614 209.736 91.6614 208.376ZM112.196 208.4L118.292 215H114.596L109.7 209.312V215H106.964V197.24H109.7V207.56L114.5 201.776H118.292L112.196 208.4Z" fill="#D4C0D6"/>
<path d="M42.9 112.78L29 112.78L29 110.5L42.9 110.5L42.9 112.78ZM40.2 121.333C40.2 122.2 40.02 122.973 39.66 123.653C39.3 124.347 38.7667 124.887 38.06 125.273C37.3533 125.66 36.5 125.853 35.5 125.853L29 125.853L29 123.593L35.16 123.593C36.1467 123.593 36.9 123.347 37.42 122.853C37.9533 122.36 38.22 121.687 38.22 120.833C38.22 119.98 37.9533 119.3 37.42 118.793C36.9 118.3 36.1467 118.053 35.16 118.053L29 118.053L29 115.773L40.02 115.773L40.02 118.053L38.76 118.053C39.2133 118.427 39.5667 118.9 39.82 119.473C40.0733 120.06 40.2 120.68 40.2 121.333ZM28.82 132.762C28.82 131.895 28.9733 131.115 29.28 130.422C29.6 129.742 30.0267 129.202 30.56 128.802C31.1067 128.402 31.7133 128.188 32.38 128.162L32.38 130.522C31.9133 130.562 31.52 130.782 31.2 131.182C30.8933 131.595 30.74 132.108 30.74 132.722C30.74 133.362 30.86 133.855 31.1 134.202C31.3533 134.562 31.6733 134.742 32.06 134.742C32.4733 134.742 32.78 134.542 32.98 134.142C33.18 133.755 33.4 133.135 33.64 132.282C33.8667 131.455 34.0867 130.782 34.3 130.262C34.5133 129.742 34.84 129.288 35.28 128.902C35.72 128.528 36.3 128.342 37.02 128.342C37.6067 128.342 38.14 128.515 38.62 128.862C39.1133 129.208 39.5 129.702 39.78 130.342C40.06 130.995 40.2 131.742 40.2 132.582C40.2 133.835 39.88 134.842 39.24 135.602C38.6133 136.375 37.7533 136.788 36.66 136.842L36.66 134.562C37.1533 134.522 37.5467 134.322 37.84 133.962C38.1333 133.602 38.28 133.115 38.28 132.502C38.28 131.902 38.1667 131.442 37.94 131.122C37.7133 130.802 37.4133 130.642 37.04 130.642C36.7467 130.642 36.5 130.748 36.3 130.962C36.1 131.175 35.94 131.435 35.82 131.742C35.7133 132.048 35.5733 132.502 35.4 133.102C35.1867 133.902 34.9667 134.555 34.74 135.062C34.5267 135.582 34.2067 136.028 33.78 136.402C33.3533 136.775 32.7867 136.968 32.08 136.982C31.4533 136.982 30.8933 136.808 30.4 136.462C29.9067 136.115 29.52 135.622 29.24 134.982C28.96 134.355 28.82 133.615 28.82 132.762ZM41.48 140.605C41.48 140.192 41.62 139.845 41.9 139.565C42.18 139.285 42.5267 139.145 42.94 139.145C43.3533 139.145 43.7 139.285 43.98 139.565C44.26 139.845 44.4 140.192 44.4 140.605C44.4 141.005 44.26 141.345 43.98 141.625C43.7 141.905 43.3533 142.045 42.94 142.045C42.5267 142.045 42.18 141.905 41.9 141.625C41.62 141.345 41.48 141.005 41.48 140.605ZM40.02 141.725L29 141.725L29 139.445L40.02 139.445L40.02 141.725ZM40.2 149.159C40.2 150.012 40.0267 150.765 39.68 151.419C39.3467 152.085 38.9267 152.605 38.42 152.979L40.02 152.979L40.02 155.279L28.82 155.279C27.8067 155.279 26.9067 155.065 26.12 154.639C25.32 154.212 24.6933 153.592 24.24 152.779C23.7867 151.979 23.56 151.019 23.56 149.899C23.56 148.405 23.9133 147.165 24.62 146.179C25.3133 145.192 26.26 144.632 27.46 144.499L27.46 146.759C26.8867 146.932 26.4267 147.299 26.08 147.859C25.72 148.432 25.54 149.112 25.54 149.899C25.54 150.819 25.82 151.559 26.38 152.119C26.94 152.692 27.7533 152.979 28.82 152.979L30.66 152.979C30.14 152.592 29.7 152.065 29.34 151.399C28.9933 150.745 28.82 149.999 28.82 149.159C28.82 148.199 29.06 147.319 29.54 146.519C30.0333 145.732 30.7133 145.105 31.58 144.639C32.46 144.185 33.4533 143.959 34.56 143.959C35.6667 143.959 36.6467 144.185 37.5 144.639C38.3533 145.105 39.0133 145.732 39.48 146.519C39.96 147.319 40.2 148.199 40.2 149.159ZM34.52 152.979C35.28 152.979 35.94 152.819 36.5 152.499C37.06 152.192 37.4867 151.785 37.78 151.279C38.0733 150.772 38.22 150.225 38.22 149.639C38.22 149.052 38.0733 148.505 37.78 147.999C37.5 147.492 37.08 147.079 36.52 146.759C35.9733 146.452 35.32 146.299 34.56 146.299C33.8 146.299 33.1333 146.452 32.56 146.759C31.9867 147.079 31.5467 147.492 31.24 147.999C30.9467 148.519 30.8 149.065 30.8 149.639C30.8 150.225 30.9467 150.772 31.24 151.279C31.5333 151.785 31.96 152.192 32.52 152.499C33.0933 152.819 33.76 152.979 34.52 152.979ZM40.2 163.973C40.2 164.813 40.02 165.56 39.66 166.213C39.3 166.88 38.7667 167.4 38.06 167.773C37.3533 168.16 36.5 168.353 35.5 168.353L29 168.353L29 166.093L35.16 166.093C36.1467 166.093 36.9 165.847 37.42 165.353C37.9533 164.86 38.22 164.187 38.22 163.333C38.22 162.48 37.9533 161.8 37.42 161.293C36.9 160.8 36.1467 160.553 35.16 160.553L29 160.553L29 158.273L43.8 158.273L43.8 160.553L38.74 160.553C39.2067 160.94 39.5667 161.427 39.82 162.013C40.0733 162.613 40.2 163.267 40.2 163.973ZM38.16 173.922L32.06 173.922C31.6467 173.922 31.3467 174.015 31.16 174.202C30.9867 174.402 30.9 174.735 30.9 175.202L30.9 176.602L29 176.602L29 174.802C29 173.775 29.24 172.988 29.72 172.442C30.2 171.895 30.98 171.622 32.06 171.622L38.16 171.622L38.16 170.322L40.02 170.322L40.02 171.622L42.76 171.622L42.76 173.922L40.02 173.922L40.02 176.602L38.16 176.602L38.16 173.922ZM28.82 182.703C28.82 181.836 28.9733 181.056 29.28 180.363C29.6 179.683 30.0267 179.143 30.56 178.743C31.1067 178.343 31.7133 178.13 32.38 178.103L32.38 180.463C31.9133 180.503 31.52 180.723 31.2 181.123C30.8933 181.536 30.74 182.05 30.74 182.663C30.74 183.303 30.86 183.796 31.1 184.143C31.3533 184.503 31.6733 184.683 32.06 184.683C32.4733 184.683 32.78 184.483 32.98 184.083C33.18 183.696 33.4 183.076 33.64 182.223C33.8667 181.396 34.0867 180.723 34.3 180.203C34.5133 179.683 34.84 179.23 35.28 178.843C35.72 178.47 36.3 178.283 37.02 178.283C37.6067 178.283 38.14 178.456 38.62 178.803C39.1133 179.15 39.5 179.643 39.78 180.283C40.06 180.936 40.2 181.683 40.2 182.523C40.2 183.776 39.88 184.783 39.24 185.543C38.6133 186.316 37.7533 186.73 36.66 186.783L36.66 184.503C37.1533 184.463 37.5467 184.263 37.84 183.903C38.1333 183.543 38.28 183.056 38.28 182.443C38.28 181.843 38.1667 181.383 37.94 181.063C37.7133 180.743 37.4133 180.583 37.04 180.583C36.7467 180.583 36.5 180.69 36.3 180.903C36.1 181.116 35.94 181.376 35.82 181.683C35.7133 181.99 35.5733 182.443 35.4 183.043C35.1867 183.843 34.9667 184.496 34.74 185.003C34.5267 185.523 34.2067 185.97 33.78 186.343C33.3533 186.716 32.7867 186.91 32.08 186.923C31.4533 186.923 30.8933 186.75 30.4 186.403C29.9067 186.056 29.52 185.563 29.24 184.923C28.96 184.296 28.82 183.556 28.82 182.703Z" fill="#D4C0D6"/>
<path d="M92.295 165.785C92.295 163.405 92.8433 161.27 93.94 159.38C95.06 157.49 96.565 156.02 98.455 154.97C100.368 153.897 102.457 153.36 104.72 153.36C107.31 153.36 109.608 154.002 111.615 155.285C113.645 156.545 115.115 158.342 116.025 160.675H111.23C110.6 159.392 109.725 158.435 108.605 157.805C107.485 157.175 106.19 156.86 104.72 156.86C103.11 156.86 101.675 157.222 100.415 157.945C99.155 158.668 98.1633 159.707 97.44 161.06C96.74 162.413 96.39 163.988 96.39 165.785C96.39 167.582 96.74 169.157 97.44 170.51C98.1633 171.863 99.155 172.913 100.415 173.66C101.675 174.383 103.11 174.745 104.72 174.745C106.19 174.745 107.485 174.43 108.605 173.8C109.725 173.17 110.6 172.213 111.23 170.93H116.025C115.115 173.263 113.645 175.06 111.615 176.32C109.608 177.58 107.31 178.21 104.72 178.21C102.433 178.21 100.345 177.685 98.455 176.635C96.565 175.562 95.06 174.08 93.94 172.19C92.8433 170.3 92.295 168.165 92.295 165.785ZM129.06 178.315C127.24 178.315 125.595 177.907 124.125 177.09C122.655 176.25 121.5 175.083 120.66 173.59C119.82 172.073 119.4 170.323 119.4 168.34C119.4 166.38 119.832 164.642 120.695 163.125C121.559 161.608 122.737 160.442 124.23 159.625C125.724 158.808 127.392 158.4 129.235 158.4C131.079 158.4 132.747 158.808 134.24 159.625C135.734 160.442 136.912 161.608 137.775 163.125C138.639 164.642 139.07 166.38 139.07 168.34C139.07 170.3 138.627 172.038 137.74 173.555C136.854 175.072 135.64 176.25 134.1 177.09C132.584 177.907 130.904 178.315 129.06 178.315ZM129.06 174.85C130.087 174.85 131.044 174.605 131.93 174.115C132.84 173.625 133.575 172.89 134.135 171.91C134.695 170.93 134.975 169.74 134.975 168.34C134.975 166.94 134.707 165.762 134.17 164.805C133.634 163.825 132.922 163.09 132.035 162.6C131.149 162.11 130.192 161.865 129.165 161.865C128.139 161.865 127.182 162.11 126.295 162.6C125.432 163.09 124.744 163.825 124.23 164.805C123.717 165.762 123.46 166.94 123.46 168.34C123.46 170.417 123.985 172.027 125.035 173.17C126.109 174.29 127.45 174.85 129.06 174.85ZM147.005 152.1V178H143.015V152.1H147.005ZM156.233 152.1V178H152.243V152.1H156.233ZM160.142 168.27C160.142 166.333 160.538 164.618 161.332 163.125C162.148 161.632 163.245 160.477 164.622 159.66C166.022 158.82 167.562 158.4 169.242 158.4C170.758 158.4 172.077 158.703 173.197 159.31C174.34 159.893 175.25 160.628 175.927 161.515V158.715H179.952V178H175.927V175.13C175.25 176.04 174.328 176.798 173.162 177.405C171.995 178.012 170.665 178.315 169.172 178.315C167.515 178.315 165.998 177.895 164.622 177.055C163.245 176.192 162.148 175.002 161.332 173.485C160.538 171.945 160.142 170.207 160.142 168.27ZM175.927 168.34C175.927 167.01 175.647 165.855 175.087 164.875C174.55 163.895 173.838 163.148 172.952 162.635C172.065 162.122 171.108 161.865 170.082 161.865C169.055 161.865 168.098 162.122 167.212 162.635C166.325 163.125 165.602 163.86 165.042 164.84C164.505 165.797 164.237 166.94 164.237 168.27C164.237 169.6 164.505 170.767 165.042 171.77C165.602 172.773 166.325 173.543 167.212 174.08C168.122 174.593 169.078 174.85 170.082 174.85C171.108 174.85 172.065 174.593 172.952 174.08C173.838 173.567 174.55 172.82 175.087 171.84C175.647 170.837 175.927 169.67 175.927 168.34ZM189.182 161.585C189.859 160.652 190.781 159.893 191.947 159.31C193.137 158.703 194.456 158.4 195.902 158.4C197.606 158.4 199.146 158.808 200.522 159.625C201.899 160.442 202.984 161.608 203.777 163.125C204.571 164.618 204.967 166.333 204.967 168.27C204.967 170.207 204.571 171.945 203.777 173.485C202.984 175.002 201.887 176.192 200.487 177.055C199.111 177.895 197.582 178.315 195.902 178.315C194.409 178.315 193.079 178.023 191.912 177.44C190.769 176.857 189.859 176.11 189.182 175.2V178H185.192V152.1H189.182V161.585ZM200.907 168.27C200.907 166.94 200.627 165.797 200.067 164.84C199.531 163.86 198.807 163.125 197.897 162.635C197.011 162.122 196.054 161.865 195.027 161.865C194.024 161.865 193.067 162.122 192.157 162.635C191.271 163.148 190.547 163.895 189.987 164.875C189.451 165.855 189.182 167.01 189.182 168.34C189.182 169.67 189.451 170.837 189.987 171.84C190.547 172.82 191.271 173.567 192.157 174.08C193.067 174.593 194.024 174.85 195.027 174.85C196.054 174.85 197.011 174.593 197.897 174.08C198.807 173.543 199.531 172.773 200.067 171.77C200.627 170.767 200.907 169.6 200.907 168.27ZM217.278 178.315C215.458 178.315 213.813 177.907 212.343 177.09C210.873 176.25 209.718 175.083 208.878 173.59C208.038 172.073 207.618 170.323 207.618 168.34C207.618 166.38 208.05 164.642 208.913 163.125C209.776 161.608 210.955 160.442 212.448 159.625C213.941 158.808 215.61 158.4 217.453 158.4C219.296 158.4 220.965 158.808 222.458 159.625C223.951 160.442 225.13 161.608 225.993 163.125C226.856 164.642 227.288 166.38 227.288 168.34C227.288 170.3 226.845 172.038 225.958 173.555C225.071 175.072 223.858 176.25 222.318 177.09C220.801 177.907 219.121 178.315 217.278 178.315ZM217.278 174.85C218.305 174.85 219.261 174.605 220.148 174.115C221.058 173.625 221.793 172.89 222.353 171.91C222.913 170.93 223.193 169.74 223.193 168.34C223.193 166.94 222.925 165.762 222.388 164.805C221.851 163.825 221.14 163.09 220.253 162.6C219.366 162.11 218.41 161.865 217.383 161.865C216.356 161.865 215.4 162.11 214.513 162.6C213.65 163.09 212.961 163.825 212.448 164.805C211.935 165.762 211.678 166.94 211.678 168.34C211.678 170.417 212.203 172.027 213.253 173.17C214.326 174.29 215.668 174.85 217.278 174.85ZM235.222 161.515C235.806 160.535 236.576 159.777 237.532 159.24C238.512 158.68 239.667 158.4 240.997 158.4V162.53H239.982C238.419 162.53 237.229 162.927 236.412 163.72C235.619 164.513 235.222 165.89 235.222 167.85V178H231.232V158.715H235.222V161.515ZM243.335 168.27C243.335 166.333 243.732 164.618 244.525 163.125C245.342 161.632 246.438 160.477 247.815 159.66C249.215 158.82 250.755 158.4 252.435 158.4C253.952 158.4 255.27 158.703 256.39 159.31C257.533 159.893 258.443 160.628 259.12 161.515V158.715H263.145V178H259.12V175.13C258.443 176.04 257.522 176.798 256.355 177.405C255.188 178.012 253.858 178.315 252.365 178.315C250.708 178.315 249.192 177.895 247.815 177.055C246.438 176.192 245.342 175.002 244.525 173.485C243.732 171.945 243.335 170.207 243.335 168.27ZM259.12 168.34C259.12 167.01 258.84 165.855 258.28 164.875C257.743 163.895 257.032 163.148 256.145 162.635C255.258 162.122 254.302 161.865 253.275 161.865C252.248 161.865 251.292 162.122 250.405 162.635C249.518 163.125 248.795 163.86 248.235 164.84C247.698 165.797 247.43 166.94 247.43 168.27C247.43 169.6 247.698 170.767 248.235 171.77C248.795 172.773 249.518 173.543 250.405 174.08C251.315 174.593 252.272 174.85 253.275 174.85C254.302 174.85 255.258 174.593 256.145 174.08C257.032 173.567 257.743 172.82 258.28 171.84C258.84 170.837 259.12 169.67 259.12 168.34ZM273.041 161.97V172.645C273.041 173.368 273.204 173.893 273.531 174.22C273.881 174.523 274.464 174.675 275.281 174.675H277.731V178H274.581C272.784 178 271.407 177.58 270.451 176.74C269.494 175.9 269.016 174.535 269.016 172.645V161.97H266.741V158.715H269.016V153.92H273.041V158.715H277.731V161.97H273.041ZM283.438 156.16C282.715 156.16 282.108 155.915 281.618 155.425C281.128 154.935 280.883 154.328 280.883 153.605C280.883 152.882 281.128 152.275 281.618 151.785C282.108 151.295 282.715 151.05 283.438 151.05C284.138 151.05 284.733 151.295 285.223 151.785C285.713 152.275 285.958 152.882 285.958 153.605C285.958 154.328 285.713 154.935 285.223 155.425C284.733 155.915 284.138 156.16 283.438 156.16ZM285.398 158.715V178H281.408V158.715H285.398ZM299.002 178.315C297.182 178.315 295.537 177.907 294.067 177.09C292.597 176.25 291.442 175.083 290.602 173.59C289.762 172.073 289.342 170.323 289.342 168.34C289.342 166.38 289.773 164.642 290.637 163.125C291.5 161.608 292.678 160.442 294.172 159.625C295.665 158.808 297.333 158.4 299.177 158.4C301.02 158.4 302.688 158.808 304.182 159.625C305.675 160.442 306.853 161.608 307.717 163.125C308.58 164.642 309.012 166.38 309.012 168.34C309.012 170.3 308.568 172.038 307.682 173.555C306.795 175.072 305.582 176.25 304.042 177.09C302.525 177.907 300.845 178.315 299.002 178.315ZM299.002 174.85C300.028 174.85 300.985 174.605 301.872 174.115C302.782 173.625 303.517 172.89 304.077 171.91C304.637 170.93 304.917 169.74 304.917 168.34C304.917 166.94 304.648 165.762 304.112 164.805C303.575 163.825 302.863 163.09 301.977 162.6C301.09 162.11 300.133 161.865 299.107 161.865C298.08 161.865 297.123 162.11 296.237 162.6C295.373 163.09 294.685 163.825 294.172 164.805C293.658 165.762 293.402 166.94 293.402 168.34C293.402 170.417 293.927 172.027 294.977 173.17C296.05 174.29 297.392 174.85 299.002 174.85ZM322.686 158.4C324.203 158.4 325.556 158.715 326.746 159.345C327.959 159.975 328.904 160.908 329.581 162.145C330.258 163.382 330.596 164.875 330.596 166.625V178H326.641V167.22C326.641 165.493 326.209 164.175 325.346 163.265C324.483 162.332 323.304 161.865 321.811 161.865C320.318 161.865 319.128 162.332 318.241 163.265C317.378 164.175 316.946 165.493 316.946 167.22V178H312.956V158.715H316.946V160.92C317.599 160.127 318.428 159.508 319.431 159.065C320.458 158.622 321.543 158.4 322.686 158.4Z" fill="#A6EC99"/>
<path d="M239.024 125.352V128.616H242.864V130.104H239.024V133.512H243.344V135H237.2V123.864H243.344V125.352H239.024ZM250.039 126.04C250.732 126.04 251.351 126.184 251.895 126.472C252.449 126.76 252.881 127.187 253.191 127.752C253.5 128.317 253.655 129 253.655 129.8V135H251.847V130.072C251.847 129.283 251.649 128.68 251.255 128.264C250.86 127.837 250.321 127.624 249.639 127.624C248.956 127.624 248.412 127.837 248.007 128.264C247.612 128.68 247.415 129.283 247.415 130.072V135H245.591V126.184H247.415V127.192C247.713 126.829 248.092 126.547 248.551 126.344C249.02 126.141 249.516 126.04 250.039 126.04ZM259.533 126.04C260.216 126.04 260.819 126.179 261.341 126.456C261.875 126.723 262.291 127.059 262.589 127.464V126.184H264.429V135.144C264.429 135.955 264.259 136.675 263.917 137.304C263.576 137.944 263.08 138.445 262.429 138.808C261.789 139.171 261.021 139.352 260.125 139.352C258.931 139.352 257.939 139.069 257.149 138.504C256.36 137.949 255.912 137.192 255.805 136.232H257.613C257.752 136.691 258.045 137.059 258.493 137.336C258.952 137.624 259.496 137.768 260.125 137.768C260.861 137.768 261.453 137.544 261.901 137.096C262.36 136.648 262.589 135.997 262.589 135.144V133.672C262.28 134.088 261.859 134.44 261.325 134.728C260.803 135.005 260.205 135.144 259.533 135.144C258.765 135.144 258.061 134.952 257.421 134.568C256.792 134.173 256.291 133.629 255.917 132.936C255.555 132.232 255.373 131.437 255.373 130.552C255.373 129.667 255.555 128.883 255.917 128.2C256.291 127.517 256.792 126.989 257.421 126.616C258.061 126.232 258.765 126.04 259.533 126.04ZM262.589 130.584C262.589 129.976 262.461 129.448 262.205 129C261.96 128.552 261.635 128.211 261.229 127.976C260.824 127.741 260.387 127.624 259.917 127.624C259.448 127.624 259.011 127.741 258.605 127.976C258.2 128.2 257.869 128.536 257.613 128.984C257.368 129.421 257.245 129.944 257.245 130.552C257.245 131.16 257.368 131.693 257.613 132.152C257.869 132.611 258.2 132.963 258.605 133.208C259.021 133.443 259.459 133.56 259.917 133.56C260.387 133.56 260.824 133.443 261.229 133.208C261.635 132.973 261.96 132.632 262.205 132.184C262.461 131.725 262.589 131.192 262.589 130.584ZM266.217 130.552C266.217 129.667 266.398 128.883 266.761 128.2C267.134 127.517 267.636 126.989 268.265 126.616C268.905 126.232 269.609 126.04 270.377 126.04C271.07 126.04 271.673 126.179 272.185 126.456C272.708 126.723 273.124 127.059 273.433 127.464V126.184H275.273V135H273.433V133.688C273.124 134.104 272.702 134.451 272.169 134.728C271.636 135.005 271.028 135.144 270.345 135.144C269.588 135.144 268.894 134.952 268.265 134.568C267.636 134.173 267.134 133.629 266.761 132.936C266.398 132.232 266.217 131.437 266.217 130.552ZM273.433 130.584C273.433 129.976 273.305 129.448 273.049 129C272.804 128.552 272.478 128.211 272.073 127.976C271.668 127.741 271.23 127.624 270.761 127.624C270.292 127.624 269.854 127.741 269.449 127.976C269.044 128.2 268.713 128.536 268.457 128.984C268.212 129.421 268.089 129.944 268.089 130.552C268.089 131.16 268.212 131.693 268.457 132.152C268.713 132.611 269.044 132.963 269.449 133.208C269.865 133.443 270.302 133.56 270.761 133.56C271.23 133.56 271.668 133.443 272.073 133.208C272.478 132.973 272.804 132.632 273.049 132.184C273.305 131.725 273.433 131.192 273.433 130.584ZM281.221 126.04C281.903 126.04 282.506 126.179 283.029 126.456C283.562 126.723 283.978 127.059 284.277 127.464V126.184H286.117V135.144C286.117 135.955 285.946 136.675 285.605 137.304C285.263 137.944 284.767 138.445 284.117 138.808C283.477 139.171 282.709 139.352 281.813 139.352C280.618 139.352 279.626 139.069 278.837 138.504C278.047 137.949 277.599 137.192 277.493 136.232H279.301C279.439 136.691 279.733 137.059 280.181 137.336C280.639 137.624 281.183 137.768 281.813 137.768C282.549 137.768 283.141 137.544 283.589 137.096C284.047 136.648 284.277 135.997 284.277 135.144V133.672C283.967 134.088 283.546 134.44 283.013 134.728C282.49 135.005 281.893 135.144 281.221 135.144C280.453 135.144 279.749 134.952 279.109 134.568C278.479 134.173 277.978 133.629 277.605 132.936C277.242 132.232 277.061 131.437 277.061 130.552C277.061 129.667 277.242 128.883 277.605 128.2C277.978 127.517 278.479 126.989 279.109 126.616C279.749 126.232 280.453 126.04 281.221 126.04ZM284.277 130.584C284.277 129.976 284.149 129.448 283.893 129C283.647 128.552 283.322 128.211 282.917 127.976C282.511 127.741 282.074 127.624 281.605 127.624C281.135 127.624 280.698 127.741 280.293 127.976C279.887 128.2 279.557 128.536 279.301 128.984C279.055 129.421 278.933 129.944 278.933 130.552C278.933 131.16 279.055 131.693 279.301 132.152C279.557 132.611 279.887 132.963 280.293 133.208C280.709 133.443 281.146 133.56 281.605 133.56C282.074 133.56 282.511 133.443 282.917 133.208C283.322 132.973 283.647 132.632 283.893 132.184C284.149 131.725 284.277 131.192 284.277 130.584ZM296.593 130.376C296.593 130.707 296.571 131.005 296.529 131.272H289.793C289.846 131.976 290.107 132.541 290.577 132.968C291.046 133.395 291.622 133.608 292.305 133.608C293.286 133.608 293.979 133.197 294.385 132.376H296.352C296.086 133.187 295.601 133.853 294.897 134.376C294.203 134.888 293.339 135.144 292.305 135.144C291.462 135.144 290.705 134.957 290.033 134.584C289.371 134.2 288.849 133.667 288.465 132.984C288.091 132.291 287.905 131.491 287.905 130.584C287.905 129.677 288.086 128.883 288.449 128.2C288.822 127.507 289.339 126.973 290.001 126.6C290.673 126.227 291.441 126.04 292.305 126.04C293.137 126.04 293.878 126.221 294.529 126.584C295.179 126.947 295.686 127.459 296.049 128.12C296.411 128.771 296.593 129.523 296.593 130.376ZM294.689 129.8C294.678 129.128 294.438 128.589 293.969 128.184C293.499 127.779 292.918 127.576 292.225 127.576C291.595 127.576 291.057 127.779 290.609 128.184C290.161 128.579 289.894 129.117 289.809 129.8H294.689ZM309.06 126.04C309.753 126.04 310.372 126.184 310.916 126.472C311.47 126.76 311.902 127.187 312.212 127.752C312.532 128.317 312.692 129 312.692 129.8V135H310.884V130.072C310.884 129.283 310.686 128.68 310.292 128.264C309.897 127.837 309.358 127.624 308.676 127.624C307.993 127.624 307.449 127.837 307.044 128.264C306.649 128.68 306.452 129.283 306.452 130.072V135H304.644V130.072C304.644 129.283 304.446 128.68 304.052 128.264C303.657 127.837 303.118 127.624 302.436 127.624C301.753 127.624 301.209 127.837 300.804 128.264C300.409 128.68 300.212 129.283 300.212 130.072V135H298.388V126.184H300.212V127.192C300.51 126.829 300.889 126.547 301.348 126.344C301.806 126.141 302.297 126.04 302.82 126.04C303.524 126.04 304.153 126.189 304.708 126.488C305.262 126.787 305.689 127.219 305.988 127.784C306.254 127.251 306.67 126.829 307.236 126.52C307.801 126.2 308.409 126.04 309.06 126.04ZM323.093 130.376C323.093 130.707 323.071 131.005 323.029 131.272H316.293C316.346 131.976 316.607 132.541 317.077 132.968C317.546 133.395 318.122 133.608 318.805 133.608C319.786 133.608 320.479 133.197 320.885 132.376H322.852C322.586 133.187 322.101 133.853 321.397 134.376C320.703 134.888 319.839 135.144 318.805 135.144C317.962 135.144 317.205 134.957 316.533 134.584C315.871 134.2 315.349 133.667 314.965 132.984C314.591 132.291 314.405 131.491 314.405 130.584C314.405 129.677 314.586 128.883 314.949 128.2C315.322 127.507 315.839 126.973 316.501 126.6C317.173 126.227 317.941 126.04 318.805 126.04C319.637 126.04 320.378 126.221 321.029 126.584C321.679 126.947 322.186 127.459 322.549 128.12C322.911 128.771 323.093 129.523 323.093 130.376ZM321.189 129.8C321.178 129.128 320.938 128.589 320.469 128.184C319.999 127.779 319.418 127.576 318.725 127.576C318.095 127.576 317.557 127.779 317.109 128.184C316.661 128.579 316.394 129.117 316.309 129.8H321.189ZM329.336 126.04C330.029 126.04 330.648 126.184 331.192 126.472C331.746 126.76 332.178 127.187 332.488 127.752C332.797 128.317 332.952 129 332.952 129.8V135H331.144V130.072C331.144 129.283 330.946 128.68 330.552 128.264C330.157 127.837 329.618 127.624 328.936 127.624C328.253 127.624 327.709 127.837 327.304 128.264C326.909 128.68 326.712 129.283 326.712 130.072V135H324.888V126.184H326.712V127.192C327.01 126.829 327.389 126.547 327.848 126.344C328.317 126.141 328.813 126.04 329.336 126.04ZM337.406 127.672V132.552C337.406 132.883 337.481 133.123 337.63 133.272C337.79 133.411 338.057 133.48 338.43 133.48H339.55V135H338.11C337.289 135 336.659 134.808 336.222 134.424C335.785 134.04 335.566 133.416 335.566 132.552V127.672H334.526V126.184H335.566V123.992H337.406V126.184H339.55V127.672H337.406Z" fill="#F4B9C2"/>
<path d="M90.04 110.1C91.52 110.1 92.8133 110.387 93.92 110.96C95.04 111.52 95.9 112.333 96.5 113.4C97.1133 114.453 97.42 115.687 97.42 117.1C97.42 118.513 97.1133 119.74 96.5 120.78C95.9 121.82 95.04 122.62 93.92 123.18C92.8133 123.727 91.52 124 90.04 124H85.5V110.1H90.04ZM90.04 122.14C91.6667 122.14 92.9133 121.7 93.78 120.82C94.6467 119.94 95.08 118.7 95.08 117.1C95.08 115.487 94.6467 114.227 93.78 113.32C92.9133 112.413 91.6667 111.96 90.04 111.96H87.78V122.14H90.04ZM100.84 111.52C100.426 111.52 100.08 111.38 99.7997 111.1C99.5197 110.82 99.3797 110.473 99.3797 110.06C99.3797 109.647 99.5197 109.3 99.7997 109.02C100.08 108.74 100.426 108.6 100.84 108.6C101.24 108.6 101.58 108.74 101.86 109.02C102.14 109.3 102.28 109.647 102.28 110.06C102.28 110.473 102.14 110.82 101.86 111.1C101.58 111.38 101.24 111.52 100.84 111.52ZM101.96 112.98V124H99.6797V112.98H101.96ZM108.953 124.18C108.086 124.18 107.306 124.027 106.613 123.72C105.933 123.4 105.393 122.973 104.993 122.44C104.593 121.893 104.38 121.287 104.353 120.62H106.713C106.753 121.087 106.973 121.48 107.373 121.8C107.786 122.107 108.3 122.26 108.913 122.26C109.553 122.26 110.046 122.14 110.393 121.9C110.753 121.647 110.933 121.327 110.933 120.94C110.933 120.527 110.733 120.22 110.333 120.02C109.946 119.82 109.326 119.6 108.473 119.36C107.646 119.133 106.973 118.913 106.453 118.7C105.933 118.487 105.48 118.16 105.093 117.72C104.72 117.28 104.533 116.7 104.533 115.98C104.533 115.393 104.706 114.86 105.053 114.38C105.4 113.887 105.893 113.5 106.533 113.22C107.186 112.94 107.933 112.8 108.773 112.8C110.026 112.8 111.033 113.12 111.793 113.76C112.566 114.387 112.98 115.247 113.033 116.34H110.753C110.713 115.847 110.513 115.453 110.153 115.16C109.793 114.867 109.306 114.72 108.693 114.72C108.093 114.72 107.633 114.833 107.313 115.06C106.993 115.287 106.833 115.587 106.833 115.96C106.833 116.253 106.94 116.5 107.153 116.7C107.366 116.9 107.626 117.06 107.933 117.18C108.24 117.287 108.693 117.427 109.293 117.6C110.093 117.813 110.746 118.033 111.253 118.26C111.773 118.473 112.22 118.793 112.593 119.22C112.966 119.647 113.16 120.213 113.173 120.92C113.173 121.547 113 122.107 112.653 122.6C112.306 123.093 111.813 123.48 111.173 123.76C110.546 124.04 109.806 124.18 108.953 124.18ZM114.877 118.48C114.877 117.347 115.103 116.353 115.557 115.5C116.023 114.633 116.663 113.967 117.477 113.5C118.29 113.033 119.223 112.8 120.277 112.8C121.61 112.8 122.71 113.12 123.577 113.76C124.457 114.387 125.05 115.287 125.357 116.46H122.897C122.697 115.913 122.377 115.487 121.937 115.18C121.497 114.873 120.943 114.72 120.277 114.72C119.343 114.72 118.597 115.053 118.037 115.72C117.49 116.373 117.217 117.293 117.217 118.48C117.217 119.667 117.49 120.593 118.037 121.26C118.597 121.927 119.343 122.26 120.277 122.26C121.597 122.26 122.47 121.68 122.897 120.52H125.357C125.037 121.64 124.437 122.533 123.557 123.2C122.677 123.853 121.583 124.18 120.277 124.18C119.223 124.18 118.29 123.947 117.477 123.48C116.663 123 116.023 122.333 115.557 121.48C115.103 120.613 114.877 119.613 114.877 118.48ZM137.609 112.98V124H135.329V122.7C134.969 123.153 134.496 123.513 133.909 123.78C133.336 124.033 132.722 124.16 132.069 124.16C131.202 124.16 130.422 123.98 129.729 123.62C129.049 123.26 128.509 122.727 128.109 122.02C127.722 121.313 127.529 120.46 127.529 119.46V112.98H129.789V119.12C129.789 120.107 130.036 120.867 130.529 121.4C131.022 121.92 131.696 122.18 132.549 122.18C133.402 122.18 134.076 121.92 134.569 121.4C135.076 120.867 135.329 120.107 135.329 119.12V112.98H137.609ZM144.617 124.18C143.751 124.18 142.971 124.027 142.277 123.72C141.597 123.4 141.057 122.973 140.657 122.44C140.257 121.893 140.044 121.287 140.017 120.62H142.377C142.417 121.087 142.637 121.48 143.037 121.8C143.451 122.107 143.964 122.26 144.577 122.26C145.217 122.26 145.711 122.14 146.057 121.9C146.417 121.647 146.597 121.327 146.597 120.94C146.597 120.527 146.397 120.22 145.997 120.02C145.611 119.82 144.991 119.6 144.137 119.36C143.311 119.133 142.637 118.913 142.117 118.7C141.597 118.487 141.144 118.16 140.757 117.72C140.384 117.28 140.197 116.7 140.197 115.98C140.197 115.393 140.371 114.86 140.717 114.38C141.064 113.887 141.557 113.5 142.197 113.22C142.851 112.94 143.597 112.8 144.437 112.8C145.691 112.8 146.697 113.12 147.457 113.76C148.231 114.387 148.644 115.247 148.697 116.34H146.417C146.377 115.847 146.177 115.453 145.817 115.16C145.457 114.867 144.971 114.72 144.357 114.72C143.757 114.72 143.297 114.833 142.977 115.06C142.657 115.287 142.497 115.587 142.497 115.96C142.497 116.253 142.604 116.5 142.817 116.7C143.031 116.9 143.291 117.06 143.597 117.18C143.904 117.287 144.357 117.427 144.957 117.6C145.757 117.813 146.411 118.033 146.917 118.26C147.437 118.473 147.884 118.793 148.257 119.22C148.631 119.647 148.824 120.213 148.837 120.92C148.837 121.547 148.664 122.107 148.317 122.6C147.971 123.093 147.477 123.48 146.837 123.76C146.211 124.04 145.471 124.18 144.617 124.18ZM155.301 124.18C154.434 124.18 153.654 124.027 152.961 123.72C152.281 123.4 151.741 122.973 151.341 122.44C150.941 121.893 150.727 121.287 150.701 120.62H153.061C153.101 121.087 153.321 121.48 153.721 121.8C154.134 122.107 154.647 122.26 155.261 122.26C155.901 122.26 156.394 122.14 156.741 121.9C157.101 121.647 157.281 121.327 157.281 120.94C157.281 120.527 157.081 120.22 156.681 120.02C156.294 119.82 155.674 119.6 154.821 119.36C153.994 119.133 153.321 118.913 152.801 118.7C152.281 118.487 151.827 118.16 151.441 117.72C151.067 117.28 150.881 116.7 150.881 115.98C150.881 115.393 151.054 114.86 151.401 114.38C151.747 113.887 152.241 113.5 152.881 113.22C153.534 112.94 154.281 112.8 155.121 112.8C156.374 112.8 157.381 113.12 158.141 113.76C158.914 114.387 159.327 115.247 159.381 116.34H157.101C157.061 115.847 156.861 115.453 156.501 115.16C156.141 114.867 155.654 114.72 155.041 114.72C154.441 114.72 153.981 114.833 153.661 115.06C153.341 115.287 153.181 115.587 153.181 115.96C153.181 116.253 153.287 116.5 153.501 116.7C153.714 116.9 153.974 117.06 154.281 117.18C154.587 117.287 155.041 117.427 155.641 117.6C156.441 117.813 157.094 118.033 157.601 118.26C158.121 118.473 158.567 118.793 158.941 119.22C159.314 119.647 159.507 120.213 159.521 120.92C159.521 121.547 159.347 122.107 159.001 122.6C158.654 123.093 158.161 123.48 157.521 123.76C156.894 124.04 156.154 124.18 155.301 124.18ZM163.144 111.52C162.731 111.52 162.384 111.38 162.104 111.1C161.824 110.82 161.684 110.473 161.684 110.06C161.684 109.647 161.824 109.3 162.104 109.02C162.384 108.74 162.731 108.6 163.144 108.6C163.544 108.6 163.884 108.74 164.164 109.02C164.444 109.3 164.584 109.647 164.584 110.06C164.584 110.473 164.444 110.82 164.164 111.1C163.884 111.38 163.544 111.52 163.144 111.52ZM164.264 112.98V124H161.984V112.98H164.264ZM172.038 124.18C170.998 124.18 170.058 123.947 169.218 123.48C168.378 123 167.718 122.333 167.238 121.48C166.758 120.613 166.518 119.613 166.518 118.48C166.518 117.36 166.764 116.367 167.258 115.5C167.751 114.633 168.424 113.967 169.278 113.5C170.131 113.033 171.084 112.8 172.138 112.8C173.191 112.8 174.144 113.033 174.998 113.5C175.851 113.967 176.524 114.633 177.018 115.5C177.511 116.367 177.758 117.36 177.758 118.48C177.758 119.6 177.504 120.593 176.998 121.46C176.491 122.327 175.798 123 174.918 123.48C174.051 123.947 173.091 124.18 172.038 124.18ZM172.038 122.2C172.624 122.2 173.171 122.06 173.678 121.78C174.198 121.5 174.618 121.08 174.938 120.52C175.258 119.96 175.418 119.28 175.418 118.48C175.418 117.68 175.264 117.007 174.958 116.46C174.651 115.9 174.244 115.48 173.738 115.2C173.231 114.92 172.684 114.78 172.098 114.78C171.511 114.78 170.964 114.92 170.458 115.2C169.964 115.48 169.571 115.9 169.278 116.46C168.984 117.007 168.838 117.68 168.838 118.48C168.838 119.667 169.138 120.587 169.738 121.24C170.351 121.88 171.118 122.2 172.038 122.2ZM185.572 112.8C186.438 112.8 187.212 112.98 187.892 113.34C188.585 113.7 189.125 114.233 189.512 114.94C189.898 115.647 190.092 116.5 190.092 117.5V124H187.832V117.84C187.832 116.853 187.585 116.1 187.092 115.58C186.598 115.047 185.925 114.78 185.072 114.78C184.218 114.78 183.538 115.047 183.032 115.58C182.538 116.1 182.292 116.853 182.292 117.84V124H180.012V112.98H182.292V114.24C182.665 113.787 183.138 113.433 183.712 113.18C184.298 112.927 184.918 112.8 185.572 112.8Z" fill="#ED6D52"/>
<path d="M39.78 73.1V87H37.5V73.1H39.78ZM48.3334 75.8C49.2001 75.8 49.9734 75.98 50.6534 76.34C51.3468 76.7 51.8868 77.2333 52.2734 77.94C52.6601 78.6467 52.8534 79.5 52.8534 80.5V87H50.5934V80.84C50.5934 79.8533 50.3468 79.1 49.8534 78.58C49.3601 78.0467 48.6868 77.78 47.8334 77.78C46.9801 77.78 46.3001 78.0467 45.7934 78.58C45.3001 79.1 45.0534 79.8533 45.0534 80.84V87H42.7734V75.98H45.0534V77.24C45.4268 76.7867 45.9001 76.4333 46.4734 76.18C47.0601 75.9267 47.6801 75.8 48.3334 75.8ZM58.4217 77.84V83.94C58.4217 84.3533 58.5151 84.6533 58.7017 84.84C58.9017 85.0133 59.2351 85.1 59.7017 85.1H61.1017V87H59.3017C58.2751 87 57.4884 86.76 56.9417 86.28C56.3951 85.8 56.1217 85.02 56.1217 83.94V77.84H54.8217V75.98H56.1217V73.24H58.4217V75.98H61.1017V77.84H58.4217ZM73.3031 81.22C73.3031 81.6333 73.2765 82.0067 73.2231 82.34H64.8031C64.8698 83.22 65.1965 83.9267 65.7831 84.46C66.3698 84.9933 67.0898 85.26 67.9431 85.26C69.1698 85.26 70.0365 84.7467 70.5431 83.72H73.0031C72.6698 84.7333 72.0631 85.5667 71.1831 86.22C70.3165 86.86 69.2365 87.18 67.9431 87.18C66.8898 87.18 65.9431 86.9467 65.1031 86.48C64.2765 86 63.6231 85.3333 63.1431 84.48C62.6765 83.6133 62.4431 82.6133 62.4431 81.48C62.4431 80.3467 62.6698 79.3533 63.1231 78.5C63.5898 77.6333 64.2365 76.9667 65.0631 76.5C65.9031 76.0333 66.8631 75.8 67.9431 75.8C68.9831 75.8 69.9098 76.0267 70.7231 76.48C71.5365 76.9333 72.1698 77.5733 72.6231 78.4C73.0765 79.2133 73.3031 80.1533 73.3031 81.22ZM70.9231 80.5C70.9098 79.66 70.6098 78.9867 70.0231 78.48C69.4365 77.9733 68.7098 77.72 67.8431 77.72C67.0565 77.72 66.3831 77.9733 65.8231 78.48C65.2631 78.9733 64.9298 79.6467 64.8231 80.5H70.9231ZM77.8269 77.58C78.1602 77.02 78.6002 76.5867 79.1469 76.28C79.7069 75.96 80.3669 75.8 81.1269 75.8V78.16H80.5469C79.6535 78.16 78.9735 78.3867 78.5069 78.84C78.0535 79.2933 77.8269 80.08 77.8269 81.2V87H75.5469V75.98H77.8269V77.58ZM82.4627 81.44C82.4627 80.3333 82.6893 79.3533 83.1427 78.5C83.6093 77.6467 84.236 76.9867 85.0227 76.52C85.8227 76.04 86.7027 75.8 87.6627 75.8C88.5293 75.8 89.2827 75.9733 89.9227 76.32C90.576 76.6533 91.096 77.0733 91.4827 77.58V75.98H93.7827V87H91.4827V85.36C91.096 85.88 90.5693 86.3133 89.9027 86.66C89.236 87.0067 88.476 87.18 87.6227 87.18C86.676 87.18 85.8093 86.94 85.0227 86.46C84.236 85.9667 83.6093 85.2867 83.1427 84.42C82.6893 83.54 82.4627 82.5467 82.4627 81.44ZM91.4827 81.48C91.4827 80.72 91.3227 80.06 91.0027 79.5C90.696 78.94 90.2893 78.5133 89.7827 78.22C89.276 77.9267 88.7293 77.78 88.1427 77.78C87.556 77.78 87.0093 77.9267 86.5027 78.22C85.996 78.5 85.5827 78.92 85.2627 79.48C84.956 80.0267 84.8027 80.68 84.8027 81.44C84.8027 82.2 84.956 82.8667 85.2627 83.44C85.5827 84.0133 85.996 84.4533 86.5027 84.76C87.0227 85.0533 87.5693 85.2 88.1427 85.2C88.7293 85.2 89.276 85.0533 89.7827 84.76C90.2893 84.4667 90.696 84.04 91.0027 83.48C91.3227 82.9067 91.4827 82.24 91.4827 81.48ZM96.0173 81.48C96.0173 80.3467 96.244 79.3533 96.6973 78.5C97.164 77.6333 97.804 76.9667 98.6173 76.5C99.4307 76.0333 100.364 75.8 101.417 75.8C102.751 75.8 103.851 76.12 104.717 76.76C105.597 77.3867 106.191 78.2867 106.497 79.46H104.037C103.837 78.9133 103.517 78.4867 103.077 78.18C102.637 77.8733 102.084 77.72 101.417 77.72C100.484 77.72 99.7373 78.0533 99.1773 78.72C98.6307 79.3733 98.3573 80.2933 98.3573 81.48C98.3573 82.6667 98.6307 83.5933 99.1773 84.26C99.7373 84.9267 100.484 85.26 101.417 85.26C102.737 85.26 103.611 84.68 104.037 83.52H106.497C106.177 84.64 105.577 85.5333 104.697 86.2C103.817 86.8533 102.724 87.18 101.417 87.18C100.364 87.18 99.4307 86.9467 98.6173 86.48C97.804 86 97.164 85.3333 96.6973 84.48C96.244 83.6133 96.0173 82.6133 96.0173 81.48ZM111.43 77.84V83.94C111.43 84.3533 111.523 84.6533 111.71 84.84C111.91 85.0133 112.243 85.1 112.71 85.1H114.11V87H112.31C111.283 87 110.496 86.76 109.95 86.28C109.403 85.8 109.13 85.02 109.13 83.94V77.84H107.83V75.98H109.13V73.24H111.43V75.98H114.11V77.84H111.43ZM117.371 74.52C116.958 74.52 116.611 74.38 116.331 74.1C116.051 73.82 115.911 73.4733 115.911 73.06C115.911 72.6467 116.051 72.3 116.331 72.02C116.611 71.74 116.958 71.6 117.371 71.6C117.771 71.6 118.111 71.74 118.391 72.02C118.671 72.3 118.811 72.6467 118.811 73.06C118.811 73.4733 118.671 73.82 118.391 74.1C118.111 74.38 117.771 74.52 117.371 74.52ZM118.491 75.98V87H116.211V75.98H118.491ZM126.264 87.18C125.224 87.18 124.284 86.9467 123.444 86.48C122.604 86 121.944 85.3333 121.464 84.48C120.984 83.6133 120.744 82.6133 120.744 81.48C120.744 80.36 120.991 79.3667 121.484 78.5C121.978 77.6333 122.651 76.9667 123.504 76.5C124.358 76.0333 125.311 75.8 126.364 75.8C127.418 75.8 128.371 76.0333 129.224 76.5C130.078 76.9667 130.751 77.6333 131.244 78.5C131.738 79.3667 131.984 80.36 131.984 81.48C131.984 82.6 131.731 83.5933 131.224 84.46C130.718 85.3267 130.024 86 129.144 86.48C128.278 86.9467 127.318 87.18 126.264 87.18ZM126.264 85.2C126.851 85.2 127.398 85.06 127.904 84.78C128.424 84.5 128.844 84.08 129.164 83.52C129.484 82.96 129.644 82.28 129.644 81.48C129.644 80.68 129.491 80.0067 129.184 79.46C128.878 78.9 128.471 78.48 127.964 78.2C127.458 77.92 126.911 77.78 126.324 77.78C125.738 77.78 125.191 77.92 124.684 78.2C124.191 78.48 123.798 78.9 123.504 79.46C123.211 80.0067 123.064 80.68 123.064 81.48C123.064 82.6667 123.364 83.5867 123.964 84.24C124.578 84.88 125.344 85.2 126.264 85.2ZM139.798 75.8C140.665 75.8 141.438 75.98 142.118 76.34C142.812 76.7 143.352 77.2333 143.738 77.94C144.125 78.6467 144.318 79.5 144.318 80.5V87H142.058V80.84C142.058 79.8533 141.812 79.1 141.318 78.58C140.825 78.0467 140.152 77.78 139.298 77.78C138.445 77.78 137.765 78.0467 137.258 78.58C136.765 79.1 136.518 79.8533 136.518 80.84V87H134.238V75.98H136.518V77.24C136.892 76.7867 137.365 76.4333 137.938 76.18C138.525 75.9267 139.145 75.8 139.798 75.8Z" fill="#F9D849"/>
<rect x="17" width="307" height="31" rx="15.5" fill="#F3F3F3"/>
<path d="M36.6534 11.7273H37.5341V16.5426C37.5341 17.0398 37.4169 17.4837 37.1825 17.8743C36.9505 18.2625 36.6226 18.5691 36.1989 18.794C35.7751 19.0166 35.2779 19.1278 34.7074 19.1278C34.1368 19.1278 33.6397 19.0166 33.2159 18.794C32.7921 18.5691 32.4631 18.2625 32.2287 17.8743C31.9967 17.4837 31.8807 17.0398 31.8807 16.5426V11.7273H32.7614V16.4716C32.7614 16.8267 32.8395 17.1428 32.9957 17.4197C33.152 17.6944 33.3745 17.911 33.6634 18.0696C33.9545 18.2259 34.3026 18.304 34.7074 18.304C35.1122 18.304 35.4602 18.2259 35.7514 18.0696C36.0426 17.911 36.2652 17.6944 36.419 17.4197C36.5753 17.1428 36.6534 16.8267 36.6534 16.4716V11.7273ZM43.0428 14.767L42.29 14.9801C42.2426 14.8546 42.1728 14.7327 42.0804 14.6143C41.9905 14.4936 41.8674 14.3942 41.7111 14.3161C41.5549 14.2379 41.3548 14.1989 41.111 14.1989C40.7772 14.1989 40.499 14.2758 40.2765 14.4297C40.0563 14.5812 39.9462 14.7741 39.9462 15.0085C39.9462 15.2169 40.022 15.3814 40.1735 15.5021C40.325 15.6229 40.5617 15.7235 40.8837 15.804L41.6934 16.0028C42.181 16.1212 42.5444 16.3023 42.7836 16.5462C43.0227 16.7876 43.1422 17.099 43.1422 17.4801C43.1422 17.7926 43.0523 18.072 42.8723 18.3182C42.6948 18.5644 42.4462 18.7585 42.1266 18.9006C41.807 19.0426 41.4353 19.1136 41.0115 19.1136C40.4552 19.1136 39.9947 18.9929 39.6301 18.7514C39.2656 18.5099 39.0347 18.1572 38.9377 17.6932L39.7331 17.4943C39.8089 17.7879 39.9521 18.008 40.1628 18.1548C40.3759 18.3016 40.6541 18.375 40.9973 18.375C41.388 18.375 41.6981 18.2921 41.9277 18.1264C42.1597 17.9583 42.2757 17.7571 42.2757 17.5227C42.2757 17.3333 42.2095 17.1747 42.0769 17.0469C41.9443 16.9167 41.7407 16.8196 41.4661 16.7557L40.557 16.5426C40.0575 16.4242 39.6905 16.2408 39.4561 15.9922C39.2241 15.7412 39.1081 15.4276 39.1081 15.0511C39.1081 14.7434 39.1945 14.4711 39.3674 14.2344C39.5426 13.9976 39.7805 13.8118 40.0811 13.6768C40.3842 13.5419 40.7275 13.4744 41.111 13.4744C41.6507 13.4744 42.0745 13.5928 42.3823 13.8295C42.6924 14.0663 42.9126 14.3788 43.0428 14.767ZM46.6907 19.1136C46.1651 19.1136 45.7118 18.9976 45.3306 18.7656C44.9518 18.5312 44.6594 18.2045 44.4535 17.7855C44.2499 17.3641 44.1481 16.8741 44.1481 16.3153C44.1481 15.7566 44.2499 15.2642 44.4535 14.8381C44.6594 14.4096 44.9459 14.0758 45.3129 13.8366C45.6822 13.5952 46.113 13.4744 46.6055 13.4744C46.8896 13.4744 47.1701 13.5218 47.4471 13.6165C47.7241 13.7112 47.9762 13.8651 48.2035 14.0781C48.4308 14.2888 48.6119 14.5682 48.7468 14.9162C48.8817 15.2642 48.9492 15.6927 48.9492 16.2017V16.5568H44.7447V15.8324H48.0969C48.0969 15.5246 48.0354 15.25 47.9123 15.0085C47.7915 14.767 47.6187 14.5765 47.3938 14.4368C47.1713 14.2971 46.9085 14.2273 46.6055 14.2273C46.2717 14.2273 45.9828 14.3101 45.739 14.4759C45.4975 14.6392 45.3117 14.8523 45.1815 15.1151C45.0513 15.3778 44.9862 15.6596 44.9862 15.9602V16.4432C44.9862 16.8551 45.0572 17.2043 45.1992 17.4908C45.3436 17.7749 45.5437 17.9915 45.7994 18.1406C46.055 18.2874 46.3522 18.3608 46.6907 18.3608C46.9109 18.3608 47.1097 18.33 47.2873 18.2685C47.4672 18.2045 47.6223 18.1098 47.7525 17.9844C47.8827 17.8565 47.9833 17.6979 48.0543 17.5085L48.864 17.7358C48.7788 18.0104 48.6355 18.2519 48.4343 18.4602C48.2331 18.6662 47.9845 18.8272 47.6886 18.9432C47.3926 19.0568 47.06 19.1136 46.6907 19.1136ZM50.2241 19V13.5455H51.0337V14.3693H51.0906C51.19 14.0994 51.3699 13.8804 51.6303 13.7124C51.8907 13.5443 52.1843 13.4602 52.511 13.4602C52.5726 13.4602 52.6495 13.4614 52.7418 13.4638C52.8342 13.4661 52.904 13.4697 52.9513 13.4744V14.3267C52.9229 14.3196 52.8578 14.3089 52.756 14.2947C52.6566 14.2782 52.5513 14.2699 52.44 14.2699C52.1748 14.2699 51.9381 14.3255 51.7298 14.4368C51.5238 14.5457 51.3604 14.6972 51.2397 14.8913C51.1213 15.0831 51.0621 15.3021 51.0621 15.5483V19H50.2241ZM54.8494 11.7273V12.3665C54.8494 12.5606 54.8139 12.7678 54.7429 12.9879C54.6742 13.2057 54.5724 13.4176 54.4375 13.6236C54.3049 13.8272 54.1439 14.0047 53.9545 14.1562L53.5 13.7869C53.6491 13.5739 53.7782 13.3525 53.8871 13.1229C53.9983 12.8909 54.054 12.6435 54.054 12.3807V11.7273H54.8494ZM59.0487 14.767L58.2958 14.9801C58.2485 14.8546 58.1786 14.7327 58.0863 14.6143C57.9963 14.4936 57.8732 14.3942 57.717 14.3161C57.5607 14.2379 57.3607 14.1989 57.1168 14.1989C56.783 14.1989 56.5049 14.2758 56.2823 14.4297C56.0621 14.5812 55.9521 14.7741 55.9521 15.0085C55.9521 15.2169 56.0278 15.3814 56.1793 15.5021C56.3308 15.6229 56.5676 15.7235 56.8896 15.804L57.6992 16.0028C58.1869 16.1212 58.5503 16.3023 58.7894 16.5462C59.0285 16.7876 59.1481 17.099 59.1481 17.4801C59.1481 17.7926 59.0581 18.072 58.8782 18.3182C58.7006 18.5644 58.4521 18.7585 58.1325 18.9006C57.8129 19.0426 57.4412 19.1136 57.0174 19.1136C56.4611 19.1136 56.0006 18.9929 55.636 18.7514C55.2714 18.5099 55.0406 18.1572 54.9435 17.6932L55.739 17.4943C55.8147 17.7879 55.958 18.008 56.1687 18.1548C56.3817 18.3016 56.6599 18.375 57.0032 18.375C57.3938 18.375 57.704 18.2921 57.9336 18.1264C58.1656 17.9583 58.2816 17.7571 58.2816 17.5227C58.2816 17.3333 58.2153 17.1747 58.0827 17.0469C57.9502 16.9167 57.7466 16.8196 57.4719 16.7557L56.5629 16.5426C56.0633 16.4242 55.6964 16.2408 55.462 15.9922C55.23 15.7412 55.114 15.4276 55.114 15.0511C55.114 14.7434 55.2004 14.4711 55.3732 14.2344C55.5484 13.9976 55.7863 13.8118 56.087 13.6768C56.39 13.5419 56.7333 13.4744 57.1168 13.4744C57.6566 13.4744 58.0804 13.5928 58.3881 13.8295C58.6983 14.0663 58.9184 14.3788 59.0487 14.767ZM64.4579 19L62.796 13.5455H63.6767L64.8556 17.7216H64.9125L66.0772 13.5455H66.9721L68.1227 17.7074H68.1795L69.3585 13.5455H70.2392L68.5772 19H67.7534L66.5602 14.8097H66.475L65.2818 19H64.4579ZM73.3775 19.1136C72.8851 19.1136 72.453 18.9964 72.0813 18.7621C71.712 18.5277 71.4232 18.1998 71.2148 17.7784C71.0089 17.357 70.9059 16.8646 70.9059 16.3011C70.9059 15.733 71.0089 15.237 71.2148 14.8132C71.4232 14.3894 71.712 14.0604 72.0813 13.826C72.453 13.5916 72.8851 13.4744 73.3775 13.4744C73.8699 13.4744 74.3008 13.5916 74.6701 13.826C75.0418 14.0604 75.3306 14.3894 75.5366 14.8132C75.7449 15.237 75.8491 15.733 75.8491 16.3011C75.8491 16.8646 75.7449 17.357 75.5366 17.7784C75.3306 18.1998 75.0418 18.5277 74.6701 18.7621C74.3008 18.9964 73.8699 19.1136 73.3775 19.1136ZM73.3775 18.3608C73.7515 18.3608 74.0593 18.2649 74.3008 18.0732C74.5423 17.8814 74.721 17.6293 74.837 17.3168C74.953 17.0043 75.011 16.6657 75.011 16.3011C75.011 15.9366 74.953 15.5968 74.837 15.282C74.721 14.9671 74.5423 14.7126 74.3008 14.5185C74.0593 14.3243 73.7515 14.2273 73.3775 14.2273C73.0034 14.2273 72.6957 14.3243 72.4542 14.5185C72.2127 14.7126 72.034 14.9671 71.918 15.282C71.802 15.5968 71.744 15.9366 71.744 16.3011C71.744 16.6657 71.802 17.0043 71.918 17.3168C72.034 17.6293 72.2127 17.8814 72.4542 18.0732C72.6957 18.2649 73.0034 18.3608 73.3775 18.3608ZM77.1284 19V13.5455H77.938V14.3693H77.9949C78.0943 14.0994 78.2742 13.8804 78.5346 13.7124C78.795 13.5443 79.0886 13.4602 79.4153 13.4602C79.4769 13.4602 79.5538 13.4614 79.6461 13.4638C79.7385 13.4661 79.8083 13.4697 79.8556 13.4744V14.3267C79.8272 14.3196 79.7621 14.3089 79.6603 14.2947C79.5609 14.2782 79.4556 14.2699 79.3443 14.2699C79.0791 14.2699 78.8424 14.3255 78.6341 14.4368C78.4281 14.5457 78.2647 14.6972 78.144 14.8913C78.0256 15.0831 77.9664 15.3021 77.9664 15.5483V19H77.1284ZM82.7427 19.1136C82.2882 19.1136 81.8869 18.9988 81.5389 18.7692C81.1909 18.5372 80.9186 18.2105 80.7221 17.7891C80.5256 17.3653 80.4274 16.8646 80.4274 16.2869C80.4274 15.714 80.5256 15.2169 80.7221 14.7955C80.9186 14.3741 81.1921 14.0485 81.5424 13.8189C81.8928 13.5893 82.2976 13.4744 82.7569 13.4744C83.112 13.4744 83.3926 13.5336 83.5985 13.652C83.8069 13.768 83.9655 13.9006 84.0744 14.0497C84.1857 14.1965 84.2721 14.3172 84.3336 14.4119H84.4047V11.7273H85.2427V19H84.4331V18.1619H84.3336C84.2721 18.2614 84.1845 18.3868 84.0708 18.5384C83.9572 18.6875 83.795 18.8213 83.5843 18.9396C83.3736 19.0556 83.0931 19.1136 82.7427 19.1136ZM82.8564 18.3608C83.1925 18.3608 83.4766 18.2732 83.7086 18.098C83.9406 17.9205 84.117 17.6754 84.2377 17.3629C84.3585 17.0481 84.4189 16.6847 84.4189 16.2727C84.4189 15.8655 84.3597 15.5092 84.2413 15.2038C84.1229 14.8961 83.9477 14.657 83.7157 14.4865C83.4837 14.3137 83.1973 14.2273 82.8564 14.2273C82.5012 14.2273 82.2053 14.3184 81.9686 14.5007C81.7342 14.6806 81.5578 14.9257 81.4395 15.2358C81.3234 15.5436 81.2654 15.8892 81.2654 16.2727C81.2654 16.661 81.3246 17.0137 81.443 17.331C81.5637 17.6458 81.7413 17.8968 81.9757 18.0838C82.2124 18.2685 82.506 18.3608 82.8564 18.3608ZM90.7576 14.767L90.0048 14.9801C89.9574 14.8546 89.8876 14.7327 89.7953 14.6143C89.7053 14.4936 89.5822 14.3942 89.426 14.3161C89.2697 14.2379 89.0697 14.1989 88.8258 14.1989C88.492 14.1989 88.2138 14.2758 87.9913 14.4297C87.7711 14.5812 87.661 14.7741 87.661 15.0085C87.661 15.2169 87.7368 15.3814 87.8883 15.5021C88.0398 15.6229 88.2766 15.7235 88.5985 15.804L89.4082 16.0028C89.8959 16.1212 90.2593 16.3023 90.4984 16.5462C90.7375 16.7876 90.8571 17.099 90.8571 17.4801C90.8571 17.7926 90.7671 18.072 90.5872 18.3182C90.4096 18.5644 90.161 18.7585 89.8414 18.9006C89.5218 19.0426 89.1502 19.1136 88.7264 19.1136C88.17 19.1136 87.7096 18.9929 87.345 18.7514C86.9804 18.5099 86.7496 18.1572 86.6525 17.6932L87.448 17.4943C87.5237 17.7879 87.667 18.008 87.8777 18.1548C88.0907 18.3016 88.3689 18.375 88.7122 18.375C89.1028 18.375 89.4129 18.2921 89.6426 18.1264C89.8746 17.9583 89.9906 17.7571 89.9906 17.5227C89.9906 17.3333 89.9243 17.1747 89.7917 17.0469C89.6592 16.9167 89.4556 16.8196 89.1809 16.7557L88.2718 16.5426C87.7723 16.4242 87.4054 16.2408 87.171 15.9922C86.939 15.7412 86.823 15.4276 86.823 15.0511C86.823 14.7434 86.9094 14.4711 87.0822 14.2344C87.2574 13.9976 87.4953 13.8118 87.796 13.6768C88.099 13.5419 88.4423 13.4744 88.8258 13.4744C89.3656 13.4744 89.7894 13.5928 90.0971 13.8295C90.4073 14.0663 90.6274 14.3788 90.7576 14.767ZM96.1669 19L94.505 13.5455H95.3857L96.5646 17.7216H96.6214L97.7862 13.5455H98.6811L99.8317 17.7074H99.8885L101.067 13.5455H101.948L100.286 19H99.4624L98.2692 14.8097H98.1839L96.9908 19H96.1669ZM103.056 19V13.5455H103.894V19H103.056ZM103.482 12.6364C103.319 12.6364 103.178 12.5807 103.06 12.4695C102.944 12.3582 102.886 12.2244 102.886 12.0682C102.886 11.9119 102.944 11.7782 103.06 11.6669C103.178 11.5556 103.319 11.5 103.482 11.5C103.646 11.5 103.785 11.5556 103.901 11.6669C104.02 11.7782 104.079 11.9119 104.079 12.0682C104.079 12.2244 104.02 12.3582 103.901 12.4695C103.785 12.5807 103.646 12.6364 103.482 12.6364ZM106.267 11.7273V19H105.429V11.7273H106.267ZM108.64 11.7273V19H107.802V11.7273H108.64ZM114.593 19.1278C114.247 19.1278 113.934 19.0627 113.652 18.9325C113.37 18.8 113.146 18.6094 112.981 18.3608C112.815 18.1098 112.732 17.8068 112.732 17.4517C112.732 17.1392 112.794 16.8859 112.917 16.6918C113.04 16.4953 113.204 16.3414 113.41 16.2301C113.616 16.1188 113.844 16.036 114.092 15.9815C114.343 15.9247 114.595 15.8797 114.849 15.8466C115.18 15.804 115.449 15.772 115.655 15.7507C115.863 15.727 116.015 15.688 116.109 15.6335C116.206 15.5791 116.255 15.4844 116.255 15.3494V15.321C116.255 14.9706 116.159 14.6984 115.967 14.5043C115.778 14.3101 115.49 14.2131 115.104 14.2131C114.704 14.2131 114.39 14.3007 114.163 14.4759C113.936 14.651 113.776 14.8381 113.684 15.0369L112.888 14.7528C113.03 14.4214 113.22 14.1634 113.456 13.9787C113.696 13.7917 113.956 13.6615 114.238 13.5881C114.522 13.5123 114.801 13.4744 115.076 13.4744C115.251 13.4744 115.452 13.4957 115.68 13.5384C115.909 13.5786 116.131 13.6626 116.344 13.7905C116.559 13.9183 116.738 14.1113 116.88 14.3693C117.022 14.6274 117.093 14.973 117.093 15.4062V19H116.255V18.2614H116.212C116.155 18.3797 116.061 18.5064 115.928 18.6413C115.796 18.7763 115.619 18.8911 115.399 18.9858C115.179 19.0805 114.91 19.1278 114.593 19.1278ZM114.721 18.375C115.052 18.375 115.331 18.3099 115.559 18.1797C115.788 18.0495 115.961 17.8814 116.077 17.6754C116.196 17.4695 116.255 17.2528 116.255 17.0256V16.2585C116.219 16.3011 116.141 16.3402 116.02 16.3757C115.902 16.4089 115.765 16.4384 115.608 16.4645C115.455 16.4882 115.304 16.5095 115.157 16.5284C115.013 16.545 114.896 16.5592 114.806 16.571C114.588 16.5994 114.385 16.6456 114.195 16.7095C114.008 16.7711 113.857 16.8646 113.741 16.9901C113.627 17.1132 113.57 17.2812 113.57 17.4943C113.57 17.7855 113.678 18.0057 113.893 18.1548C114.111 18.3016 114.387 18.375 114.721 18.375ZM118.623 21.0455V13.5455H119.432V14.4119H119.532C119.593 14.3172 119.678 14.1965 119.787 14.0497C119.899 13.9006 120.057 13.768 120.263 13.652C120.471 13.5336 120.753 13.4744 121.108 13.4744C121.568 13.4744 121.972 13.5893 122.323 13.8189C122.673 14.0485 122.947 14.3741 123.143 14.7955C123.34 15.2169 123.438 15.714 123.438 16.2869C123.438 16.8646 123.34 17.3653 123.143 17.7891C122.947 18.2105 122.674 18.5372 122.326 18.7692C121.978 18.9988 121.577 19.1136 121.123 19.1136C120.772 19.1136 120.492 19.0556 120.281 18.9396C120.07 18.8213 119.908 18.6875 119.794 18.5384C119.681 18.3868 119.593 18.2614 119.532 18.1619H119.461V21.0455H118.623ZM119.446 16.2727C119.446 16.6847 119.507 17.0481 119.627 17.3629C119.748 17.6754 119.925 17.9205 120.157 18.098C120.389 18.2732 120.673 18.3608 121.009 18.3608C121.359 18.3608 121.652 18.2685 121.886 18.0838C122.123 17.8968 122.3 17.6458 122.419 17.331C122.539 17.0137 122.6 16.661 122.6 16.2727C122.6 15.8892 122.541 15.5436 122.422 15.2358C122.306 14.9257 122.13 14.6806 121.893 14.5007C121.659 14.3184 121.364 14.2273 121.009 14.2273C120.668 14.2273 120.382 14.3137 120.15 14.4865C119.917 14.657 119.742 14.8961 119.624 15.2038C119.506 15.5092 119.446 15.8655 119.446 16.2727ZM124.716 21.0455V13.5455H125.526V14.4119H125.625C125.687 14.3172 125.772 14.1965 125.881 14.0497C125.992 13.9006 126.151 13.768 126.357 13.652C126.565 13.5336 126.847 13.4744 127.202 13.4744C127.661 13.4744 128.066 13.5893 128.417 13.8189C128.767 14.0485 129.04 14.3741 129.237 14.7955C129.433 15.2169 129.532 15.714 129.532 16.2869C129.532 16.8646 129.433 17.3653 129.237 17.7891C129.04 18.2105 128.768 18.5372 128.42 18.7692C128.072 18.9988 127.671 19.1136 127.216 19.1136C126.866 19.1136 126.585 19.0556 126.375 18.9396C126.164 18.8213 126.002 18.6875 125.888 18.5384C125.775 18.3868 125.687 18.2614 125.625 18.1619H125.554V21.0455H124.716ZM125.54 16.2727C125.54 16.6847 125.6 17.0481 125.721 17.3629C125.842 17.6754 126.018 17.9205 126.25 18.098C126.482 18.2732 126.766 18.3608 127.103 18.3608C127.453 18.3608 127.745 18.2685 127.98 18.0838C128.217 17.8968 128.394 17.6458 128.512 17.331C128.633 17.0137 128.694 16.661 128.694 16.2727C128.694 15.8892 128.634 15.5436 128.516 15.2358C128.4 14.9257 128.224 14.6806 127.987 14.5007C127.752 14.3184 127.458 14.2273 127.103 14.2273C126.762 14.2273 126.475 14.3137 126.243 14.4865C126.011 14.657 125.836 14.8961 125.718 15.2038C125.599 15.5092 125.54 15.8655 125.54 16.2727ZM133.097 19.1136C132.571 19.1136 132.118 18.9976 131.737 18.7656C131.358 18.5312 131.066 18.2045 130.86 17.7855C130.656 17.3641 130.554 16.8741 130.554 16.3153C130.554 15.7566 130.656 15.2642 130.86 14.8381C131.066 14.4096 131.352 14.0758 131.719 13.8366C132.088 13.5952 132.519 13.4744 133.012 13.4744C133.296 13.4744 133.576 13.5218 133.853 13.6165C134.13 13.7112 134.382 13.8651 134.61 14.0781C134.837 14.2888 135.018 14.5682 135.153 14.9162C135.288 15.2642 135.355 15.6927 135.355 16.2017V16.5568H131.151V15.8324H134.503C134.503 15.5246 134.442 15.25 134.319 15.0085C134.198 14.767 134.025 14.5765 133.8 14.4368C133.578 14.2971 133.315 14.2273 133.012 14.2273C132.678 14.2273 132.389 14.3101 132.145 14.4759C131.904 14.6392 131.718 14.8523 131.588 15.1151C131.458 15.3778 131.392 15.6596 131.392 15.9602V16.4432C131.392 16.8551 131.463 17.2043 131.605 17.4908C131.75 17.7749 131.95 17.9915 132.206 18.1406C132.461 18.2874 132.758 18.3608 133.097 18.3608C133.317 18.3608 133.516 18.33 133.694 18.2685C133.873 18.2045 134.029 18.1098 134.159 17.9844C134.289 17.8565 134.39 17.6979 134.461 17.5085L135.27 17.7358C135.185 18.0104 135.042 18.2519 134.841 18.4602C134.639 18.6662 134.391 18.8272 134.095 18.9432C133.799 19.0568 133.466 19.1136 133.097 19.1136ZM138.235 19.1278C137.89 19.1278 137.576 19.0627 137.294 18.9325C137.013 18.8 136.789 18.6094 136.623 18.3608C136.458 18.1098 136.375 17.8068 136.375 17.4517C136.375 17.1392 136.436 16.8859 136.559 16.6918C136.682 16.4953 136.847 16.3414 137.053 16.2301C137.259 16.1188 137.486 16.036 137.735 15.9815C137.986 15.9247 138.238 15.8797 138.491 15.8466C138.823 15.804 139.091 15.772 139.297 15.7507C139.506 15.727 139.657 15.688 139.752 15.6335C139.849 15.5791 139.897 15.4844 139.897 15.3494V15.321C139.897 14.9706 139.801 14.6984 139.61 14.5043C139.42 14.3101 139.133 14.2131 138.747 14.2131C138.347 14.2131 138.033 14.3007 137.806 14.4759C137.578 14.651 137.419 14.8381 137.326 15.0369L136.531 14.7528C136.673 14.4214 136.862 14.1634 137.099 13.9787C137.338 13.7917 137.599 13.6615 137.88 13.5881C138.164 13.5123 138.444 13.4744 138.718 13.4744C138.894 13.4744 139.095 13.4957 139.322 13.5384C139.552 13.5786 139.773 13.6626 139.986 13.7905C140.202 13.9183 140.38 14.1113 140.522 14.3693C140.664 14.6274 140.735 14.973 140.735 15.4062V19H139.897V18.2614H139.855C139.798 18.3797 139.703 18.5064 139.571 18.6413C139.438 18.7763 139.262 18.8911 139.042 18.9858C138.821 19.0805 138.553 19.1278 138.235 19.1278ZM138.363 18.375C138.695 18.375 138.974 18.3099 139.201 18.1797C139.431 18.0495 139.604 17.8814 139.72 17.6754C139.838 17.4695 139.897 17.2528 139.897 17.0256V16.2585C139.862 16.3011 139.784 16.3402 139.663 16.3757C139.545 16.4089 139.407 16.4384 139.251 16.4645C139.097 16.4882 138.947 16.5095 138.8 16.5284C138.656 16.545 138.538 16.5592 138.449 16.571C138.231 16.5994 138.027 16.6456 137.838 16.7095C137.651 16.7711 137.499 16.8646 137.383 16.9901C137.27 17.1132 137.213 17.2812 137.213 17.4943C137.213 17.7855 137.32 18.0057 137.536 18.1548C137.754 18.3016 138.029 18.375 138.363 18.375ZM142.265 19V13.5455H143.075V14.3693H143.132C143.231 14.0994 143.411 13.8804 143.671 13.7124C143.932 13.5443 144.225 13.4602 144.552 13.4602C144.614 13.4602 144.691 13.4614 144.783 13.4638C144.875 13.4661 144.945 13.4697 144.992 13.4744V14.3267C144.964 14.3196 144.899 14.3089 144.797 14.2947C144.698 14.2782 144.592 14.2699 144.481 14.2699C144.216 14.2699 143.979 14.3255 143.771 14.4368C143.565 14.5457 143.401 14.6972 143.281 14.8913C143.162 15.0831 143.103 15.3021 143.103 15.5483V19H142.265ZM148.798 19V13.5455H149.636V19H148.798ZM149.224 12.6364C149.061 12.6364 148.92 12.5807 148.802 12.4695C148.686 12.3582 148.628 12.2244 148.628 12.0682C148.628 11.9119 148.686 11.7782 148.802 11.6669C148.92 11.5556 149.061 11.5 149.224 11.5C149.388 11.5 149.527 11.5556 149.643 11.6669C149.762 11.7782 149.821 11.9119 149.821 12.0682C149.821 12.2244 149.762 12.3582 149.643 12.4695C149.527 12.5807 149.388 12.6364 149.224 12.6364ZM152.009 15.7188V19H151.171V13.5455H151.981V14.3977H152.052C152.18 14.1207 152.374 13.8982 152.634 13.7301C152.895 13.5597 153.231 13.4744 153.643 13.4744C154.012 13.4744 154.335 13.5502 154.612 13.7017C154.889 13.8509 155.105 14.0781 155.259 14.3835C155.413 14.6866 155.49 15.0701 155.49 15.5341V19H154.651V15.5909C154.651 15.1624 154.54 14.8286 154.318 14.5895C154.095 14.348 153.79 14.2273 153.401 14.2273C153.134 14.2273 152.895 14.2853 152.684 14.4013C152.476 14.5173 152.311 14.6866 152.191 14.9091C152.07 15.1316 152.009 15.4015 152.009 15.7188ZM160.672 11.7273V19H159.833V11.7273H160.672ZM162.206 19V13.5455H163.045V19H162.206ZM162.633 12.6364C162.469 12.6364 162.328 12.5807 162.21 12.4695C162.094 12.3582 162.036 12.2244 162.036 12.0682C162.036 11.9119 162.094 11.7782 162.21 11.6669C162.328 11.5556 162.469 11.5 162.633 11.5C162.796 11.5 162.936 11.5556 163.052 11.6669C163.17 11.7782 163.229 11.9119 163.229 12.0682C163.229 12.2244 163.17 12.3582 163.052 12.4695C162.936 12.5807 162.796 12.6364 162.633 12.6364ZM169.04 13.5455L167.023 19H166.17L164.153 13.5455H165.062L166.568 17.892H166.625L168.131 13.5455H169.04ZM172.238 19.1136C171.712 19.1136 171.259 18.9976 170.877 18.7656C170.499 18.5312 170.206 18.2045 170 17.7855C169.797 17.3641 169.695 16.8741 169.695 16.3153C169.695 15.7566 169.797 15.2642 170 14.8381C170.206 14.4096 170.493 14.0758 170.86 13.8366C171.229 13.5952 171.66 13.4744 172.152 13.4744C172.436 13.4744 172.717 13.5218 172.994 13.6165C173.271 13.7112 173.523 13.8651 173.75 14.0781C173.978 14.2888 174.159 14.5682 174.294 14.9162C174.429 15.2642 174.496 15.6927 174.496 16.2017V16.5568H170.292V15.8324H173.644C173.644 15.5246 173.582 15.25 173.459 15.0085C173.338 14.767 173.166 14.5765 172.941 14.4368C172.718 14.2971 172.455 14.2273 172.152 14.2273C171.819 14.2273 171.53 14.3101 171.286 14.4759C171.044 14.6392 170.859 14.8523 170.728 15.1151C170.598 15.3778 170.533 15.6596 170.533 15.9602V16.4432C170.533 16.8551 170.604 17.2043 170.746 17.4908C170.891 17.7749 171.091 17.9915 171.346 18.1406C171.602 18.2874 171.899 18.3608 172.238 18.3608C172.458 18.3608 172.657 18.33 172.834 18.2685C173.014 18.2045 173.169 18.1098 173.299 17.9844C173.43 17.8565 173.53 17.6979 173.601 17.5085L174.411 17.7358C174.326 18.0104 174.182 18.2519 173.981 18.4602C173.78 18.6662 173.531 18.8272 173.235 18.9432C172.94 19.0568 172.607 19.1136 172.238 19.1136ZM180.189 19.1278C179.843 19.1278 179.529 19.0627 179.248 18.9325C178.966 18.8 178.742 18.6094 178.576 18.3608C178.411 18.1098 178.328 17.8068 178.328 17.4517C178.328 17.1392 178.389 16.8859 178.512 16.6918C178.636 16.4953 178.8 16.3414 179.006 16.2301C179.212 16.1188 179.439 16.036 179.688 15.9815C179.939 15.9247 180.191 15.8797 180.444 15.8466C180.776 15.804 181.044 15.772 181.25 15.7507C181.459 15.727 181.61 15.688 181.705 15.6335C181.802 15.5791 181.85 15.4844 181.85 15.3494V15.321C181.85 14.9706 181.755 14.6984 181.563 14.5043C181.373 14.3101 181.086 14.2131 180.7 14.2131C180.3 14.2131 179.986 14.3007 179.759 14.4759C179.532 14.651 179.372 14.8381 179.279 15.0369L178.484 14.7528C178.626 14.4214 178.815 14.1634 179.052 13.9787C179.291 13.7917 179.552 13.6615 179.833 13.5881C180.118 13.5123 180.397 13.4744 180.672 13.4744C180.847 13.4744 181.048 13.4957 181.275 13.5384C181.505 13.5786 181.726 13.6626 181.939 13.7905C182.155 13.9183 182.333 14.1113 182.475 14.3693C182.618 14.6274 182.689 14.973 182.689 15.4062V19H181.85V18.2614H181.808C181.751 18.3797 181.656 18.5064 181.524 18.6413C181.391 18.7763 181.215 18.8911 180.995 18.9858C180.775 19.0805 180.506 19.1278 180.189 19.1278ZM180.316 18.375C180.648 18.375 180.927 18.3099 181.154 18.1797C181.384 18.0495 181.557 17.8814 181.673 17.6754C181.791 17.4695 181.85 17.2528 181.85 17.0256V16.2585C181.815 16.3011 181.737 16.3402 181.616 16.3757C181.498 16.4089 181.36 16.4384 181.204 16.4645C181.05 16.4882 180.9 16.5095 180.753 16.5284C180.609 16.545 180.492 16.5592 180.402 16.571C180.184 16.5994 179.98 16.6456 179.791 16.7095C179.604 16.7711 179.452 16.8646 179.336 16.9901C179.223 17.1132 179.166 17.2812 179.166 17.4943C179.166 17.7855 179.274 18.0057 179.489 18.1548C179.707 18.3016 179.983 18.375 180.316 18.375ZM188.082 14.767L187.329 14.9801C187.282 14.8546 187.212 14.7327 187.119 14.6143C187.03 14.4936 186.906 14.3942 186.75 14.3161C186.594 14.2379 186.394 14.1989 186.15 14.1989C185.816 14.1989 185.538 14.2758 185.316 14.4297C185.095 14.5812 184.985 14.7741 184.985 15.0085C184.985 15.2169 185.061 15.3814 185.213 15.5021C185.364 15.6229 185.601 15.7235 185.923 15.804L186.732 16.0028C187.22 16.1212 187.584 16.3023 187.823 16.5462C188.062 16.7876 188.181 17.099 188.181 17.4801C188.181 17.7926 188.091 18.072 187.911 18.3182C187.734 18.5644 187.485 18.7585 187.166 18.9006C186.846 19.0426 186.474 19.1136 186.051 19.1136C185.494 19.1136 185.034 18.9929 184.669 18.7514C184.305 18.5099 184.074 18.1572 183.977 17.6932L184.772 17.4943C184.848 17.7879 184.991 18.008 185.202 18.1548C185.415 18.3016 185.693 18.375 186.036 18.375C186.427 18.375 186.737 18.2921 186.967 18.1264C187.199 17.9583 187.315 17.7571 187.315 17.5227C187.315 17.3333 187.249 17.1747 187.116 17.0469C186.983 16.9167 186.78 16.8196 186.505 16.7557L185.596 16.5426C185.097 16.4242 184.73 16.2408 184.495 15.9922C184.263 15.7412 184.147 15.4276 184.147 15.0511C184.147 14.7434 184.234 14.4711 184.406 14.2344C184.582 13.9976 184.82 13.8118 185.12 13.6768C185.423 13.5419 185.767 13.4744 186.15 13.4744C186.69 13.4744 187.114 13.5928 187.421 13.8295C187.731 14.0663 187.952 14.3788 188.082 14.767ZM192.795 21.0455C192.653 21.0455 192.526 21.0336 192.415 21.0099C192.304 20.9886 192.227 20.9673 192.184 20.946L192.397 20.2074C192.601 20.2595 192.781 20.2784 192.937 20.2642C193.093 20.25 193.232 20.1802 193.353 20.0547C193.476 19.9316 193.588 19.7315 193.69 19.4545L193.846 19.0284L191.829 13.5455H192.738L194.244 17.892H194.301L195.806 13.5455H196.716L194.4 19.7955C194.296 20.0772 194.167 20.3104 194.013 20.495C193.859 20.6821 193.681 20.8205 193.477 20.9105C193.276 21.0005 193.048 21.0455 192.795 21.0455ZM199.842 19.1136C199.35 19.1136 198.918 18.9964 198.546 18.7621C198.177 18.5277 197.888 18.1998 197.68 17.7784C197.474 17.357 197.371 16.8646 197.371 16.3011C197.371 15.733 197.474 15.237 197.68 14.8132C197.888 14.3894 198.177 14.0604 198.546 13.826C198.918 13.5916 199.35 13.4744 199.842 13.4744C200.335 13.4744 200.766 13.5916 201.135 13.826C201.507 14.0604 201.795 14.3894 202.001 14.8132C202.21 15.237 202.314 15.733 202.314 16.3011C202.314 16.8646 202.21 17.357 202.001 17.7784C201.795 18.1998 201.507 18.5277 201.135 18.7621C200.766 18.9964 200.335 19.1136 199.842 19.1136ZM199.842 18.3608C200.216 18.3608 200.524 18.2649 200.766 18.0732C201.007 17.8814 201.186 17.6293 201.302 17.3168C201.418 17.0043 201.476 16.6657 201.476 16.3011C201.476 15.9366 201.418 15.5968 201.302 15.282C201.186 14.9671 201.007 14.7126 200.766 14.5185C200.524 14.3243 200.216 14.2273 199.842 14.2273C199.468 14.2273 199.161 14.3243 198.919 14.5185C198.678 14.7126 198.499 14.9671 198.383 15.282C198.267 15.5968 198.209 15.9366 198.209 16.3011C198.209 16.6657 198.267 17.0043 198.383 17.3168C198.499 17.6293 198.678 17.8814 198.919 18.0732C199.161 18.2649 199.468 18.3608 199.842 18.3608ZM207.031 16.7699V13.5455H207.869V19H207.031V18.0767H206.974C206.846 18.3537 206.647 18.5893 206.377 18.7834C206.107 18.9751 205.767 19.071 205.355 19.071C205.014 19.071 204.711 18.9964 204.445 18.8473C204.18 18.6958 203.972 18.4685 203.82 18.1655C203.669 17.8601 203.593 17.4754 203.593 17.0114V13.5455H204.431V16.9545C204.431 17.3523 204.543 17.6695 204.765 17.9062C204.99 18.143 205.276 18.2614 205.624 18.2614C205.833 18.2614 206.045 18.2081 206.26 18.1016C206.478 17.995 206.66 17.8317 206.807 17.6115C206.956 17.3913 207.031 17.1108 207.031 16.7699ZM214.588 13.5455V14.2557H211.762V13.5455H214.588ZM212.586 12.2386H213.424V17.4375C213.424 17.6742 213.458 17.8518 213.527 17.9702C213.598 18.0862 213.688 18.1643 213.797 18.2045C213.908 18.2424 214.025 18.2614 214.148 18.2614C214.24 18.2614 214.316 18.2566 214.375 18.2472C214.435 18.2353 214.482 18.2259 214.517 18.2188L214.688 18.9716C214.631 18.9929 214.552 19.0142 214.45 19.0355C214.348 19.0592 214.219 19.071 214.063 19.071C213.826 19.071 213.594 19.0201 213.367 18.9183C213.142 18.8165 212.955 18.6615 212.806 18.4531C212.659 18.2448 212.586 17.982 212.586 17.6648V12.2386ZM216.389 21.0455C216.247 21.0455 216.12 21.0336 216.009 21.0099C215.898 20.9886 215.821 20.9673 215.778 20.946L215.991 20.2074C216.195 20.2595 216.375 20.2784 216.531 20.2642C216.687 20.25 216.826 20.1802 216.946 20.0547C217.069 19.9316 217.182 19.7315 217.284 19.4545L217.44 19.0284L215.423 13.5455H216.332L217.838 17.892H217.895L219.4 13.5455H220.309L217.994 19.7955C217.89 20.0772 217.761 20.3104 217.607 20.495C217.453 20.6821 217.274 20.8205 217.071 20.9105C216.869 21.0005 216.642 21.0455 216.389 21.0455ZM221.415 21.0455V13.5455H222.225V14.4119H222.325C222.386 14.3172 222.471 14.1965 222.58 14.0497C222.692 13.9006 222.85 13.768 223.056 13.652C223.264 13.5336 223.546 13.4744 223.901 13.4744C224.361 13.4744 224.765 13.5893 225.116 13.8189C225.466 14.0485 225.74 14.3741 225.936 14.7955C226.133 15.2169 226.231 15.714 226.231 16.2869C226.231 16.8646 226.133 17.3653 225.936 17.7891C225.74 18.2105 225.467 18.5372 225.119 18.7692C224.771 18.9988 224.37 19.1136 223.915 19.1136C223.565 19.1136 223.285 19.0556 223.074 18.9396C222.863 18.8213 222.701 18.6875 222.587 18.5384C222.474 18.3868 222.386 18.2614 222.325 18.1619H222.254V21.0455H221.415ZM222.239 16.2727C222.239 16.6847 222.3 17.0481 222.42 17.3629C222.541 17.6754 222.718 17.9205 222.95 18.098C223.182 18.2732 223.466 18.3608 223.802 18.3608C224.152 18.3608 224.445 18.2685 224.679 18.0838C224.916 17.8968 225.093 17.6458 225.212 17.331C225.332 17.0137 225.393 16.661 225.393 16.2727C225.393 15.8892 225.334 15.5436 225.215 15.2358C225.099 14.9257 224.923 14.6806 224.686 14.5007C224.452 14.3184 224.157 14.2273 223.802 14.2273C223.461 14.2273 223.174 14.3137 222.942 14.4865C222.71 14.657 222.535 14.8961 222.417 15.2038C222.299 15.5092 222.239 15.8655 222.239 16.2727ZM229.796 19.1136C229.271 19.1136 228.817 18.9976 228.436 18.7656C228.057 18.5312 227.765 18.2045 227.559 17.7855C227.355 17.3641 227.254 16.8741 227.254 16.3153C227.254 15.7566 227.355 15.2642 227.559 14.8381C227.765 14.4096 228.051 14.0758 228.418 13.8366C228.788 13.5952 229.219 13.4744 229.711 13.4744C229.995 13.4744 230.276 13.5218 230.553 13.6165C230.83 13.7112 231.082 13.8651 231.309 14.0781C231.536 14.2888 231.717 14.5682 231.852 14.9162C231.987 15.2642 232.055 15.6927 232.055 16.2017V16.5568H227.85V15.8324H231.202C231.202 15.5246 231.141 15.25 231.018 15.0085C230.897 14.767 230.724 14.5765 230.499 14.4368C230.277 14.2971 230.014 14.2273 229.711 14.2273C229.377 14.2273 229.088 14.3101 228.844 14.4759C228.603 14.6392 228.417 14.8523 228.287 15.1151C228.157 15.3778 228.092 15.6596 228.092 15.9602V16.4432C228.092 16.8551 228.163 17.2043 228.305 17.4908C228.449 17.7749 228.649 17.9915 228.905 18.1406C229.161 18.2874 229.458 18.3608 229.796 18.3608C230.016 18.3608 230.215 18.33 230.393 18.2685C230.573 18.2045 230.728 18.1098 230.858 17.9844C230.988 17.8565 231.089 17.6979 231.16 17.5085L231.969 17.7358C231.884 18.0104 231.741 18.2519 231.54 18.4602C231.339 18.6662 231.09 18.8272 230.794 18.9432C230.498 19.0568 230.165 19.1136 229.796 19.1136ZM233.94 19.0568C233.765 19.0568 233.615 18.9941 233.489 18.8686C233.364 18.7431 233.301 18.5928 233.301 18.4176C233.301 18.2424 233.364 18.0921 233.489 17.9666C233.615 17.8411 233.765 17.7784 233.94 17.7784C234.116 17.7784 234.266 17.8411 234.391 17.9666C234.517 18.0921 234.58 18.2424 234.58 18.4176C234.58 18.5336 234.55 18.6402 234.491 18.7372C234.434 18.8343 234.357 18.9124 234.26 18.9716C234.165 19.0284 234.059 19.0568 233.94 19.0568ZM236.694 19.0568C236.519 19.0568 236.369 18.9941 236.243 18.8686C236.118 18.7431 236.055 18.5928 236.055 18.4176C236.055 18.2424 236.118 18.0921 236.243 17.9666C236.369 17.8411 236.519 17.7784 236.694 17.7784C236.869 17.7784 237.02 17.8411 237.145 17.9666C237.271 18.0921 237.333 18.2424 237.333 18.4176C237.333 18.5336 237.304 18.6402 237.245 18.7372C237.188 18.8343 237.111 18.9124 237.014 18.9716C236.919 19.0284 236.813 19.0568 236.694 19.0568ZM239.448 19.0568C239.273 19.0568 239.123 18.9941 238.997 18.8686C238.872 18.7431 238.809 18.5928 238.809 18.4176C238.809 18.2424 238.872 18.0921 238.997 17.9666C239.123 17.8411 239.273 17.7784 239.448 17.7784C239.623 17.7784 239.774 17.8411 239.899 17.9666C240.025 18.0921 240.087 18.2424 240.087 18.4176C240.087 18.5336 240.058 18.6402 239.999 18.7372C239.942 18.8343 239.865 18.9124 239.768 18.9716C239.673 19.0284 239.567 19.0568 239.448 19.0568Z" fill="#858585"/>
<rect x="252" y="5" width="67" height="21" rx="10.5" fill="#F1EBFC"/>
<path d="M277.179 19H276.256L278.926 11.7273H279.835L282.506 19H281.582L279.409 12.8778H279.352L277.179 19ZM277.52 16.1591H281.241V16.9403H277.52V16.1591ZM285.585 19.1136C285.13 19.1136 284.729 18.9988 284.381 18.7692C284.033 18.5372 283.76 18.2105 283.564 17.7891C283.367 17.3653 283.269 16.8646 283.269 16.2869C283.269 15.714 283.367 15.2169 283.564 14.7955C283.76 14.3741 284.034 14.0485 284.384 13.8189C284.735 13.5893 285.139 13.4744 285.599 13.4744C285.954 13.4744 286.234 13.5336 286.44 13.652C286.649 13.768 286.807 13.9006 286.916 14.0497C287.027 14.1965 287.114 14.3172 287.175 14.4119H287.246V11.7273H288.085V19H287.275V18.1619H287.175C287.114 18.2614 287.026 18.3868 286.913 18.5384C286.799 18.6875 286.637 18.8213 286.426 18.9396C286.215 19.0556 285.935 19.1136 285.585 19.1136ZM285.698 18.3608C286.034 18.3608 286.318 18.2732 286.55 18.098C286.782 17.9205 286.959 17.6754 287.08 17.3629C287.2 17.0481 287.261 16.6847 287.261 16.2727C287.261 15.8655 287.201 15.5092 287.083 15.2038C286.965 14.8961 286.79 14.657 286.558 14.4865C286.326 14.3137 286.039 14.2273 285.698 14.2273C285.343 14.2273 285.047 14.3184 284.81 14.5007C284.576 14.6806 284.4 14.9257 284.281 15.2358C284.165 15.5436 284.107 15.8892 284.107 16.2727C284.107 16.661 284.166 17.0137 284.285 17.331C284.406 17.6458 284.583 17.8968 284.817 18.0838C285.054 18.2685 285.348 18.3608 285.698 18.3608ZM291.795 19.1136C291.341 19.1136 290.94 18.9988 290.592 18.7692C290.244 18.5372 289.971 18.2105 289.775 17.7891C289.578 17.3653 289.48 16.8646 289.48 16.2869C289.48 15.714 289.578 15.2169 289.775 14.7955C289.971 14.3741 290.245 14.0485 290.595 13.8189C290.946 13.5893 291.35 13.4744 291.81 13.4744C292.165 13.4744 292.445 13.5336 292.651 13.652C292.86 13.768 293.018 13.9006 293.127 14.0497C293.238 14.1965 293.325 14.3172 293.386 14.4119H293.457V11.7273H294.295V19H293.486V18.1619H293.386C293.325 18.2614 293.237 18.3868 293.124 18.5384C293.01 18.6875 292.848 18.8213 292.637 18.9396C292.426 19.0556 292.146 19.1136 291.795 19.1136ZM291.909 18.3608C292.245 18.3608 292.529 18.2732 292.761 18.098C292.993 17.9205 293.17 17.6754 293.29 17.3629C293.411 17.0481 293.472 16.6847 293.472 16.2727C293.472 15.8655 293.412 15.5092 293.294 15.2038C293.176 14.8961 293 14.657 292.768 14.4865C292.536 14.3137 292.25 14.2273 291.909 14.2273C291.554 14.2273 291.258 14.3184 291.021 14.5007C290.787 14.6806 290.611 14.9257 290.492 15.2358C290.376 15.5436 290.318 15.8892 290.318 16.2727C290.318 16.661 290.377 17.0137 290.496 17.331C290.616 17.6458 290.794 17.8968 291.028 18.0838C291.265 18.2685 291.559 18.3608 291.909 18.3608Z" fill="#A48EF7"/>
</svg>
