<svg width="341" height="207" viewBox="0 0 341 207" fill="none" xmlns="http://www.w3.org/2000/svg">
<path d="M153.237 145.065V168H149.475V145.065H153.237ZM167.35 149.52C168.78 149.52 170.056 149.817 171.178 150.411C172.322 151.005 173.213 151.885 173.851 153.051C174.489 154.217 174.808 155.625 174.808 157.275V168H171.079V157.836C171.079 156.208 170.672 154.965 169.858 154.107C169.044 153.227 167.933 152.787 166.525 152.787C165.117 152.787 163.995 153.227 163.159 154.107C162.345 154.965 161.938 156.208 161.938 157.836V168H158.176V149.817H161.938V151.896C162.554 151.148 163.335 150.565 164.281 150.147C165.249 149.729 166.272 149.52 167.35 149.52ZM188.781 149.52C190.211 149.52 191.487 149.817 192.609 150.411C193.753 151.005 194.644 151.885 195.282 153.051C195.92 154.217 196.239 155.625 196.239 157.275V168H192.51V157.836C192.51 156.208 192.103 154.965 191.289 154.107C190.475 153.227 189.364 152.787 187.956 152.787C186.548 152.787 185.426 153.227 184.59 154.107C183.776 154.965 183.369 156.208 183.369 157.836V168H179.607V149.817H183.369V151.896C183.985 151.148 184.766 150.565 185.712 150.147C186.68 149.729 187.703 149.52 188.781 149.52ZM208.925 168.297C207.209 168.297 205.658 167.912 204.272 167.142C202.886 166.35 201.797 165.25 201.005 163.842C200.213 162.412 199.817 160.762 199.817 158.892C199.817 157.044 200.224 155.405 201.038 153.975C201.852 152.545 202.963 151.445 204.371 150.675C205.779 149.905 207.352 149.52 209.09 149.52C210.828 149.52 212.401 149.905 213.809 150.675C215.217 151.445 216.328 152.545 217.142 153.975C217.956 155.405 218.363 157.044 218.363 158.892C218.363 160.74 217.945 162.379 217.109 163.809C216.273 165.239 215.129 166.35 213.677 167.142C212.247 167.912 210.663 168.297 208.925 168.297ZM208.925 165.03C209.893 165.03 210.795 164.799 211.631 164.337C212.489 163.875 213.182 163.182 213.71 162.258C214.238 161.334 214.502 160.212 214.502 158.892C214.502 157.572 214.249 156.461 213.743 155.559C213.237 154.635 212.566 153.942 211.73 153.48C210.894 153.018 209.992 152.787 209.024 152.787C208.056 152.787 207.154 153.018 206.318 153.48C205.504 153.942 204.855 154.635 204.371 155.559C203.887 156.461 203.645 157.572 203.645 158.892C203.645 160.85 204.14 162.368 205.13 163.446C206.142 164.502 207.407 165.03 208.925 165.03ZM229.11 164.634L234.258 149.817H238.251L231.321 168H226.833L219.936 149.817H223.962L229.11 164.634ZM239.841 158.826C239.841 157 240.215 155.383 240.963 153.975C241.733 152.567 242.767 151.478 244.065 150.708C245.385 149.916 246.837 149.52 248.421 149.52C249.851 149.52 251.094 149.806 252.15 150.378C253.228 150.928 254.086 151.621 254.724 152.457V149.817H258.519V168H254.724V165.294C254.086 166.152 253.217 166.867 252.117 167.439C251.017 168.011 249.763 168.297 248.355 168.297C246.793 168.297 245.363 167.901 244.065 167.109C242.767 166.295 241.733 165.173 240.963 163.743C240.215 162.291 239.841 160.652 239.841 158.826ZM254.724 158.892C254.724 157.638 254.46 156.549 253.932 155.625C253.426 154.701 252.755 153.997 251.919 153.513C251.083 153.029 250.181 152.787 249.213 152.787C248.245 152.787 247.343 153.029 246.507 153.513C245.671 153.975 244.989 154.668 244.461 155.592C243.955 156.494 243.702 157.572 243.702 158.826C243.702 160.08 243.955 161.18 244.461 162.126C244.989 163.072 245.671 163.798 246.507 164.304C247.365 164.788 248.267 165.03 249.213 165.03C250.181 165.03 251.083 164.788 251.919 164.304C252.755 163.82 253.426 163.116 253.932 162.192C254.46 161.246 254.724 160.146 254.724 158.892ZM267.849 152.886V162.951C267.849 163.633 268.003 164.128 268.311 164.436C268.641 164.722 269.191 164.865 269.961 164.865H272.271V168H269.301C267.607 168 266.309 167.604 265.407 166.812C264.505 166.02 264.054 164.733 264.054 162.951V152.886H261.909V149.817H264.054V145.296H267.849V149.817H272.271V152.886H267.849ZM277.653 147.408C276.971 147.408 276.399 147.177 275.937 146.715C275.475 146.253 275.244 145.681 275.244 144.999C275.244 144.317 275.475 143.745 275.937 143.283C276.399 142.821 276.971 142.59 277.653 142.59C278.313 142.59 278.874 142.821 279.336 143.283C279.798 143.745 280.029 144.317 280.029 144.999C280.029 145.681 279.798 146.253 279.336 146.715C278.874 147.177 278.313 147.408 277.653 147.408ZM279.501 149.817V168H275.739V149.817H279.501ZM292.327 168.297C290.611 168.297 289.06 167.912 287.674 167.142C286.288 166.35 285.199 165.25 284.407 163.842C283.615 162.412 283.219 160.762 283.219 158.892C283.219 157.044 283.626 155.405 284.44 153.975C285.254 152.545 286.365 151.445 287.773 150.675C289.181 149.905 290.754 149.52 292.492 149.52C294.23 149.52 295.803 149.905 297.211 150.675C298.619 151.445 299.73 152.545 300.544 153.975C301.358 155.405 301.765 157.044 301.765 158.892C301.765 160.74 301.347 162.379 300.511 163.809C299.675 165.239 298.531 166.35 297.079 167.142C295.649 167.912 294.065 168.297 292.327 168.297ZM292.327 165.03C293.295 165.03 294.197 164.799 295.033 164.337C295.891 163.875 296.584 163.182 297.112 162.258C297.64 161.334 297.904 160.212 297.904 158.892C297.904 157.572 297.651 156.461 297.145 155.559C296.639 154.635 295.968 153.942 295.132 153.48C294.296 153.018 293.394 152.787 292.426 152.787C291.458 152.787 290.556 153.018 289.72 153.48C288.906 153.942 288.257 154.635 287.773 155.559C287.289 156.461 287.047 157.572 287.047 158.892C287.047 160.85 287.542 162.368 288.532 163.446C289.544 164.502 290.809 165.03 292.327 165.03ZM314.658 149.52C316.088 149.52 317.364 149.817 318.486 150.411C319.63 151.005 320.521 151.885 321.159 153.051C321.797 154.217 322.116 155.625 322.116 157.275V168H318.387V157.836C318.387 156.208 317.98 154.965 317.166 154.107C316.352 153.227 315.241 152.787 313.833 152.787C312.425 152.787 311.303 153.227 310.467 154.107C309.653 154.965 309.246 156.208 309.246 157.836V168H305.484V149.817H309.246V151.896C309.862 151.148 310.643 150.565 311.589 150.147C312.557 149.729 313.58 149.52 314.658 149.52Z" fill="#B6D7E4"/>
<path d="M95.536 180.32V197H92.8V180.32H95.536ZM98.2161 190.328C98.2161 189 98.4881 187.824 99.0321 186.8C99.5921 185.776 100.344 184.984 101.288 184.424C102.248 183.848 103.312 183.56 104.48 183.56C105.344 183.56 106.192 183.752 107.024 184.136C107.872 184.504 108.544 185 109.04 185.624V179.24H111.8V197H109.04V195.008C108.592 195.648 107.968 196.176 107.168 196.592C106.384 197.008 105.48 197.216 104.456 197.216C103.304 197.216 102.248 196.928 101.288 196.352C100.344 195.76 99.5921 194.944 99.0321 193.904C98.4881 192.848 98.2161 191.656 98.2161 190.328ZM109.04 190.376C109.04 189.464 108.848 188.672 108.464 188C108.096 187.328 107.608 186.816 107 186.464C106.392 186.112 105.736 185.936 105.032 185.936C104.328 185.936 103.672 186.112 103.064 186.464C102.456 186.8 101.96 187.304 101.576 187.976C101.208 188.632 101.024 189.416 101.024 190.328C101.024 191.24 101.208 192.04 101.576 192.728C101.96 193.416 102.456 193.944 103.064 194.312C103.688 194.664 104.344 194.84 105.032 194.84C105.736 194.84 106.392 194.664 107 194.312C107.608 193.96 108.096 193.448 108.464 192.776C108.848 192.088 109.04 191.288 109.04 190.376ZM127.514 190.064C127.514 190.56 127.482 191.008 127.418 191.408H117.314C117.394 192.464 117.786 193.312 118.49 193.952C119.194 194.592 120.058 194.912 121.082 194.912C122.554 194.912 123.594 194.296 124.202 193.064H127.154C126.754 194.28 126.026 195.28 124.97 196.064C123.93 196.832 122.634 197.216 121.082 197.216C119.818 197.216 118.682 196.936 117.674 196.376C116.682 195.8 115.898 195 115.322 193.976C114.762 192.936 114.482 191.736 114.482 190.376C114.482 189.016 114.754 187.824 115.298 186.8C115.858 185.76 116.634 184.96 117.626 184.4C118.634 183.84 119.786 183.56 121.082 183.56C122.33 183.56 123.442 183.832 124.418 184.376C125.394 184.92 126.154 185.688 126.698 186.68C127.242 187.656 127.514 188.784 127.514 190.064ZM124.658 189.2C124.642 188.192 124.282 187.384 123.578 186.776C122.874 186.168 122.002 185.864 120.962 185.864C120.018 185.864 119.21 186.168 118.538 186.776C117.866 187.368 117.466 188.176 117.338 189.2H124.658ZM129.294 190.328C129.294 189 129.566 187.824 130.11 186.8C130.67 185.776 131.422 184.984 132.366 184.424C133.326 183.848 134.382 183.56 135.534 183.56C136.574 183.56 137.478 183.768 138.246 184.184C139.03 184.584 139.654 185.088 140.118 185.696V183.776H142.878V197H140.118V195.032C139.654 195.656 139.022 196.176 138.222 196.592C137.422 197.008 136.51 197.216 135.486 197.216C134.35 197.216 133.31 196.928 132.366 196.352C131.422 195.76 130.67 194.944 130.11 193.904C129.566 192.848 129.294 191.656 129.294 190.328ZM140.118 190.376C140.118 189.464 139.926 188.672 139.542 188C139.174 187.328 138.686 186.816 138.078 186.464C137.47 186.112 136.814 185.936 136.11 185.936C135.406 185.936 134.75 186.112 134.142 186.464C133.534 186.8 133.038 187.304 132.654 187.976C132.286 188.632 132.102 189.416 132.102 190.328C132.102 191.24 132.286 192.04 132.654 192.728C133.038 193.416 133.534 193.944 134.142 194.312C134.766 194.664 135.422 194.84 136.11 194.84C136.814 194.84 137.47 194.664 138.078 194.312C138.686 193.96 139.174 193.448 139.542 192.776C139.926 192.088 140.118 191.288 140.118 190.376ZM151.272 197.216C150.232 197.216 149.296 197.032 148.464 196.664C147.648 196.28 147 195.768 146.52 195.128C146.04 194.472 145.784 193.744 145.752 192.944H148.584C148.632 193.504 148.896 193.976 149.376 194.36C149.872 194.728 150.488 194.912 151.224 194.912C151.992 194.912 152.584 194.768 153 194.48C153.432 194.176 153.648 193.792 153.648 193.328C153.648 192.832 153.408 192.464 152.928 192.224C152.464 191.984 151.72 191.72 150.696 191.432C149.704 191.16 148.896 190.896 148.272 190.64C147.648 190.384 147.104 189.992 146.64 189.464C146.192 188.936 145.968 188.24 145.968 187.376C145.968 186.672 146.176 186.032 146.592 185.456C147.008 184.864 147.6 184.4 148.368 184.064C149.152 183.728 150.048 183.56 151.056 183.56C152.56 183.56 153.768 183.944 154.68 184.712C155.608 185.464 156.104 186.496 156.168 187.808H153.432C153.384 187.216 153.144 186.744 152.712 186.392C152.28 186.04 151.696 185.864 150.96 185.864C150.24 185.864 149.688 186 149.304 186.272C148.92 186.544 148.728 186.904 148.728 187.352C148.728 187.704 148.856 188 149.112 188.24C149.368 188.48 149.68 188.672 150.048 188.816C150.416 188.944 150.96 189.112 151.68 189.32C152.64 189.576 153.424 189.84 154.032 190.112C154.656 190.368 155.192 190.752 155.64 191.264C156.088 191.776 156.32 192.456 156.336 193.304C156.336 194.056 156.128 194.728 155.712 195.32C155.296 195.912 154.704 196.376 153.936 196.712C153.184 197.048 152.296 197.216 151.272 197.216Z" fill="#D4C0D6"/>
<path d="M11.616 133.32V135.552H4.536V140.472H10.056V142.704H4.536V150H1.8V133.32H11.616ZM26.2716 143.064C26.2716 143.56 26.2396 144.008 26.1756 144.408H16.0716C16.1516 145.464 16.5436 146.312 17.2476 146.952C17.9516 147.592 18.8156 147.912 19.8396 147.912C21.3116 147.912 22.3516 147.296 22.9596 146.064H25.9116C25.5116 147.28 24.7836 148.28 23.7276 149.064C22.6876 149.832 21.3916 150.216 19.8396 150.216C18.5756 150.216 17.4396 149.936 16.4316 149.376C15.4396 148.8 14.6556 148 14.0796 146.976C13.5196 145.936 13.2396 144.736 13.2396 143.376C13.2396 142.016 13.5116 140.824 14.0556 139.8C14.6156 138.76 15.3916 137.96 16.3836 137.4C17.3916 136.84 18.5436 136.56 19.8396 136.56C21.0876 136.56 22.1996 136.832 23.1756 137.376C24.1516 137.92 24.9116 138.688 25.4556 139.68C25.9996 140.656 26.2716 141.784 26.2716 143.064ZM23.4156 142.2C23.3996 141.192 23.0396 140.384 22.3356 139.776C21.6316 139.168 20.7596 138.864 19.7196 138.864C18.7756 138.864 17.9676 139.168 17.2956 139.776C16.6236 140.368 16.2236 141.176 16.0956 142.2H23.4156ZM41.0841 143.064C41.0841 143.56 41.0521 144.008 40.9881 144.408H30.8841C30.9641 145.464 31.3561 146.312 32.0601 146.952C32.7641 147.592 33.6281 147.912 34.6521 147.912C36.1241 147.912 37.1641 147.296 37.7721 146.064H40.7241C40.3241 147.28 39.5961 148.28 38.5401 149.064C37.5001 149.832 36.2041 150.216 34.6521 150.216C33.3881 150.216 32.2521 149.936 31.2441 149.376C30.2521 148.8 29.4681 148 28.8921 146.976C28.3321 145.936 28.0521 144.736 28.0521 143.376C28.0521 142.016 28.3241 140.824 28.8681 139.8C29.4281 138.76 30.2041 137.96 31.1961 137.4C32.2041 136.84 33.3561 136.56 34.6521 136.56C35.9001 136.56 37.0121 136.832 37.9881 137.376C38.9641 137.92 39.7241 138.688 40.2681 139.68C40.8121 140.656 41.0841 141.784 41.0841 143.064ZM38.2281 142.2C38.2121 141.192 37.8521 140.384 37.1481 139.776C36.4441 139.168 35.5721 138.864 34.5321 138.864C33.5881 138.864 32.7801 139.168 32.1081 139.776C31.4361 140.368 31.0361 141.176 30.9081 142.2H38.2281ZM42.8646 143.328C42.8646 142 43.1366 140.824 43.6806 139.8C44.2406 138.776 44.9926 137.984 45.9366 137.424C46.8966 136.848 47.9606 136.56 49.1286 136.56C49.9926 136.56 50.8406 136.752 51.6726 137.136C52.5206 137.504 53.1926 138 53.6886 138.624V132.24H56.4486V150H53.6886V148.008C53.2406 148.648 52.6166 149.176 51.8166 149.592C51.0326 150.008 50.1286 150.216 49.1046 150.216C47.9526 150.216 46.8966 149.928 45.9366 149.352C44.9926 148.76 44.2406 147.944 43.6806 146.904C43.1366 145.848 42.8646 144.656 42.8646 143.328ZM53.6886 143.376C53.6886 142.464 53.4966 141.672 53.1126 141C52.7446 140.328 52.2566 139.816 51.6486 139.464C51.0406 139.112 50.3846 138.936 49.6806 138.936C48.9766 138.936 48.3206 139.112 47.7126 139.464C47.1046 139.8 46.6086 140.304 46.2246 140.976C45.8566 141.632 45.6726 142.416 45.6726 143.328C45.6726 144.24 45.8566 145.04 46.2246 145.728C46.6086 146.416 47.1046 146.944 47.7126 147.312C48.3366 147.664 48.9926 147.84 49.6806 147.84C50.3846 147.84 51.0406 147.664 51.6486 147.312C52.2566 146.96 52.7446 146.448 53.1126 145.776C53.4966 145.088 53.6886 144.288 53.6886 143.376ZM62.7782 138.744C63.2422 138.104 63.8742 137.584 64.6742 137.184C65.4902 136.768 66.3942 136.56 67.3862 136.56C68.5542 136.56 69.6102 136.84 70.5542 137.4C71.4982 137.96 72.2422 138.76 72.7862 139.8C73.3302 140.824 73.6022 142 73.6022 143.328C73.6022 144.656 73.3302 145.848 72.7862 146.904C72.2422 147.944 71.4902 148.76 70.5302 149.352C69.5862 149.928 68.5382 150.216 67.3862 150.216C66.3622 150.216 65.4502 150.016 64.6502 149.616C63.8662 149.216 63.2422 148.704 62.7782 148.08V150H60.0422V132.24H62.7782V138.744ZM70.8182 143.328C70.8182 142.416 70.6262 141.632 70.2422 140.976C69.8742 140.304 69.3782 139.8 68.7542 139.464C68.1462 139.112 67.4902 138.936 66.7862 138.936C66.0982 138.936 65.4422 139.112 64.8182 139.464C64.2102 139.816 63.7142 140.328 63.3302 141C62.9622 141.672 62.7782 142.464 62.7782 143.376C62.7782 144.288 62.9622 145.088 63.3302 145.776C63.7142 146.448 64.2102 146.96 64.8182 147.312C65.4422 147.664 66.0982 147.84 66.7862 147.84C67.4902 147.84 68.1462 147.664 68.7542 147.312C69.3782 146.944 69.8742 146.416 70.2422 145.728C70.6262 145.04 70.8182 144.24 70.8182 143.328ZM75.3958 143.328C75.3958 142 75.6678 140.824 76.2118 139.8C76.7718 138.776 77.5238 137.984 78.4678 137.424C79.4278 136.848 80.4838 136.56 81.6358 136.56C82.6758 136.56 83.5798 136.768 84.3478 137.184C85.1318 137.584 85.7558 138.088 86.2198 138.696V136.776H88.9798V150H86.2198V148.032C85.7558 148.656 85.1238 149.176 84.3238 149.592C83.5238 150.008 82.6118 150.216 81.5878 150.216C80.4518 150.216 79.4118 149.928 78.4678 149.352C77.5238 148.76 76.7718 147.944 76.2118 146.904C75.6678 145.848 75.3958 144.656 75.3958 143.328ZM86.2198 143.376C86.2198 142.464 86.0278 141.672 85.6438 141C85.2758 140.328 84.7878 139.816 84.1798 139.464C83.5718 139.112 82.9158 138.936 82.2118 138.936C81.5078 138.936 80.8518 139.112 80.2438 139.464C79.6358 139.8 79.1398 140.304 78.7558 140.976C78.3878 141.632 78.2038 142.416 78.2038 143.328C78.2038 144.24 78.3878 145.04 78.7558 145.728C79.1398 146.416 79.6358 146.944 80.2438 147.312C80.8678 147.664 81.5238 147.84 82.2118 147.84C82.9158 147.84 83.5718 147.664 84.1798 147.312C84.7878 146.96 85.2758 146.448 85.6438 145.776C86.0278 145.088 86.2198 144.288 86.2198 143.376ZM91.6614 143.376C91.6614 142.016 91.9334 140.824 92.4774 139.8C93.0374 138.76 93.8054 137.96 94.7814 137.4C95.7574 136.84 96.8774 136.56 98.1414 136.56C99.7414 136.56 101.061 136.944 102.101 137.712C103.157 138.464 103.869 139.544 104.237 140.952H101.285C101.045 140.296 100.661 139.784 100.133 139.416C99.6054 139.048 98.9414 138.864 98.1414 138.864C97.0214 138.864 96.1254 139.264 95.4534 140.064C94.7974 140.848 94.4694 141.952 94.4694 143.376C94.4694 144.8 94.7974 145.912 95.4534 146.712C96.1254 147.512 97.0214 147.912 98.1414 147.912C99.7254 147.912 100.773 147.216 101.285 145.824H104.237C103.853 147.168 103.133 148.24 102.077 149.04C101.021 149.824 99.7094 150.216 98.1414 150.216C96.8774 150.216 95.7574 149.936 94.7814 149.376C93.8054 148.8 93.0374 148 92.4774 146.976C91.9334 145.936 91.6614 144.736 91.6614 143.376ZM112.196 143.4L118.292 150H114.596L109.7 144.312V150H106.964V132.24H109.7V142.56L114.5 136.776H118.292L112.196 143.4Z" fill="#D4C0D6"/>
<path d="M42.9 47.78L29 47.78L29 45.5L42.9 45.5L42.9 47.78ZM40.2 56.3334C40.2 57.2001 40.02 57.9734 39.66 58.6534C39.3 59.3468 38.7667 59.8868 38.06 60.2734C37.3533 60.6601 36.5 60.8534 35.5 60.8534L29 60.8534L29 58.5934L35.16 58.5934C36.1467 58.5934 36.9 58.3468 37.42 57.8534C37.9533 57.3601 38.22 56.6868 38.22 55.8334C38.22 54.9801 37.9533 54.3001 37.42 53.7934C36.9 53.3001 36.1467 53.0534 35.16 53.0534L29 53.0534L29 50.7734L40.02 50.7734L40.02 53.0534L38.76 53.0534C39.2133 53.4268 39.5667 53.9001 39.82 54.4734C40.0733 55.0601 40.2 55.6801 40.2 56.3334ZM28.82 67.7617C28.82 66.8951 28.9733 66.1151 29.28 65.4217C29.6 64.7417 30.0267 64.2017 30.56 63.8017C31.1067 63.4017 31.7133 63.1884 32.38 63.1617L32.38 65.5217C31.9133 65.5617 31.52 65.7817 31.2 66.1817C30.8933 66.5951 30.74 67.1084 30.74 67.7217C30.74 68.3617 30.86 68.8551 31.1 69.2017C31.3533 69.5617 31.6733 69.7417 32.06 69.7417C32.4733 69.7417 32.78 69.5417 32.98 69.1417C33.18 68.7551 33.4 68.1351 33.64 67.2817C33.8667 66.4551 34.0867 65.7817 34.3 65.2617C34.5133 64.7417 34.84 64.2884 35.28 63.9017C35.72 63.5284 36.3 63.3417 37.02 63.3417C37.6067 63.3417 38.14 63.5151 38.62 63.8617C39.1133 64.2084 39.5 64.7017 39.78 65.3417C40.06 65.9951 40.2 66.7417 40.2 67.5817C40.2 68.8351 39.88 69.8417 39.24 70.6017C38.6133 71.3751 37.7533 71.7884 36.66 71.8417L36.66 69.5617C37.1533 69.5217 37.5467 69.3217 37.84 68.9617C38.1333 68.6017 38.28 68.1151 38.28 67.5017C38.28 66.9017 38.1667 66.4417 37.94 66.1217C37.7133 65.8017 37.4133 65.6417 37.04 65.6417C36.7467 65.6417 36.5 65.7484 36.3 65.9617C36.1 66.1751 35.94 66.4351 35.82 66.7417C35.7133 67.0484 35.5733 67.5017 35.4 68.1017C35.1867 68.9017 34.9667 69.5551 34.74 70.0617C34.5267 70.5817 34.2067 71.0284 33.78 71.4017C33.3533 71.7751 32.7867 71.9684 32.08 71.9817C31.4533 71.9817 30.8933 71.8084 30.4 71.4617C29.9067 71.1151 29.52 70.6217 29.24 69.9817C28.96 69.3551 28.82 68.6151 28.82 67.7617ZM41.48 75.6053C41.48 75.192 41.62 74.8453 41.9 74.5653C42.18 74.2853 42.5267 74.1453 42.94 74.1453C43.3533 74.1453 43.7 74.2853 43.98 74.5653C44.26 74.8453 44.4 75.192 44.4 75.6053C44.4 76.0053 44.26 76.3453 43.98 76.6253C43.7 76.9053 43.3533 77.0453 42.94 77.0453C42.5267 77.0453 42.18 76.9053 41.9 76.6253C41.62 76.3453 41.48 76.0053 41.48 75.6053ZM40.02 76.7253L29 76.7253L29 74.4453L40.02 74.4453L40.02 76.7253ZM40.2 84.1587C40.2 85.0121 40.0267 85.7654 39.68 86.4188C39.3467 87.0854 38.9267 87.6054 38.42 87.9788L40.02 87.9788L40.02 90.2788L28.82 90.2787C27.8067 90.2787 26.9067 90.0654 26.12 89.6387C25.32 89.2121 24.6933 88.5921 24.24 87.7787C23.7867 86.9787 23.56 86.0187 23.56 84.8987C23.56 83.4054 23.9133 82.1654 24.62 81.1787C25.3133 80.1921 26.26 79.6321 27.46 79.4987L27.46 81.7587C26.8867 81.9321 26.4267 82.2987 26.08 82.8587C25.72 83.4321 25.54 84.1121 25.54 84.8987C25.54 85.8187 25.82 86.5587 26.38 87.1187C26.94 87.6921 27.7533 87.9787 28.82 87.9787L30.66 87.9787C30.14 87.5921 29.7 87.0654 29.34 86.3987C28.9933 85.7454 28.82 84.9987 28.82 84.1587C28.82 83.1987 29.06 82.3187 29.54 81.5187C30.0333 80.7321 30.7133 80.1054 31.58 79.6387C32.46 79.1854 33.4533 78.9587 34.56 78.9587C35.6667 78.9587 36.6467 79.1854 37.5 79.6387C38.3533 80.1054 39.0133 80.7321 39.48 81.5187C39.96 82.3187 40.2 83.1987 40.2 84.1587ZM34.52 87.9787C35.28 87.9788 35.94 87.8187 36.5 87.4987C37.06 87.1921 37.4867 86.7854 37.78 86.2787C38.0733 85.7721 38.22 85.2254 38.22 84.6387C38.22 84.0521 38.0733 83.5054 37.78 82.9987C37.5 82.4921 37.08 82.0787 36.52 81.7587C35.9733 81.4521 35.32 81.2987 34.56 81.2987C33.8 81.2987 33.1333 81.4521 32.56 81.7587C31.9867 82.0787 31.5467 82.4921 31.24 82.9987C30.9467 83.5187 30.8 84.0654 30.8 84.6387C30.8 85.2254 30.9467 85.7721 31.24 86.2787C31.5333 86.7854 31.96 87.1921 32.52 87.4987C33.0933 87.8187 33.76 87.9787 34.52 87.9787ZM40.2 98.9734C40.2 99.8134 40.02 100.56 39.66 101.213C39.3 101.88 38.7667 102.4 38.06 102.773C37.3533 103.16 36.5 103.353 35.5 103.353L29 103.353L29 101.093L35.16 101.093C36.1467 101.093 36.9 100.847 37.42 100.353C37.9533 99.8601 38.22 99.1868 38.22 98.3334C38.22 97.4801 37.9533 96.8001 37.42 96.2934C36.9 95.8001 36.1467 95.5534 35.16 95.5534L29 95.5534L29 93.2734L43.8 93.2734L43.8 95.5534L38.74 95.5534C39.2067 95.9401 39.5667 96.4268 39.82 97.0134C40.0733 97.6134 40.2 98.2668 40.2 98.9734ZM38.16 108.922L32.06 108.922C31.6467 108.922 31.3467 109.015 31.16 109.202C30.9867 109.402 30.9 109.735 30.9 110.202L30.9 111.602L29 111.602L29 109.802C29 108.775 29.24 107.988 29.72 107.442C30.2 106.895 30.98 106.622 32.06 106.622L38.16 106.622L38.16 105.322L40.02 105.322L40.02 106.622L42.76 106.622L42.76 108.922L40.02 108.922L40.02 111.602L38.16 111.602L38.16 108.922ZM28.82 117.703C28.82 116.836 28.9733 116.056 29.28 115.363C29.6 114.683 30.0267 114.143 30.56 113.743C31.1067 113.343 31.7133 113.13 32.38 113.103L32.38 115.463C31.9133 115.503 31.52 115.723 31.2 116.123C30.8933 116.536 30.74 117.05 30.74 117.663C30.74 118.303 30.86 118.796 31.1 119.143C31.3533 119.503 31.6733 119.683 32.06 119.683C32.4733 119.683 32.78 119.483 32.98 119.083C33.18 118.696 33.4 118.076 33.64 117.223C33.8667 116.396 34.0867 115.723 34.3 115.203C34.5133 114.683 34.84 114.23 35.28 113.843C35.72 113.47 36.3 113.283 37.02 113.283C37.6067 113.283 38.14 113.456 38.62 113.803C39.1133 114.15 39.5 114.643 39.78 115.283C40.06 115.936 40.2 116.683 40.2 117.523C40.2 118.776 39.88 119.783 39.24 120.543C38.6133 121.316 37.7533 121.73 36.66 121.783L36.66 119.503C37.1533 119.463 37.5467 119.263 37.84 118.903C38.1333 118.543 38.28 118.056 38.28 117.443C38.28 116.843 38.1667 116.383 37.94 116.063C37.7133 115.743 37.4133 115.583 37.04 115.583C36.7467 115.583 36.5 115.69 36.3 115.903C36.1 116.116 35.94 116.376 35.82 116.683C35.7133 116.99 35.5733 117.443 35.4 118.043C35.1867 118.843 34.9667 119.496 34.74 120.003C34.5267 120.523 34.2067 120.97 33.78 121.343C33.3533 121.716 32.7867 121.91 32.08 121.923C31.4533 121.923 30.8933 121.75 30.4 121.403C29.9067 121.056 29.52 120.563 29.24 119.923C28.96 119.296 28.82 118.556 28.82 117.703Z" fill="#D4C0D6"/>
<path d="M92.295 100.785C92.295 98.405 92.8433 96.27 93.94 94.38C95.06 92.49 96.565 91.02 98.455 89.97C100.368 88.8967 102.457 88.36 104.72 88.36C107.31 88.36 109.608 89.0017 111.615 90.285C113.645 91.545 115.115 93.3417 116.025 95.675H111.23C110.6 94.3917 109.725 93.435 108.605 92.805C107.485 92.175 106.19 91.86 104.72 91.86C103.11 91.86 101.675 92.2217 100.415 92.945C99.155 93.6683 98.1633 94.7067 97.44 96.06C96.74 97.4133 96.39 98.9883 96.39 100.785C96.39 102.582 96.74 104.157 97.44 105.51C98.1633 106.863 99.155 107.913 100.415 108.66C101.675 109.383 103.11 109.745 104.72 109.745C106.19 109.745 107.485 109.43 108.605 108.8C109.725 108.17 110.6 107.213 111.23 105.93H116.025C115.115 108.263 113.645 110.06 111.615 111.32C109.608 112.58 107.31 113.21 104.72 113.21C102.433 113.21 100.345 112.685 98.455 111.635C96.565 110.562 95.06 109.08 93.94 107.19C92.8433 105.3 92.295 103.165 92.295 100.785ZM129.06 113.315C127.24 113.315 125.595 112.907 124.125 112.09C122.655 111.25 121.5 110.083 120.66 108.59C119.82 107.073 119.4 105.323 119.4 103.34C119.4 101.38 119.832 99.6417 120.695 98.125C121.559 96.6083 122.737 95.4417 124.23 94.625C125.724 93.8083 127.392 93.4 129.235 93.4C131.079 93.4 132.747 93.8083 134.24 94.625C135.734 95.4417 136.912 96.6083 137.775 98.125C138.639 99.6417 139.07 101.38 139.07 103.34C139.07 105.3 138.627 107.038 137.74 108.555C136.854 110.072 135.64 111.25 134.1 112.09C132.584 112.907 130.904 113.315 129.06 113.315ZM129.06 109.85C130.087 109.85 131.044 109.605 131.93 109.115C132.84 108.625 133.575 107.89 134.135 106.91C134.695 105.93 134.975 104.74 134.975 103.34C134.975 101.94 134.707 100.762 134.17 99.805C133.634 98.825 132.922 98.09 132.035 97.6C131.149 97.11 130.192 96.865 129.165 96.865C128.139 96.865 127.182 97.11 126.295 97.6C125.432 98.09 124.744 98.825 124.23 99.805C123.717 100.762 123.46 101.94 123.46 103.34C123.46 105.417 123.985 107.027 125.035 108.17C126.109 109.29 127.45 109.85 129.06 109.85ZM147.005 87.1V113H143.015V87.1H147.005ZM156.233 87.1V113H152.243V87.1H156.233ZM160.142 103.27C160.142 101.333 160.538 99.6183 161.332 98.125C162.148 96.6317 163.245 95.4767 164.622 94.66C166.022 93.82 167.562 93.4 169.242 93.4C170.758 93.4 172.077 93.7033 173.197 94.31C174.34 94.8933 175.25 95.6283 175.927 96.515V93.715H179.952V113H175.927V110.13C175.25 111.04 174.328 111.798 173.162 112.405C171.995 113.012 170.665 113.315 169.172 113.315C167.515 113.315 165.998 112.895 164.622 112.055C163.245 111.192 162.148 110.002 161.332 108.485C160.538 106.945 160.142 105.207 160.142 103.27ZM175.927 103.34C175.927 102.01 175.647 100.855 175.087 99.875C174.55 98.895 173.838 98.1483 172.952 97.635C172.065 97.1217 171.108 96.865 170.082 96.865C169.055 96.865 168.098 97.1217 167.212 97.635C166.325 98.125 165.602 98.86 165.042 99.84C164.505 100.797 164.237 101.94 164.237 103.27C164.237 104.6 164.505 105.767 165.042 106.77C165.602 107.773 166.325 108.543 167.212 109.08C168.122 109.593 169.078 109.85 170.082 109.85C171.108 109.85 172.065 109.593 172.952 109.08C173.838 108.567 174.55 107.82 175.087 106.84C175.647 105.837 175.927 104.67 175.927 103.34ZM189.182 96.585C189.859 95.6517 190.781 94.8933 191.947 94.31C193.137 93.7033 194.456 93.4 195.902 93.4C197.606 93.4 199.146 93.8083 200.522 94.625C201.899 95.4417 202.984 96.6083 203.777 98.125C204.571 99.6183 204.967 101.333 204.967 103.27C204.967 105.207 204.571 106.945 203.777 108.485C202.984 110.002 201.887 111.192 200.487 112.055C199.111 112.895 197.582 113.315 195.902 113.315C194.409 113.315 193.079 113.023 191.912 112.44C190.769 111.857 189.859 111.11 189.182 110.2V113H185.192V87.1H189.182V96.585ZM200.907 103.27C200.907 101.94 200.627 100.797 200.067 99.84C199.531 98.86 198.807 98.125 197.897 97.635C197.011 97.1217 196.054 96.865 195.027 96.865C194.024 96.865 193.067 97.1217 192.157 97.635C191.271 98.1483 190.547 98.895 189.987 99.875C189.451 100.855 189.182 102.01 189.182 103.34C189.182 104.67 189.451 105.837 189.987 106.84C190.547 107.82 191.271 108.567 192.157 109.08C193.067 109.593 194.024 109.85 195.027 109.85C196.054 109.85 197.011 109.593 197.897 109.08C198.807 108.543 199.531 107.773 200.067 106.77C200.627 105.767 200.907 104.6 200.907 103.27ZM217.278 113.315C215.458 113.315 213.813 112.907 212.343 112.09C210.873 111.25 209.718 110.083 208.878 108.59C208.038 107.073 207.618 105.323 207.618 103.34C207.618 101.38 208.05 99.6417 208.913 98.125C209.776 96.6083 210.955 95.4417 212.448 94.625C213.941 93.8083 215.61 93.4 217.453 93.4C219.296 93.4 220.965 93.8083 222.458 94.625C223.951 95.4417 225.13 96.6083 225.993 98.125C226.856 99.6417 227.288 101.38 227.288 103.34C227.288 105.3 226.845 107.038 225.958 108.555C225.071 110.072 223.858 111.25 222.318 112.09C220.801 112.907 219.121 113.315 217.278 113.315ZM217.278 109.85C218.305 109.85 219.261 109.605 220.148 109.115C221.058 108.625 221.793 107.89 222.353 106.91C222.913 105.93 223.193 104.74 223.193 103.34C223.193 101.94 222.925 100.762 222.388 99.805C221.851 98.825 221.14 98.09 220.253 97.6C219.366 97.11 218.41 96.865 217.383 96.865C216.356 96.865 215.4 97.11 214.513 97.6C213.65 98.09 212.961 98.825 212.448 99.805C211.935 100.762 211.678 101.94 211.678 103.34C211.678 105.417 212.203 107.027 213.253 108.17C214.326 109.29 215.668 109.85 217.278 109.85ZM235.222 96.515C235.806 95.535 236.576 94.7767 237.532 94.24C238.512 93.68 239.667 93.4 240.997 93.4V97.53H239.982C238.419 97.53 237.229 97.9267 236.412 98.72C235.619 99.5133 235.222 100.89 235.222 102.85V113H231.232V93.715H235.222V96.515ZM243.335 103.27C243.335 101.333 243.732 99.6183 244.525 98.125C245.342 96.6317 246.438 95.4767 247.815 94.66C249.215 93.82 250.755 93.4 252.435 93.4C253.952 93.4 255.27 93.7033 256.39 94.31C257.533 94.8933 258.443 95.6283 259.12 96.515V93.715H263.145V113H259.12V110.13C258.443 111.04 257.522 111.798 256.355 112.405C255.188 113.012 253.858 113.315 252.365 113.315C250.708 113.315 249.192 112.895 247.815 112.055C246.438 111.192 245.342 110.002 244.525 108.485C243.732 106.945 243.335 105.207 243.335 103.27ZM259.12 103.34C259.12 102.01 258.84 100.855 258.28 99.875C257.743 98.895 257.032 98.1483 256.145 97.635C255.258 97.1217 254.302 96.865 253.275 96.865C252.248 96.865 251.292 97.1217 250.405 97.635C249.518 98.125 248.795 98.86 248.235 99.84C247.698 100.797 247.43 101.94 247.43 103.27C247.43 104.6 247.698 105.767 248.235 106.77C248.795 107.773 249.518 108.543 250.405 109.08C251.315 109.593 252.272 109.85 253.275 109.85C254.302 109.85 255.258 109.593 256.145 109.08C257.032 108.567 257.743 107.82 258.28 106.84C258.84 105.837 259.12 104.67 259.12 103.34ZM273.041 96.97V107.645C273.041 108.368 273.204 108.893 273.531 109.22C273.881 109.523 274.464 109.675 275.281 109.675H277.731V113H274.581C272.784 113 271.407 112.58 270.451 111.74C269.494 110.9 269.016 109.535 269.016 107.645V96.97H266.741V93.715H269.016V88.92H273.041V93.715H277.731V96.97H273.041ZM283.438 91.16C282.715 91.16 282.108 90.915 281.618 90.425C281.128 89.935 280.883 89.3283 280.883 88.605C280.883 87.8817 281.128 87.275 281.618 86.785C282.108 86.295 282.715 86.05 283.438 86.05C284.138 86.05 284.733 86.295 285.223 86.785C285.713 87.275 285.958 87.8817 285.958 88.605C285.958 89.3283 285.713 89.935 285.223 90.425C284.733 90.915 284.138 91.16 283.438 91.16ZM285.398 93.715V113H281.408V93.715H285.398ZM299.002 113.315C297.182 113.315 295.537 112.907 294.067 112.09C292.597 111.25 291.442 110.083 290.602 108.59C289.762 107.073 289.342 105.323 289.342 103.34C289.342 101.38 289.773 99.6417 290.637 98.125C291.5 96.6083 292.678 95.4417 294.172 94.625C295.665 93.8083 297.333 93.4 299.177 93.4C301.02 93.4 302.688 93.8083 304.182 94.625C305.675 95.4417 306.853 96.6083 307.717 98.125C308.58 99.6417 309.012 101.38 309.012 103.34C309.012 105.3 308.568 107.038 307.682 108.555C306.795 110.072 305.582 111.25 304.042 112.09C302.525 112.907 300.845 113.315 299.002 113.315ZM299.002 109.85C300.028 109.85 300.985 109.605 301.872 109.115C302.782 108.625 303.517 107.89 304.077 106.91C304.637 105.93 304.917 104.74 304.917 103.34C304.917 101.94 304.648 100.762 304.112 99.805C303.575 98.825 302.863 98.09 301.977 97.6C301.09 97.11 300.133 96.865 299.107 96.865C298.08 96.865 297.123 97.11 296.237 97.6C295.373 98.09 294.685 98.825 294.172 99.805C293.658 100.762 293.402 101.94 293.402 103.34C293.402 105.417 293.927 107.027 294.977 108.17C296.05 109.29 297.392 109.85 299.002 109.85ZM322.686 93.4C324.203 93.4 325.556 93.715 326.746 94.345C327.959 94.975 328.904 95.9083 329.581 97.145C330.258 98.3817 330.596 99.875 330.596 101.625V113H326.641V102.22C326.641 100.493 326.209 99.175 325.346 98.265C324.483 97.3317 323.304 96.865 321.811 96.865C320.318 96.865 319.128 97.3317 318.241 98.265C317.378 99.175 316.946 100.493 316.946 102.22V113H312.956V93.715H316.946V95.92C317.599 95.1267 318.428 94.5083 319.431 94.065C320.458 93.6217 321.543 93.4 322.686 93.4Z" fill="#A6EC99"/>
<path d="M239.024 60.352V63.616H242.864V65.104H239.024V68.512H243.344V70H237.2V58.864H243.344V60.352H239.024ZM250.039 61.04C250.732 61.04 251.351 61.184 251.895 61.472C252.449 61.76 252.881 62.1867 253.191 62.752C253.5 63.3173 253.655 64 253.655 64.8V70H251.847V65.072C251.847 64.2827 251.649 63.68 251.255 63.264C250.86 62.8373 250.321 62.624 249.639 62.624C248.956 62.624 248.412 62.8373 248.007 63.264C247.612 63.68 247.415 64.2827 247.415 65.072V70H245.591V61.184H247.415V62.192C247.713 61.8293 248.092 61.5467 248.551 61.344C249.02 61.1413 249.516 61.04 250.039 61.04ZM259.533 61.04C260.216 61.04 260.819 61.1787 261.341 61.456C261.875 61.7227 262.291 62.0587 262.589 62.464V61.184H264.429V70.144C264.429 70.9547 264.259 71.6747 263.917 72.304C263.576 72.944 263.08 73.4453 262.429 73.808C261.789 74.1707 261.021 74.352 260.125 74.352C258.931 74.352 257.939 74.0693 257.149 73.504C256.36 72.9493 255.912 72.192 255.805 71.232H257.613C257.752 71.6907 258.045 72.0587 258.493 72.336C258.952 72.624 259.496 72.768 260.125 72.768C260.861 72.768 261.453 72.544 261.901 72.096C262.36 71.648 262.589 70.9973 262.589 70.144V68.672C262.28 69.088 261.859 69.44 261.325 69.728C260.803 70.0053 260.205 70.144 259.533 70.144C258.765 70.144 258.061 69.952 257.421 69.568C256.792 69.1733 256.291 68.6293 255.917 67.936C255.555 67.232 255.373 66.4373 255.373 65.552C255.373 64.6667 255.555 63.8827 255.917 63.2C256.291 62.5173 256.792 61.9893 257.421 61.616C258.061 61.232 258.765 61.04 259.533 61.04ZM262.589 65.584C262.589 64.976 262.461 64.448 262.205 64C261.96 63.552 261.635 63.2107 261.229 62.976C260.824 62.7413 260.387 62.624 259.917 62.624C259.448 62.624 259.011 62.7413 258.605 62.976C258.2 63.2 257.869 63.536 257.613 63.984C257.368 64.4213 257.245 64.944 257.245 65.552C257.245 66.16 257.368 66.6933 257.613 67.152C257.869 67.6107 258.2 67.9627 258.605 68.208C259.021 68.4427 259.459 68.56 259.917 68.56C260.387 68.56 260.824 68.4427 261.229 68.208C261.635 67.9733 261.96 67.632 262.205 67.184C262.461 66.7253 262.589 66.192 262.589 65.584ZM266.217 65.552C266.217 64.6667 266.398 63.8827 266.761 63.2C267.134 62.5173 267.636 61.9893 268.265 61.616C268.905 61.232 269.609 61.04 270.377 61.04C271.07 61.04 271.673 61.1787 272.185 61.456C272.708 61.7227 273.124 62.0587 273.433 62.464V61.184H275.273V70H273.433V68.688C273.124 69.104 272.702 69.4507 272.169 69.728C271.636 70.0053 271.028 70.144 270.345 70.144C269.588 70.144 268.894 69.952 268.265 69.568C267.636 69.1733 267.134 68.6293 266.761 67.936C266.398 67.232 266.217 66.4373 266.217 65.552ZM273.433 65.584C273.433 64.976 273.305 64.448 273.049 64C272.804 63.552 272.478 63.2107 272.073 62.976C271.668 62.7413 271.23 62.624 270.761 62.624C270.292 62.624 269.854 62.7413 269.449 62.976C269.044 63.2 268.713 63.536 268.457 63.984C268.212 64.4213 268.089 64.944 268.089 65.552C268.089 66.16 268.212 66.6933 268.457 67.152C268.713 67.6107 269.044 67.9627 269.449 68.208C269.865 68.4427 270.302 68.56 270.761 68.56C271.23 68.56 271.668 68.4427 272.073 68.208C272.478 67.9733 272.804 67.632 273.049 67.184C273.305 66.7253 273.433 66.192 273.433 65.584ZM281.221 61.04C281.903 61.04 282.506 61.1787 283.029 61.456C283.562 61.7227 283.978 62.0587 284.277 62.464V61.184H286.117V70.144C286.117 70.9547 285.946 71.6747 285.605 72.304C285.263 72.944 284.767 73.4453 284.117 73.808C283.477 74.1707 282.709 74.352 281.813 74.352C280.618 74.352 279.626 74.0693 278.837 73.504C278.047 72.9493 277.599 72.192 277.493 71.232H279.301C279.439 71.6907 279.733 72.0587 280.181 72.336C280.639 72.624 281.183 72.768 281.813 72.768C282.549 72.768 283.141 72.544 283.589 72.096C284.047 71.648 284.277 70.9973 284.277 70.144V68.672C283.967 69.088 283.546 69.44 283.013 69.728C282.49 70.0053 281.893 70.144 281.221 70.144C280.453 70.144 279.749 69.952 279.109 69.568C278.479 69.1733 277.978 68.6293 277.605 67.936C277.242 67.232 277.061 66.4373 277.061 65.552C277.061 64.6667 277.242 63.8827 277.605 63.2C277.978 62.5173 278.479 61.9893 279.109 61.616C279.749 61.232 280.453 61.04 281.221 61.04ZM284.277 65.584C284.277 64.976 284.149 64.448 283.893 64C283.647 63.552 283.322 63.2107 282.917 62.976C282.511 62.7413 282.074 62.624 281.605 62.624C281.135 62.624 280.698 62.7413 280.293 62.976C279.887 63.2 279.557 63.536 279.301 63.984C279.055 64.4213 278.933 64.944 278.933 65.552C278.933 66.16 279.055 66.6933 279.301 67.152C279.557 67.6107 279.887 67.9627 280.293 68.208C280.709 68.4427 281.146 68.56 281.605 68.56C282.074 68.56 282.511 68.4427 282.917 68.208C283.322 67.9733 283.647 67.632 283.893 67.184C284.149 66.7253 284.277 66.192 284.277 65.584ZM296.593 65.376C296.593 65.7067 296.571 66.0053 296.529 66.272H289.793C289.846 66.976 290.107 67.5413 290.577 67.968C291.046 68.3947 291.622 68.608 292.305 68.608C293.286 68.608 293.979 68.1973 294.385 67.376H296.352C296.086 68.1867 295.601 68.8533 294.897 69.376C294.203 69.888 293.339 70.144 292.305 70.144C291.462 70.144 290.705 69.9573 290.033 69.584C289.371 69.2 288.849 68.6667 288.465 67.984C288.091 67.2907 287.905 66.4907 287.905 65.584C287.905 64.6773 288.086 63.8827 288.449 63.2C288.822 62.5067 289.339 61.9733 290.001 61.6C290.673 61.2267 291.441 61.04 292.305 61.04C293.137 61.04 293.878 61.2213 294.529 61.584C295.179 61.9467 295.686 62.4587 296.049 63.12C296.411 63.7707 296.593 64.5227 296.593 65.376ZM294.689 64.8C294.678 64.128 294.438 63.5893 293.969 63.184C293.499 62.7787 292.918 62.576 292.225 62.576C291.595 62.576 291.057 62.7787 290.609 63.184C290.161 63.5787 289.894 64.1173 289.809 64.8H294.689ZM309.06 61.04C309.753 61.04 310.372 61.184 310.916 61.472C311.47 61.76 311.902 62.1867 312.212 62.752C312.532 63.3173 312.692 64 312.692 64.8V70H310.884V65.072C310.884 64.2827 310.686 63.68 310.292 63.264C309.897 62.8373 309.358 62.624 308.676 62.624C307.993 62.624 307.449 62.8373 307.044 63.264C306.649 63.68 306.452 64.2827 306.452 65.072V70H304.644V65.072C304.644 64.2827 304.446 63.68 304.052 63.264C303.657 62.8373 303.118 62.624 302.436 62.624C301.753 62.624 301.209 62.8373 300.804 63.264C300.409 63.68 300.212 64.2827 300.212 65.072V70H298.388V61.184H300.212V62.192C300.51 61.8293 300.889 61.5467 301.348 61.344C301.806 61.1413 302.297 61.04 302.82 61.04C303.524 61.04 304.153 61.1893 304.708 61.488C305.262 61.7867 305.689 62.2187 305.988 62.784C306.254 62.2507 306.67 61.8293 307.236 61.52C307.801 61.2 308.409 61.04 309.06 61.04ZM323.093 65.376C323.093 65.7067 323.071 66.0053 323.029 66.272H316.293C316.346 66.976 316.607 67.5413 317.077 67.968C317.546 68.3947 318.122 68.608 318.805 68.608C319.786 68.608 320.479 68.1973 320.885 67.376H322.852C322.586 68.1867 322.101 68.8533 321.397 69.376C320.703 69.888 319.839 70.144 318.805 70.144C317.962 70.144 317.205 69.9573 316.533 69.584C315.871 69.2 315.349 68.6667 314.965 67.984C314.591 67.2907 314.405 66.4907 314.405 65.584C314.405 64.6773 314.586 63.8827 314.949 63.2C315.322 62.5067 315.839 61.9733 316.501 61.6C317.173 61.2267 317.941 61.04 318.805 61.04C319.637 61.04 320.378 61.2213 321.029 61.584C321.679 61.9467 322.186 62.4587 322.549 63.12C322.911 63.7707 323.093 64.5227 323.093 65.376ZM321.189 64.8C321.178 64.128 320.938 63.5893 320.469 63.184C319.999 62.7787 319.418 62.576 318.725 62.576C318.095 62.576 317.557 62.7787 317.109 63.184C316.661 63.5787 316.394 64.1173 316.309 64.8H321.189ZM329.336 61.04C330.029 61.04 330.648 61.184 331.192 61.472C331.746 61.76 332.178 62.1867 332.488 62.752C332.797 63.3173 332.952 64 332.952 64.8V70H331.144V65.072C331.144 64.2827 330.946 63.68 330.552 63.264C330.157 62.8373 329.618 62.624 328.936 62.624C328.253 62.624 327.709 62.8373 327.304 63.264C326.909 63.68 326.712 64.2827 326.712 65.072V70H324.888V61.184H326.712V62.192C327.01 61.8293 327.389 61.5467 327.848 61.344C328.317 61.1413 328.813 61.04 329.336 61.04ZM337.406 62.672V67.552C337.406 67.8827 337.481 68.1227 337.63 68.272C337.79 68.4107 338.057 68.48 338.43 68.48H339.55V70H338.11C337.289 70 336.659 69.808 336.222 69.424C335.785 69.04 335.566 68.416 335.566 67.552V62.672H334.526V61.184H335.566V58.992H337.406V61.184H339.55V62.672H337.406Z" fill="#F4B9C2"/>
<path d="M90.04 45.1C91.52 45.1 92.8133 45.3867 93.92 45.96C95.04 46.52 95.9 47.3333 96.5 48.4C97.1133 49.4533 97.42 50.6867 97.42 52.1C97.42 53.5133 97.1133 54.74 96.5 55.78C95.9 56.82 95.04 57.62 93.92 58.18C92.8133 58.7267 91.52 59 90.04 59H85.5V45.1H90.04ZM90.04 57.14C91.6667 57.14 92.9133 56.7 93.78 55.82C94.6467 54.94 95.08 53.7 95.08 52.1C95.08 50.4867 94.6467 49.2267 93.78 48.32C92.9133 47.4133 91.6667 46.96 90.04 46.96H87.78V57.14H90.04ZM100.84 46.52C100.426 46.52 100.08 46.38 99.7997 46.1C99.5197 45.82 99.3797 45.4733 99.3797 45.06C99.3797 44.6467 99.5197 44.3 99.7997 44.02C100.08 43.74 100.426 43.6 100.84 43.6C101.24 43.6 101.58 43.74 101.86 44.02C102.14 44.3 102.28 44.6467 102.28 45.06C102.28 45.4733 102.14 45.82 101.86 46.1C101.58 46.38 101.24 46.52 100.84 46.52ZM101.96 47.98V59H99.6797V47.98H101.96ZM108.953 59.18C108.086 59.18 107.306 59.0267 106.613 58.72C105.933 58.4 105.393 57.9733 104.993 57.44C104.593 56.8933 104.38 56.2867 104.353 55.62H106.713C106.753 56.0867 106.973 56.48 107.373 56.8C107.786 57.1067 108.3 57.26 108.913 57.26C109.553 57.26 110.046 57.14 110.393 56.9C110.753 56.6467 110.933 56.3267 110.933 55.94C110.933 55.5267 110.733 55.22 110.333 55.02C109.946 54.82 109.326 54.6 108.473 54.36C107.646 54.1333 106.973 53.9133 106.453 53.7C105.933 53.4867 105.48 53.16 105.093 52.72C104.72 52.28 104.533 51.7 104.533 50.98C104.533 50.3933 104.706 49.86 105.053 49.38C105.4 48.8867 105.893 48.5 106.533 48.22C107.186 47.94 107.933 47.8 108.773 47.8C110.026 47.8 111.033 48.12 111.793 48.76C112.566 49.3867 112.98 50.2467 113.033 51.34H110.753C110.713 50.8467 110.513 50.4533 110.153 50.16C109.793 49.8667 109.306 49.72 108.693 49.72C108.093 49.72 107.633 49.8333 107.313 50.06C106.993 50.2867 106.833 50.5867 106.833 50.96C106.833 51.2533 106.94 51.5 107.153 51.7C107.366 51.9 107.626 52.06 107.933 52.18C108.24 52.2867 108.693 52.4267 109.293 52.6C110.093 52.8133 110.746 53.0333 111.253 53.26C111.773 53.4733 112.22 53.7933 112.593 54.22C112.966 54.6467 113.16 55.2133 113.173 55.92C113.173 56.5467 113 57.1067 112.653 57.6C112.306 58.0933 111.813 58.48 111.173 58.76C110.546 59.04 109.806 59.18 108.953 59.18ZM114.877 53.48C114.877 52.3467 115.103 51.3533 115.557 50.5C116.023 49.6333 116.663 48.9667 117.477 48.5C118.29 48.0333 119.223 47.8 120.277 47.8C121.61 47.8 122.71 48.12 123.577 48.76C124.457 49.3867 125.05 50.2867 125.357 51.46H122.897C122.697 50.9133 122.377 50.4867 121.937 50.18C121.497 49.8733 120.943 49.72 120.277 49.72C119.343 49.72 118.597 50.0533 118.037 50.72C117.49 51.3733 117.217 52.2933 117.217 53.48C117.217 54.6667 117.49 55.5933 118.037 56.26C118.597 56.9267 119.343 57.26 120.277 57.26C121.597 57.26 122.47 56.68 122.897 55.52H125.357C125.037 56.64 124.437 57.5333 123.557 58.2C122.677 58.8533 121.583 59.18 120.277 59.18C119.223 59.18 118.29 58.9467 117.477 58.48C116.663 58 116.023 57.3333 115.557 56.48C115.103 55.6133 114.877 54.6133 114.877 53.48ZM137.609 47.98V59H135.329V57.7C134.969 58.1533 134.496 58.5133 133.909 58.78C133.336 59.0333 132.722 59.16 132.069 59.16C131.202 59.16 130.422 58.98 129.729 58.62C129.049 58.26 128.509 57.7267 128.109 57.02C127.722 56.3133 127.529 55.46 127.529 54.46V47.98H129.789V54.12C129.789 55.1067 130.036 55.8667 130.529 56.4C131.022 56.92 131.696 57.18 132.549 57.18C133.402 57.18 134.076 56.92 134.569 56.4C135.076 55.8667 135.329 55.1067 135.329 54.12V47.98H137.609ZM144.617 59.18C143.751 59.18 142.971 59.0267 142.277 58.72C141.597 58.4 141.057 57.9733 140.657 57.44C140.257 56.8933 140.044 56.2867 140.017 55.62H142.377C142.417 56.0867 142.637 56.48 143.037 56.8C143.451 57.1067 143.964 57.26 144.577 57.26C145.217 57.26 145.711 57.14 146.057 56.9C146.417 56.6467 146.597 56.3267 146.597 55.94C146.597 55.5267 146.397 55.22 145.997 55.02C145.611 54.82 144.991 54.6 144.137 54.36C143.311 54.1333 142.637 53.9133 142.117 53.7C141.597 53.4867 141.144 53.16 140.757 52.72C140.384 52.28 140.197 51.7 140.197 50.98C140.197 50.3933 140.371 49.86 140.717 49.38C141.064 48.8867 141.557 48.5 142.197 48.22C142.851 47.94 143.597 47.8 144.437 47.8C145.691 47.8 146.697 48.12 147.457 48.76C148.231 49.3867 148.644 50.2467 148.697 51.34H146.417C146.377 50.8467 146.177 50.4533 145.817 50.16C145.457 49.8667 144.971 49.72 144.357 49.72C143.757 49.72 143.297 49.8333 142.977 50.06C142.657 50.2867 142.497 50.5867 142.497 50.96C142.497 51.2533 142.604 51.5 142.817 51.7C143.031 51.9 143.291 52.06 143.597 52.18C143.904 52.2867 144.357 52.4267 144.957 52.6C145.757 52.8133 146.411 53.0333 146.917 53.26C147.437 53.4733 147.884 53.7933 148.257 54.22C148.631 54.6467 148.824 55.2133 148.837 55.92C148.837 56.5467 148.664 57.1067 148.317 57.6C147.971 58.0933 147.477 58.48 146.837 58.76C146.211 59.04 145.471 59.18 144.617 59.18ZM155.301 59.18C154.434 59.18 153.654 59.0267 152.961 58.72C152.281 58.4 151.741 57.9733 151.341 57.44C150.941 56.8933 150.727 56.2867 150.701 55.62H153.061C153.101 56.0867 153.321 56.48 153.721 56.8C154.134 57.1067 154.647 57.26 155.261 57.26C155.901 57.26 156.394 57.14 156.741 56.9C157.101 56.6467 157.281 56.3267 157.281 55.94C157.281 55.5267 157.081 55.22 156.681 55.02C156.294 54.82 155.674 54.6 154.821 54.36C153.994 54.1333 153.321 53.9133 152.801 53.7C152.281 53.4867 151.827 53.16 151.441 52.72C151.067 52.28 150.881 51.7 150.881 50.98C150.881 50.3933 151.054 49.86 151.401 49.38C151.747 48.8867 152.241 48.5 152.881 48.22C153.534 47.94 154.281 47.8 155.121 47.8C156.374 47.8 157.381 48.12 158.141 48.76C158.914 49.3867 159.327 50.2467 159.381 51.34H157.101C157.061 50.8467 156.861 50.4533 156.501 50.16C156.141 49.8667 155.654 49.72 155.041 49.72C154.441 49.72 153.981 49.8333 153.661 50.06C153.341 50.2867 153.181 50.5867 153.181 50.96C153.181 51.2533 153.287 51.5 153.501 51.7C153.714 51.9 153.974 52.06 154.281 52.18C154.587 52.2867 155.041 52.4267 155.641 52.6C156.441 52.8133 157.094 53.0333 157.601 53.26C158.121 53.4733 158.567 53.7933 158.941 54.22C159.314 54.6467 159.507 55.2133 159.521 55.92C159.521 56.5467 159.347 57.1067 159.001 57.6C158.654 58.0933 158.161 58.48 157.521 58.76C156.894 59.04 156.154 59.18 155.301 59.18ZM163.144 46.52C162.731 46.52 162.384 46.38 162.104 46.1C161.824 45.82 161.684 45.4733 161.684 45.06C161.684 44.6467 161.824 44.3 162.104 44.02C162.384 43.74 162.731 43.6 163.144 43.6C163.544 43.6 163.884 43.74 164.164 44.02C164.444 44.3 164.584 44.6467 164.584 45.06C164.584 45.4733 164.444 45.82 164.164 46.1C163.884 46.38 163.544 46.52 163.144 46.52ZM164.264 47.98V59H161.984V47.98H164.264ZM172.038 59.18C170.998 59.18 170.058 58.9467 169.218 58.48C168.378 58 167.718 57.3333 167.238 56.48C166.758 55.6133 166.518 54.6133 166.518 53.48C166.518 52.36 166.764 51.3667 167.258 50.5C167.751 49.6333 168.424 48.9667 169.278 48.5C170.131 48.0333 171.084 47.8 172.138 47.8C173.191 47.8 174.144 48.0333 174.998 48.5C175.851 48.9667 176.524 49.6333 177.018 50.5C177.511 51.3667 177.758 52.36 177.758 53.48C177.758 54.6 177.504 55.5933 176.998 56.46C176.491 57.3267 175.798 58 174.918 58.48C174.051 58.9467 173.091 59.18 172.038 59.18ZM172.038 57.2C172.624 57.2 173.171 57.06 173.678 56.78C174.198 56.5 174.618 56.08 174.938 55.52C175.258 54.96 175.418 54.28 175.418 53.48C175.418 52.68 175.264 52.0067 174.958 51.46C174.651 50.9 174.244 50.48 173.738 50.2C173.231 49.92 172.684 49.78 172.098 49.78C171.511 49.78 170.964 49.92 170.458 50.2C169.964 50.48 169.571 50.9 169.278 51.46C168.984 52.0067 168.838 52.68 168.838 53.48C168.838 54.6667 169.138 55.5867 169.738 56.24C170.351 56.88 171.118 57.2 172.038 57.2ZM185.572 47.8C186.438 47.8 187.212 47.98 187.892 48.34C188.585 48.7 189.125 49.2333 189.512 49.94C189.898 50.6467 190.092 51.5 190.092 52.5V59H187.832V52.84C187.832 51.8533 187.585 51.1 187.092 50.58C186.598 50.0467 185.925 49.78 185.072 49.78C184.218 49.78 183.538 50.0467 183.032 50.58C182.538 51.1 182.292 51.8533 182.292 52.84V59H180.012V47.98H182.292V49.24C182.665 48.7867 183.138 48.4333 183.712 48.18C184.298 47.9267 184.918 47.8 185.572 47.8Z" fill="#ED6D52"/>
<path d="M39.78 8.1V22H37.5V8.1H39.78ZM48.3334 10.8C49.2001 10.8 49.9734 10.98 50.6534 11.34C51.3468 11.7 51.8868 12.2333 52.2734 12.94C52.6601 13.6467 52.8534 14.5 52.8534 15.5V22H50.5934V15.84C50.5934 14.8533 50.3468 14.1 49.8534 13.58C49.3601 13.0467 48.6868 12.78 47.8334 12.78C46.9801 12.78 46.3001 13.0467 45.7934 13.58C45.3001 14.1 45.0534 14.8533 45.0534 15.84V22H42.7734V10.98H45.0534V12.24C45.4268 11.7867 45.9001 11.4333 46.4734 11.18C47.0601 10.9267 47.6801 10.8 48.3334 10.8ZM58.4217 12.84V18.94C58.4217 19.3533 58.5151 19.6533 58.7017 19.84C58.9017 20.0133 59.2351 20.1 59.7017 20.1H61.1017V22H59.3017C58.2751 22 57.4884 21.76 56.9417 21.28C56.3951 20.8 56.1217 20.02 56.1217 18.94V12.84H54.8217V10.98H56.1217V8.24H58.4217V10.98H61.1017V12.84H58.4217ZM73.3031 16.22C73.3031 16.6333 73.2765 17.0067 73.2231 17.34H64.8031C64.8698 18.22 65.1965 18.9267 65.7831 19.46C66.3698 19.9933 67.0898 20.26 67.9431 20.26C69.1698 20.26 70.0365 19.7467 70.5431 18.72H73.0031C72.6698 19.7333 72.0631 20.5667 71.1831 21.22C70.3165 21.86 69.2365 22.18 67.9431 22.18C66.8898 22.18 65.9431 21.9467 65.1031 21.48C64.2765 21 63.6231 20.3333 63.1431 19.48C62.6765 18.6133 62.4431 17.6133 62.4431 16.48C62.4431 15.3467 62.6698 14.3533 63.1231 13.5C63.5898 12.6333 64.2365 11.9667 65.0631 11.5C65.9031 11.0333 66.8631 10.8 67.9431 10.8C68.9831 10.8 69.9098 11.0267 70.7231 11.48C71.5365 11.9333 72.1698 12.5733 72.6231 13.4C73.0765 14.2133 73.3031 15.1533 73.3031 16.22ZM70.9231 15.5C70.9098 14.66 70.6098 13.9867 70.0231 13.48C69.4365 12.9733 68.7098 12.72 67.8431 12.72C67.0565 12.72 66.3831 12.9733 65.8231 13.48C65.2631 13.9733 64.9298 14.6467 64.8231 15.5H70.9231ZM77.8269 12.58C78.1602 12.02 78.6002 11.5867 79.1469 11.28C79.7069 10.96 80.3669 10.8 81.1269 10.8V13.16H80.5469C79.6535 13.16 78.9735 13.3867 78.5069 13.84C78.0535 14.2933 77.8269 15.08 77.8269 16.2V22H75.5469V10.98H77.8269V12.58ZM82.4627 16.44C82.4627 15.3333 82.6893 14.3533 83.1427 13.5C83.6093 12.6467 84.236 11.9867 85.0227 11.52C85.8227 11.04 86.7027 10.8 87.6627 10.8C88.5293 10.8 89.2827 10.9733 89.9227 11.32C90.576 11.6533 91.096 12.0733 91.4827 12.58V10.98H93.7827V22H91.4827V20.36C91.096 20.88 90.5693 21.3133 89.9027 21.66C89.236 22.0067 88.476 22.18 87.6227 22.18C86.676 22.18 85.8093 21.94 85.0227 21.46C84.236 20.9667 83.6093 20.2867 83.1427 19.42C82.6893 18.54 82.4627 17.5467 82.4627 16.44ZM91.4827 16.48C91.4827 15.72 91.3227 15.06 91.0027 14.5C90.696 13.94 90.2893 13.5133 89.7827 13.22C89.276 12.9267 88.7293 12.78 88.1427 12.78C87.556 12.78 87.0093 12.9267 86.5027 13.22C85.996 13.5 85.5827 13.92 85.2627 14.48C84.956 15.0267 84.8027 15.68 84.8027 16.44C84.8027 17.2 84.956 17.8667 85.2627 18.44C85.5827 19.0133 85.996 19.4533 86.5027 19.76C87.0227 20.0533 87.5693 20.2 88.1427 20.2C88.7293 20.2 89.276 20.0533 89.7827 19.76C90.2893 19.4667 90.696 19.04 91.0027 18.48C91.3227 17.9067 91.4827 17.24 91.4827 16.48ZM96.0173 16.48C96.0173 15.3467 96.244 14.3533 96.6973 13.5C97.164 12.6333 97.804 11.9667 98.6173 11.5C99.4307 11.0333 100.364 10.8 101.417 10.8C102.751 10.8 103.851 11.12 104.717 11.76C105.597 12.3867 106.191 13.2867 106.497 14.46H104.037C103.837 13.9133 103.517 13.4867 103.077 13.18C102.637 12.8733 102.084 12.72 101.417 12.72C100.484 12.72 99.7373 13.0533 99.1773 13.72C98.6307 14.3733 98.3573 15.2933 98.3573 16.48C98.3573 17.6667 98.6307 18.5933 99.1773 19.26C99.7373 19.9267 100.484 20.26 101.417 20.26C102.737 20.26 103.611 19.68 104.037 18.52H106.497C106.177 19.64 105.577 20.5333 104.697 21.2C103.817 21.8533 102.724 22.18 101.417 22.18C100.364 22.18 99.4307 21.9467 98.6173 21.48C97.804 21 97.164 20.3333 96.6973 19.48C96.244 18.6133 96.0173 17.6133 96.0173 16.48ZM111.43 12.84V18.94C111.43 19.3533 111.523 19.6533 111.71 19.84C111.91 20.0133 112.243 20.1 112.71 20.1H114.11V22H112.31C111.283 22 110.496 21.76 109.95 21.28C109.403 20.8 109.13 20.02 109.13 18.94V12.84H107.83V10.98H109.13V8.24H111.43V10.98H114.11V12.84H111.43ZM117.371 9.52C116.958 9.52 116.611 9.38 116.331 9.1C116.051 8.82 115.911 8.47333 115.911 8.06C115.911 7.64667 116.051 7.3 116.331 7.02C116.611 6.74 116.958 6.6 117.371 6.6C117.771 6.6 118.111 6.74 118.391 7.02C118.671 7.3 118.811 7.64667 118.811 8.06C118.811 8.47333 118.671 8.82 118.391 9.1C118.111 9.38 117.771 9.52 117.371 9.52ZM118.491 10.98V22H116.211V10.98H118.491ZM126.264 22.18C125.224 22.18 124.284 21.9467 123.444 21.48C122.604 21 121.944 20.3333 121.464 19.48C120.984 18.6133 120.744 17.6133 120.744 16.48C120.744 15.36 120.991 14.3667 121.484 13.5C121.978 12.6333 122.651 11.9667 123.504 11.5C124.358 11.0333 125.311 10.8 126.364 10.8C127.418 10.8 128.371 11.0333 129.224 11.5C130.078 11.9667 130.751 12.6333 131.244 13.5C131.738 14.3667 131.984 15.36 131.984 16.48C131.984 17.6 131.731 18.5933 131.224 19.46C130.718 20.3267 130.024 21 129.144 21.48C128.278 21.9467 127.318 22.18 126.264 22.18ZM126.264 20.2C126.851 20.2 127.398 20.06 127.904 19.78C128.424 19.5 128.844 19.08 129.164 18.52C129.484 17.96 129.644 17.28 129.644 16.48C129.644 15.68 129.491 15.0067 129.184 14.46C128.878 13.9 128.471 13.48 127.964 13.2C127.458 12.92 126.911 12.78 126.324 12.78C125.738 12.78 125.191 12.92 124.684 13.2C124.191 13.48 123.798 13.9 123.504 14.46C123.211 15.0067 123.064 15.68 123.064 16.48C123.064 17.6667 123.364 18.5867 123.964 19.24C124.578 19.88 125.344 20.2 126.264 20.2ZM139.798 10.8C140.665 10.8 141.438 10.98 142.118 11.34C142.812 11.7 143.352 12.2333 143.738 12.94C144.125 13.6467 144.318 14.5 144.318 15.5V22H142.058V15.84C142.058 14.8533 141.812 14.1 141.318 13.58C140.825 13.0467 140.152 12.78 139.298 12.78C138.445 12.78 137.765 13.0467 137.258 13.58C136.765 14.1 136.518 14.8533 136.518 15.84V22H134.238V10.98H136.518V12.24C136.892 11.7867 137.365 11.4333 137.938 11.18C138.525 10.9267 139.145 10.8 139.798 10.8Z" fill="#F9D849"/>
</svg>
