<svg width="483" height="216" viewBox="0 0 483 216" fill="none" xmlns="http://www.w3.org/2000/svg">
<rect y="52" width="424" height="48" rx="11" fill="white"/>
<rect x="0.5" y="52.5" width="423" height="47" rx="10.5" stroke="black" stroke-opacity="0.13"/>
<rect x="43" y="73" width="79" height="6" fill="#D9D9D9"/>
<path d="M21.0284 80.5455V79.8551C21.0284 79.3778 21.1264 78.9411 21.3224 78.5447C21.5227 78.1442 21.8125 77.8246 22.1918 77.5859C22.5753 77.343 23.0398 77.2216 23.5852 77.2216C24.1392 77.2216 24.6037 77.343 24.9787 77.5859C25.3537 77.8246 25.6371 78.1442 25.8288 78.5447C26.0206 78.9411 26.1165 79.3778 26.1165 79.8551V80.5455C26.1165 81.0227 26.0185 81.4616 25.8224 81.8622C25.6307 82.2585 25.3452 82.5781 24.9659 82.821C24.5909 83.0597 24.1307 83.179 23.5852 83.179C23.0313 83.179 22.5646 83.0597 22.1854 82.821C21.8061 82.5781 21.5185 82.2585 21.3224 81.8622C21.1264 81.4616 21.0284 81.0227 21.0284 80.5455ZM22.3324 79.8551V80.5455C22.3324 80.9418 22.4261 81.2976 22.6136 81.6129C22.8011 81.924 23.125 82.0795 23.5852 82.0795C24.0327 82.0795 24.348 81.924 24.5312 81.6129C24.7188 81.2976 24.8125 80.9418 24.8125 80.5455V79.8551C24.8125 79.4588 24.723 79.1051 24.544 78.794C24.3651 78.4787 24.0455 78.321 23.5852 78.321C23.1378 78.321 22.8161 78.4787 22.62 78.794C22.4283 79.1051 22.3324 79.4588 22.3324 79.8551ZM14.5085 73.054V72.3636C14.5085 71.8864 14.6065 71.4496 14.8026 71.0533C15.0028 70.6527 15.2926 70.3331 15.6719 70.0945C16.0554 69.8516 16.5199 69.7301 17.0653 69.7301C17.6193 69.7301 18.0838 69.8516 18.4588 70.0945C18.8338 70.3331 19.1172 70.6527 19.3089 71.0533C19.5007 71.4496 19.5966 71.8864 19.5966 72.3636V73.054C19.5966 73.5312 19.4986 73.9702 19.3026 74.3707C19.1108 74.767 18.8253 75.0866 18.446 75.3295C18.071 75.5682 17.6108 75.6875 17.0653 75.6875C16.5114 75.6875 16.0447 75.5682 15.6655 75.3295C15.2862 75.0866 14.9986 74.767 14.8026 74.3707C14.6065 73.9702 14.5085 73.5312 14.5085 73.054ZM15.8125 72.3636V73.054C15.8125 73.4503 15.9062 73.8061 16.0938 74.1214C16.2812 74.4325 16.6051 74.5881 17.0653 74.5881C17.5128 74.5881 17.8281 74.4325 18.0114 74.1214C18.1989 73.8061 18.2926 73.4503 18.2926 73.054V72.3636C18.2926 71.9673 18.2031 71.6136 18.0241 71.3026C17.8452 70.9872 17.5256 70.8295 17.0653 70.8295C16.6179 70.8295 16.2962 70.9872 16.1001 71.3026C15.9084 71.6136 15.8125 71.9673 15.8125 72.3636ZM14.9943 83L23.9943 69.9091H25.4517L16.4517 83H14.9943Z" fill="#D9D9D9"/>
<circle cx="430" cy="43" r="31" fill="white"/>
<path d="M480.543 81.5695C479.56 82.5518 478.226 83.1036 476.836 83.1036C475.446 83.1036 474.113 82.5518 473.13 81.5695L456.31 64.744L463.723 57.331L480.543 74.177C481.519 75.1595 482.067 76.4882 482.067 77.8732C482.067 79.2582 481.519 80.5869 480.543 81.5695Z" fill="#D8D8D8"/>
<path d="M456.308 64.7766L463.721 57.3634L464.406 58.0485C465.116 58.759 465.516 59.7226 465.516 60.7274C465.516 61.7322 465.116 62.6958 464.406 63.4063L462.351 65.4617C461.64 66.1722 460.676 66.5713 459.672 66.5713C458.667 66.5713 457.703 66.1722 456.993 65.4617L456.308 64.7766Z" fill="#D8D8D8"/>
<path d="M409.648 10.674C404.561 15.7659 401.098 22.2516 399.697 29.3112C398.295 36.3709 399.018 43.6875 401.774 50.3364C404.53 56.9852 409.196 62.6677 415.181 66.6656C421.165 70.6635 428.201 72.7974 435.399 72.7974C442.596 72.7974 449.632 70.6635 455.617 66.6656C461.602 62.6677 466.267 56.9852 469.023 50.3364C471.779 43.6875 472.502 36.3709 471.101 29.3112C469.699 22.2516 466.236 15.7659 461.149 10.674C457.769 7.29013 453.755 4.60572 449.336 2.77421C444.918 0.942699 440.182 0 435.399 0C430.616 0 425.88 0.942699 421.461 2.77421C417.043 4.60572 413.028 7.29013 409.648 10.674ZM459.048 60.0736C454.371 64.7503 448.412 67.9352 441.925 69.2254C435.439 70.5157 428.715 69.8534 422.604 67.3224C416.494 64.7913 411.271 60.5051 407.597 55.0059C403.922 49.5066 401.961 43.0412 401.961 36.4273C401.961 29.8134 403.922 23.348 407.597 17.8487C411.271 12.3495 416.494 8.0633 422.604 5.53224C428.715 3.00118 435.439 2.33891 441.925 3.62917C448.412 4.91943 454.371 8.10429 459.048 12.781C462.153 15.8862 464.616 19.5727 466.297 23.63C467.977 27.6872 468.842 32.0358 468.842 36.4273C468.842 40.8189 467.977 45.1674 466.297 49.2246C464.616 53.2819 462.153 56.9684 459.048 60.0736Z" fill="#D8D8D8"/>
<path d="M454.531 56.7824C454.29 56.7818 454.054 56.71 453.854 56.5759C453.654 56.4417 453.498 56.2514 453.406 56.0288C453.314 55.8062 453.29 55.5614 453.337 55.3251C453.384 55.0888 453.499 54.8717 453.669 54.701C458.507 49.8499 461.224 43.2784 461.224 36.4274C461.224 29.5763 458.507 23.0048 453.669 18.1537C453.545 18.0432 453.445 17.9085 453.374 17.7579C453.304 17.6072 453.265 17.4438 453.26 17.2776C453.255 17.1114 453.285 16.9459 453.346 16.7914C453.407 16.6368 453.5 16.4965 453.617 16.3789C453.735 16.2613 453.875 16.169 454.03 16.1077C454.184 16.0463 454.35 16.0172 454.516 16.0221C454.682 16.027 454.845 16.0658 454.996 16.1361C455.147 16.2065 455.281 16.3069 455.392 16.4312C460.686 21.7382 463.66 28.9285 463.66 36.4248C463.66 43.9211 460.686 51.1114 455.392 56.4184C455.279 56.5328 455.145 56.6238 454.998 56.6862C454.85 56.7487 454.691 56.7814 454.531 56.7824Z" fill="#D8D8D8"/>
<path d="M409.068 43.9045C408.794 43.9048 408.527 43.8122 408.312 43.6418C408.097 43.4715 407.946 43.2334 407.884 42.9663C406.997 39.2111 406.885 35.3145 407.555 31.5146C408.225 27.7147 409.663 24.0913 411.78 20.8657C411.958 20.5937 412.237 20.4037 412.555 20.3374C412.873 20.271 413.205 20.3338 413.477 20.5119C413.749 20.69 413.939 20.9689 414.005 21.2871C414.072 21.6053 414.009 21.9369 413.831 22.2088C411.892 25.1554 410.574 28.466 409.957 31.9387C409.34 35.4115 409.437 38.9735 410.242 42.4075C410.28 42.5631 410.287 42.7246 410.262 42.8828C410.237 43.041 410.181 43.1927 410.097 43.3291C410.013 43.4655 409.903 43.5839 409.773 43.6774C409.643 43.7709 409.496 43.8376 409.34 43.8737C409.25 43.8931 409.159 43.9034 409.068 43.9045Z" fill="#D8D8D8"/>
<path d="M416.266 56.7824C415.943 56.7816 415.633 56.6525 415.405 56.4235C413.209 54.2358 411.39 51.6998 410.022 48.9182C409.951 48.7748 409.91 48.6189 409.899 48.4594C409.889 48.2998 409.91 48.1398 409.961 47.9884C410.013 47.837 410.093 47.6973 410.199 47.5771C410.304 47.4569 410.432 47.3587 410.576 47.288C410.719 47.2173 410.875 47.1755 411.034 47.1651C411.194 47.1547 411.354 47.1757 411.505 47.2272C411.657 47.2786 411.797 47.3593 411.917 47.4647C412.037 47.5702 412.135 47.6982 412.206 47.8416C413.46 50.3819 415.123 52.6992 417.127 54.701C417.355 54.9297 417.483 55.2394 417.483 55.5623C417.483 55.8851 417.355 56.1948 417.127 56.4235C416.898 56.6511 416.589 56.7799 416.266 56.7824Z" fill="#D8D8D8"/>
<circle cx="378" cy="76" r="9" fill="white"/>
<path d="M384.921 81.7405C385.845 80.6298 386.488 79.3132 386.795 77.9019C387.102 76.4906 387.064 75.0263 386.685 73.6327C386.305 72.2391 385.596 70.9573 384.616 69.8957C383.636 68.8341 382.414 68.024 381.055 67.5338C379.695 67.0436 378.237 66.8879 376.805 67.0797C375.372 67.2715 374.007 67.8052 372.824 68.6357C371.642 69.4663 370.677 70.5691 370.011 71.851C369.346 73.133 368.999 74.5562 369 76.0004C369.001 78.0999 369.741 80.1321 371.091 81.7405L371.079 81.7514C371.124 81.8054 371.175 81.8517 371.221 81.905C371.279 81.9712 371.342 82.0336 371.402 82.0979C371.581 82.2937 371.767 82.4801 371.961 82.6571C372.021 82.7102 372.081 82.7621 372.141 82.8126C372.347 82.9905 372.559 83.158 372.778 83.3153C372.807 83.3346 372.832 83.3597 372.861 83.3796V83.3719C374.367 84.4314 376.165 85 378.007 85C379.849 85 381.647 84.4314 383.154 83.3719V83.3796C383.182 83.3597 383.207 83.3346 383.236 83.3153C383.455 83.1576 383.667 82.9901 383.873 82.8126C383.933 82.7616 383.993 82.7098 384.053 82.6571C384.246 82.4801 384.433 82.2937 384.613 82.0979C384.672 82.0336 384.734 81.9712 384.793 81.905C384.838 81.8517 384.891 81.8054 384.936 81.7508L384.921 81.7405ZM378.006 70.8582C378.579 70.8582 379.139 71.0278 379.615 71.3456C380.091 71.6635 380.462 72.1152 380.681 72.6438C380.9 73.1723 380.957 73.7539 380.846 74.315C380.734 74.8761 380.458 75.3915 380.053 75.796C379.649 76.2005 379.133 76.476 378.571 76.5876C378.01 76.6992 377.428 76.642 376.899 76.423C376.37 76.2041 375.917 75.8334 375.599 75.3577C375.281 74.882 375.112 74.3228 375.112 73.7507C375.112 72.9835 375.417 72.2478 375.959 71.7054C376.502 71.1629 377.239 70.8582 378.006 70.8582ZM372.864 81.7405C372.876 80.8965 373.219 80.0908 373.82 79.4978C374.421 78.9047 375.232 78.572 376.076 78.5716H379.936C380.781 78.572 381.592 78.9047 382.193 79.4978C382.794 80.0908 383.137 80.8965 383.148 81.7405C381.738 83.0108 379.906 83.7139 378.006 83.7139C376.107 83.7139 374.275 83.0108 372.864 81.7405Z" fill="#D9D9D9"/>
<path d="M396.921 81.7405C397.845 80.6298 398.488 79.3132 398.795 77.9019C399.102 76.4906 399.064 75.0263 398.685 73.6327C398.305 72.2391 397.596 70.9573 396.616 69.8957C395.636 68.8341 394.414 68.024 393.055 67.5338C391.695 67.0436 390.237 66.8879 388.805 67.0797C387.372 67.2715 386.007 67.8052 384.824 68.6357C383.642 69.4663 382.677 70.5691 382.011 71.851C381.346 73.133 380.999 74.5562 381 76.0004C381.001 78.0999 381.741 80.1321 383.091 81.7405L383.079 81.7514C383.124 81.8054 383.175 81.8517 383.221 81.905C383.279 81.9712 383.342 82.0336 383.402 82.0979C383.581 82.2937 383.767 82.4801 383.961 82.6571C384.021 82.7102 384.081 82.7621 384.141 82.8126C384.347 82.9905 384.559 83.158 384.778 83.3153C384.807 83.3346 384.832 83.3597 384.861 83.3796V83.3719C386.367 84.4314 388.165 85 390.007 85C391.849 85 393.647 84.4314 395.154 83.3719V83.3796C395.182 83.3597 395.207 83.3346 395.236 83.3153C395.455 83.1576 395.667 82.9901 395.873 82.8126C395.933 82.7616 395.993 82.7098 396.053 82.6571C396.246 82.4801 396.433 82.2937 396.613 82.0979C396.672 82.0336 396.734 81.9712 396.793 81.905C396.838 81.8517 396.891 81.8054 396.936 81.7508L396.921 81.7405ZM390.006 70.8582C390.579 70.8582 391.139 71.0278 391.615 71.3456C392.091 71.6635 392.462 72.1152 392.681 72.6438C392.9 73.1723 392.957 73.7539 392.846 74.315C392.734 74.8761 392.458 75.3915 392.053 75.796C391.649 76.2005 391.133 76.476 390.571 76.5876C390.01 76.6992 389.428 76.642 388.899 76.423C388.37 76.2041 387.917 75.8334 387.599 75.3577C387.281 74.882 387.112 74.3228 387.112 73.7507C387.112 72.9835 387.417 72.2478 387.959 71.7054C388.502 71.1629 389.239 70.8582 390.006 70.8582ZM384.864 81.7405C384.876 80.8965 385.219 80.0908 385.82 79.4978C386.421 78.9047 387.232 78.572 388.076 78.5716H391.936C392.781 78.572 393.592 78.9047 394.193 79.4978C394.794 80.0908 395.137 80.8965 395.148 81.7405C393.738 83.0108 391.906 83.7139 390.006 83.7139C388.107 83.7139 386.275 83.0108 384.864 81.7405Z" fill="#D9D9D9"/>
<g filter="url(#filter0_d_242_5)">
<circle cx="402" cy="76" r="9" fill="white"/>
</g>
<path d="M408.921 81.7405C409.845 80.6298 410.488 79.3132 410.795 77.9019C411.102 76.4906 411.064 75.0263 410.685 73.6327C410.305 72.2391 409.596 70.9573 408.616 69.8957C407.636 68.8341 406.414 68.024 405.055 67.5338C403.695 67.0436 402.237 66.8879 400.805 67.0797C399.372 67.2715 398.007 67.8052 396.824 68.6357C395.642 69.4663 394.677 70.5691 394.011 71.851C393.346 73.133 392.999 74.5562 393 76.0004C393.001 78.0999 393.741 80.1321 395.091 81.7405L395.079 81.7514C395.124 81.8054 395.175 81.8517 395.221 81.905C395.279 81.9712 395.342 82.0336 395.402 82.0979C395.581 82.2937 395.767 82.4801 395.961 82.6571C396.021 82.7102 396.081 82.7621 396.141 82.8126C396.347 82.9905 396.559 83.158 396.778 83.3153C396.807 83.3346 396.832 83.3597 396.861 83.3796V83.3719C398.367 84.4314 400.165 85 402.007 85C403.849 85 405.647 84.4314 407.154 83.3719V83.3796C407.182 83.3597 407.207 83.3346 407.236 83.3153C407.455 83.1576 407.667 82.9901 407.873 82.8126C407.933 82.7616 407.993 82.7098 408.053 82.6571C408.246 82.4801 408.433 82.2937 408.613 82.0979C408.672 82.0336 408.734 81.9712 408.793 81.905C408.838 81.8517 408.891 81.8054 408.936 81.7508L408.921 81.7405ZM402.006 70.8582C402.579 70.8582 403.139 71.0278 403.615 71.3456C404.091 71.6635 404.462 72.1152 404.681 72.6438C404.9 73.1723 404.957 73.7539 404.846 74.315C404.734 74.8761 404.458 75.3915 404.053 75.796C403.649 76.2005 403.133 76.476 402.571 76.5876C402.01 76.6992 401.428 76.642 400.899 76.423C400.37 76.2041 399.917 75.8334 399.599 75.3577C399.281 74.882 399.112 74.3228 399.112 73.7507C399.112 72.9835 399.417 72.2478 399.959 71.7054C400.502 71.1629 401.239 70.8582 402.006 70.8582ZM396.864 81.7405C396.876 80.8965 397.219 80.0908 397.82 79.4978C398.421 78.9047 399.232 78.572 400.076 78.5716H403.936C404.781 78.572 405.592 78.9047 406.193 79.4978C406.794 80.0908 407.137 80.8965 407.148 81.7405C405.738 83.0108 403.906 83.7139 402.006 83.7139C400.107 83.7139 398.275 83.0108 396.864 81.7405Z" fill="#D9D9D9"/>
<rect y="109" width="424" height="48" rx="11" fill="white"/>
<rect x="0.5" y="109.5" width="423" height="47" rx="10.5" stroke="black" stroke-opacity="0.13"/>
<rect x="43" y="130" width="79" height="6" fill="#D9D9D9"/>
<path d="M21.0284 137.545V136.855C21.0284 136.378 21.1264 135.941 21.3224 135.545C21.5227 135.144 21.8125 134.825 22.1918 134.586C22.5753 134.343 23.0398 134.222 23.5852 134.222C24.1392 134.222 24.6037 134.343 24.9787 134.586C25.3537 134.825 25.6371 135.144 25.8288 135.545C26.0206 135.941 26.1165 136.378 26.1165 136.855V137.545C26.1165 138.023 26.0185 138.462 25.8224 138.862C25.6307 139.259 25.3452 139.578 24.9659 139.821C24.5909 140.06 24.1307 140.179 23.5852 140.179C23.0313 140.179 22.5646 140.06 22.1854 139.821C21.8061 139.578 21.5185 139.259 21.3224 138.862C21.1264 138.462 21.0284 138.023 21.0284 137.545ZM22.3324 136.855V137.545C22.3324 137.942 22.4261 138.298 22.6136 138.613C22.8011 138.924 23.125 139.08 23.5852 139.08C24.0327 139.08 24.348 138.924 24.5312 138.613C24.7188 138.298 24.8125 137.942 24.8125 137.545V136.855C24.8125 136.459 24.723 136.105 24.544 135.794C24.3651 135.479 24.0455 135.321 23.5852 135.321C23.1378 135.321 22.8161 135.479 22.62 135.794C22.4283 136.105 22.3324 136.459 22.3324 136.855ZM14.5085 130.054V129.364C14.5085 128.886 14.6065 128.45 14.8026 128.053C15.0028 127.653 15.2926 127.333 15.6719 127.094C16.0554 126.852 16.5199 126.73 17.0653 126.73C17.6193 126.73 18.0838 126.852 18.4588 127.094C18.8338 127.333 19.1172 127.653 19.3089 128.053C19.5007 128.45 19.5966 128.886 19.5966 129.364V130.054C19.5966 130.531 19.4986 130.97 19.3026 131.371C19.1108 131.767 18.8253 132.087 18.446 132.33C18.071 132.568 17.6108 132.688 17.0653 132.688C16.5114 132.688 16.0447 132.568 15.6655 132.33C15.2862 132.087 14.9986 131.767 14.8026 131.371C14.6065 130.97 14.5085 130.531 14.5085 130.054ZM15.8125 129.364V130.054C15.8125 130.45 15.9062 130.806 16.0938 131.121C16.2812 131.433 16.6051 131.588 17.0653 131.588C17.5128 131.588 17.8281 131.433 18.0114 131.121C18.1989 130.806 18.2926 130.45 18.2926 130.054V129.364C18.2926 128.967 18.2031 128.614 18.0241 128.303C17.8452 127.987 17.5256 127.83 17.0653 127.83C16.6179 127.83 16.2962 127.987 16.1001 128.303C15.9084 128.614 15.8125 128.967 15.8125 129.364ZM14.9943 140L23.9943 126.909H25.4517L16.4517 140H14.9943Z" fill="#D9D9D9"/>
<circle cx="378" cy="133" r="9" fill="white"/>
<path d="M384.921 138.74C385.845 137.63 386.488 136.313 386.795 134.902C387.102 133.491 387.064 132.026 386.685 130.633C386.305 129.239 385.596 127.957 384.616 126.896C383.636 125.834 382.414 125.024 381.055 124.534C379.695 124.044 378.237 123.888 376.805 124.08C375.372 124.271 374.007 124.805 372.824 125.636C371.642 126.466 370.677 127.569 370.011 128.851C369.346 130.133 368.999 131.556 369 133C369.001 135.1 369.741 137.132 371.091 138.74L371.079 138.751C371.124 138.805 371.175 138.852 371.221 138.905C371.279 138.971 371.342 139.034 371.402 139.098C371.581 139.294 371.767 139.48 371.961 139.657C372.021 139.71 372.081 139.762 372.141 139.813C372.347 139.99 372.559 140.158 372.778 140.315C372.807 140.335 372.832 140.36 372.861 140.38V140.372C374.367 141.431 376.165 142 378.007 142C379.849 142 381.647 141.431 383.154 140.372V140.38C383.182 140.36 383.207 140.335 383.236 140.315C383.455 140.158 383.667 139.99 383.873 139.813C383.933 139.762 383.993 139.71 384.053 139.657C384.246 139.48 384.433 139.294 384.613 139.098C384.672 139.034 384.734 138.971 384.793 138.905C384.838 138.852 384.891 138.805 384.936 138.751L384.921 138.74ZM378.006 127.858C378.579 127.858 379.139 128.028 379.615 128.346C380.091 128.663 380.462 129.115 380.681 129.644C380.9 130.172 380.957 130.754 380.846 131.315C380.734 131.876 380.458 132.391 380.053 132.796C379.649 133.201 379.133 133.476 378.571 133.588C378.01 133.699 377.428 133.642 376.899 133.423C376.37 133.204 375.917 132.833 375.599 132.358C375.281 131.882 375.112 131.323 375.112 130.751C375.112 129.984 375.417 129.248 375.959 128.705C376.502 128.163 377.239 127.858 378.006 127.858ZM372.864 138.74C372.876 137.896 373.219 137.091 373.82 136.498C374.421 135.905 375.232 135.572 376.076 135.572H379.936C380.781 135.572 381.592 135.905 382.193 136.498C382.794 137.091 383.137 137.896 383.148 138.74C381.738 140.011 379.906 140.714 378.006 140.714C376.107 140.714 374.275 140.011 372.864 138.74Z" fill="#D9D9D9"/>
<g filter="url(#filter1_d_242_5)">
<circle cx="390" cy="133" r="9" fill="white"/>
</g>
<path d="M396.921 138.74C397.845 137.63 398.488 136.313 398.795 134.902C399.102 133.491 399.064 132.026 398.685 130.633C398.305 129.239 397.596 127.957 396.616 126.896C395.636 125.834 394.414 125.024 393.055 124.534C391.695 124.044 390.237 123.888 388.805 124.08C387.372 124.271 386.007 124.805 384.824 125.636C383.642 126.466 382.677 127.569 382.011 128.851C381.346 130.133 380.999 131.556 381 133C381.001 135.1 381.741 137.132 383.091 138.74L383.079 138.751C383.124 138.805 383.175 138.852 383.221 138.905C383.279 138.971 383.342 139.034 383.402 139.098C383.581 139.294 383.767 139.48 383.961 139.657C384.021 139.71 384.081 139.762 384.141 139.813C384.347 139.99 384.559 140.158 384.778 140.315C384.807 140.335 384.832 140.36 384.861 140.38V140.372C386.367 141.431 388.165 142 390.007 142C391.849 142 393.647 141.431 395.154 140.372V140.38C395.182 140.36 395.207 140.335 395.236 140.315C395.455 140.158 395.667 139.99 395.873 139.813C395.933 139.762 395.993 139.71 396.053 139.657C396.246 139.48 396.433 139.294 396.613 139.098C396.672 139.034 396.734 138.971 396.793 138.905C396.838 138.852 396.891 138.805 396.936 138.751L396.921 138.74ZM390.006 127.858C390.579 127.858 391.139 128.028 391.615 128.346C392.091 128.663 392.462 129.115 392.681 129.644C392.9 130.172 392.957 130.754 392.846 131.315C392.734 131.876 392.458 132.391 392.053 132.796C391.649 133.201 391.133 133.476 390.571 133.588C390.01 133.699 389.428 133.642 388.899 133.423C388.37 133.204 387.917 132.833 387.599 132.358C387.281 131.882 387.112 131.323 387.112 130.751C387.112 129.984 387.417 129.248 387.959 128.705C388.502 128.163 389.239 127.858 390.006 127.858ZM384.864 138.74C384.876 137.896 385.219 137.091 385.82 136.498C386.421 135.905 387.232 135.572 388.076 135.572H391.936C392.781 135.572 393.592 135.905 394.193 136.498C394.794 137.091 395.137 137.896 395.148 138.74C393.738 140.011 391.906 140.714 390.006 140.714C388.107 140.714 386.275 140.011 384.864 138.74Z" fill="#D9D9D9"/>
<g filter="url(#filter2_d_242_5)">
<circle cx="402" cy="133" r="9" fill="white"/>
</g>
<path d="M408.921 138.74C409.845 137.63 410.488 136.313 410.795 134.902C411.102 133.491 411.064 132.026 410.685 130.633C410.305 129.239 409.596 127.957 408.616 126.896C407.636 125.834 406.414 125.024 405.055 124.534C403.695 124.044 402.237 123.888 400.805 124.08C399.372 124.271 398.007 124.805 396.824 125.636C395.642 126.466 394.677 127.569 394.011 128.851C393.346 130.133 392.999 131.556 393 133C393.001 135.1 393.741 137.132 395.091 138.74L395.079 138.751C395.124 138.805 395.175 138.852 395.221 138.905C395.279 138.971 395.342 139.034 395.402 139.098C395.581 139.294 395.767 139.48 395.961 139.657C396.021 139.71 396.081 139.762 396.141 139.813C396.347 139.99 396.559 140.158 396.778 140.315C396.807 140.335 396.832 140.36 396.861 140.38V140.372C398.367 141.431 400.165 142 402.007 142C403.849 142 405.647 141.431 407.154 140.372V140.38C407.182 140.36 407.207 140.335 407.236 140.315C407.455 140.158 407.667 139.99 407.873 139.813C407.933 139.762 407.993 139.71 408.053 139.657C408.246 139.48 408.433 139.294 408.613 139.098C408.672 139.034 408.734 138.971 408.793 138.905C408.838 138.852 408.891 138.805 408.936 138.751L408.921 138.74ZM402.006 127.858C402.579 127.858 403.139 128.028 403.615 128.346C404.091 128.663 404.462 129.115 404.681 129.644C404.9 130.172 404.957 130.754 404.846 131.315C404.734 131.876 404.458 132.391 404.053 132.796C403.649 133.201 403.133 133.476 402.571 133.588C402.01 133.699 401.428 133.642 400.899 133.423C400.37 133.204 399.917 132.833 399.599 132.358C399.281 131.882 399.112 131.323 399.112 130.751C399.112 129.984 399.417 129.248 399.959 128.705C400.502 128.163 401.239 127.858 402.006 127.858ZM396.864 138.74C396.876 137.896 397.219 137.091 397.82 136.498C398.421 135.905 399.232 135.572 400.076 135.572H403.936C404.781 135.572 405.592 135.905 406.193 136.498C406.794 137.091 407.137 137.896 407.148 138.74C405.738 140.011 403.906 140.714 402.006 140.714C400.107 140.714 398.275 140.011 396.864 138.74Z" fill="#D9D9D9"/>
<rect y="168" width="424" height="48" rx="11" fill="white"/>
<rect x="0.5" y="168.5" width="423" height="47" rx="10.5" stroke="black" stroke-opacity="0.13"/>
<rect x="43" y="189" width="79" height="6" fill="#D9D9D9"/>
<path d="M21.0284 196.545V195.855C21.0284 195.378 21.1264 194.941 21.3224 194.545C21.5227 194.144 21.8125 193.825 22.1918 193.586C22.5753 193.343 23.0398 193.222 23.5852 193.222C24.1392 193.222 24.6037 193.343 24.9787 193.586C25.3537 193.825 25.6371 194.144 25.8288 194.545C26.0206 194.941 26.1165 195.378 26.1165 195.855V196.545C26.1165 197.023 26.0185 197.462 25.8224 197.862C25.6307 198.259 25.3452 198.578 24.9659 198.821C24.5909 199.06 24.1307 199.179 23.5852 199.179C23.0313 199.179 22.5646 199.06 22.1854 198.821C21.8061 198.578 21.5185 198.259 21.3224 197.862C21.1264 197.462 21.0284 197.023 21.0284 196.545ZM22.3324 195.855V196.545C22.3324 196.942 22.4261 197.298 22.6136 197.613C22.8011 197.924 23.125 198.08 23.5852 198.08C24.0327 198.08 24.348 197.924 24.5312 197.613C24.7188 197.298 24.8125 196.942 24.8125 196.545V195.855C24.8125 195.459 24.723 195.105 24.544 194.794C24.3651 194.479 24.0455 194.321 23.5852 194.321C23.1378 194.321 22.8161 194.479 22.62 194.794C22.4283 195.105 22.3324 195.459 22.3324 195.855ZM14.5085 189.054V188.364C14.5085 187.886 14.6065 187.45 14.8026 187.053C15.0028 186.653 15.2926 186.333 15.6719 186.094C16.0554 185.852 16.5199 185.73 17.0653 185.73C17.6193 185.73 18.0838 185.852 18.4588 186.094C18.8338 186.333 19.1172 186.653 19.3089 187.053C19.5007 187.45 19.5966 187.886 19.5966 188.364V189.054C19.5966 189.531 19.4986 189.97 19.3026 190.371C19.1108 190.767 18.8253 191.087 18.446 191.33C18.071 191.568 17.6108 191.688 17.0653 191.688C16.5114 191.688 16.0447 191.568 15.6655 191.33C15.2862 191.087 14.9986 190.767 14.8026 190.371C14.6065 189.97 14.5085 189.531 14.5085 189.054ZM15.8125 188.364V189.054C15.8125 189.45 15.9062 189.806 16.0938 190.121C16.2812 190.433 16.6051 190.588 17.0653 190.588C17.5128 190.588 17.8281 190.433 18.0114 190.121C18.1989 189.806 18.2926 189.45 18.2926 189.054V188.364C18.2926 187.967 18.2031 187.614 18.0241 187.303C17.8452 186.987 17.5256 186.83 17.0653 186.83C16.6179 186.83 16.2962 186.987 16.1001 187.303C15.9084 187.614 15.8125 187.967 15.8125 188.364ZM14.9943 199L23.9943 185.909H25.4517L16.4517 199H14.9943Z" fill="#D9D9D9"/>
<circle cx="378" cy="192" r="9" fill="white"/>
<path d="M384.921 197.74C385.845 196.63 386.488 195.313 386.795 193.902C387.102 192.491 387.064 191.026 386.685 189.633C386.305 188.239 385.596 186.957 384.616 185.896C383.636 184.834 382.414 184.024 381.055 183.534C379.695 183.044 378.237 182.888 376.805 183.08C375.372 183.271 374.007 183.805 372.824 184.636C371.642 185.466 370.677 186.569 370.011 187.851C369.346 189.133 368.999 190.556 369 192C369.001 194.1 369.741 196.132 371.091 197.74L371.079 197.751C371.124 197.805 371.175 197.852 371.221 197.905C371.279 197.971 371.342 198.034 371.402 198.098C371.581 198.294 371.767 198.48 371.961 198.657C372.021 198.71 372.081 198.762 372.141 198.813C372.347 198.99 372.559 199.158 372.778 199.315C372.807 199.335 372.832 199.36 372.861 199.38V199.372C374.367 200.431 376.165 201 378.007 201C379.849 201 381.647 200.431 383.154 199.372V199.38C383.182 199.36 383.207 199.335 383.236 199.315C383.455 199.158 383.667 198.99 383.873 198.813C383.933 198.762 383.993 198.71 384.053 198.657C384.246 198.48 384.433 198.294 384.613 198.098C384.672 198.034 384.734 197.971 384.793 197.905C384.838 197.852 384.891 197.805 384.936 197.751L384.921 197.74ZM378.006 186.858C378.579 186.858 379.139 187.028 379.615 187.346C380.091 187.663 380.462 188.115 380.681 188.644C380.9 189.172 380.957 189.754 380.846 190.315C380.734 190.876 380.458 191.391 380.053 191.796C379.649 192.201 379.133 192.476 378.571 192.588C378.01 192.699 377.428 192.642 376.899 192.423C376.37 192.204 375.917 191.833 375.599 191.358C375.281 190.882 375.112 190.323 375.112 189.751C375.112 188.984 375.417 188.248 375.959 187.705C376.502 187.163 377.239 186.858 378.006 186.858ZM372.864 197.74C372.876 196.896 373.219 196.091 373.82 195.498C374.421 194.905 375.232 194.572 376.076 194.572H379.936C380.781 194.572 381.592 194.905 382.193 195.498C382.794 196.091 383.137 196.896 383.148 197.74C381.738 199.011 379.906 199.714 378.006 199.714C376.107 199.714 374.275 199.011 372.864 197.74Z" fill="#D9D9D9"/>
<g filter="url(#filter3_d_242_5)">
<circle cx="390" cy="192" r="9" fill="white"/>
</g>
<path d="M396.921 197.74C397.845 196.63 398.488 195.313 398.795 193.902C399.102 192.491 399.064 191.026 398.685 189.633C398.305 188.239 397.596 186.957 396.616 185.896C395.636 184.834 394.414 184.024 393.055 183.534C391.695 183.044 390.237 182.888 388.805 183.08C387.372 183.271 386.007 183.805 384.824 184.636C383.642 185.466 382.677 186.569 382.011 187.851C381.346 189.133 380.999 190.556 381 192C381.001 194.1 381.741 196.132 383.091 197.74L383.079 197.751C383.124 197.805 383.175 197.852 383.221 197.905C383.279 197.971 383.342 198.034 383.402 198.098C383.581 198.294 383.767 198.48 383.961 198.657C384.021 198.71 384.081 198.762 384.141 198.813C384.347 198.99 384.559 199.158 384.778 199.315C384.807 199.335 384.832 199.36 384.861 199.38V199.372C386.367 200.431 388.165 201 390.007 201C391.849 201 393.647 200.431 395.154 199.372V199.38C395.182 199.36 395.207 199.335 395.236 199.315C395.455 199.158 395.667 198.99 395.873 198.813C395.933 198.762 395.993 198.71 396.053 198.657C396.246 198.48 396.433 198.294 396.613 198.098C396.672 198.034 396.734 197.971 396.793 197.905C396.838 197.852 396.891 197.805 396.936 197.751L396.921 197.74ZM390.006 186.858C390.579 186.858 391.139 187.028 391.615 187.346C392.091 187.663 392.462 188.115 392.681 188.644C392.9 189.172 392.957 189.754 392.846 190.315C392.734 190.876 392.458 191.391 392.053 191.796C391.649 192.201 391.133 192.476 390.571 192.588C390.01 192.699 389.428 192.642 388.899 192.423C388.37 192.204 387.917 191.833 387.599 191.358C387.281 190.882 387.112 190.323 387.112 189.751C387.112 188.984 387.417 188.248 387.959 187.705C388.502 187.163 389.239 186.858 390.006 186.858ZM384.864 197.74C384.876 196.896 385.219 196.091 385.82 195.498C386.421 194.905 387.232 194.572 388.076 194.572H391.936C392.781 194.572 393.592 194.905 394.193 195.498C394.794 196.091 395.137 196.896 395.148 197.74C393.738 199.011 391.906 199.714 390.006 199.714C388.107 199.714 386.275 199.011 384.864 197.74Z" fill="#D9D9D9"/>
<g filter="url(#filter4_d_242_5)">
<circle cx="402" cy="192" r="9" fill="white"/>
</g>
<path d="M408.921 197.74C409.845 196.63 410.488 195.313 410.795 193.902C411.102 192.491 411.064 191.026 410.685 189.633C410.305 188.239 409.596 186.957 408.616 185.896C407.636 184.834 406.414 184.024 405.055 183.534C403.695 183.044 402.237 182.888 400.805 183.08C399.372 183.271 398.007 183.805 396.824 184.636C395.642 185.466 394.677 186.569 394.011 187.851C393.346 189.133 392.999 190.556 393 192C393.001 194.1 393.741 196.132 395.091 197.74L395.079 197.751C395.124 197.805 395.175 197.852 395.221 197.905C395.279 197.971 395.342 198.034 395.402 198.098C395.581 198.294 395.767 198.48 395.961 198.657C396.021 198.71 396.081 198.762 396.141 198.813C396.347 198.99 396.559 199.158 396.778 199.315C396.807 199.335 396.832 199.36 396.861 199.38V199.372C398.367 200.431 400.165 201 402.007 201C403.849 201 405.647 200.431 407.154 199.372V199.38C407.182 199.36 407.207 199.335 407.236 199.315C407.455 199.158 407.667 198.99 407.873 198.813C407.933 198.762 407.993 198.71 408.053 198.657C408.246 198.48 408.433 198.294 408.613 198.098C408.672 198.034 408.734 197.971 408.793 197.905C408.838 197.852 408.891 197.805 408.936 197.751L408.921 197.74ZM402.006 186.858C402.579 186.858 403.139 187.028 403.615 187.346C404.091 187.663 404.462 188.115 404.681 188.644C404.9 189.172 404.957 189.754 404.846 190.315C404.734 190.876 404.458 191.391 404.053 191.796C403.649 192.201 403.133 192.476 402.571 192.588C402.01 192.699 401.428 192.642 400.899 192.423C400.37 192.204 399.917 191.833 399.599 191.358C399.281 190.882 399.112 190.323 399.112 189.751C399.112 188.984 399.417 188.248 399.959 187.705C400.502 187.163 401.239 186.858 402.006 186.858ZM396.864 197.74C396.876 196.896 397.219 196.091 397.82 195.498C398.421 194.905 399.232 194.572 400.076 194.572H403.936C404.781 194.572 405.592 194.905 406.193 195.498C406.794 196.091 407.137 196.896 407.148 197.74C405.738 199.011 403.906 199.714 402.006 199.714C400.107 199.714 398.275 199.011 396.864 197.74Z" fill="#D9D9D9"/>
<defs>
<filter id="filter0_d_242_5" x="385" y="67" width="26" height="26" filterUnits="userSpaceOnUse" color-interpolation-filters="sRGB">
<feFlood flood-opacity="0" result="BackgroundImageFix"/>
<feColorMatrix in="SourceAlpha" type="matrix" values="0 0 0 0 0 0 0 0 0 0 0 0 0 0 0 0 0 0 127 0" result="hardAlpha"/>
<feOffset dx="-4" dy="4"/>
<feGaussianBlur stdDeviation="2"/>
<feComposite in2="hardAlpha" operator="out"/>
<feColorMatrix type="matrix" values="0 0 0 0 0 0 0 0 0 0 0 0 0 0 0 0 0 0 0.06 0"/>
<feBlend mode="normal" in2="BackgroundImageFix" result="effect1_dropShadow_242_5"/>
<feBlend mode="normal" in="SourceGraphic" in2="effect1_dropShadow_242_5" result="shape"/>
</filter>
<filter id="filter1_d_242_5" x="373" y="124" width="26" height="26" filterUnits="userSpaceOnUse" color-interpolation-filters="sRGB">
<feFlood flood-opacity="0" result="BackgroundImageFix"/>
<feColorMatrix in="SourceAlpha" type="matrix" values="0 0 0 0 0 0 0 0 0 0 0 0 0 0 0 0 0 0 127 0" result="hardAlpha"/>
<feOffset dx="-4" dy="4"/>
<feGaussianBlur stdDeviation="2"/>
<feComposite in2="hardAlpha" operator="out"/>
<feColorMatrix type="matrix" values="0 0 0 0 0 0 0 0 0 0 0 0 0 0 0 0 0 0 0.06 0"/>
<feBlend mode="normal" in2="BackgroundImageFix" result="effect1_dropShadow_242_5"/>
<feBlend mode="normal" in="SourceGraphic" in2="effect1_dropShadow_242_5" result="shape"/>
</filter>
<filter id="filter2_d_242_5" x="385" y="124" width="26" height="26" filterUnits="userSpaceOnUse" color-interpolation-filters="sRGB">
<feFlood flood-opacity="0" result="BackgroundImageFix"/>
<feColorMatrix in="SourceAlpha" type="matrix" values="0 0 0 0 0 0 0 0 0 0 0 0 0 0 0 0 0 0 127 0" result="hardAlpha"/>
<feOffset dx="-4" dy="4"/>
<feGaussianBlur stdDeviation="2"/>
<feComposite in2="hardAlpha" operator="out"/>
<feColorMatrix type="matrix" values="0 0 0 0 0 0 0 0 0 0 0 0 0 0 0 0 0 0 0.06 0"/>
<feBlend mode="normal" in2="BackgroundImageFix" result="effect1_dropShadow_242_5"/>
<feBlend mode="normal" in="SourceGraphic" in2="effect1_dropShadow_242_5" result="shape"/>
</filter>
<filter id="filter3_d_242_5" x="373" y="183" width="26" height="26" filterUnits="userSpaceOnUse" color-interpolation-filters="sRGB">
<feFlood flood-opacity="0" result="BackgroundImageFix"/>
<feColorMatrix in="SourceAlpha" type="matrix" values="0 0 0 0 0 0 0 0 0 0 0 0 0 0 0 0 0 0 127 0" result="hardAlpha"/>
<feOffset dx="-4" dy="4"/>
<feGaussianBlur stdDeviation="2"/>
<feComposite in2="hardAlpha" operator="out"/>
<feColorMatrix type="matrix" values="0 0 0 0 0 0 0 0 0 0 0 0 0 0 0 0 0 0 0.06 0"/>
<feBlend mode="normal" in2="BackgroundImageFix" result="effect1_dropShadow_242_5"/>
<feBlend mode="normal" in="SourceGraphic" in2="effect1_dropShadow_242_5" result="shape"/>
</filter>
<filter id="filter4_d_242_5" x="385" y="183" width="26" height="26" filterUnits="userSpaceOnUse" color-interpolation-filters="sRGB">
<feFlood flood-opacity="0" result="BackgroundImageFix"/>
<feColorMatrix in="SourceAlpha" type="matrix" values="0 0 0 0 0 0 0 0 0 0 0 0 0 0 0 0 0 0 127 0" result="hardAlpha"/>
<feOffset dx="-4" dy="4"/>
<feGaussianBlur stdDeviation="2"/>
<feComposite in2="hardAlpha" operator="out"/>
<feColorMatrix type="matrix" values="0 0 0 0 0 0 0 0 0 0 0 0 0 0 0 0 0 0 0.06 0"/>
<feBlend mode="normal" in2="BackgroundImageFix" result="effect1_dropShadow_242_5"/>
<feBlend mode="normal" in="SourceGraphic" in2="effect1_dropShadow_242_5" result="shape"/>
</filter>
</defs>
</svg>
