<svg width="148" height="94" viewBox="0 0 148 94" fill="none" xmlns="http://www.w3.org/2000/svg">
<circle cx="78" cy="47" r="47" fill="#7F34FF" fill-opacity="0.05"/>
<g filter="url(#filter0_d_197_90)">
<g clip-path="url(#clip0_197_90)">
<rect x="4" y="44" width="140" height="14" rx="4" fill="#7F34FF" fill-opacity="0.09" shape-rendering="crispEdges"/>
<g clip-path="url(#clip1_197_90)">
<path fill-rule="evenodd" clip-rule="evenodd" d="M137.5 53.125C137.845 53.125 138.186 53.0571 138.505 52.9252C138.823 52.7933 139.112 52.5999 139.356 52.3562C139.6 52.1124 139.793 51.823 139.925 51.5045C140.057 51.1861 140.125 50.8447 140.125 50.5C140.125 50.1553 140.057 49.8139 139.925 49.4955C139.793 49.177 139.6 48.8876 139.356 48.6438C139.112 48.4001 138.823 48.2067 138.505 48.0748C138.186 47.9429 137.845 47.875 137.5 47.875C136.804 47.875 136.136 48.1516 135.644 48.6438C135.152 49.1361 134.875 49.8038 134.875 50.5C134.875 51.1962 135.152 51.8639 135.644 52.3562C136.136 52.8484 136.804 53.125 137.5 53.125ZM137.432 51.5617L138.891 49.8117L138.443 49.4383L137.188 50.943L136.54 50.2938L136.127 50.7062L137.002 51.5812L137.228 51.807L137.432 51.5617Z" fill="#19E276"/>
</g>
<rect x="39" y="50" width="28" height="2" fill="#A88FD2"/>
<g clip-path="url(#clip2_197_90)">
<path d="M11 47.3594C10.9422 47.3594 10.8844 47.3609 10.8266 47.3636L10.8391 47.6445C10.8922 47.642 10.9453 47.6406 11 47.6406C12.8562 47.6406 14.3594 49.1437 14.3594 51C14.3594 52.8562 12.8562 54.3594 11 54.3594C9.6 54.3594 8.40078 53.5047 7.89609 52.2875L8.32781 52.1578L7.57109 51.6219L7.27344 52.4734L7.62578 52.3687C8.16687 53.7 9.475 54.6406 11 54.6406C13.0094 54.6406 14.6406 53.0094 14.6406 51C14.6406 48.9906 13.0094 47.3594 11 47.3594ZM10.5187 47.3913C10.3109 47.4186 10.1109 47.4631 9.91562 47.5237L10.0031 47.7908C10.1812 47.7355 10.3672 47.6947 10.5562 47.6697L10.5187 47.3913ZM9.62812 47.6275C9.43437 47.7064 9.25 47.8012 9.075 47.9106L9.22344 48.1483C9.38437 48.0477 9.55469 47.9603 9.73281 47.8878L9.62812 47.6275ZM8.81875 48.0859C8.65471 48.2089 8.50131 48.3454 8.36016 48.4941L8.56406 48.6859C8.69375 48.5489 8.83594 48.4233 8.98594 48.31L8.91094 48.2073L8.81875 48.0859ZM9.90469 48.22L9.83594 48.4925L13.2266 49.3594L13.2953 49.0875L9.90469 48.22ZM8.15734 48.7266C8.02937 48.8859 7.91453 49.0578 7.81453 49.2375L8.05906 49.375C8.15141 49.2078 8.25734 49.05 8.37562 48.9016L8.15734 48.7266ZM10.1516 48.8641C10.0906 49.2703 10.1953 49.7266 10.3734 50.1016C10.4734 50.3109 10.5953 50.4953 10.7156 50.6297C10.7812 50.7031 10.8469 50.7594 10.9062 50.8L10.8219 51.1312C10.75 51.1375 10.6656 51.1562 10.5719 51.1891C10.4016 51.2484 10.2062 51.3516 10.0187 51.4875C9.68125 51.7312 9.37187 52.0797 9.23125 52.4656L11.8484 53.1359C11.9094 52.7297 11.8047 52.2734 11.6266 51.8984C11.5266 51.6891 11.4047 51.5047 11.2844 51.3703C11.2187 51.2969 11.1531 51.2406 11.0937 51.2L11.1781 50.8687C11.2484 50.8609 11.3344 50.8437 11.4281 50.8109C11.5984 50.7516 11.7937 50.6484 11.9812 50.5125C12.3187 50.2687 12.6281 49.9203 12.7687 49.5344L10.1516 48.8641ZM7.67563 49.5141C7.59234 49.7016 7.52406 49.8953 7.4725 50.0969L7.74562 50.1625C7.79297 49.9781 7.85562 49.8 7.93234 49.6281L7.67563 49.5141ZM7.40938 50.3984C7.37672 50.5937 7.35937 50.7953 7.35937 51V51.0141L7.64062 51.0109V51C7.64062 50.8109 7.65656 50.625 7.68672 50.4437L7.40938 50.3984ZM8.77344 52.6406L8.70469 52.9125L12.0953 53.7797L12.1641 53.5078L8.77344 52.6406Z" fill="black"/>
</g>
<line x1="76" y1="47.75" x2="120" y2="47.75" stroke="#B5B5B5" stroke-width="0.5"/>
<line x1="76" y1="49.75" x2="112" y2="49.75" stroke="#B5B5B5" stroke-width="0.5"/>
<line x1="76" y1="51.75" x2="109" y2="51.75" stroke="#B5B5B5" stroke-width="0.5"/>
<line x1="76" y1="53.75" x2="103" y2="53.75" stroke="#B5B5B5" stroke-width="0.5"/>
<rect x="18" y="40.25" width="2" height="18" fill="#C78F00"/>
<path d="M27.1538 54H26V49.7143H27.1538M29.0769 54H27.9231V48H29.0769M31 54H29.8462V51H31V54Z" fill="#A88FD2"/>
</g>
</g>
<g filter="url(#filter1_d_197_90)">
<g clip-path="url(#clip3_197_90)">
<rect x="4" y="64" width="140" height="14" rx="4" fill="#7F34FF" fill-opacity="0.09" shape-rendering="crispEdges"/>
<g clip-path="url(#clip4_197_90)">
<path fill-rule="evenodd" clip-rule="evenodd" d="M137.5 73.125C137.845 73.125 138.186 73.0571 138.505 72.9252C138.823 72.7933 139.112 72.5999 139.356 72.3562C139.6 72.1124 139.793 71.823 139.925 71.5045C140.057 71.1861 140.125 70.8447 140.125 70.5C140.125 70.1553 140.057 69.8139 139.925 69.4955C139.793 69.177 139.6 68.8876 139.356 68.6438C139.112 68.4001 138.823 68.2067 138.505 68.0748C138.186 67.9429 137.845 67.875 137.5 67.875C136.804 67.875 136.136 68.1516 135.644 68.6438C135.152 69.1361 134.875 69.8038 134.875 70.5C134.875 71.1962 135.152 71.8639 135.644 72.3562C136.136 72.8484 136.804 73.125 137.5 73.125ZM137.432 71.5617L138.891 69.8117L138.443 69.4383L137.188 70.943L136.54 70.2938L136.127 70.7062L137.002 71.5812L137.228 71.807L137.432 71.5617Z" fill="#19E276"/>
</g>
<rect x="39" y="70" width="28" height="2" fill="#A88FD2"/>
<line x1="76" y1="67.75" x2="120" y2="67.75" stroke="#B5B5B5" stroke-width="0.5"/>
<line x1="76" y1="69.75" x2="112" y2="69.75" stroke="#B5B5B5" stroke-width="0.5"/>
<line x1="76" y1="71.75" x2="109" y2="71.75" stroke="#B5B5B5" stroke-width="0.5"/>
<line x1="76" y1="73.75" x2="103" y2="73.75" stroke="#B5B5B5" stroke-width="0.5"/>
<rect x="18" y="59.25" width="2" height="22.5" fill="#4000C7"/>
<path d="M11.375 70.625V68H10.625V70.625H8V71.375H10.625V74H11.375V71.375H14V70.625H11.375Z" fill="#7F34FF"/>
<path d="M26 68H29.8889V71.5714H26V68ZM26.7778 68.7143V70.8571H29.1111V68.7143H26.7778ZM30.6667 68H33V68.7143H30.6667V68ZM30.6667 69.4286H33V70.1429H30.6667V69.4286ZM30.6667 70.8571H33V71.5714H30.6667V70.8571ZM26 72.2857H32.2222V73H26V72.2857Z" fill="#A88FD2"/>
</g>
</g>
<g filter="url(#filter2_d_197_90)">
<g clip-path="url(#clip5_197_90)">
<rect x="4" y="23" width="140" height="14" rx="4" fill="#E7DBFF"/>
<g clip-path="url(#clip6_197_90)">
<path fill-rule="evenodd" clip-rule="evenodd" d="M137.5 32.125C137.845 32.125 138.186 32.0571 138.505 31.9252C138.823 31.7933 139.112 31.5999 139.356 31.3562C139.6 31.1124 139.793 30.823 139.925 30.5045C140.057 30.1861 140.125 29.8447 140.125 29.5C140.125 29.1553 140.057 28.8139 139.925 28.4955C139.793 28.177 139.6 27.8876 139.356 27.6438C139.112 27.4001 138.823 27.2067 138.505 27.0748C138.186 26.9429 137.845 26.875 137.5 26.875C136.804 26.875 136.136 27.1516 135.644 27.6438C135.152 28.1361 134.875 28.8038 134.875 29.5C134.875 30.1962 135.152 30.8639 135.644 31.3562C136.136 31.8484 136.804 32.125 137.5 32.125ZM137.432 30.5617L138.891 28.8117L138.443 28.4383L137.188 29.943L136.54 29.2938L136.127 29.7062L137.002 30.5812L137.228 30.807L137.432 30.5617Z" fill="#19E276"/>
</g>
<rect x="38" y="29" width="29" height="2" fill="#A88FD2"/>
<g clip-path="url(#clip7_197_90)">
<path d="M11 26.3594C10.9422 26.3594 10.8844 26.3609 10.8266 26.3636L10.8391 26.6445C10.8922 26.642 10.9453 26.6406 11 26.6406C12.8563 26.6406 14.3594 28.1437 14.3594 30C14.3594 31.8563 12.8563 33.3594 11 33.3594C9.6 33.3594 8.40078 32.5047 7.89609 31.2875L8.32781 31.1578L7.57109 30.6219L7.27344 31.4734L7.62578 31.3688C8.16688 32.7 9.475 33.6406 11 33.6406C13.0094 33.6406 14.6406 32.0094 14.6406 30C14.6406 27.9906 13.0094 26.3594 11 26.3594ZM10.5187 26.3913C10.3109 26.4186 10.1109 26.4631 9.91563 26.5238L10.0031 26.7908C10.1812 26.7355 10.3672 26.6947 10.5563 26.6697L10.5187 26.3913ZM9.62812 26.6275C9.43437 26.7064 9.25 26.8012 9.075 26.9106L9.22344 27.1483C9.38438 27.0477 9.55469 26.9603 9.73281 26.8878L9.62812 26.6275ZM8.81875 27.0859C8.65471 27.2089 8.50131 27.3454 8.36016 27.4941L8.56406 27.6859C8.69375 27.5489 8.83594 27.4233 8.98594 27.31L8.91094 27.2073L8.81875 27.0859ZM9.90469 27.22L9.83594 27.4925L13.2266 28.3594L13.2953 28.0875L9.90469 27.22ZM8.15734 27.7266C8.02938 27.8859 7.91453 28.0578 7.81453 28.2375L8.05906 28.375C8.15141 28.2078 8.25734 28.05 8.37563 27.9016L8.15734 27.7266ZM10.1516 27.8641C10.0906 28.2703 10.1953 28.7266 10.3734 29.1016C10.4734 29.3109 10.5953 29.4953 10.7156 29.6297C10.7813 29.7031 10.8469 29.7594 10.9062 29.8L10.8219 30.1312C10.75 30.1375 10.6656 30.1563 10.5719 30.1891C10.4016 30.2484 10.2062 30.3516 10.0187 30.4875C9.68125 30.7313 9.37188 31.0797 9.23125 31.4656L11.8484 32.1359C11.9094 31.7297 11.8047 31.2734 11.6266 30.8984C11.5266 30.6891 11.4047 30.5047 11.2844 30.3703C11.2188 30.2969 11.1531 30.2406 11.0938 30.2L11.1781 29.8688C11.2484 29.8609 11.3344 29.8437 11.4281 29.8109C11.5984 29.7516 11.7937 29.6484 11.9812 29.5125C12.3187 29.2688 12.6281 28.9203 12.7688 28.5344L10.1516 27.8641ZM7.67563 28.5141C7.59234 28.7016 7.52406 28.8953 7.4725 29.0969L7.74563 29.1625C7.79297 28.9781 7.85562 28.8 7.93234 28.6281L7.67563 28.5141ZM7.40938 29.3984C7.37672 29.5938 7.35938 29.7953 7.35938 30V30.0141L7.64062 30.0109V30C7.64062 29.8109 7.65656 29.625 7.68672 29.4437L7.40938 29.3984ZM8.77344 31.6406L8.70469 31.9125L12.0953 32.7797L12.1641 32.5078L8.77344 31.6406Z" fill="black"/>
</g>
<line x1="76" y1="26.75" x2="120" y2="26.75" stroke="#B5B5B5" stroke-width="0.5"/>
<line x1="76" y1="28.75" x2="112" y2="28.75" stroke="#B5B5B5" stroke-width="0.5"/>
<line x1="76" y1="30.75" x2="109" y2="30.75" stroke="#B5B5B5" stroke-width="0.5"/>
<line x1="76" y1="32.75" x2="103" y2="32.75" stroke="#B5B5B5" stroke-width="0.5"/>
<rect x="18" y="20.5" width="2" height="18" fill="#E54060"/>
<path d="M30.4979 29.0304L30.8071 28.7212C31.0346 28.4937 31.0346 28.1233 30.8071 27.8958L30.3958 27.4846C30.1683 27.2571 29.7979 27.2571 29.5704 27.4846L29.2613 27.7937L30.4979 29.0304ZM29.2613 29.4446L27.1613 31.5417H26.75V31.1304L28.8471 29.0333L29.2613 29.4446ZM28.8471 28.205L26.1667 30.8883V32.125H27.4033L30.0838 29.4446L28.8471 28.205ZM30.5417 31.1042C30.5417 31.7429 29.8008 32.125 29.0833 32.125C28.9229 32.125 28.7917 31.9937 28.7917 31.8333C28.7917 31.6729 28.9229 31.5417 29.0833 31.5417C29.5325 31.5417 29.9583 31.3287 29.9583 31.1042C29.9583 30.9671 29.8183 30.8504 29.5996 30.7542L30.0313 30.3225C30.3433 30.5062 30.5417 30.7512 30.5417 31.1042ZM26.3358 29.8938C26.0529 29.7304 25.875 29.5175 25.875 29.2083C25.875 28.6833 26.4263 28.4412 26.9133 28.2283C27.2138 28.0942 27.625 27.9133 27.625 27.75C27.625 27.6304 27.3975 27.4583 27.0417 27.4583C26.6742 27.4583 26.5167 27.6362 26.5079 27.645C26.4058 27.7646 26.2221 27.7792 26.0996 27.68C26.041 27.6321 26.0035 27.563 25.9953 27.4877C25.9872 27.4124 26.0089 27.3369 26.0558 27.2775C26.0879 27.2367 26.3883 26.875 27.0417 26.875C27.695 26.875 28.2083 27.26 28.2083 27.75C28.2083 28.2954 27.6454 28.5433 27.1467 28.7621C26.8725 28.8817 26.4583 29.0625 26.4583 29.2083C26.4583 29.2987 26.5838 29.3833 26.7704 29.4592L26.3358 29.8938Z" fill="#A88FD2"/>
</g>
</g>
<defs>
<filter id="filter0_d_197_90" x="0" y="44" width="148" height="22" filterUnits="userSpaceOnUse" color-interpolation-filters="sRGB">
<feFlood flood-opacity="0" result="BackgroundImageFix"/>
<feColorMatrix in="SourceAlpha" type="matrix" values="0 0 0 0 0 0 0 0 0 0 0 0 0 0 0 0 0 0 127 0" result="hardAlpha"/>
<feOffset dy="4"/>
<feGaussianBlur stdDeviation="2"/>
<feComposite in2="hardAlpha" operator="out"/>
<feColorMatrix type="matrix" values="0 0 0 0 0 0 0 0 0 0 0 0 0 0 0 0 0 0 0.1 0"/>
<feBlend mode="normal" in2="BackgroundImageFix" result="effect1_dropShadow_197_90"/>
<feBlend mode="normal" in="SourceGraphic" in2="effect1_dropShadow_197_90" result="shape"/>
</filter>
<filter id="filter1_d_197_90" x="0" y="64" width="148" height="22" filterUnits="userSpaceOnUse" color-interpolation-filters="sRGB">
<feFlood flood-opacity="0" result="BackgroundImageFix"/>
<feColorMatrix in="SourceAlpha" type="matrix" values="0 0 0 0 0 0 0 0 0 0 0 0 0 0 0 0 0 0 127 0" result="hardAlpha"/>
<feOffset dy="4"/>
<feGaussianBlur stdDeviation="2"/>
<feComposite in2="hardAlpha" operator="out"/>
<feColorMatrix type="matrix" values="0 0 0 0 0 0 0 0 0 0 0 0 0 0 0 0 0 0 0.1 0"/>
<feBlend mode="normal" in2="BackgroundImageFix" result="effect1_dropShadow_197_90"/>
<feBlend mode="normal" in="SourceGraphic" in2="effect1_dropShadow_197_90" result="shape"/>
</filter>
<filter id="filter2_d_197_90" x="0" y="23" width="148" height="22" filterUnits="userSpaceOnUse" color-interpolation-filters="sRGB">
<feFlood flood-opacity="0" result="BackgroundImageFix"/>
<feColorMatrix in="SourceAlpha" type="matrix" values="0 0 0 0 0 0 0 0 0 0 0 0 0 0 0 0 0 0 127 0" result="hardAlpha"/>
<feOffset dy="4"/>
<feGaussianBlur stdDeviation="2"/>
<feComposite in2="hardAlpha" operator="out"/>
<feColorMatrix type="matrix" values="0 0 0 0 0 0 0 0 0 0 0 0 0 0 0 0 0 0 0.16 0"/>
<feBlend mode="normal" in2="BackgroundImageFix" result="effect1_dropShadow_197_90"/>
<feBlend mode="normal" in="SourceGraphic" in2="effect1_dropShadow_197_90" result="shape"/>
</filter>
<clipPath id="clip0_197_90">
<rect x="4" y="44" width="140" height="14" rx="4" fill="white"/>
</clipPath>
<clipPath id="clip1_197_90">
<rect width="7" height="7" fill="white" transform="translate(134 47)"/>
</clipPath>
<clipPath id="clip2_197_90">
<rect width="8" height="8" fill="white" transform="translate(7 47)"/>
</clipPath>
<clipPath id="clip3_197_90">
<rect x="4" y="64" width="140" height="14" rx="4" fill="white"/>
</clipPath>
<clipPath id="clip4_197_90">
<rect width="7" height="7" fill="white" transform="translate(134 67)"/>
</clipPath>
<clipPath id="clip5_197_90">
<rect x="4" y="23" width="140" height="14" rx="4" fill="white"/>
</clipPath>
<clipPath id="clip6_197_90">
<rect width="7" height="7" fill="white" transform="translate(134 26)"/>
</clipPath>
<clipPath id="clip7_197_90">
<rect width="8" height="8" fill="white" transform="translate(7 26)"/>
</clipPath>
</defs>
</svg>
