<svg width="451" height="205" viewBox="0 0 451 205" fill="none" xmlns="http://www.w3.org/2000/svg">
<rect x="30" y="74" width="392" height="131" rx="8" fill="#F4F4F4"/>
<rect x="148" y="101" width="156" height="72" rx="36" fill="white"/>
<rect x="162" y="110" width="53" height="53" rx="26.5" fill="#BBADE8"/>
<path d="M193.18 125.401C194.149 124.504 195.464 124 196.834 124C198.204 124 199.518 124.505 200.487 125.402C201.456 126.3 202 127.517 202 128.787C202 130.056 201.455 131.273 200.486 132.17L199.854 132.755L192.548 125.988L193.18 125.401ZM190.64 127.756L176.754 140.614C176.567 140.789 176.439 141.01 176.387 141.252L175.027 147.501C174.983 147.703 174.993 147.912 175.057 148.109C175.121 148.307 175.237 148.486 175.394 148.632C175.551 148.778 175.744 148.886 175.957 148.946C176.17 149.006 176.396 149.016 176.614 148.976L183.372 147.726C183.633 147.677 183.872 147.558 184.06 147.383L197.946 134.522L190.64 127.756Z" fill="white"/>
<rect width="451" height="47" fill="#F2EEFF"/>
<path d="M418 16H388C385.791 16 384 17.7909 384 20V27C384 29.2091 385.791 31 388 31H418C420.209 31 422 29.2091 422 27V20C422 17.7909 420.209 16 418 16Z" fill="#DAD3F1"/>
<path d="M372 16H342C339.791 16 338 17.7909 338 20V27C338 29.2091 339.791 31 342 31H372C374.209 31 376 29.2091 376 27V20C376 17.7909 374.209 16 372 16Z" fill="#DAD3F1"/>
<path d="M321.281 15.75H307.719C305.663 15.75 303.692 16.5665 302.239 18.0199C300.785 19.4733 299.969 21.4446 299.969 23.5C299.969 25.5554 300.785 27.5267 302.239 28.9801C303.692 30.4335 305.663 31.25 307.719 31.25H321.281C323.337 31.25 325.308 30.4335 326.761 28.9801C328.215 27.5267 329.031 25.5554 329.031 23.5C329.031 21.4446 328.215 19.4733 326.761 18.0199C325.308 16.5665 323.337 15.75 321.281 15.75ZM321.281 29.3125H307.719C306.177 29.3125 304.699 28.7001 303.609 27.6101C302.519 26.52 301.906 25.0416 301.906 23.5C301.906 21.9584 302.519 20.48 303.609 19.3899C304.699 18.2999 306.177 17.6875 307.719 17.6875H321.281C322.823 17.6875 324.301 18.2999 325.391 19.3899C326.481 20.48 327.094 21.9584 327.094 23.5C327.094 25.0416 326.481 26.52 325.391 27.6101C324.301 28.7001 322.823 29.3125 321.281 29.3125Z" fill="#BBADE8"/>
<path d="M307.719 19.625C306.952 19.625 306.203 19.8523 305.566 20.2781C304.929 20.7038 304.432 21.309 304.139 22.0171C303.845 22.7252 303.769 23.5043 303.918 24.256C304.068 25.0077 304.437 25.6981 304.979 26.24C305.521 26.782 306.211 27.151 306.963 27.3005C307.714 27.4501 308.494 27.3733 309.202 27.08C309.91 26.7867 310.515 26.2901 310.941 25.6528C311.366 25.0156 311.594 24.2664 311.594 23.5C311.593 22.4726 311.184 21.4877 310.458 20.7612C309.731 20.0347 308.746 19.6261 307.719 19.625ZM307.719 25.4375C307.336 25.4375 306.961 25.3239 306.642 25.111C306.324 24.8981 306.075 24.5955 305.929 24.2414C305.782 23.8874 305.744 23.4979 305.818 23.122C305.893 22.7462 306.078 22.4009 306.349 22.13C306.62 21.859 306.965 21.6745 307.341 21.5997C307.717 21.525 308.106 21.5633 308.46 21.71C308.814 21.8566 309.117 22.105 309.33 22.4236C309.543 22.7422 309.656 23.1168 309.656 23.5C309.656 24.0137 309.451 24.5062 309.088 24.8694C308.725 25.2326 308.232 25.4369 307.719 25.4375Z" fill="#BBADE8"/>
<path d="M75.3471 24.3646C75.3471 25.2415 75.1523 26.0535 74.73 26.7681C74.3078 27.4827 73.7556 28.0349 73.041 28.4571C72.3265 28.8793 71.5144 29.0742 70.6375 29.0742C69.7605 29.0742 69.1109 28.9118 68.4613 28.5545C67.8117 28.1973 68.2989 28.3921 68.2989 28.2947V26.9955C68.2989 26.7681 68.5912 26.6057 68.7861 26.7681C68.981 26.9305 69.0134 26.9305 69.1434 27.028C69.5981 27.2878 70.0853 27.4177 70.6375 27.4177C71.1896 27.4177 71.7093 27.2878 72.164 27.028C72.6188 26.7681 72.9436 26.4108 73.2034 25.9561C73.4633 25.5014 73.5932 24.9817 73.5932 24.3646C73.5932 23.7474 73.4633 23.2602 73.2034 22.8055C72.9436 22.3508 72.5863 21.9935 72.164 21.7336C71.7418 21.4738 71.2221 21.3439 70.6375 21.3439C70.0528 21.3439 69.5981 21.4738 69.1434 21.7336C68.6886 21.9935 68.3638 22.3508 68.104 22.8055C67.8766 23.2277 67.6493 23.8449 67.6493 24.2022C67.6493 25.0466 67.6493 26.6057 67.6493 27.3203C67.6493 28.652 66.8048 29.529 65.3756 29.529C63.9465 29.529 63.2969 28.5545 63.2969 27.3203V23.4226C63.2969 22.773 63.0695 22.2208 62.6797 21.8311C62.2575 21.4413 61.7703 21.2464 61.1532 21.2464C60.536 21.2464 60.3736 21.3439 60.0163 21.5063C59.6915 21.7012 59.3992 21.9285 59.2043 22.2533C59.0095 22.5781 58.912 22.9679 58.912 23.3901V28.587C58.912 28.7169 58.8146 28.8469 58.6522 28.8469H57.4504C57.3205 28.8469 57.1905 28.7494 57.1905 28.587V23.3901C57.1905 22.7405 56.9957 22.1884 56.5734 21.7986C56.1512 21.4088 55.6315 21.214 55.0144 21.214C54.3972 21.214 54.2348 21.3114 53.91 21.4738C53.5852 21.6687 53.3254 21.896 53.1305 22.2208C52.9356 22.5457 52.8382 22.9354 52.8382 23.3577V28.5545C52.8382 28.6845 52.7407 28.8144 52.5783 28.8144H51.3765C51.2466 28.8144 51.1167 28.7169 51.1167 28.5545V20.1421C51.1167 20.0122 51.2141 19.8823 51.3765 19.8823H52.5783C52.7082 19.8823 52.8382 19.9797 52.8382 20.1421V20.9541C53.098 20.6293 53.4228 20.337 53.8126 20.1421C54.3323 19.8498 54.9169 19.7198 55.5665 19.7198C56.2161 19.7198 56.7683 19.8498 57.288 20.1421C57.8077 20.4019 58.1974 20.7917 58.4898 21.3114C58.4898 21.3114 58.4898 21.3114 58.4898 21.3439C58.8146 20.8567 59.2693 20.4669 59.789 20.1746C60.3087 19.8823 60.8933 19.7523 61.5429 19.7523C62.1925 19.7523 62.7772 19.8823 63.2969 20.1746C63.8166 20.4344 64.2388 20.8242 64.5311 21.3439C64.8559 21.8636 64.9859 22.4482 64.9859 23.1628V27.4502C64.9859 27.71 65.2457 27.9374 65.4731 27.9374C65.7004 27.9374 65.9603 27.71 65.9603 27.4502V24.6894C65.9603 24.6894 65.9603 24.3646 65.9603 24.3321C65.9603 23.4876 66.1876 22.7081 66.5774 22.026C66.9996 21.3439 67.5518 20.7592 68.2664 20.3695C68.981 19.9472 69.7605 19.7523 70.6375 19.7523C71.5144 19.7523 72.3265 19.9472 73.041 20.3695C73.7556 20.7917 74.3078 21.3439 74.73 22.0584C75.1523 22.773 75.3471 23.5525 75.3471 24.4295V24.3646Z" fill="#BBADE8"/>
<path d="M81.2912 19.9472C80.9339 19.7848 80.5116 19.7198 80.0569 19.7198C79.05 19.7198 78.303 20.0447 77.7833 20.7267C77.7183 20.7917 77.6858 20.8567 77.6209 20.9541V20.1421C77.6209 20.0122 77.5234 19.8823 77.361 19.8823H76.1593C76.0293 19.8823 75.8994 19.9797 75.8994 20.1421V28.652C75.8994 28.7819 75.9969 28.9118 76.1593 28.9118H77.361C77.491 28.9118 77.6209 28.8144 77.6209 28.652V23.7799C77.6209 22.9354 77.8158 22.3183 78.238 21.9285C78.6278 21.5388 79.1475 21.3114 79.7971 21.3114C80.4467 21.3114 80.3492 21.3439 80.5766 21.4413C80.804 21.5388 80.8365 21.5388 80.9989 21.6687C81.1613 21.7986 81.3886 21.7661 81.4861 21.6037C81.6809 21.3114 81.9083 21.0191 82.0707 20.8242C82.2331 20.6293 82.1681 20.4669 82.0057 20.3695C81.7784 20.2071 81.5835 20.0771 81.3237 19.9797L81.2912 19.9472Z" fill="#BBADE8"/>
<path d="M88.6641 21.1165C88.3393 20.6943 87.982 20.3695 87.4948 20.1096C86.9426 19.8173 86.358 19.6874 85.6759 19.6874C84.9938 19.6874 84.0843 19.8823 83.4347 20.3045C82.7851 20.7268 82.2654 21.2789 81.8757 21.9935C81.4859 22.7081 81.291 23.4876 81.291 24.3646C81.291 25.2415 81.4859 26.0536 81.8757 26.7356C82.2654 27.4502 82.7851 28.0024 83.4347 28.4246C84.0843 28.8469 84.8314 29.0418 85.6759 29.0418C86.5204 29.0418 86.9751 28.9118 87.4948 28.6195C87.9495 28.3597 88.3393 28.0349 88.6641 27.6451V28.6195C88.6641 28.7494 88.7615 28.8794 88.9239 28.8794H90.1582C90.2881 28.8794 90.418 28.7819 90.418 28.6195V20.1421C90.418 20.0122 90.3206 19.8823 90.1582 19.8823H88.9239C88.794 19.8823 88.6641 19.9797 88.6641 20.1421V21.1165ZM88.0145 26.6057C87.4948 27.1904 86.8127 27.4502 85.9682 27.4502C85.1237 27.4502 84.8963 27.3203 84.4416 27.0604C83.9869 26.8006 83.6621 26.4433 83.4022 25.9886C83.1424 25.5339 83.045 24.9817 83.045 24.397C83.045 23.8124 83.1749 23.2927 83.4022 22.8055C83.6621 22.3508 83.9869 21.9935 84.4091 21.7336C84.8314 21.4738 85.3511 21.3439 85.9032 21.3439C86.4554 21.3439 86.9751 21.4738 87.3973 21.7336C87.8196 21.9935 88.1444 22.3508 88.4042 22.8055C88.6316 23.2602 88.7615 23.8124 88.7615 24.4295C88.7615 25.339 88.5017 26.0536 87.982 26.6382L88.0145 26.6057Z" fill="#BBADE8"/>
<path d="M98.2461 20.1421V21.1165C97.9213 20.6943 97.564 20.3695 97.0768 20.1096C96.5247 19.8173 95.94 19.6874 95.2579 19.6874C94.5758 19.6874 93.6664 19.8823 93.0168 20.3045C92.3672 20.7268 91.8475 21.2789 91.4577 21.9935C91.0679 22.7081 90.873 23.4876 90.873 24.3646C90.873 25.2415 91.0679 26.0536 91.4577 26.7356C91.8475 27.4502 92.3672 28.0024 93.0168 28.4246C93.6664 28.8469 94.4134 29.0418 95.2579 29.0418C96.1024 29.0418 96.5571 28.9118 97.0768 28.6195C97.5315 28.3597 97.9213 28.0349 98.2461 27.6451V28.6195C98.2461 28.7494 98.3436 28.8794 98.506 28.8794H99.7402C99.8701 28.8794 100 28.7819 100 28.6195V20.1421C100 20.0122 99.9026 19.8823 99.7402 19.8823H98.506C98.376 19.8823 98.2461 19.9797 98.2461 20.1421ZM97.5965 26.6057C97.0768 27.1904 96.3947 27.4502 95.5502 27.4502C94.7057 27.4502 94.4784 27.3203 94.0237 27.0604C93.5689 26.8006 93.2441 26.4433 92.9843 25.9886C92.7244 25.5339 92.627 24.9817 92.627 24.397C92.627 23.8124 92.7569 23.2927 92.9843 22.8055C93.2441 22.3508 93.5689 21.9935 93.9912 21.7336C94.4134 21.4738 94.9331 21.3439 95.4853 21.3439C96.0374 21.3439 96.5571 21.4738 96.9794 21.7336C97.4016 21.9935 97.7264 22.3508 97.9863 22.8055C98.2136 23.2602 98.3436 23.8124 98.3436 24.4295C98.3436 25.339 98.0837 26.0536 97.564 26.6382L97.5965 26.6057Z" fill="#BBADE8"/>
<path d="M44.8806 23.65L43.8737 24.9492C45.9524 25.9236 45.6276 28.2622 44.4259 29.3016C43.7763 29.8537 42.7044 30.1136 41.8274 29.6588C41.0804 29.3016 40.3333 28.4895 39.5213 27.2878C39.2939 26.963 38.9042 26.3458 38.7093 26.021C38.5144 25.6962 38.7093 25.2415 39.164 25.3714C43.3215 26.4108 46.3747 21.5712 43.3215 18.2257C41.5676 16.3418 38.8067 16.8615 37.3776 18.2257C35.9485 19.5899 35.8185 20.8566 36.1758 22.5456L37.9298 22.9354C37.2477 19.4925 39.3589 18.3881 41.0479 18.8428C42.3796 19.2001 43.7438 21.2789 42.1197 23.0653C39.5538 25.8911 34.5843 21.019 31.2713 24.3645C27.601 28.0673 32.603 34.1087 37.0853 30.5358C37.4426 30.2435 37.6374 29.9836 37.9947 29.3665L36.9554 27.8724C36.2408 29.2366 35.2664 29.8862 34.2595 29.8862C32.5055 29.8862 31.3038 28.0348 31.9209 26.4108C32.6679 24.462 35.4937 24.2996 36.5656 25.8586C38.1571 28.1972 39.2939 30.0161 40.5282 30.8606C42.4446 32.1598 44.7507 31.4777 45.855 30.3409C47.5115 28.6844 47.8688 25.4364 44.9131 23.585L44.8806 23.65Z" fill="#BBADE8"/>
<path d="M319.963 38.9375H319.25C319.25 38.7 319.013 38.225 318.775 37.9875C318.538 37.75 318.062 37.5125 317.469 37.5125C317.231 37.5125 316.994 37.5125 316.756 37.6313C316.637 37.3938 316.519 37.275 316.4 37.0375C316.163 36.8 315.806 36.5625 315.094 36.5625C314.856 36.5625 314.619 36.5625 314.5 36.6812V34.6625C314.5 33.95 314.025 33 312.837 33C312.362 33 311.888 33.2375 311.531 33.475C310.938 34.1875 310.938 35.1375 310.938 35.1375V40.2437C310.225 40.3625 309.631 40.6 309.275 40.9562C308.562 41.7875 308.562 42.8562 308.562 44.2812V45.1125C308.562 46.775 309.394 47.6063 310.225 48.4375L310.581 48.9125C312.125 50.3375 313.431 50.8125 316.638 50.8125C320.081 50.8125 321.625 48.9125 321.625 44.7562V41.7875C321.625 40.9563 321.388 39.2938 319.963 38.9375ZM320.438 41.7875V44.875C320.438 48.9125 318.894 49.7438 316.638 49.7438C313.788 49.7438 312.719 49.3875 311.531 48.2L311.056 47.725C310.225 46.775 309.75 46.3 309.75 45.1125V44.2812C309.75 43.0938 309.75 42.2625 310.106 41.7875C310.225 41.6688 310.581 41.55 310.938 41.55V42.1437L310.581 43.925C310.581 44.0437 310.581 44.0437 310.7 44.1625C310.819 44.2812 310.938 44.1625 310.938 44.1625L312.125 42.7375V35.1375C312.125 35.0187 312.125 34.5438 312.362 34.3063C312.481 34.3063 312.6 34.1875 312.837 34.1875C313.194 34.1875 313.312 34.5437 313.312 34.6625V39.7687C313.312 40.125 313.55 40.4813 313.906 40.4813C314.263 40.4813 314.5 40.125 314.5 39.8875V38.3438C314.5 38.225 314.619 37.75 315.094 37.75C315.45 37.75 315.688 37.8688 315.688 38.225V39.7687C315.688 40.125 315.925 40.4813 316.281 40.4813C316.638 40.4813 316.875 40.125 316.875 39.8875V39.0562C316.875 38.9375 316.994 38.7 317.469 38.7C317.706 38.7 317.825 38.8188 317.825 38.8188C318.063 38.9375 318.062 39.2938 318.062 39.2938V40.2437C318.062 40.6 318.3 40.8375 318.537 40.8375C318.894 40.8375 319.131 40.7187 319.131 40.3625C319.131 40.2437 319.25 40.125 319.369 40.0063H319.606C320.319 40.2438 320.438 41.4313 320.438 41.7875C320.438 41.6688 320.438 41.6688 320.438 41.7875Z" fill="#AAA4A4"/>
</svg>
