<svg width="706" height="543" viewBox="0 0 706 543" fill="none" xmlns="http://www.w3.org/2000/svg">
<g opacity="0.58" clip-path="url(#clip0_987_9329)">
<path d="M55.4964 437.918C55.4964 437.918 51.3481 450.031 68.5332 453.063C92.039 457.211 224.939 468.34 191.421 476.622C172.499 481.297 206.154 487.415 298.316 489.752C390.477 492.09 548.62 482.931 495.439 469.379C442.258 455.827 658.931 466.107 645.733 437.918L55.4964 437.918Z" fill="#CFDDF9"/>
<path d="M159.403 437.761C159.403 437.761 92.5933 260.621 142.687 222.933C176.17 197.743 208.86 261.164 251.22 231.787C288.932 205.633 263.502 143.102 301.508 115.063C360.616 71.4551 422.103 258.731 475.098 230.823C558.461 186.924 609.424 256.177 551.536 438.084L159.403 437.761Z" fill="#D4E8FF"/>
<path d="M104.938 423.814C103.77 420.577 102.613 417.223 101.502 413.846L104.241 413.11C105.346 416.465 106.494 419.797 107.655 423.012L104.938 423.814ZM595.037 419.634L592.2 419.318C592.671 415.872 593.118 412.403 593.53 409.005L596.371 409.286C595.958 412.695 595.51 416.177 595.037 419.634ZM98.3466 403.806C97.3462 400.468 96.376 397.068 95.4628 393.701L98.2388 393.086C99.1465 396.433 100.111 399.813 101.105 403.131L98.3466 403.806ZM597.541 398.92L594.696 398.677C595.057 395.218 595.392 391.739 595.691 388.336L598.54 388.539C598.24 391.956 597.904 395.448 597.541 398.92ZM92.8515 383.536C92.026 380.136 91.2404 376.697 90.5168 373.316L93.3229 372.826C94.0419 376.186 94.8226 379.603 95.6429 382.982L92.8515 383.536ZM599.361 378.145L596.508 377.982C596.75 374.525 596.962 371.038 597.139 367.619L599.994 367.739C599.816 371.173 599.604 374.674 599.361 378.145ZM88.4686 363.045C87.8329 359.603 87.2445 356.132 86.7199 352.728L89.5504 352.372C90.0717 355.753 90.6563 359.201 91.2877 362.62L88.4686 363.045ZM600.43 357.323L597.573 357.248C597.684 353.776 597.761 350.286 597.801 346.874L600.659 346.901C600.619 350.329 600.542 353.836 600.43 357.323ZM85.2853 342.369C84.8593 338.892 84.4883 335.396 84.1831 331.976L87.0318 331.768C87.3352 335.162 87.7031 338.633 88.1261 342.085L85.2853 342.369ZM597.813 336.498C597.779 333.024 597.706 329.534 597.596 326.127L600.453 326.052C600.564 329.477 600.637 332.984 600.671 336.476L597.813 336.498ZM83.4337 321.555C83.2442 318.058 83.1184 314.547 83.0601 311.119L85.918 311.079C85.9758 314.478 86.1005 317.96 86.2884 321.429L83.4337 321.555ZM597.137 315.765C596.941 312.295 596.699 308.813 596.42 305.416L599.27 305.225C599.551 308.641 599.794 312.143 599.991 315.633L597.137 315.765ZM85.9449 300.725L83.0875 300.672C83.167 297.166 83.3205 293.653 83.5437 290.233L86.397 290.385C86.1757 293.772 86.0236 297.251 85.9449 300.725ZM595.428 295.088C595.046 291.619 594.614 288.154 594.143 284.789L596.979 284.465C597.452 287.852 597.888 291.341 598.272 294.833L595.428 295.088ZM87.3031 280.072L84.4593 279.814C84.8476 276.32 85.3209 272.829 85.8661 269.436L88.6945 269.807C88.1552 273.163 87.6871 276.616 87.3031 280.072ZM592.543 274.529C591.948 271.082 591.296 267.647 590.603 264.321L593.411 263.843C594.11 267.195 594.768 270.657 595.367 274.131L592.543 274.529ZM254.519 274.165C250.547 273.599 247.675 271.965 243.695 269.143L245.502 267.141C248.988 269.606 251.506 271.086 254.823 271.596L254.519 274.165ZM264.435 268.018L261.889 266.843C263.198 264.528 264.354 261.314 265.327 257.292L268.119 257.843C267.08 262.142 265.875 265.47 264.435 268.018ZM235.307 261.734C233.03 259.442 230.597 256.804 227.869 253.67L230.114 252.073C232.805 255.162 235.199 257.758 237.434 260.008L235.307 261.734ZM90.6037 259.615L87.7979 259.123C88.5383 255.675 89.376 252.237 90.2879 248.904L93.0624 249.524C92.162 252.814 91.3346 256.21 90.6037 259.615ZM588.293 254.18C587.446 250.768 586.533 247.386 585.579 244.126L588.342 243.466C589.306 246.756 590.227 250.171 591.081 253.615L588.293 254.18ZM270.043 247.447L267.208 247.117C267.647 244.034 268.04 240.657 268.411 236.794L271.258 237.017C270.884 240.916 270.487 244.328 270.043 247.447ZM220.868 245.347C218.545 242.511 216.135 239.513 214.059 236.927L216.372 235.41C218.445 237.992 220.85 240.983 223.165 243.81L220.868 245.347ZM430.118 245.135C427.892 245.135 425.708 244.534 423.627 243.348L425.151 241.163C428.278 242.947 431.353 242.951 434.674 241.528L435.904 243.86C433.94 244.706 431.994 245.135 430.118 245.135ZM96.1026 239.569L93.3693 238.813C94.5049 235.457 95.7507 232.118 97.0725 228.891L99.7529 229.788C98.4503 232.969 97.2221 236.259 96.1026 239.569ZM445.25 237.106L443.15 235.353C445.317 233.232 447.64 230.615 450.252 227.353L452.567 228.868C449.888 232.214 447.495 234.909 445.25 237.106ZM415.501 235.33C413.651 232.751 411.818 229.713 409.897 226.045L412.48 224.94C414.346 228.504 416.119 231.443 417.899 233.925L415.501 235.33ZM582.421 234.186C581.27 230.838 580.041 227.544 578.77 224.392L581.455 223.507C582.742 226.697 583.986 230.032 585.151 233.419L582.421 234.186ZM207.286 228.504C204.671 225.274 202.492 222.622 200.427 220.159L202.706 218.6C204.78 221.075 206.968 223.737 209.592 226.979L207.286 228.504ZM272.118 226.584L269.266 226.417C269.482 223.391 269.703 219.989 269.94 216.018L272.793 216.157C272.556 220.138 272.335 223.548 272.118 226.584ZM104.037 220.225L101.422 219.182C102.991 215.97 104.663 212.816 106.44 209.732L108.974 210.926C107.226 213.961 105.581 217.064 104.037 220.225ZM459.115 220.224L456.727 218.805C458.758 216.014 460.856 213.057 462.98 210.07L465.384 211.466C463.255 214.461 461.155 217.421 459.115 220.224ZM405.296 216.404C404.001 213.469 402.664 210.267 401.206 206.614L403.895 205.738C405.342 209.363 406.668 212.539 407.951 215.447L405.296 216.404ZM574.565 214.793C573.029 211.558 571.403 208.415 569.734 205.452L572.281 204.28C573.979 207.293 575.631 210.487 577.192 213.774L574.565 214.793ZM193.371 211.973C190.777 209.064 188.363 206.474 185.991 204.056L188.129 202.342C190.532 204.79 192.974 207.411 195.596 210.352L193.371 211.973ZM273.388 205.736L270.533 205.606C270.726 202.154 270.917 198.702 271.121 195.188L273.975 195.323C273.772 198.835 273.58 202.286 273.388 205.736ZM471.65 202.741L469.266 201.317C471.654 198.051 473.79 195.226 475.795 192.68L478.123 194.179C476.137 196.7 474.019 199.5 471.65 202.741ZM114.642 202.012L112.233 200.622C114.479 197.442 116.795 194.571 119.116 192.087L121.3 193.754C119.06 196.151 116.82 198.929 114.642 202.012ZM397.39 196.756C396.079 193.285 394.793 189.811 393.708 186.871L396.42 186.053C397.503 188.989 398.787 192.457 400.095 195.922L397.39 196.756ZM178.132 196.575C175.211 194.005 172.339 191.734 169.595 189.826L171.338 187.778C174.169 189.747 177.126 192.084 180.126 194.724L178.132 196.575ZM564.185 196.465C562.137 193.444 559.99 190.588 557.803 187.974L560.082 186.415C562.325 189.096 564.525 192.023 566.621 195.115L564.185 196.465ZM129.316 186.726L127.583 184.672C130.996 182.319 134.548 180.622 138.141 179.628L138.977 182.098C135.71 183.002 132.459 184.559 129.316 186.726ZM485.017 185.936L482.796 184.309C485.477 181.32 488.017 178.748 490.561 176.446L492.583 178.271C490.109 180.51 487.634 183.017 485.017 185.936ZM274.616 184.92L271.763 184.766C272.01 181.011 272.256 177.601 272.514 174.341L275.365 174.526C275.108 177.775 274.863 181.175 274.616 184.92ZM160.145 184.379C156.579 182.775 153.071 181.751 149.719 181.336L150.107 178.776C153.768 179.23 157.573 180.337 161.419 182.066L160.145 184.379ZM550.45 180.203C547.698 177.655 544.849 175.406 541.982 173.519L543.665 171.43C546.661 173.403 549.632 175.748 552.496 178.399L550.45 180.203ZM390.063 176.985C388.641 173.142 387.469 170.008 386.375 167.122L389.079 166.285C390.175 169.176 391.349 172.316 392.773 176.166L390.063 176.985ZM501.137 171.677L499.499 169.56C503.014 167.337 506.564 165.691 510.051 164.668L510.934 167.125C507.716 168.069 504.42 169.601 501.137 171.677ZM532.322 168.512C528.783 167.163 525.199 166.328 521.673 166.03L521.938 163.458C525.756 163.78 529.624 164.68 533.433 166.132L532.322 168.512ZM276.279 164.154L273.432 163.926C273.789 160.301 274.176 156.801 274.584 153.521L277.425 153.81C277.019 157.069 276.634 160.55 276.279 164.154ZM382.572 157.297C381.191 153.813 379.89 150.628 378.594 147.56L381.264 146.638C382.567 149.723 383.875 152.924 385.263 156.426L382.572 157.297ZM278.88 143.509L276.051 143.14C276.629 139.523 277.264 136.045 277.94 132.802L280.748 133.279C280.081 136.487 279.452 139.928 278.88 143.509ZM374.348 137.915C372.812 134.576 371.264 131.381 369.746 128.42L372.34 127.334C373.873 130.326 375.437 133.552 376.987 136.923L374.348 137.915ZM283.175 123.17L280.403 122.544C281.399 118.936 282.499 115.539 283.669 112.444L286.373 113.28C285.229 116.306 284.153 119.633 283.175 123.17ZM364.67 119.149C362.791 115.949 360.871 112.944 358.963 110.22L361.378 108.839C363.324 111.618 365.281 114.679 367.195 117.937L364.67 119.149ZM290.666 103.816L288.103 102.673C289.979 99.2356 292.061 96.1967 294.288 93.64L296.533 95.2386C294.429 97.6539 292.454 100.54 290.666 103.816ZM352.412 101.841C349.915 99.0116 347.337 96.5046 344.751 94.391L346.669 92.475C349.369 94.6823 352.053 97.2917 354.647 100.23L352.412 101.841ZM304.508 88.5426L302.967 86.3668C306.353 84.4082 310.083 83.1346 314.054 82.5815L314.489 85.1347C310.914 85.6327 307.556 86.7792 304.508 88.5426ZM335.733 88.541C332.404 86.9188 328.936 85.8097 325.425 85.2447L325.926 82.7013C329.736 83.3146 333.492 84.5144 337.089 86.2672L335.733 88.541Z" fill="#DCE6FF"/>
<path d="M614.873 362.604C591.156 359.301 593.303 408.942 559.495 408.942C528.584 408.942 512.043 298.033 478.123 320.59C341.757 411.276 447.859 256.958 356.164 253.941C314.703 252.577 287.075 294.116 276.887 367.662C262.118 434.15 227.869 316.951 192.622 327.848C170.221 334.773 172.786 408.942 141.876 408.942C108.068 408.942 110.295 367.199 86.5771 370.502C61.0411 374.059 55.2788 438.78 55.2788 438.78H646.069C646.069 438.78 640.409 366.16 614.873 362.604Z" fill="#EEF7FF"/>
<path d="M592.146 414.706C570.326 413.296 573.887 426.039 542.785 426.039C514.348 426.039 515.129 397.48 496.099 391.41C461.055 380.233 432.164 436.803 418.577 408.412C392.773 333.077 317.512 295.298 282.792 408.412C269.206 436.803 237.434 386.143 205.27 391.41C185.472 394.653 187.022 426.039 158.585 426.039C127.482 426.039 131.043 413.296 109.223 414.706C85.7307 416.225 78.7139 438.78 78.7139 438.78H622.656C622.656 438.78 615.639 416.225 592.146 414.706Z" fill="#DCE6FF"/>
<path d="M594.763 209.814C596.795 216.763 598.045 222.972 598.209 226.403C600.271 222.741 602.252 219.37 604.146 216.272C601.336 213.765 595.877 179.257 599.25 178.57C602.447 178.477 606.811 207.758 606.016 213.257C608.184 209.808 610.231 206.726 612.144 203.979C609.359 202.543 611.071 165.025 614.515 165.433C615.983 165.508 616.729 174.251 616.182 184.961C615.833 191.784 615.043 197.756 614.135 201.174C616.711 197.613 619.014 194.695 621.018 192.323C618.49 190.505 627.393 153.811 630.684 154.908C633.63 155.98 626.681 184.069 623.88 189.073C629.785 183.011 631.114 180.487 641.625 172.925C662.042 158.147 665.227 162.556 644.737 177.245C634.748 184.99 631.201 183.617 624.581 191.567C629.208 189.306 659.966 186.066 660.695 189.274C660.965 192.717 625.329 196.058 622.684 193.758C620.589 196.24 618.155 199.33 615.416 203.146C619.635 201.179 652.039 201.259 652.393 204.612C652.264 208.062 616.612 207.481 614.152 204.929C612.169 207.758 610.04 210.947 607.776 214.54C612.493 212.75 643.745 212.879 644.121 216.168C643.786 219.579 609.82 219.016 606.413 216.728C604.41 219.973 602.311 223.518 600.121 227.398C604.853 225.614 636.07 225.744 636.445 229.031C636.081 232.431 602.449 231.877 598.867 229.64C597.068 232.881 595.21 236.344 593.299 240.036C597.712 238.137 629.682 238.233 630.05 241.564C629.743 244.982 595.508 244.414 592.246 242.084C590.483 245.598 588.569 249.092 586.558 252.311C590.938 250.961 623.156 255.974 622.987 259.349C622.198 262.696 588.132 256.893 585.439 254.074C583.158 257.595 580.737 260.89 578.182 263.943C581.568 262.302 615.556 270.46 614.899 273.84C614.262 277.246 577.983 268.03 577.332 264.949C574.039 268.774 570.511 272.243 566.647 275.379C571.146 275.135 601.173 288.397 600.122 291.619C598.568 294.697 566.528 279.99 565.064 276.628C560.983 279.768 556.684 282.422 552.211 284.558C556.802 285.26 583.71 303.366 582.137 306.349C580.065 309.105 551.119 289.032 550.25 285.46C538.326 290.697 529.497 290.471 529.117 290.458L529.188 288.312C529.276 288.315 537.769 288.515 549.065 283.633C545.954 280.436 536.483 248.877 539.622 247.587C542.952 247.051 551.798 278.046 551.093 282.714C554.834 280.94 559.079 278.477 563.533 275.065C560.293 273.603 547.509 240.366 550.707 239.066C554.009 238.143 565.747 270.078 564.821 274.055C568.289 271.277 571.861 267.915 575.401 263.855C572.057 262.673 556.635 230.545 559.72 228.997C562.942 227.868 576.954 258.198 576.574 262.482C578.918 259.684 581.24 256.573 583.5 253.11C580.34 253.009 564.237 219.326 567.45 218.025C570.665 216.827 584.977 247.825 584.33 251.814C586.242 248.796 588.141 245.45 589.912 241.934C586.396 239.643 571.813 209.272 574.762 207.547C577.852 206.55 590.637 233.898 591.291 239.246C593.205 235.54 595.064 232.067 596.865 228.812C593.746 227.19 583.465 192.961 586.759 191.924C588.169 191.512 591.753 199.522 594.763 209.814Z" fill="#8A9EDD"/>
<path d="M120.623 272.302C121 279.532 121.872 285.805 122.85 289.097C119.694 286.321 116.711 283.794 113.899 281.495C115.724 278.2 109.479 243.826 106.068 244.292C103.02 245.259 108.572 274.339 111.139 279.267C107.953 276.728 105.003 274.494 102.29 272.533C104.445 270.258 90.4364 235.41 87.321 236.933C85.9604 237.488 88.1432 245.987 92.1973 255.915C94.7805 262.241 97.4986 267.616 99.4841 270.543C95.8769 268.032 92.7393 266.038 90.0638 264.462C91.8492 261.91 71.3263 230.215 68.5822 232.337C66.156 234.322 81.9921 258.54 86.2892 262.339C78.713 258.566 76.6251 256.623 64.2063 252.956C40.0541 245.749 38.5036 250.962 62.6957 258.061C74.6828 262.073 77.5769 259.606 86.4507 264.925C81.3363 264.318 51.2338 271.416 51.6058 274.685C52.4878 278.023 87.2284 269.41 88.9655 266.366C91.7626 268.017 95.0802 270.13 98.9266 272.827C94.2947 272.364 63.7349 283.139 64.508 286.421C65.7698 289.635 99.2296 277.314 100.708 274.093C103.515 276.108 106.578 278.415 109.902 281.06C104.858 280.928 75.4016 291.368 76.1336 294.597C77.5761 297.707 109.45 285.959 111.911 282.675C114.872 285.076 118.024 287.729 121.374 290.669C116.318 290.547 86.8955 300.977 87.6273 304.204C89.0939 307.293 120.655 295.664 123.298 292.371C126.067 294.836 128.964 297.49 131.987 300.345C127.194 300.009 97.0494 310.656 97.8027 313.922C99.2212 317.047 131.348 305.206 133.657 301.93C136.482 304.665 139.442 307.331 142.405 309.705C137.824 309.877 109.069 325.247 110.343 328.378C112.194 331.276 142.432 314.55 144.043 311C147.359 313.57 150.732 315.88 154.152 317.919C150.414 317.488 121.028 336.411 122.764 339.384C124.49 342.389 155.69 321.711 155.287 318.587C159.657 321.11 164.134 323.221 168.817 324.904C164.489 326.159 140.528 348.592 142.584 351.286C145.067 353.678 170.453 329.217 170.724 325.56C175.613 327.177 180.548 328.262 185.475 328.802C181.373 330.98 161.956 356.955 164.425 359.252C167.291 361.169 187.983 332.664 187.624 329.005C200.608 330.011 208.867 326.882 209.222 326.745L208.446 324.743C208.364 324.775 200.414 327.768 188.139 326.889C190.019 322.845 188.535 289.929 185.146 289.748C181.827 290.342 183.714 322.518 185.921 326.691C181.804 326.252 176.984 325.33 171.653 323.579C174.229 321.129 175.317 285.536 171.869 285.365C168.447 285.584 167.916 319.604 170.103 323.051C165.912 321.574 161.431 319.581 156.748 316.917C159.514 314.697 163.459 279.28 160.035 278.836C156.622 278.835 153.413 312.09 155.187 316.008C152.051 314.141 148.832 311.971 145.554 309.449C148.503 308.311 152.578 271.2 149.116 271.033C145.686 270.964 142.415 304.948 144.343 308.499C141.542 306.282 138.644 303.751 135.811 301.018C138.374 297.694 142.107 264.212 138.753 263.557C135.508 263.636 132.473 293.671 133.622 298.935C130.591 296.07 127.689 293.405 124.914 290.928C127.322 288.366 125.721 252.663 122.27 252.772C120.803 252.849 120.065 261.592 120.623 272.302Z" fill="#FCB4B4"/>
<path d="M136.839 209.607C135.702 207.436 155.093 194.209 158.44 193.661C155.623 192.336 152.433 190.495 149.095 187.954C148.1 190.387 124.844 201.243 123.724 199.007C122.963 196.664 144.695 186.9 147.959 187.066C145.392 185.007 142.753 182.526 140.14 179.539C139.753 181.777 113.377 188.655 112.923 186.181C112.436 183.73 137.099 177.641 139.536 178.836C137.73 176.714 135.939 174.35 134.198 171.706C132.28 173.761 107.557 178.136 106.988 175.709C106.872 173.258 130.173 169.479 133.38 170.433C131.949 168.184 130.509 165.606 129.204 163.042C126.87 164.747 102 165.321 101.782 162.842C102.056 160.424 125.195 160.207 128.43 161.562C127.027 158.893 125.663 156.39 124.342 154.048C121.778 155.687 97.3428 156.247 97.084 153.783C97.364 151.396 119.957 151.157 123.422 152.427C121.815 149.623 120.276 147.062 118.809 144.718C116.371 146.394 91.6943 146.962 91.4561 144.489C91.7361 142.101 114.354 141.863 117.81 143.137C116.151 140.542 114.592 138.238 113.14 136.196C111.384 138.059 85.4967 138.648 85.4011 136.146C85.6653 133.712 109.121 133.504 112.215 134.909C110.21 132.154 108.43 129.924 106.899 128.134C105.006 129.816 79.1136 127.558 79.3072 125.06C79.8435 122.732 102.12 124.935 105.512 126.554C100.683 120.826 98.0988 121.826 90.8251 116.261C75.8983 105.707 78.1793 102.488 93.0623 113.113C100.731 118.557 101.685 120.363 106.009 124.742C103.957 121.147 98.7768 100.765 100.913 99.9931C103.295 99.1867 109.924 125.752 108.1 127.086C109.565 128.796 111.249 130.902 113.133 133.473C111.699 129.859 110.376 107.963 112.69 107.551C115.186 107.244 116.604 134.439 114.591 135.498C115.992 137.481 117.49 139.707 119.08 142.198C118.472 138.236 121.508 116.933 123.824 117.007C126.271 117.507 122.479 142.524 120.45 144.376C121.839 146.614 123.291 149.049 124.804 151.695C124.477 148.032 130.578 126.264 132.947 126.635C135.336 127.387 128.05 152.229 125.791 153.438C127.112 155.79 128.477 158.3 129.883 160.979C130.321 157.118 139.487 137.181 141.723 137.91C143.861 139.166 133.445 161.222 130.896 162.922C132.197 165.464 133.59 167.881 134.991 170.061C134.493 167.19 144.746 144.603 147.076 145.475C149.408 146.409 137.893 170.904 135.599 170.998C137.255 173.499 138.954 175.744 140.667 177.763C140.36 174.678 150.401 152.573 152.734 153.396C154.972 154.518 143.951 177.865 141.524 178.753C144.111 181.681 146.718 184.103 149.246 186.101C148.548 183.242 156.927 159.984 159.319 160.657C161.639 161.599 152.534 185.737 150.185 186.828C153.431 189.282 156.522 191.048 159.244 192.317C158.703 188.959 164.988 166.39 167.398 166.785C169.675 167.727 162.966 190.617 160.719 192.974C168.928 196.459 175.083 196.277 175.158 196.275L175.22 197.83C174.944 197.841 168.541 198.047 159.868 194.305C159.269 196.889 138.342 211.605 136.839 209.607Z" fill="#8A9EDD"/>
<path d="M381.742 385.423H319.627V443.43H381.742V385.423Z" fill="#255084"/>
<path d="M381.742 349.439H319.627V419.075H381.742V349.439Z" fill="#1D3F70"/>
<path d="M146.837 391.476V154.902C146.837 145.19 154.711 137.317 164.424 137.317H536.946C546.659 137.317 554.533 145.19 554.533 154.902V391.476C554.533 401.187 546.659 409.06 536.946 409.06H164.424C154.711 409.06 146.837 401.188 146.837 391.476Z" fill="#255084"/>
<path d="M538.569 153.279H162.801V374.125H538.569V153.279Z" fill="white"/>
<path d="M357.274 398.415C360.916 394.774 360.916 388.87 357.274 385.228C353.632 381.587 347.728 381.587 344.086 385.228C340.444 388.87 340.444 394.774 344.086 398.415C347.728 402.057 353.632 402.057 357.274 398.415Z" fill="#1D3F70"/>
<path d="M411.31 458.51H290.06C285.896 458.51 282.52 455.134 282.52 450.97C282.52 446.806 285.896 443.431 290.06 443.431H411.31C415.474 443.431 418.85 446.806 418.85 450.97C418.85 455.134 415.474 458.51 411.31 458.51Z" fill="#1D3F70"/>
<path d="M474.941 165.95H405.314V207.578H474.941V165.95Z" fill="#B0C7F5"/>
<path d="M474.941 319.57H405.314V361.198H474.941V319.57Z" fill="#B0C7F5"/>
<path d="M474.941 268.363H405.314V309.991H474.941V268.363Z" fill="#B0C7F5"/>
<path d="M474.941 217.156H405.314V258.785H474.941V217.156Z" fill="#B0C7F5"/>
<path d="M448.67 195.311C453.391 190.591 453.391 182.939 448.67 178.22C443.95 173.5 436.297 173.5 431.577 178.22C426.856 182.939 426.856 190.591 431.577 195.311C436.297 200.031 443.95 200.031 448.67 195.311Z" fill="white"/>
<path d="M440.128 200.052C432.799 200.052 426.837 194.091 426.837 186.764C426.837 179.437 432.799 173.475 440.128 173.475C447.456 173.475 453.418 179.436 453.418 186.764C453.418 194.091 447.456 200.052 440.128 200.052ZM440.128 175.881C434.126 175.881 429.243 180.763 429.243 186.764C429.243 192.764 434.126 197.646 440.128 197.646C446.129 197.646 451.012 192.764 451.012 186.764C451.012 180.763 446.129 175.881 440.128 175.881Z" fill="#677CC1"/>
<path d="M447.245 186.764L435.901 180.215V193.313L447.245 186.764Z" fill="#677CC1"/>
<path d="M451.9 241.335C453.434 234.839 449.411 228.33 442.914 226.796C436.418 225.262 429.907 229.285 428.373 235.781C426.839 242.276 430.862 248.786 437.359 250.319C443.856 251.853 450.366 247.831 451.9 241.335Z" fill="white"/>
<path d="M440.128 251.813C432.799 251.813 426.837 245.852 426.837 238.525C426.837 231.198 432.799 225.237 440.128 225.237C447.456 225.237 453.418 231.198 453.418 238.525C453.418 245.852 447.456 251.813 440.128 251.813ZM440.128 227.643C434.126 227.643 429.243 232.524 429.243 238.525C429.243 244.526 434.126 249.408 440.128 249.408C446.129 249.408 451.012 244.526 451.012 238.525C451.012 232.524 446.129 227.643 440.128 227.643Z" fill="#677CC1"/>
<path d="M447.245 238.525L435.901 231.976V245.074L447.245 238.525Z" fill="#677CC1"/>
<path d="M451.898 291.99C453.432 285.494 449.409 278.985 442.912 277.451C436.415 275.917 429.905 279.939 428.371 286.435C426.837 292.931 430.86 299.44 437.357 300.974C443.853 302.508 450.364 298.485 451.898 291.99Z" fill="white"/>
<path d="M440.128 302.466C432.799 302.466 426.837 296.505 426.837 289.177C426.837 281.85 432.799 275.889 440.128 275.889C447.456 275.889 453.418 281.85 453.418 289.177C453.418 296.505 447.456 302.466 440.128 302.466ZM440.128 278.295C434.126 278.295 429.243 283.177 429.243 289.177C429.243 295.178 434.126 300.06 440.128 300.06C446.129 300.06 451.012 295.178 451.012 289.177C451.012 283.177 446.129 278.295 440.128 278.295Z" fill="#677CC1"/>
<path d="M447.245 289.177L435.901 282.628V295.726L447.245 289.177Z" fill="#677CC1"/>
<path d="M440.128 352.47C446.803 352.47 452.215 347.059 452.215 340.384C452.215 333.709 446.803 328.299 440.128 328.299C433.452 328.299 428.041 333.709 428.041 340.384C428.041 347.059 433.452 352.47 440.128 352.47Z" fill="white"/>
<path d="M440.128 353.673C432.799 353.673 426.837 347.711 426.837 340.384C426.837 333.057 432.799 327.096 440.128 327.096C447.456 327.096 453.418 333.057 453.418 340.384C453.418 347.711 447.456 353.673 440.128 353.673ZM440.128 329.502C434.126 329.502 429.243 334.384 429.243 340.384C429.243 346.385 434.126 351.267 440.128 351.267C446.129 351.267 451.012 346.385 451.012 340.384C451.012 334.384 446.129 329.502 440.128 329.502Z" fill="#677CC1"/>
<path d="M447.245 340.384L435.901 333.835V346.933L447.245 340.384Z" fill="#677CC1"/>
<path d="M499.83 174.805H482.532C481.833 174.805 481.267 174.238 481.267 173.54C481.267 172.841 481.833 172.275 482.532 172.275H499.83C500.529 172.275 501.095 172.841 501.095 173.54C501.096 174.238 500.529 174.805 499.83 174.805Z" fill="#BFD2F9"/>
<path d="M509.068 194.641H497.117C496.418 194.641 495.852 194.074 495.852 193.376C495.852 192.677 496.418 192.111 497.117 192.111H509.068C509.767 192.111 510.334 192.677 510.334 193.376C510.334 194.074 509.767 194.641 509.068 194.641Z" fill="#BFD2F9"/>
<path d="M492.078 194.641H482.532C481.833 194.641 481.267 194.074 481.267 193.376C481.267 192.677 481.833 192.111 482.532 192.111H492.078C492.777 192.111 493.343 192.677 493.343 193.376C493.343 194.074 492.777 194.641 492.078 194.641Z" fill="#BFD2F9"/>
<path d="M510.813 188.029H482.532C481.833 188.029 481.267 187.462 481.267 186.764C481.267 186.065 481.833 185.499 482.532 185.499H510.813C511.512 185.499 512.078 186.065 512.078 186.764C512.078 187.462 511.512 188.029 510.813 188.029Z" fill="#BFD2F9"/>
<path d="M530.978 174.805H505.516C504.817 174.805 504.25 174.238 504.25 173.54C504.25 172.841 504.817 172.275 505.516 172.275H530.978C531.677 172.275 532.243 172.841 532.243 173.54C532.243 174.238 531.677 174.805 530.978 174.805Z" fill="#BFD2F9"/>
<path d="M530.978 201.253H482.532C481.833 201.253 481.267 200.686 481.267 199.988C481.267 199.289 481.833 198.723 482.532 198.723H530.978C531.677 198.723 532.243 199.289 532.243 199.988C532.243 200.686 531.677 201.253 530.978 201.253Z" fill="#BFD2F9"/>
<path d="M530.978 194.641H515.368C514.669 194.641 514.103 194.074 514.103 193.376C514.103 192.677 514.669 192.111 515.368 192.111H530.978C531.676 192.111 532.243 192.677 532.243 193.376C532.243 194.074 531.677 194.641 530.978 194.641Z" fill="#BFD2F9"/>
<path d="M530.978 188.029H516.757C516.058 188.029 515.492 187.462 515.492 186.764C515.492 186.065 516.058 185.499 516.757 185.499H530.978C531.676 185.499 532.243 186.065 532.243 186.764C532.243 187.462 531.677 188.029 530.978 188.029Z" fill="#BFD2F9"/>
<path d="M530.978 181.417H482.532C481.833 181.417 481.267 180.85 481.267 180.152C481.267 179.453 481.833 178.887 482.532 178.887H530.978C531.677 178.887 532.243 179.453 532.243 180.152C532.243 180.85 531.677 181.417 530.978 181.417Z" fill="#BFD2F9"/>
<path d="M530.978 252.46H513.679C512.98 252.46 512.414 251.893 512.414 251.195C512.414 250.496 512.98 249.93 513.679 249.93H530.978C531.676 249.93 532.243 250.496 532.243 251.195C532.243 251.893 531.677 252.46 530.978 252.46Z" fill="#BFD2F9"/>
<path d="M516.393 232.624H504.441C503.742 232.624 503.176 232.057 503.176 231.359C503.176 230.66 503.742 230.094 504.441 230.094H516.393C517.092 230.094 517.658 230.66 517.658 231.359C517.658 232.057 517.092 232.624 516.393 232.624Z" fill="#BFD2F9"/>
<path d="M530.978 232.624H521.432C520.733 232.624 520.167 232.057 520.167 231.359C520.167 230.66 520.733 230.094 521.432 230.094H530.978C531.677 230.094 532.243 230.66 532.243 231.359C532.243 232.057 531.677 232.624 530.978 232.624Z" fill="#BFD2F9"/>
<path d="M530.978 239.235H502.697C501.998 239.235 501.432 238.669 501.432 237.97C501.432 237.272 501.998 236.706 502.697 236.706H530.978C531.677 236.706 532.243 237.272 532.243 237.97C532.243 238.669 531.677 239.235 530.978 239.235Z" fill="#BFD2F9"/>
<path d="M507.994 252.46H482.532C481.833 252.46 481.267 251.893 481.267 251.195C481.267 250.496 481.833 249.93 482.532 249.93H507.994C508.693 249.93 509.259 250.496 509.259 251.195C509.259 251.893 508.693 252.46 507.994 252.46Z" fill="#BFD2F9"/>
<path d="M530.978 226.012H482.532C481.833 226.012 481.267 225.445 481.267 224.747C481.267 224.048 481.833 223.482 482.532 223.482H530.978C531.677 223.482 532.243 224.048 532.243 224.747C532.243 225.445 531.677 226.012 530.978 226.012Z" fill="#BFD2F9"/>
<path d="M498.141 232.624H482.532C481.833 232.624 481.267 232.057 481.267 231.359C481.267 230.66 481.833 230.094 482.532 230.094H498.141C498.84 230.094 499.406 230.66 499.406 231.359C499.406 232.057 498.84 232.624 498.141 232.624Z" fill="#BFD2F9"/>
<path d="M496.753 239.235H482.532C481.833 239.235 481.267 238.669 481.267 237.97C481.267 237.272 481.833 236.706 482.532 236.706H496.753C497.452 236.706 498.018 237.272 498.018 237.97C498.018 238.669 497.452 239.235 496.753 239.235Z" fill="#BFD2F9"/>
<path d="M530.978 245.847H482.532C481.833 245.847 481.267 245.281 481.267 244.583C481.267 243.884 481.833 243.318 482.532 243.318H530.978C531.677 243.318 532.243 243.884 532.243 244.583C532.243 245.281 531.677 245.847 530.978 245.847Z" fill="#BFD2F9"/>
<path d="M530.978 277.218H513.679C512.98 277.218 512.414 276.652 512.414 275.953C512.414 275.255 512.98 274.688 513.679 274.688H530.978C531.676 274.688 532.243 275.255 532.243 275.953C532.243 276.652 531.677 277.218 530.978 277.218Z" fill="#BFD2F9"/>
<path d="M516.393 297.054H504.441C503.742 297.054 503.176 296.488 503.176 295.789C503.176 295.091 503.742 294.524 504.441 294.524H516.393C517.092 294.524 517.658 295.091 517.658 295.789C517.658 296.488 517.092 297.054 516.393 297.054Z" fill="#BFD2F9"/>
<path d="M530.978 297.054H521.432C520.733 297.054 520.167 296.488 520.167 295.789C520.167 295.091 520.733 294.524 521.432 294.524H530.978C531.677 294.524 532.243 295.091 532.243 295.789C532.243 296.488 531.677 297.054 530.978 297.054Z" fill="#BFD2F9"/>
<path d="M530.978 290.442H502.697C501.998 290.442 501.432 289.876 501.432 289.177C501.432 288.479 501.998 287.912 502.697 287.912H530.978C531.677 287.912 532.243 288.479 532.243 289.177C532.243 289.876 531.677 290.442 530.978 290.442Z" fill="#BFD2F9"/>
<path d="M507.994 277.218H482.532C481.833 277.218 481.267 276.652 481.267 275.953C481.267 275.255 481.833 274.688 482.532 274.688H507.994C508.693 274.688 509.259 275.255 509.259 275.953C509.259 276.652 508.693 277.218 507.994 277.218Z" fill="#BFD2F9"/>
<path d="M530.978 303.666H482.532C481.833 303.666 481.267 303.1 481.267 302.401C481.267 301.703 481.833 301.136 482.532 301.136H530.978C531.677 301.136 532.243 301.703 532.243 302.401C532.243 303.1 531.677 303.666 530.978 303.666Z" fill="#BFD2F9"/>
<path d="M498.141 297.054H482.532C481.833 297.054 481.267 296.488 481.267 295.789C481.267 295.091 481.833 294.524 482.532 294.524H498.141C498.84 294.524 499.406 295.091 499.406 295.789C499.406 296.488 498.84 297.054 498.141 297.054Z" fill="#BFD2F9"/>
<path d="M496.753 290.442H482.532C481.833 290.442 481.267 289.876 481.267 289.177C481.267 288.479 481.833 287.912 482.532 287.912H496.753C497.452 287.912 498.018 288.479 498.018 289.177C498.018 289.876 497.452 290.442 496.753 290.442Z" fill="#BFD2F9"/>
<path d="M530.978 283.83H482.532C481.833 283.83 481.267 283.264 481.267 282.565C481.267 281.867 481.833 281.3 482.532 281.3H530.978C531.677 281.3 532.243 281.867 532.243 282.565C532.243 283.264 531.677 283.83 530.978 283.83Z" fill="#BFD2F9"/>
<path d="M499.83 354.873H482.532C481.833 354.873 481.267 354.307 481.267 353.608C481.267 352.91 481.833 352.343 482.532 352.343H499.83C500.529 352.343 501.095 352.91 501.095 353.608C501.096 354.307 500.529 354.873 499.83 354.873Z" fill="#BFD2F9"/>
<path d="M509.068 335.037H497.117C496.418 335.037 495.852 334.471 495.852 333.772C495.852 333.073 496.418 332.507 497.117 332.507H509.068C509.767 332.507 510.334 333.073 510.334 333.772C510.334 334.471 509.767 335.037 509.068 335.037Z" fill="#BFD2F9"/>
<path d="M492.078 335.037H482.532C481.833 335.037 481.267 334.471 481.267 333.772C481.267 333.073 481.833 332.507 482.532 332.507H492.078C492.777 332.507 493.343 333.073 493.343 333.772C493.343 334.471 492.777 335.037 492.078 335.037Z" fill="#BFD2F9"/>
<path d="M510.813 341.649H482.532C481.833 341.649 481.267 341.083 481.267 340.384C481.267 339.686 481.833 339.119 482.532 339.119H510.813C511.512 339.119 512.078 339.686 512.078 340.384C512.078 341.083 511.512 341.649 510.813 341.649Z" fill="#BFD2F9"/>
<path d="M530.978 354.873H505.516C504.817 354.873 504.25 354.307 504.25 353.608C504.25 352.91 504.817 352.343 505.516 352.343H530.978C531.677 352.343 532.243 352.91 532.243 353.608C532.243 354.307 531.677 354.873 530.978 354.873Z" fill="#BFD2F9"/>
<path d="M530.978 328.425H482.532C481.833 328.425 481.267 327.859 481.267 327.16C481.267 326.462 481.833 325.895 482.532 325.895H530.978C531.677 325.895 532.243 326.462 532.243 327.16C532.243 327.859 531.677 328.425 530.978 328.425Z" fill="#BFD2F9"/>
<path d="M530.978 335.037H515.368C514.669 335.037 514.103 334.471 514.103 333.772C514.103 333.073 514.669 332.507 515.368 332.507H530.978C531.676 332.507 532.243 333.073 532.243 333.772C532.243 334.471 531.677 335.037 530.978 335.037Z" fill="#BFD2F9"/>
<path d="M530.978 341.649H516.757C516.058 341.649 515.492 341.083 515.492 340.384C515.492 339.686 516.058 339.119 516.757 339.119H530.978C531.676 339.119 532.243 339.686 532.243 340.384C532.243 341.083 531.677 341.649 530.978 341.649Z" fill="#BFD2F9"/>
<path d="M530.978 348.261H482.532C481.833 348.261 481.267 347.695 481.267 346.996C481.267 346.297 481.833 345.731 482.532 345.731H530.978C531.677 345.731 532.243 346.298 532.243 346.996C532.243 347.695 531.677 348.261 530.978 348.261Z" fill="#BFD2F9"/>
<path d="M199.122 364.551C206.414 360.158 208.763 350.687 204.37 343.397C199.977 336.106 190.505 333.757 183.214 338.15C175.922 342.542 173.573 352.013 177.966 359.303C182.359 366.594 191.831 368.943 199.122 364.551Z" fill="#FCB4B4"/>
<path d="M385.059 359.18H352.844C347.941 359.18 343.966 355.205 343.966 350.303C343.966 345.4 347.941 341.426 352.844 341.426H385.059C389.962 341.426 393.937 345.4 393.937 350.303C393.937 355.205 389.962 359.18 385.059 359.18Z" fill="#FCB4B4"/>
<path d="M329.241 342.259H289.584C288.886 342.259 288.319 341.692 288.319 340.994C288.319 340.295 288.886 339.729 289.584 339.729H329.241C329.94 339.729 330.506 340.295 330.506 340.994C330.506 341.692 329.94 342.259 329.241 342.259Z" fill="#BFD2F9"/>
<path d="M281.058 342.259H221.729C221.03 342.259 220.464 341.692 220.464 340.994C220.464 340.295 221.03 339.729 221.729 339.729H281.058C281.757 339.729 282.323 340.295 282.323 340.994C282.323 341.692 281.757 342.259 281.058 342.259Z" fill="#BFD2F9"/>
<path d="M329.241 362.96H270.684C269.985 362.96 269.419 362.393 269.419 361.695C269.419 360.996 269.985 360.43 270.684 360.43H329.241C329.939 360.43 330.506 360.996 330.506 361.695C330.506 362.393 329.939 362.96 329.241 362.96Z" fill="#BFD2F9"/>
<path d="M259.432 362.96H221.729C221.03 362.96 220.464 362.393 220.464 361.695C220.464 360.996 221.03 360.43 221.729 360.43H259.432C260.13 360.43 260.697 360.996 260.697 361.695C260.697 362.393 260.13 362.96 259.432 362.96Z" fill="#BFD2F9"/>
<path d="M319.627 352.609H221.729C221.03 352.609 220.464 352.043 220.464 351.345C220.464 350.646 221.03 350.08 221.729 350.08H319.627C320.326 350.08 320.892 350.646 320.892 351.345C320.892 352.043 320.326 352.609 319.627 352.609Z" fill="#BFD2F9"/>
<path d="M353.339 345.831C355.047 344.165 357.333 344.924 358.66 346.644C360.058 344.914 362.225 344.19 363.985 345.873C365.65 347.578 364.893 349.866 363.173 351.192L358.624 355.704L354.111 351.157C352.377 349.743 351.655 347.609 353.339 345.831Z" fill="white"/>
<path d="M393.937 165.95H175.73V323.18H393.937V165.95Z" fill="#B0C7F5"/>
<path d="M393.937 309.987H175.73V328.329H393.937V309.987Z" fill="#255084"/>
<path d="M381.286 320.423H321.65C320.951 320.423 320.385 319.857 320.385 319.158C320.385 318.46 320.951 317.894 321.65 317.894H381.286C381.984 317.894 382.551 318.46 382.551 319.158C382.551 319.857 381.985 320.423 381.286 320.423Z" fill="#BFD2F9"/>
<path d="M321.65 320.423H195.974C195.275 320.423 194.708 319.857 194.708 319.158C194.708 318.46 195.275 317.894 195.974 317.894H321.65C322.349 317.894 322.915 318.46 322.915 319.158C322.915 319.857 322.349 320.423 321.65 320.423Z" fill="#EB5648"/>
<path d="M321.65 323.208C323.887 323.208 325.701 321.395 325.701 319.158C325.701 316.921 323.887 315.108 321.65 315.108C319.413 315.108 317.599 316.921 317.599 319.158C317.599 321.395 319.413 323.208 321.65 323.208Z" fill="#677CC1"/>
<path d="M183.322 324.534C182.623 324.534 182.057 323.968 182.057 323.27V315.047C182.057 314.348 182.623 313.782 183.322 313.782C184.02 313.782 184.587 314.349 184.587 315.047V323.27C184.587 323.968 184.02 324.534 183.322 324.534Z" fill="#BFD2F9"/>
<path d="M187.886 324.534C187.187 324.534 186.621 323.968 186.621 323.27V315.047C186.621 314.348 187.187 313.782 187.886 313.782C188.584 313.782 189.151 314.349 189.151 315.047V323.27C189.151 323.968 188.584 324.534 187.886 324.534Z" fill="#BFD2F9"/>
</g>
<defs>
<clipPath id="clip0_987_9329">
<rect width="706" height="543" fill="white"/>
</clipPath>
</defs>
</svg>
