<svg width="45" height="45" viewBox="0 0 45 45" fill="none" xmlns="http://www.w3.org/2000/svg">
<rect width="45" height="45" rx="10" fill="url(#paint0_linear_146_7)"/>
<path d="M34.6823 20.7308L32.7415 23.218C36.7483 25.0835 36.1223 29.5605 33.8058 31.5503C32.5537 32.6074 30.4877 33.1049 28.7973 32.2343C27.3574 31.5503 25.9175 29.9958 24.3523 27.6951C23.9141 27.0733 23.1628 25.8918 22.7872 25.27C22.4115 24.6482 22.7872 23.7777 23.6636 24.0264C31.6772 26.0162 37.5622 16.7512 31.6772 10.3465C28.2965 6.74002 22.975 7.73492 20.2203 10.3465C17.4656 12.9581 17.2152 15.3832 17.9039 18.6166L21.2846 19.3628C19.9699 12.7716 24.0393 10.6574 27.2948 11.528C29.8616 12.212 32.4911 16.1916 29.3608 19.6115C24.4149 25.0213 14.8362 15.6941 8.45037 22.0988C1.37588 29.1874 11.0172 40.7531 19.6569 33.9132C20.3455 33.3536 20.7212 32.8561 21.4098 31.6747L19.4064 28.8144C18.0291 31.426 16.1509 32.6696 14.2101 32.6696C10.8294 32.6696 8.51298 29.1253 9.70249 26.0162C11.1424 22.2853 16.5892 21.9744 18.6552 24.9591C21.7229 29.4362 23.9141 32.9183 26.2931 34.535C29.9869 37.0223 34.4319 35.7165 36.5605 33.5401C39.7534 30.3689 40.4421 24.1508 34.7449 20.6064L34.6823 20.7308Z" fill="white"/>
<defs>
<linearGradient id="paint0_linear_146_7" x1="3" y1="2" x2="59.5" y2="64" gradientUnits="userSpaceOnUse">
<stop stop-color="#600DEF"/>
<stop offset="1" stop-color="#9585FF"/>
</linearGradient>
</defs>
</svg>
