<svg width="118" height="32" viewBox="0 0 118 32" fill="none" xmlns="http://www.w3.org/2000/svg">
<path d="M22.6471 4H11.3529C7.84431 4 5 6.84431 5 10.3529V21.6471C5 25.1557 7.84431 28 11.3529 28H22.6471C26.1557 28 29 25.1557 29 21.6471V10.3529C29 6.84431 26.1557 4 22.6471 4Z" fill="#7C3AED"/>
<path fill-rule="evenodd" clip-rule="evenodd" d="M15.6718 12.1566C15.5758 12.3979 15.3025 12.5124 15.0511 12.4473C14.4123 12.2819 13.7382 12.2887 13.0982 12.4713C12.3068 12.6971 11.6123 13.1789 11.1232 13.8417C10.634 14.5044 10.3777 15.3108 10.3943 16.1348C10.4109 16.9588 10.6994 17.7541 11.2149 18.3966C11.7303 19.0391 12.4436 19.4925 13.2435 19.6861C14.0434 19.8798 14.8847 19.8027 15.6363 19.4669C16.3878 19.1312 17.0071 18.5556 17.3976 17.8302C17.7137 17.243 17.8655 16.5843 17.8414 15.9233C17.8319 15.6643 18.0021 15.4228 18.2578 15.3809C18.5137 15.3389 18.7576 15.5125 18.7736 15.7714C18.8271 16.6382 18.6383 17.5063 18.2238 18.2763C17.7349 19.1845 16.9595 19.9051 16.0186 20.3255C15.0778 20.7458 14.0244 20.8423 13.023 20.5999C12.0216 20.3575 11.1285 19.7898 10.4832 18.9855C9.83787 18.1811 9.47663 17.1854 9.45586 16.1537C9.43508 15.1221 9.75596 14.1126 10.3684 13.2829C10.9808 12.4531 11.8503 11.8498 12.8411 11.5671C13.6809 11.3276 14.5678 11.3298 15.4014 11.5686C15.6507 11.64 15.7677 11.9156 15.6718 12.1566Z" fill="white"/>
<path fill-rule="evenodd" clip-rule="evenodd" d="M15.6718 12.1566C15.5758 12.3979 15.3025 12.5124 15.0511 12.4473C14.4123 12.2819 13.7382 12.2887 13.0982 12.4713C12.3068 12.6971 11.6123 13.1789 11.1232 13.8417C10.634 14.5044 10.3777 15.3108 10.3943 16.1348C10.4109 16.9588 10.6994 17.7541 11.2149 18.3966C11.7303 19.0391 12.4436 19.4925 13.2435 19.6861C14.0434 19.8798 14.8847 19.8027 15.6363 19.4669C16.3878 19.1312 17.0071 18.5556 17.3976 17.8302C17.7137 17.243 17.8655 16.5843 17.8414 15.9233C17.8319 15.6643 18.0021 15.4228 18.2578 15.3809C18.5137 15.3389 18.7576 15.5125 18.7736 15.7714C18.8271 16.6382 18.6383 17.5063 18.2238 18.2763C17.7349 19.1845 16.9595 19.9051 16.0186 20.3255C15.0778 20.7458 14.0244 20.8423 13.023 20.5999C12.0216 20.3575 11.1285 19.7898 10.4832 18.9855C9.83787 18.1811 9.47663 17.1854 9.45586 16.1537C9.43508 15.1221 9.75596 14.1126 10.3684 13.2829C10.9808 12.4531 11.8503 11.8498 12.8411 11.5671C13.6809 11.3276 14.5678 11.3298 15.4014 11.5686C15.6507 11.64 15.7677 11.9156 15.6718 12.1566Z" fill="white"/>
<path fill-rule="evenodd" clip-rule="evenodd" d="M15.7687 16.7437C16.0224 16.6912 16.1825 16.4428 16.1623 16.1845C16.1109 15.525 16.2353 14.8606 16.5268 14.2608C16.887 13.5198 17.482 12.9191 18.219 12.5524C18.956 12.1858 19.7934 12.0738 20.6006 12.2341C21.4078 12.3944 22.1393 12.8179 22.6808 13.4384C23.2224 14.0589 23.5436 14.8416 23.5943 15.6642C23.6449 16.4868 23.4222 17.3031 22.9608 17.9856C22.4995 18.6681 21.8255 19.1784 21.0441 19.4368C20.4123 19.6457 19.739 19.6805 19.0939 19.5417C18.84 19.4871 18.5718 19.6128 18.4858 19.8579C18.3999 20.1027 18.5283 20.3732 18.7804 20.4342C19.6231 20.6383 20.5093 20.6036 21.3384 20.3295C22.3167 20.0059 23.1605 19.3671 23.7381 18.5126C24.3157 17.6582 24.5945 16.6363 24.5311 15.6064C24.4677 14.5765 24.0656 13.5966 23.3875 12.8197C22.7095 12.0428 21.7937 11.5127 20.7832 11.312C19.7726 11.1113 18.7241 11.2514 17.8014 11.7105C16.8788 12.1695 16.1338 12.9216 15.6829 13.8494C15.3006 14.6358 15.1479 15.511 15.2372 16.3749C15.2638 16.6328 15.5148 16.7962 15.7687 16.7437Z" fill="white"/>
<path fill-rule="evenodd" clip-rule="evenodd" d="M15.7687 16.7437C16.0224 16.6912 16.1825 16.4428 16.1623 16.1845C16.1109 15.525 16.2353 14.8606 16.5268 14.2608C16.887 13.5198 17.482 12.9191 18.219 12.5524C18.956 12.1858 19.7934 12.0738 20.6006 12.2341C21.4078 12.3944 22.1393 12.8179 22.6808 13.4384C23.2224 14.0589 23.5436 14.8416 23.5943 15.6642C23.6449 16.4868 23.4222 17.3031 22.9608 17.9856C22.4995 18.6681 21.8255 19.1784 21.0441 19.4368C20.4123 19.6457 19.739 19.6805 19.0939 19.5417C18.84 19.4871 18.5718 19.6128 18.4858 19.8579C18.3999 20.1027 18.5283 20.3732 18.7804 20.4342C19.6231 20.6383 20.5093 20.6036 21.3384 20.3295C22.3167 20.0059 23.1605 19.3671 23.7381 18.5126C24.3157 17.6582 24.5945 16.6363 24.5311 15.6064C24.4677 14.5765 24.0656 13.5966 23.3875 12.8197C22.7095 12.0428 21.7937 11.5127 20.7832 11.312C19.7726 11.1113 18.7241 11.2514 17.8014 11.7105C16.8788 12.1695 16.1338 12.9216 15.6829 13.8494C15.3006 14.6358 15.1479 15.511 15.2372 16.3749C15.2638 16.6328 15.5148 16.7962 15.7687 16.7437Z" fill="white"/>
<path d="M38.5852 23.5V10.4091H41.5341V12.6335H41.6875C41.9602 11.8835 42.4119 11.2983 43.0426 10.8778C43.6733 10.4517 44.4261 10.2386 45.3011 10.2386C46.1875 10.2386 46.9347 10.4545 47.5426 10.8864C48.1563 11.3125 48.5881 11.8949 48.8381 12.6335H48.9744C49.2642 11.9062 49.7528 11.3267 50.4403 10.8949C51.1335 10.4574 51.9545 10.2386 52.9034 10.2386C54.108 10.2386 55.0909 10.6193 55.8523 11.3807C56.6136 12.142 56.9943 13.2528 56.9943 14.7131V23.5H53.9006V15.1903C53.9006 14.3778 53.6847 13.7841 53.2528 13.4091C52.821 13.0284 52.2926 12.8381 51.6676 12.8381C50.9233 12.8381 50.3409 13.071 49.9205 13.5369C49.5057 13.9972 49.2983 14.5966 49.2983 15.3352V23.5H46.2727V15.0625C46.2727 14.3864 46.0682 13.8466 45.6591 13.4432C45.2557 13.0398 44.7273 12.8381 44.0739 12.8381C43.6307 12.8381 43.2273 12.9517 42.8636 13.179C42.5 13.4006 42.2102 13.7159 41.9943 14.125C41.7784 14.5284 41.6705 15 41.6705 15.5398V23.5H38.5852ZM65.8345 23.7557C64.5561 23.7557 63.4482 23.4744 62.5107 22.9119C61.5732 22.3494 60.8459 21.5625 60.3288 20.5511C59.8175 19.5398 59.5618 18.358 59.5618 17.0057C59.5618 15.6534 59.8175 14.4687 60.3288 13.4517C60.8459 12.4347 61.5732 11.6449 62.5107 11.0824C63.4482 10.5199 64.5561 10.2386 65.8345 10.2386C67.1129 10.2386 68.2209 10.5199 69.1584 11.0824C70.0959 11.6449 70.8203 12.4347 71.3317 13.4517C71.8487 14.4687 72.1072 15.6534 72.1072 17.0057C72.1072 18.358 71.8487 19.5398 71.3317 20.5511C70.8203 21.5625 70.0959 22.3494 69.1584 22.9119C68.2209 23.4744 67.1129 23.7557 65.8345 23.7557ZM65.8516 21.2841C66.5447 21.2841 67.1243 21.0937 67.5902 20.7131C68.0561 20.3267 68.4027 19.8097 68.63 19.1619C68.8629 18.5142 68.9794 17.7926 68.9794 16.9972C68.9794 16.196 68.8629 15.4716 68.63 14.8239C68.4027 14.1705 68.0561 13.6506 67.5902 13.2642C67.1243 12.8778 66.5447 12.6847 65.8516 12.6847C65.1413 12.6847 64.5504 12.8778 64.0788 13.2642C63.6129 13.6506 63.2635 14.1705 63.0305 14.8239C62.8033 15.4716 62.6896 16.196 62.6896 16.9972C62.6896 17.7926 62.8033 18.5142 63.0305 19.1619C63.2635 19.8097 63.6129 20.3267 64.0788 20.7131C64.5504 21.0937 65.1413 21.2841 65.8516 21.2841ZM74.7259 23.5V10.4091H77.7173V12.5909H77.8537C78.0923 11.8352 78.5014 11.2528 79.081 10.8438C79.6662 10.429 80.3338 10.2216 81.0838 10.2216C81.2543 10.2216 81.4446 10.2301 81.6548 10.2472C81.8707 10.2585 82.0497 10.2784 82.1918 10.3068V13.1449C82.0611 13.0994 81.8537 13.0597 81.5696 13.0256C81.2912 12.9858 81.0213 12.9659 80.7599 12.9659C80.1974 12.9659 79.6918 13.0881 79.2429 13.3324C78.7997 13.571 78.4503 13.9034 78.1946 14.3295C77.9389 14.7557 77.8111 15.2472 77.8111 15.804V23.5H74.7259ZM87.7741 23.7642C86.9446 23.7642 86.1974 23.6165 85.5327 23.321C84.8736 23.0199 84.3509 22.5767 83.9645 21.9915C83.5838 21.4062 83.3935 20.6847 83.3935 19.8267C83.3935 19.0881 83.5298 18.4773 83.8026 17.9943C84.0753 17.5114 84.4474 17.125 84.919 16.8352C85.3906 16.5455 85.9219 16.3267 86.5128 16.179C87.1094 16.0256 87.7259 15.9148 88.3622 15.8466C89.1293 15.767 89.7514 15.696 90.2287 15.6335C90.706 15.5653 91.0526 15.4631 91.2685 15.3267C91.4901 15.1847 91.6009 14.9659 91.6009 14.6705V14.6193C91.6009 13.9773 91.4105 13.4801 91.0298 13.1278C90.6491 12.7756 90.1009 12.5994 89.3849 12.5994C88.6293 12.5994 88.0298 12.7642 87.5866 13.0938C87.1491 13.4233 86.8537 13.8125 86.7003 14.2614L83.8196 13.8523C84.0469 13.0568 84.4219 12.392 84.9446 11.858C85.4673 11.3182 86.1065 10.9148 86.8622 10.6477C87.6179 10.375 88.4531 10.2386 89.3679 10.2386C89.9986 10.2386 90.6264 10.3125 91.2514 10.4602C91.8764 10.608 92.4474 10.8523 92.9645 11.1932C93.4815 11.5284 93.8963 11.9858 94.2088 12.5653C94.527 13.1449 94.6861 13.8693 94.6861 14.7386V23.5H91.7202V21.7017H91.6179C91.4304 22.0653 91.1662 22.4062 90.8253 22.7244C90.4901 23.0369 90.0668 23.2898 89.5554 23.483C89.0497 23.6705 88.456 23.7642 87.7741 23.7642ZM88.5753 21.4972C89.1946 21.4972 89.7315 21.375 90.1861 21.1307C90.6406 20.8807 90.9901 20.5511 91.2344 20.142C91.4844 19.733 91.6094 19.2869 91.6094 18.804V17.2614C91.5128 17.3409 91.348 17.4148 91.1151 17.483C90.8878 17.5511 90.6321 17.6108 90.348 17.6619C90.0639 17.7131 89.7827 17.7585 89.5043 17.7983C89.2259 17.8381 88.9844 17.8722 88.7798 17.9006C88.3196 17.9631 87.9077 18.0653 87.544 18.2074C87.1804 18.3494 86.8935 18.5483 86.6832 18.804C86.473 19.054 86.3679 19.3778 86.3679 19.7756C86.3679 20.3438 86.5753 20.7727 86.9901 21.0625C87.4048 21.3523 87.9332 21.4972 88.5753 21.4972ZM101.555 23.7642C100.726 23.7642 99.9787 23.6165 99.3139 23.321C98.6548 23.0199 98.1321 22.5767 97.7457 21.9915C97.3651 21.4062 97.1747 20.6847 97.1747 19.8267C97.1747 19.0881 97.3111 18.4773 97.5838 17.9943C97.8565 17.5114 98.2287 17.125 98.7003 16.8352C99.1719 16.5455 99.7031 16.3267 100.294 16.179C100.891 16.0256 101.507 15.9148 102.143 15.8466C102.911 15.767 103.533 15.696 104.01 15.6335C104.487 15.5653 104.834 15.4631 105.05 15.3267C105.271 15.1847 105.382 14.9659 105.382 14.6705V14.6193C105.382 13.9773 105.192 13.4801 104.811 13.1278C104.43 12.7756 103.882 12.5994 103.166 12.5994C102.411 12.5994 101.811 12.7642 101.368 13.0938C100.93 13.4233 100.635 13.8125 100.482 14.2614L97.6009 13.8523C97.8281 13.0568 98.2031 12.392 98.7259 11.858C99.2486 11.3182 99.8878 10.9148 100.643 10.6477C101.399 10.375 102.234 10.2386 103.149 10.2386C103.78 10.2386 104.408 10.3125 105.033 10.4602C105.658 10.608 106.229 10.8523 106.746 11.1932C107.263 11.5284 107.678 11.9858 107.99 12.5653C108.308 13.1449 108.467 13.8693 108.467 14.7386V23.5H105.501V21.7017H105.399C105.212 22.0653 104.947 22.4062 104.607 22.7244C104.271 23.0369 103.848 23.2898 103.337 23.483C102.831 23.6705 102.237 23.7642 101.555 23.7642ZM102.357 21.4972C102.976 21.4972 103.513 21.375 103.967 21.1307C104.422 20.8807 104.771 20.5511 105.016 20.142C105.266 19.733 105.391 19.2869 105.391 18.804V17.2614C105.294 17.3409 105.129 17.4148 104.896 17.483C104.669 17.5511 104.413 17.6108 104.129 17.6619C103.845 17.7131 103.564 17.7585 103.286 17.7983C103.007 17.8381 102.766 17.8722 102.561 17.9006C102.101 17.9631 101.689 18.0653 101.325 18.2074C100.962 18.3494 100.675 18.5483 100.464 18.804C100.254 19.054 100.149 19.3778 100.149 19.7756C100.149 20.3438 100.357 20.7727 100.771 21.0625C101.186 21.3523 101.714 21.4972 102.357 21.4972Z" fill="#7C3AED"/>
</svg>
