<svg width="44" height="46" viewBox="0 0 44 46" fill="none" xmlns="http://www.w3.org/2000/svg">
<path d="M33.7367 22.3266L31.8419 24.8285C31.8419 24.8285 32.263 24.9849 32.4735 25.0891C33.9472 25.9231 34.8419 27.4346 34.8419 29.1026C34.8419 31.6566 32.684 33.7415 30.0525 33.7415C27.4209 33.7415 25.5788 31.6566 23.8419 28.9462L22.3156 26.6007C22.1577 26.3401 21.9998 26.1316 21.8419 25.9231C21.7367 25.7667 21.8419 25.6625 21.8419 25.6103C21.8419 25.6103 21.9472 25.454 22.1051 25.5061C22.5261 25.5582 22.9472 25.6625 23.1577 25.6625C24.7367 25.8188 26.0525 25.7667 27.263 25.454C29.263 24.8285 32.6314 23.1085 33.2103 18.2089C33.3682 15.9677 32.5261 13.8306 30.9472 12.267C29.4735 10.8075 27.5261 10.0257 25.4209 10.0257C23.3156 10.0257 25.4209 10.0257 25.3682 10.0257C23.263 10.0257 21.263 10.8597 19.7367 12.3712C17.2103 14.8731 17.3156 18.2089 17.5261 20.2417L20.7893 20.9714C20.3156 17.6877 20.684 15.9155 21.9998 14.6125C23.8946 12.7361 26.8946 12.7361 28.7367 14.5604C30.5788 16.3846 30.5261 19.3556 28.684 21.232C28.4735 21.4405 28.263 21.5969 28.1051 21.7533C27.5261 22.1703 26.8946 22.483 26.1577 22.6394C24.5788 22.9521 22.7893 22.6394 20.8946 22.2224L18.1051 21.649C14.7893 21.0236 11.3156 20.8672 8.4735 23.6818C7.99982 24.1509 7.57877 24.6721 7.26298 25.1934C7.26298 25.2455 7.15771 25.3497 7.10508 25.454C7.10508 25.5582 7.05245 25.6103 6.99982 25.6625C6.99982 25.7667 6.89456 25.871 6.84193 25.9752C6.57877 26.5486 6.36824 27.174 6.21035 27.8516C6.21035 27.9559 6.21035 28.0601 6.21035 28.1122V28.5813C6.15771 28.6856 6.15771 28.7377 6.15771 28.8419C6.15771 28.9983 6.15771 29.1547 6.15771 29.2589C6.15771 29.3632 6.15771 29.5195 6.15771 29.6759C6.15771 29.7802 6.15771 29.9365 6.15771 30.0408C6.15771 30.145 6.15771 30.3014 6.15771 30.4056V30.7184C6.4735 32.282 7.26298 33.6893 8.42087 34.7839C9.78929 36.1391 11.6314 36.9209 13.5261 37.0252C13.684 37.0252 13.8419 37.0252 13.9998 37.0252C15.263 37.0252 16.4735 36.7125 17.5788 36.1391H17.6314C18.1577 35.8264 18.684 35.4615 19.1577 35.0445L19.263 34.9924C19.9472 34.4191 20.3682 34.0021 21.1051 33.1681L19.4209 30.6141C19.5261 30.562 17.4735 32.7511 15.9472 33.4809C14.4209 34.2106 14.7367 33.8978 14.0525 33.8978H13.9472C12.684 33.8978 11.4735 33.4287 10.5788 32.5426C9.73666 31.7087 9.26298 30.6141 9.21035 29.4674C9.21035 29.3632 9.21035 29.3111 9.21035 29.2068C9.21035 29.1026 9.21035 29.1026 9.21035 28.9983C9.21035 28.8941 9.21035 28.7377 9.21035 28.5813C9.21035 28.2165 9.36824 27.7995 9.52614 27.4346C9.52614 27.3825 9.52614 27.3304 9.6314 27.2261C9.6314 27.2261 9.6314 27.2261 9.6314 27.1219C10.4209 25.5061 12.1051 24.5158 13.9472 24.5158C15.7893 24.5158 16.9998 24.9849 18.2103 26.3922C18.684 26.9655 19.4209 28.0601 19.9472 28.8941L21.7367 31.6044C23.6314 34.3669 25.9472 36.9731 30.0525 36.9731C34.1577 36.9731 37.9998 33.4809 37.9998 29.1547C37.9998 24.8285 36.5261 23.7339 33.7367 22.3787V22.3266Z" fill="#7F34FF"/>
</svg>
