<svg width="389" height="80" viewBox="0 0 389 80" fill="none" xmlns="http://www.w3.org/2000/svg">
<path fill-rule="evenodd" clip-rule="evenodd" d="M34.6474 28.2251C34.1124 29.5697 32.59 30.2077 31.1891 29.8449C27.6303 28.9235 23.8742 28.9614 20.3089 29.9785C15.8995 31.2363 12.0301 33.9211 9.30473 37.6137C6.57935 41.3062 5.15141 45.7986 5.24384 50.3896C5.33628 54.9806 6.94389 59.4118 9.81569 62.9912C12.6875 66.5707 16.6618 69.0971 21.1182 70.1759C25.5747 71.2547 30.2623 70.8252 34.4494 68.9545C38.6364 67.0839 42.0872 63.8773 44.2629 59.8353C46.024 56.5638 46.8695 52.8941 46.7351 49.2112C46.6824 47.7685 47.6308 46.4228 49.0554 46.1892V46.1892C50.481 45.9555 51.84 46.9228 51.929 48.3647C52.2271 53.1946 51.1752 58.0312 48.8661 62.321C46.1421 67.3813 41.8218 71.3959 36.5798 73.7379C31.3377 76.0799 25.4689 76.6176 19.8896 75.267C14.3103 73.9163 9.33459 70.7534 5.73919 66.2721C2.14379 61.7907 0.131117 56.243 0.0153896 50.4952C-0.100338 44.7475 1.68739 39.1231 5.09949 34.5001C8.51158 29.8772 13.356 26.5159 18.8764 24.9411C23.5552 23.6063 28.4964 23.6185 33.1406 24.9492C34.5297 25.3472 35.1817 26.8825 34.6474 28.2251V28.2251Z" fill="white"/>
<path fill-rule="evenodd" clip-rule="evenodd" d="M34.6474 28.2251C34.1124 29.5697 32.59 30.2077 31.1891 29.8449C27.6303 28.9235 23.8742 28.9614 20.3089 29.9785C15.8995 31.2363 12.0301 33.9211 9.30473 37.6137C6.57935 41.3062 5.15141 45.7986 5.24384 50.3896C5.33628 54.9806 6.94389 59.4118 9.81569 62.9912C12.6875 66.5707 16.6618 69.0971 21.1182 70.1759C25.5747 71.2547 30.2623 70.8252 34.4494 68.9545C38.6364 67.0839 42.0872 63.8773 44.2629 59.8353C46.024 56.5638 46.8695 52.8941 46.7351 49.2112C46.6824 47.7685 47.6308 46.4228 49.0554 46.1892V46.1892C50.481 45.9555 51.84 46.9228 51.929 48.3647C52.2271 53.1946 51.1752 58.0312 48.8661 62.321C46.1421 67.3813 41.8218 71.3959 36.5798 73.7379C31.3377 76.0799 25.4689 76.6176 19.8896 75.267C14.3103 73.9163 9.33459 70.7534 5.73919 66.2721C2.14379 61.7907 0.131117 56.243 0.0153896 50.4952C-0.100338 44.7475 1.68739 39.1231 5.09949 34.5001C8.51158 29.8772 13.356 26.5159 18.8764 24.9411C23.5552 23.6063 28.4964 23.6185 33.1406 24.9492C34.5297 25.3472 35.1817 26.8825 34.6474 28.2251V28.2251Z" fill="white"/>
<path fill-rule="evenodd" clip-rule="evenodd" d="M35.1873 53.7821C36.6009 53.4896 37.4926 52.1059 37.3803 50.6668C37.0937 46.9925 37.7867 43.2908 39.411 39.9489C41.4178 35.8202 44.733 32.4732 48.8391 30.4305C52.9452 28.3877 57.611 27.7642 62.1082 28.6572C66.6054 29.5502 70.6809 31.9095 73.6982 35.3668C76.7156 38.824 78.505 43.1847 78.7873 47.7679C79.0695 52.3511 77.8285 56.8989 75.2582 60.7014C72.6879 64.5038 68.9328 67.3468 64.5792 68.7865C61.059 69.9506 57.3077 70.1443 53.7138 69.3712C52.2991 69.0669 50.8045 69.7674 50.3256 71.1329V71.1329C49.8473 72.4966 50.5624 74.0039 51.9669 74.3439C56.662 75.4806 61.5994 75.2878 66.2188 73.7601C71.6694 71.9576 76.3706 68.3983 79.5886 63.6378C82.8066 58.8773 84.3602 53.1835 84.0069 47.4455C83.6535 41.7074 81.4132 36.2481 77.6355 31.9197C73.8579 27.5913 68.7556 24.6375 63.1252 23.5195C57.4949 22.4014 51.6534 23.1821 46.5127 25.7396C41.372 28.2971 37.2214 32.4874 34.7091 37.6564C32.5793 42.0382 31.7284 46.9141 32.2259 51.7273C32.3744 53.1645 33.7725 54.0748 35.1873 53.7821V53.7821Z" fill="white"/>
<path fill-rule="evenodd" clip-rule="evenodd" d="M35.1873 53.7821C36.6009 53.4896 37.4926 52.1059 37.3803 50.6668C37.0937 46.9925 37.7867 43.2908 39.411 39.9489C41.4178 35.8202 44.733 32.4732 48.8391 30.4305C52.9452 28.3877 57.611 27.7642 62.1082 28.6572C66.6054 29.5502 70.6809 31.9095 73.6982 35.3668C76.7156 38.824 78.505 43.1847 78.7873 47.7679C79.0695 52.3511 77.8285 56.8989 75.2582 60.7014C72.6879 64.5038 68.9328 67.3468 64.5792 68.7865C61.059 69.9506 57.3077 70.1443 53.7138 69.3712C52.2991 69.0669 50.8045 69.7674 50.3256 71.1329V71.1329C49.8473 72.4966 50.5624 74.0039 51.9669 74.3439C56.662 75.4806 61.5994 75.2878 66.2188 73.7601C71.6694 71.9576 76.3706 68.3983 79.5886 63.6378C82.8066 58.8773 84.3602 53.1835 84.0069 47.4455C83.6535 41.7074 81.4132 36.2481 77.6355 31.9197C73.8579 27.5913 68.7556 24.6375 63.1252 23.5195C57.4949 22.4014 51.6534 23.1821 46.5127 25.7396C41.372 28.2971 37.2214 32.4874 34.7091 37.6564C32.5793 42.0382 31.7284 46.9141 32.2259 51.7273C32.3744 53.1645 33.7725 54.0748 35.1873 53.7821V53.7821Z" fill="white"/>
<path d="M115.848 72.576C114.888 72.576 114.152 72.32 113.64 71.808C113.128 71.296 112.872 70.56 112.872 69.6V27.84C112.872 26.816 113.128 26.048 113.64 25.536C114.152 25.024 114.888 24.768 115.848 24.768C116.744 24.768 117.416 25.024 117.864 25.536C118.376 26.048 118.632 26.816 118.632 27.84V36.96L117.576 36.288C118.728 32.512 120.68 29.632 123.432 27.648C126.184 25.6 129.48 24.576 133.32 24.576C137.416 24.576 140.68 25.568 143.112 27.552C145.608 29.536 147.24 32.512 148.008 36.48H146.568C147.656 32.896 149.672 30.016 152.616 27.84C155.624 25.664 159.144 24.576 163.176 24.576C166.632 24.576 169.48 25.248 171.72 26.592C174.024 27.936 175.752 29.952 176.904 32.64C178.056 35.264 178.632 38.592 178.632 42.624V69.6C178.632 70.56 178.376 71.296 177.864 71.808C177.352 72.32 176.616 72.576 175.656 72.576C174.76 72.576 174.056 72.32 173.544 71.808C173.032 71.296 172.776 70.56 172.776 69.6V43.104C172.776 38.432 171.944 35.04 170.28 32.928C168.68 30.752 165.96 29.664 162.12 29.664C158.024 29.664 154.76 31.104 152.328 33.984C149.896 36.8 148.68 40.64 148.68 45.504V69.6C148.68 70.56 148.424 71.296 147.912 71.808C147.4 72.32 146.696 72.576 145.8 72.576C144.84 72.576 144.104 72.32 143.592 71.808C143.08 71.296 142.824 70.56 142.824 69.6V43.104C142.824 38.432 141.992 35.04 140.328 32.928C138.728 30.752 136.04 29.664 132.264 29.664C128.104 29.664 124.808 31.104 122.376 33.984C119.944 36.8 118.728 40.64 118.728 45.504V69.6C118.728 71.584 117.768 72.576 115.848 72.576ZM212.489 72.768C208.137 72.768 204.361 71.776 201.161 69.792C197.961 67.808 195.465 65.024 193.673 61.44C191.945 57.856 191.081 53.6 191.081 48.672C191.081 45.024 191.561 41.728 192.521 38.784C193.545 35.84 194.985 33.312 196.841 31.2C198.761 29.024 201.033 27.392 203.657 26.304C206.345 25.152 209.289 24.576 212.489 24.576C216.905 24.576 220.713 25.568 223.913 27.552C227.113 29.536 229.577 32.352 231.305 36C233.097 39.584 233.993 43.808 233.993 48.672C233.993 52.384 233.481 55.712 232.457 58.656C231.497 61.6 230.057 64.128 228.137 66.24C226.281 68.352 224.041 69.984 221.417 71.136C218.793 72.224 215.817 72.768 212.489 72.768ZM212.489 67.872C215.689 67.872 218.441 67.136 220.745 65.664C223.113 64.128 224.905 61.92 226.121 59.04C227.401 56.16 228.041 52.704 228.041 48.672C228.041 42.592 226.633 37.888 223.817 34.56C221.065 31.232 217.289 29.568 212.489 29.568C209.353 29.568 206.601 30.336 204.233 31.872C201.929 33.344 200.137 35.52 198.857 38.4C197.641 41.216 197.033 44.64 197.033 48.672C197.033 54.816 198.441 59.552 201.257 62.88C204.073 66.208 207.817 67.872 212.489 67.872ZM249.437 72.576C248.477 72.576 247.741 72.32 247.229 71.808C246.717 71.296 246.461 70.56 246.461 69.6V27.84C246.461 26.816 246.717 26.048 247.229 25.536C247.741 25.024 248.477 24.768 249.437 24.768C250.333 24.768 251.005 25.024 251.453 25.536C251.965 26.048 252.221 26.816 252.221 27.84V36.384H251.261C252.413 32.608 254.461 29.696 257.405 27.648C260.413 25.6 263.997 24.544 268.157 24.48C268.925 24.416 269.565 24.576 270.077 24.96C270.589 25.344 270.845 25.952 270.845 26.784C270.909 27.68 270.717 28.384 270.269 28.896C269.821 29.344 269.085 29.632 268.061 29.76L266.717 29.856C262.173 30.304 258.653 31.808 256.157 34.368C253.661 36.928 252.413 40.384 252.413 44.736V69.6C252.413 70.56 252.157 71.296 251.645 71.808C251.197 72.32 250.461 72.576 249.437 72.576ZM293.205 72.768C290.069 72.768 287.253 72.16 284.757 70.944C282.325 69.728 280.373 68.064 278.901 65.952C277.493 63.84 276.789 61.472 276.789 58.848C276.789 55.392 277.653 52.672 279.381 50.688C281.109 48.704 284.021 47.328 288.117 46.56C292.213 45.728 297.845 45.312 305.013 45.312H309.141V49.632H305.109C299.349 49.632 294.837 49.888 291.573 50.4C288.373 50.848 286.133 51.712 284.853 52.992C283.573 54.272 282.933 56.064 282.933 58.368C282.933 61.248 283.925 63.584 285.909 65.376C287.893 67.168 290.581 68.064 293.973 68.064C296.725 68.064 299.125 67.424 301.173 66.144C303.285 64.8 304.949 62.976 306.165 60.672C307.381 58.368 307.989 55.744 307.989 52.8V41.856C307.989 37.568 307.125 34.464 305.397 32.544C303.669 30.56 300.917 29.568 297.141 29.568C294.709 29.568 292.341 29.888 290.037 30.528C287.797 31.168 285.397 32.192 282.837 33.6C282.133 33.984 281.493 34.112 280.917 33.984C280.405 33.856 279.989 33.6 279.669 33.216C279.413 32.832 279.221 32.384 279.093 31.872C279.029 31.296 279.125 30.752 279.381 30.24C279.637 29.728 280.085 29.312 280.725 28.992C283.413 27.52 286.133 26.432 288.885 25.728C291.701 24.96 294.421 24.576 297.045 24.576C300.821 24.576 303.925 25.216 306.357 26.496C308.853 27.776 310.677 29.696 311.829 32.256C313.045 34.816 313.653 38.112 313.653 42.144V69.6C313.653 70.56 313.429 71.296 312.981 71.808C312.533 72.32 311.861 72.576 310.965 72.576C310.069 72.576 309.365 72.32 308.853 71.808C308.341 71.296 308.085 70.56 308.085 69.6V60.768H309.045C308.469 63.264 307.445 65.408 305.973 67.2C304.501 68.992 302.677 70.368 300.501 71.328C298.325 72.288 295.893 72.768 293.205 72.768ZM343.361 72.768C340.225 72.768 337.409 72.16 334.913 70.944C332.481 69.728 330.529 68.064 329.057 65.952C327.649 63.84 326.945 61.472 326.945 58.848C326.945 55.392 327.809 52.672 329.537 50.688C331.265 48.704 334.177 47.328 338.273 46.56C342.369 45.728 348.001 45.312 355.169 45.312H359.297V49.632H355.265C349.505 49.632 344.993 49.888 341.729 50.4C338.529 50.848 336.289 51.712 335.009 52.992C333.729 54.272 333.089 56.064 333.089 58.368C333.089 61.248 334.081 63.584 336.065 65.376C338.049 67.168 340.737 68.064 344.129 68.064C346.881 68.064 349.281 67.424 351.329 66.144C353.441 64.8 355.105 62.976 356.321 60.672C357.537 58.368 358.145 55.744 358.145 52.8V41.856C358.145 37.568 357.281 34.464 355.553 32.544C353.825 30.56 351.073 29.568 347.297 29.568C344.865 29.568 342.497 29.888 340.193 30.528C337.953 31.168 335.553 32.192 332.993 33.6C332.289 33.984 331.649 34.112 331.073 33.984C330.561 33.856 330.145 33.6 329.825 33.216C329.569 32.832 329.377 32.384 329.249 31.872C329.185 31.296 329.281 30.752 329.537 30.24C329.793 29.728 330.241 29.312 330.881 28.992C333.569 27.52 336.289 26.432 339.041 25.728C341.857 24.96 344.577 24.576 347.201 24.576C350.977 24.576 354.081 25.216 356.513 26.496C359.009 27.776 360.833 29.696 361.985 32.256C363.201 34.816 363.809 38.112 363.809 42.144V69.6C363.809 70.56 363.585 71.296 363.137 71.808C362.689 72.32 362.017 72.576 361.121 72.576C360.225 72.576 359.521 72.32 359.009 71.808C358.497 71.296 358.241 70.56 358.241 69.6V60.768H359.201C358.625 63.264 357.601 65.408 356.129 67.2C354.657 68.992 352.833 70.368 350.657 71.328C348.481 72.288 346.049 72.768 343.361 72.768Z" fill="white"/>
</svg>
