<svg width="32" height="33" viewBox="0 0 32 33" fill="none" xmlns="http://www.w3.org/2000/svg">
<path d="M23.5294 0.5H8.47059C3.79241 0.5 0 4.29241 0 8.97059V24.0294C0 28.7076 3.79241 32.5 8.47059 32.5H23.5294C28.2076 32.5 32 28.7076 32 24.0294V8.97059C32 4.29241 28.2076 0.5 23.5294 0.5Z" fill="#7C3AED"/>
<path fill-rule="evenodd" clip-rule="evenodd" d="M14.2291 11.3754C14.1011 11.6972 13.7367 11.8499 13.4015 11.7631C12.5498 11.5426 11.6509 11.5516 10.7977 11.795C9.74248 12.0961 8.81648 12.7386 8.16425 13.6223C7.51203 14.5059 7.17031 15.581 7.19243 16.6797C7.21455 17.7784 7.59927 18.8388 8.28653 19.6955C8.9738 20.5521 9.92491 21.1567 10.9914 21.4148C12.0579 21.673 13.1797 21.5702 14.1817 21.1226C15.1837 20.6749 16.0096 19.9075 16.5302 18.9402C16.9517 18.1573 17.154 17.2791 17.1219 16.3977C17.1093 16.0524 17.3362 15.7304 17.6771 15.6745C18.0183 15.6186 18.3435 15.8501 18.3648 16.1951C18.4362 17.351 18.1845 18.5085 17.6318 19.5351C16.9799 20.7461 15.946 21.7068 14.6916 22.2673C13.4371 22.8278 12.0326 22.9564 10.6974 22.6332C9.36217 22.31 8.1714 21.5531 7.31097 20.4806C6.45054 19.4081 5.96888 18.0805 5.94119 16.705C5.91349 15.3295 6.34132 13.9835 7.15788 12.8771C7.97444 11.7708 9.13377 10.9664 10.4549 10.5895C11.5746 10.2701 12.7571 10.273 13.8685 10.5915C14.2009 10.6867 14.357 11.0541 14.2291 11.3754Z" fill="white"/>
<path fill-rule="evenodd" clip-rule="evenodd" d="M14.2291 11.3754C14.1011 11.6972 13.7367 11.8499 13.4015 11.7631C12.5498 11.5426 11.6509 11.5516 10.7977 11.795C9.74248 12.0961 8.81648 12.7386 8.16425 13.6223C7.51203 14.5059 7.17031 15.581 7.19243 16.6797C7.21455 17.7784 7.59927 18.8388 8.28653 19.6955C8.9738 20.5521 9.92491 21.1567 10.9914 21.4148C12.0579 21.673 13.1797 21.5702 14.1817 21.1226C15.1837 20.6749 16.0096 19.9075 16.5302 18.9402C16.9517 18.1573 17.154 17.2791 17.1219 16.3977C17.1093 16.0524 17.3362 15.7304 17.6771 15.6745C18.0183 15.6186 18.3435 15.8501 18.3648 16.1951C18.4362 17.351 18.1845 18.5085 17.6318 19.5351C16.9799 20.7461 15.946 21.7068 14.6916 22.2673C13.4371 22.8278 12.0326 22.9564 10.6974 22.6332C9.36217 22.31 8.1714 21.5531 7.31097 20.4806C6.45054 19.4081 5.96888 18.0805 5.94119 16.705C5.91349 15.3295 6.34132 13.9835 7.15788 12.8771C7.97444 11.7708 9.13377 10.9664 10.4549 10.5895C11.5746 10.2701 12.7571 10.273 13.8685 10.5915C14.2009 10.6867 14.357 11.0541 14.2291 11.3754Z" fill="white"/>
<path fill-rule="evenodd" clip-rule="evenodd" d="M14.3583 17.4916C14.6966 17.4216 14.91 17.0905 14.8831 16.746C14.8145 15.8667 14.9804 14.9809 15.3691 14.1811C15.8494 13.1931 16.6427 12.3921 17.6254 11.9032C18.608 11.4144 19.7246 11.2651 20.8009 11.4788C21.8771 11.6925 22.8524 12.2572 23.5745 13.0845C24.2966 13.9119 24.7249 14.9555 24.7924 16.0523C24.8599 17.1491 24.563 18.2375 23.9478 19.1475C23.3327 20.0574 22.4341 20.7378 21.3922 21.0823C20.5498 21.3609 19.652 21.4073 18.792 21.2223C18.4534 21.1495 18.0957 21.3171 17.9811 21.6439C17.8666 21.9702 18.0378 22.3309 18.3739 22.4123C19.4975 22.6843 20.6791 22.6382 21.7846 22.2726C23.089 21.8412 24.214 20.9894 24.9842 19.8502C25.7543 18.7109 26.1261 17.3483 26.0415 15.9751C25.957 14.602 25.4208 13.2954 24.5168 12.2596C23.6127 11.2238 22.3917 10.5169 21.0443 10.2493C19.6968 9.98175 18.2989 10.1686 17.0686 10.7806C15.8384 11.3927 14.8451 12.3955 14.2439 13.6325C13.7342 14.6811 13.5305 15.848 13.6496 16.9998C13.6852 17.3438 14.0197 17.5616 14.3583 17.4916Z" fill="white"/>
<path fill-rule="evenodd" clip-rule="evenodd" d="M14.3583 17.4916C14.6966 17.4216 14.91 17.0905 14.8831 16.746C14.8145 15.8667 14.9804 14.9809 15.3691 14.1811C15.8494 13.1931 16.6427 12.3921 17.6254 11.9032C18.608 11.4144 19.7246 11.2651 20.8009 11.4788C21.8771 11.6925 22.8524 12.2572 23.5745 13.0845C24.2966 13.9119 24.7249 14.9555 24.7924 16.0523C24.8599 17.1491 24.563 18.2375 23.9478 19.1475C23.3327 20.0574 22.4341 20.7378 21.3922 21.0823C20.5498 21.3609 19.652 21.4073 18.792 21.2223C18.4534 21.1495 18.0957 21.3171 17.9811 21.6439C17.8666 21.9702 18.0378 22.3309 18.3739 22.4123C19.4975 22.6843 20.6791 22.6382 21.7846 22.2726C23.089 21.8412 24.214 20.9894 24.9842 19.8502C25.7543 18.7109 26.1261 17.3483 26.0415 15.9751C25.957 14.602 25.4208 13.2954 24.5168 12.2596C23.6127 11.2238 22.3917 10.5169 21.0443 10.2493C19.6968 9.98175 18.2989 10.1686 17.0686 10.7806C15.8384 11.3927 14.8451 12.3955 14.2439 13.6325C13.7342 14.6811 13.5305 15.848 13.6496 16.9998C13.6852 17.3438 14.0197 17.5616 14.3583 17.4916Z" fill="white"/>
</svg>
