<svg width="80" height="80" viewBox="0 0 80 80" fill="none" xmlns="http://www.w3.org/2000/svg">
<path d="M80 40C80 62.0914 62.0914 80 40 80C17.9086 80 0 62.0914 0 40C0 17.9086 17.9086 0 40 0C62.0914 0 80 17.9086 80 40Z" fill="#7F34FF"/>
<path d="M57.6183 33.4737L54.5183 37.4737C60.9183 40.4737 59.9183 47.6737 56.2183 50.8737C54.2183 52.5737 50.9183 53.3737 48.2183 51.9737C45.9183 50.8737 43.6183 48.3737 41.1183 44.6737C40.4183 43.6737 39.2183 41.7737 38.6183 40.7737C38.0183 39.7737 38.6183 38.3737 40.0183 38.7737C52.8183 41.9737 62.2183 27.0737 52.8183 16.7737C47.4183 10.9737 38.9183 12.5737 34.5183 16.7737C30.1183 20.9737 29.7183 24.8737 30.8183 30.0737L36.2183 31.2737C34.1183 20.6737 40.6183 17.2737 45.8183 18.6737C49.9183 19.7737 54.1183 26.1737 49.1183 31.6737C41.2183 40.3737 25.9183 25.3737 15.7183 35.6737C4.41828 47.0737 19.8183 65.6737 33.6183 54.6737C34.7183 53.7737 35.3183 52.9737 36.4183 51.0737L33.2183 46.4737C31.0183 50.6737 28.0183 52.6737 24.9183 52.6737C19.5183 52.6737 15.8183 46.9737 17.7183 41.9737C20.0183 35.9737 28.7183 35.4737 32.0183 40.2737C36.9183 47.4737 40.4183 53.0737 44.2183 55.6737C50.1183 59.6737 57.2183 57.5737 60.6183 54.0737C65.7183 48.9737 66.8183 38.9737 57.7183 33.2737L57.6183 33.4737Z" fill="white"/>
</svg>
