<?xml version="1.0" encoding="UTF-8"?><svg id="Layer_2" xmlns="http://www.w3.org/2000/svg" width="215.5" height="45" viewBox="0 0 215.5 45"><defs><style>.cls-1{fill:#2e1e4a;stroke-width:0px;}</style></defs><g id="Layer_6"><path class="cls-1" d="M139.7,22.7c0,2.7-.6,5.2-1.9,7.4-1.3,2.2-3,3.9-5.2,5.2-2.2,1.3-4.7,1.9-7.4,1.9s-4.7-.5-6.7-1.6-.5-.5-.5-.8v-4c0-.7.9-1.2,1.5-.7s.7.5,1.1.8c1.4.8,2.9,1.2,4.6,1.2s3.3-.4,4.7-1.2c1.4-.8,2.4-1.9,3.2-3.3.8-1.4,1.2-3,1.2-4.9s-.4-3.4-1.2-4.8c-.8-1.4-1.9-2.5-3.2-3.3-1.3-.8-2.9-1.2-4.7-1.2s-3.2.4-4.6,1.2c-1.4.8-2.4,1.9-3.2,3.3-.7,1.3-1.4,3.2-1.4,4.3,0,2.6,0,7.4,0,9.6,0,4.1-2.6,6.8-7,6.8s-6.4-3-6.4-6.8v-12c0-2-.7-3.7-1.9-4.9-1.3-1.2-2.8-1.8-4.7-1.8s-2.4.3-3.5.8c-1,.6-1.9,1.3-2.5,2.3-.6,1-.9,2.2-.9,3.5v16c0,.4-.3.8-.8.8h-3.7c-.4,0-.8-.3-.8-.8v-16c0-2-.6-3.7-1.9-4.9-1.3-1.2-2.9-1.8-4.8-1.8s-2.4.3-3.4.8c-1,.6-1.8,1.3-2.4,2.3-.6,1-.9,2.2-.9,3.5v16c0,.4-.3.8-.8.8h-3.7c-.4,0-.8-.3-.8-.8V9.7c0-.4.3-.8.8-.8h3.7c.4,0,.8.3.8.8v2.5c.8-1,1.8-1.9,3-2.5,1.6-.9,3.4-1.3,5.4-1.3s3.7.4,5.3,1.3c1.6.8,2.8,2,3.7,3.6,0,0,0,0,0,.1,0,0,0,0,0,0,1-1.5,2.4-2.7,4-3.6,1.6-.9,3.4-1.3,5.4-1.3s3.8.4,5.4,1.3c1.6.8,2.9,2,3.8,3.6,1,1.6,1.4,3.4,1.4,5.6v13.2c0,.8.8,1.5,1.5,1.5s1.5-.7,1.5-1.5v-8.5c0,0,0-1,0-1.1,0-2.6.7-5,1.9-7.1,1.3-2.1,3-3.9,5.2-5.1,2.2-1.3,4.6-1.9,7.3-1.9s5.2.6,7.4,1.9c2.2,1.3,3.9,3,5.2,5.2,1.3,2.2,1.9,4.6,1.9,7.3Z"/><path class="cls-1" d="M158,9.1c-1.1-.5-2.4-.7-3.8-.7-3.1,0-5.4,1-7,3.1-.2.2-.3.4-.5.7v-2.5c0-.4-.3-.8-.8-.8h-3.7c-.4,0-.8.3-.8.8v26.2c0,.4.3.8.8.8h3.7c.4,0,.8-.3.8-.8v-15c0-2.6.6-4.5,1.9-5.7,1.2-1.2,2.8-1.9,4.8-1.9s1.7.1,2.4.4.8.3,1.3.7,1.2.3,1.5-.2c.6-.9,1.3-1.8,1.8-2.4s.3-1.1-.2-1.4c-.7-.5-1.3-.9-2.1-1.2Z"/><path class="cls-1" d="M180.7,12.7c-1-1.3-2.1-2.3-3.6-3.1-1.7-.9-3.5-1.3-5.6-1.3s-4.9.6-6.9,1.9-3.6,3-4.8,5.2c-1.2,2.2-1.8,4.6-1.8,7.3s.6,5.2,1.8,7.3c1.2,2.2,2.8,3.9,4.8,5.2,2,1.3,4.3,1.9,6.9,1.9s4-.4,5.6-1.3c1.4-.8,2.6-1.8,3.6-3v3c0,.4.3.8.8.8h3.8c.4,0,.8-.3.8-.8V9.7c0-.4-.3-.8-.8-.8h-3.8c-.4,0-.8.3-.8.8v3ZM178.7,29.6c-1.6,1.8-3.7,2.6-6.3,2.6s-3.3-.4-4.7-1.2c-1.4-.8-2.4-1.9-3.2-3.3-.8-1.4-1.1-3.1-1.1-4.9s.4-3.4,1.1-4.9c.8-1.4,1.8-2.5,3.1-3.3,1.3-.8,2.9-1.2,4.6-1.2s3.3.4,4.6,1.2c1.3.8,2.3,1.9,3.1,3.3.7,1.4,1.1,3.1,1.1,5,0,2.8-.8,5-2.4,6.8Z"/><path class="cls-1" d="M210.2,9.7v3c-1-1.3-2.1-2.3-3.6-3.1-1.7-.9-3.5-1.3-5.6-1.3s-4.9.6-6.9,1.9-3.6,3-4.8,5.2c-1.2,2.2-1.8,4.6-1.8,7.3s.6,5.2,1.8,7.3c1.2,2.2,2.8,3.9,4.8,5.2,2,1.3,4.3,1.9,6.9,1.9s4-.4,5.6-1.3c1.4-.8,2.6-1.8,3.6-3v3c0,.4.3.8.8.8h3.8c.4,0,.8-.3.8-.8V9.7c0-.4-.3-.8-.8-.8h-3.8c-.4,0-.8.3-.8.8ZM208.2,29.6c-1.6,1.8-3.7,2.6-6.3,2.6s-3.3-.4-4.7-1.2c-1.4-.8-2.4-1.9-3.2-3.3-.8-1.4-1.1-3.1-1.1-4.9s.4-3.4,1.1-4.9c.8-1.4,1.8-2.5,3.1-3.3,1.3-.8,2.9-1.2,4.6-1.2s3.3.4,4.6,1.2c1.3.8,2.3,1.9,3.1,3.3.7,1.4,1.1,3.1,1.1,5,0,2.8-.8,5-2.4,6.8Z"/><path class="cls-1" d="M110.8,22.5c0,0,0,.1,0,.2v-.2h0Z"/><path class="cls-1" d="M45.9,20.5l-3.1,4c6.4,3,5.4,10.2,1.7,13.4-2,1.7-5.3,2.5-8,1.1-2.3-1.1-4.6-3.6-7.1-7.3-.7-1-1.9-2.9-2.5-3.9s0-2.4,1.4-2c12.8,3.2,22.2-11.7,12.8-22-5.4-5.8-13.9-4.2-18.3,0s-4.8,8.1-3.7,13.3l5.4,1.2c-2.1-10.6,4.4-14,9.6-12.6,4.1,1.1,8.3,7.5,3.3,13-7.9,8.7-23.2-6.3-33.4,4-11.3,11.4,4.1,30,17.9,19,1.1-.9,1.7-1.7,2.8-3.6l-3.2-4.6c-2.2,4.2-5.2,6.2-8.3,6.2-5.4,0-9.1-5.7-7.2-10.7,2.3-6,11-6.5,14.3-1.7,4.9,7.2,8.4,12.8,12.2,15.4,5.9,4,13,1.9,16.4-1.6,5.1-5.1,6.2-15.1-2.9-20.8Z"/></g></svg>