<svg width="406" height="273" viewBox="0 0 406 273" fill="none" xmlns="http://www.w3.org/2000/svg">
<rect y="254" width="97" height="19" rx="5" fill="#F4F4F4"/>
<path d="M25.0881 260.455H25.8807V264.788C25.8807 265.236 25.7752 265.635 25.5643 265.987C25.3555 266.336 25.0604 266.612 24.679 266.815C24.2976 267.015 23.8501 267.115 23.3366 267.115C22.8232 267.115 22.3757 267.015 21.9943 266.815C21.6129 266.612 21.3168 266.336 21.1058 265.987C20.897 265.635 20.7926 265.236 20.7926 264.788V260.455H21.5852V264.724C21.5852 265.044 21.6555 265.328 21.7962 265.578C21.9368 265.825 22.1371 266.02 22.397 266.163C22.6591 266.303 22.9723 266.374 23.3366 266.374C23.701 266.374 24.0142 266.303 24.2763 266.163C24.5384 266.02 24.7386 265.825 24.8771 265.578C25.0178 265.328 25.0881 265.044 25.0881 264.724V260.455ZM30.8385 263.19L30.161 263.382C30.1183 263.269 30.0555 263.159 29.9724 263.053C29.8914 262.944 29.7806 262.855 29.64 262.784C29.4994 262.714 29.3193 262.679 29.0999 262.679C28.7994 262.679 28.5491 262.748 28.3488 262.887C28.1507 263.023 28.0516 263.197 28.0516 263.408C28.0516 263.595 28.1198 263.743 28.2561 263.852C28.3925 263.961 28.6056 264.051 28.8953 264.124L29.624 264.303C30.0629 264.409 30.39 264.572 30.6052 264.792C30.8204 265.009 30.928 265.289 30.928 265.632C30.928 265.913 30.847 266.165 30.6851 266.386C30.5253 266.608 30.3016 266.783 30.0139 266.911C29.7263 267.038 29.3918 267.102 29.0104 267.102C28.5097 267.102 28.0953 266.994 27.7671 266.776C27.439 266.559 27.2313 266.241 27.1439 265.824L27.8598 265.645C27.928 265.909 28.0569 266.107 28.2465 266.239C28.4383 266.371 28.6887 266.438 28.9976 266.438C29.3492 266.438 29.6283 266.363 29.835 266.214C30.0438 266.062 30.1482 265.881 30.1482 265.67C30.1482 265.5 30.0885 265.357 29.9692 265.242C29.8499 265.125 29.6666 265.038 29.4195 264.98L28.6013 264.788C28.1517 264.682 27.8215 264.517 27.6105 264.293C27.4017 264.067 27.2973 263.785 27.2973 263.446C27.2973 263.169 27.3751 262.924 27.5306 262.711C27.6883 262.498 27.9024 262.331 28.173 262.209C28.4458 262.088 28.7547 262.027 29.0999 262.027C29.5857 262.027 29.9671 262.134 30.2441 262.347C30.5232 262.56 30.7213 262.841 30.8385 263.19ZM34.1216 267.102C33.6486 267.102 33.2406 266.998 32.8975 266.789C32.5566 266.578 32.2935 266.284 32.1081 265.907C31.9249 265.528 31.8333 265.087 31.8333 264.584C31.8333 264.081 31.9249 263.638 32.1081 263.254C32.2935 262.869 32.5513 262.568 32.8816 262.353C33.214 262.136 33.6017 262.027 34.0449 262.027C34.3006 262.027 34.5531 262.07 34.8024 262.155C35.0517 262.24 35.2786 262.379 35.4831 262.57C35.6877 262.76 35.8507 263.011 35.9721 263.325C36.0936 263.638 36.1543 264.023 36.1543 264.482V264.801H32.3702V264.149H35.3873C35.3873 263.872 35.3319 263.625 35.2211 263.408C35.1124 263.19 34.9569 263.019 34.7544 262.893C34.5542 262.767 34.3176 262.705 34.0449 262.705C33.7445 262.705 33.4846 262.779 33.2651 262.928C33.0478 263.075 32.8805 263.267 32.7633 263.504C32.6461 263.74 32.5875 263.994 32.5875 264.264V264.699C32.5875 265.07 32.6515 265.384 32.7793 265.642C32.9093 265.897 33.0893 266.092 33.3194 266.227C33.5495 266.359 33.8169 266.425 34.1216 266.425C34.3198 266.425 34.4988 266.397 34.6586 266.342C34.8205 266.284 34.96 266.199 35.0772 266.086C35.1944 265.971 35.285 265.828 35.3489 265.658L36.0776 265.862C36.0009 266.109 35.872 266.327 35.6909 266.514C35.5098 266.7 35.286 266.844 35.0197 266.949C34.7534 267.051 34.454 267.102 34.1216 267.102ZM37.3017 267V262.091H38.0304V262.832H38.0815C38.171 262.589 38.3329 262.392 38.5673 262.241C38.8017 262.09 39.0659 262.014 39.3599 262.014C39.4153 262.014 39.4846 262.015 39.5676 262.017C39.6507 262.02 39.7136 262.023 39.7562 262.027V262.794C39.7306 262.788 39.6721 262.778 39.5804 262.765C39.4909 262.75 39.3961 262.743 39.296 262.743C39.0574 262.743 38.8443 262.793 38.6568 262.893C38.4714 262.991 38.3244 263.127 38.2157 263.302C38.1092 263.475 38.0559 263.672 38.0559 263.893V267H37.3017ZM43.1816 267V262.091H43.9358V267H43.1816ZM43.5651 261.273C43.4181 261.273 43.2913 261.223 43.1847 261.123C43.0803 261.022 43.0281 260.902 43.0281 260.761C43.0281 260.621 43.0803 260.5 43.1847 260.4C43.2913 260.3 43.4181 260.25 43.5651 260.25C43.7121 260.25 43.8378 260.3 43.9422 260.4C44.0487 260.5 44.102 260.621 44.102 260.761C44.102 260.902 44.0487 261.022 43.9422 261.123C43.8378 261.223 43.7121 261.273 43.5651 261.273ZM48.7946 263.19L48.117 263.382C48.0744 263.269 48.0115 263.159 47.9284 263.053C47.8475 262.944 47.7367 262.855 47.5961 262.784C47.4554 262.714 47.2754 262.679 47.0559 262.679C46.7555 262.679 46.5051 262.748 46.3049 262.887C46.1067 263.023 46.0076 263.197 46.0076 263.408C46.0076 263.595 46.0758 263.743 46.2122 263.852C46.3485 263.961 46.5616 264.051 46.8514 264.124L47.5801 264.303C48.019 264.409 48.3461 264.572 48.5613 264.792C48.7765 265.009 48.8841 265.289 48.8841 265.632C48.8841 265.913 48.8031 266.165 48.6412 266.386C48.4814 266.608 48.2576 266.783 47.97 266.911C47.6824 267.038 47.3478 267.102 46.9664 267.102C46.4657 267.102 46.0513 266.994 45.7232 266.776C45.3951 266.559 45.1873 266.241 45.1 265.824L45.8159 265.645C45.8841 265.909 46.013 266.107 46.2026 266.239C46.3944 266.371 46.6447 266.438 46.9537 266.438C47.3052 266.438 47.5843 266.363 47.791 266.214C47.9998 266.062 48.1042 265.881 48.1042 265.67C48.1042 265.5 48.0446 265.357 47.9252 265.242C47.8059 265.125 47.6227 265.038 47.3755 264.98L46.5574 264.788C46.1078 264.682 45.7775 264.517 45.5666 264.293C45.3578 264.067 45.2534 263.785 45.2534 263.446C45.2534 263.169 45.3311 262.924 45.4867 262.711C45.6444 262.498 45.8585 262.331 46.1291 262.209C46.4018 262.088 46.7108 262.027 47.0559 262.027C47.5417 262.027 47.9231 262.134 48.2001 262.347C48.4792 262.56 48.6774 262.841 48.7946 263.19ZM54.6856 262.091V262.73H52.1416V262.091H54.6856ZM52.8831 260.915H53.6373V265.594C53.6373 265.807 53.6682 265.967 53.73 266.073C53.7939 266.178 53.8749 266.248 53.9729 266.284C54.0731 266.318 54.1785 266.335 54.2893 266.335C54.3724 266.335 54.4406 266.331 54.4939 266.322C54.5471 266.312 54.5898 266.303 54.6217 266.297L54.7751 266.974C54.724 266.994 54.6526 267.013 54.561 267.032C54.4694 267.053 54.3532 267.064 54.2126 267.064C53.9996 267.064 53.7907 267.018 53.5862 266.926C53.3838 266.835 53.2155 266.695 53.0812 266.508C52.9491 266.32 52.8831 266.084 52.8831 265.798V260.915ZM56.306 268.841C56.1782 268.841 56.0642 268.83 55.964 268.809C55.8639 268.79 55.7947 268.771 55.7563 268.751L55.9481 268.087C56.1313 268.134 56.2932 268.151 56.4339 268.138C56.5745 268.125 56.6991 268.062 56.8078 267.949C56.9186 267.838 57.0198 267.658 57.1114 267.409L57.252 267.026L55.4367 262.091H56.2549L57.61 266.003H57.6611L59.0162 262.091H59.8344L57.7506 267.716C57.6569 267.969 57.5407 268.179 57.4023 268.346C57.2638 268.514 57.1029 268.638 56.9197 268.719C56.7385 268.8 56.534 268.841 56.306 268.841ZM60.83 268.841V262.091H61.5587V262.871H61.6482C61.7036 262.786 61.7803 262.677 61.8783 262.545C61.9784 262.411 62.1212 262.291 62.3066 262.187C62.4941 262.08 62.7476 262.027 63.0672 262.027C63.4806 262.027 63.8449 262.13 64.1602 262.337C64.4756 262.544 64.7217 262.837 64.8985 263.216C65.0754 263.595 65.1638 264.043 65.1638 264.558C65.1638 265.078 65.0754 265.529 64.8985 265.91C64.7217 266.289 64.4767 266.583 64.1634 266.792C63.8502 266.999 63.4891 267.102 63.08 267.102C62.7646 267.102 62.5122 267.05 62.3225 266.946C62.1329 266.839 61.9869 266.719 61.8847 266.585C61.7824 266.448 61.7036 266.335 61.6482 266.246H61.5843V268.841H60.83ZM61.5715 264.545C61.5715 264.916 61.6258 265.243 61.7345 265.527C61.8431 265.808 62.0019 266.028 62.2107 266.188C62.4195 266.346 62.6752 266.425 62.9777 266.425C63.2931 266.425 63.5562 266.342 63.7671 266.175C63.9802 266.007 64.14 265.781 64.2465 265.498C64.3552 265.212 64.4095 264.895 64.4095 264.545C64.4095 264.2 64.3563 263.889 64.2497 263.612C64.1453 263.333 63.9866 263.113 63.7735 262.951C63.5626 262.787 63.2973 262.705 62.9777 262.705C62.6709 262.705 62.4131 262.782 62.2043 262.938C61.9955 263.091 61.8378 263.306 61.7313 263.583C61.6247 263.858 61.5715 264.179 61.5715 264.545ZM66.3144 267V262.091H67.0686V267H66.3144ZM66.6979 261.273C66.5509 261.273 66.4241 261.223 66.3176 261.123C66.2132 261.022 66.161 260.902 66.161 260.761C66.161 260.621 66.2132 260.5 66.3176 260.4C66.4241 260.3 66.5509 260.25 66.6979 260.25C66.8449 260.25 66.9706 260.3 67.075 260.4C67.1816 260.5 67.2348 260.621 67.2348 260.761C67.2348 260.902 67.1816 261.022 67.075 261.123C66.9706 261.223 66.8449 261.273 66.6979 261.273ZM69.2044 264.047V267H68.4501V262.091H69.1788V262.858H69.2427C69.3578 262.609 69.5325 262.408 69.7669 262.257C70.0012 262.104 70.3038 262.027 70.6745 262.027C71.0069 262.027 71.2978 262.095 71.5471 262.232C71.7963 262.366 71.9902 262.57 72.1287 262.845C72.2672 263.118 72.3365 263.463 72.3365 263.881V267H71.5822V263.932C71.5822 263.546 71.4821 263.246 71.2818 263.031C71.0815 262.813 70.8066 262.705 70.4572 262.705C70.2164 262.705 70.0012 262.757 69.8116 262.861C69.6241 262.966 69.476 263.118 69.3674 263.318C69.2587 263.518 69.2044 263.761 69.2044 264.047ZM75.6963 268.943C75.3319 268.943 75.0187 268.896 74.7567 268.803C74.4946 268.711 74.2762 268.589 74.1015 268.438C73.9289 268.289 73.7915 268.129 73.6892 267.959L74.29 267.537C74.3582 267.626 74.4445 267.729 74.5489 267.844C74.6533 267.961 74.7961 268.062 74.9772 268.147C75.1604 268.235 75.4001 268.278 75.6963 268.278C76.0926 268.278 76.4197 268.183 76.6775 267.991C76.9353 267.799 77.0642 267.499 77.0642 267.089V266.092H77.0003C76.9449 266.182 76.866 266.293 76.7638 266.425C76.6636 266.555 76.5187 266.671 76.3291 266.773C76.1416 266.873 75.8881 266.923 75.5684 266.923C75.1721 266.923 74.8163 266.83 74.501 266.642C74.1878 266.455 73.9395 266.182 73.7563 265.824C73.5752 265.466 73.4846 265.031 73.4846 264.52C73.4846 264.017 73.5731 263.579 73.7499 263.206C73.9268 262.831 74.1729 262.542 74.4882 262.337C74.8035 262.13 75.1679 262.027 75.5812 262.027C75.9008 262.027 76.1544 262.08 76.3419 262.187C76.5315 262.291 76.6764 262.411 76.7765 262.545C76.8788 262.677 76.9577 262.786 77.0131 262.871H77.0898V262.091H77.8184V267.141C77.8184 267.562 77.7226 267.906 77.5308 268.17C77.3412 268.436 77.0855 268.631 76.7638 268.755C76.4442 268.88 76.0883 268.943 75.6963 268.943ZM75.6707 266.246C75.9733 266.246 76.229 266.176 76.4378 266.038C76.6466 265.9 76.8053 265.7 76.914 265.44C77.0226 265.18 77.077 264.869 77.077 264.507C77.077 264.153 77.0237 263.841 76.9172 263.571C76.8106 263.3 76.653 263.088 76.4442 262.935C76.2354 262.781 75.9775 262.705 75.6707 262.705C75.3511 262.705 75.0848 262.786 74.8717 262.947C74.6608 263.109 74.502 263.327 74.3955 263.599C74.2911 263.872 74.2389 264.175 74.2389 264.507C74.2389 264.848 74.2922 265.15 74.3987 265.412C74.5074 265.672 74.6672 265.876 74.8781 266.025C75.0912 266.172 75.3554 266.246 75.6707 266.246ZM79.7488 267.051C79.5912 267.051 79.4559 266.995 79.343 266.882C79.23 266.769 79.1736 266.634 79.1736 266.476C79.1736 266.318 79.23 266.183 79.343 266.07C79.4559 265.957 79.5912 265.901 79.7488 265.901C79.9065 265.901 80.0418 265.957 80.1547 266.07C80.2677 266.183 80.3241 266.318 80.3241 266.476C80.3241 266.58 80.2975 266.676 80.2442 266.763C80.1931 266.851 80.1238 266.921 80.0365 266.974C79.9513 267.026 79.8554 267.051 79.7488 267.051ZM82.2274 267.051C82.0697 267.051 81.9344 266.995 81.8215 266.882C81.7085 266.769 81.6521 266.634 81.6521 266.476C81.6521 266.318 81.7085 266.183 81.8215 266.07C81.9344 265.957 82.0697 265.901 82.2274 265.901C82.385 265.901 82.5203 265.957 82.6333 266.07C82.7462 266.183 82.8026 266.318 82.8026 266.476C82.8026 266.58 82.776 266.676 82.7227 266.763C82.6716 266.851 82.6024 266.921 82.515 266.974C82.4298 267.026 82.3339 267.051 82.2274 267.051ZM84.7059 267.051C84.5482 267.051 84.4129 266.995 84.3 266.882C84.1871 266.769 84.1306 266.634 84.1306 266.476C84.1306 266.318 84.1871 266.183 84.3 266.07C84.4129 265.957 84.5482 265.901 84.7059 265.901C84.8635 265.901 84.9988 265.957 85.1118 266.07C85.2247 266.183 85.2812 266.318 85.2812 266.476C85.2812 266.58 85.2545 266.676 85.2013 266.763C85.1501 266.851 85.0809 266.921 84.9935 266.974C84.9083 267.026 84.8124 267.051 84.7059 267.051Z" fill="black"/>
<path d="M14.7298 267.008C15.2944 266.329 15.687 265.525 15.8746 264.662C16.0621 263.8 16.039 262.905 15.8072 262.053C15.5754 261.202 15.1418 260.418 14.5429 259.77C13.944 259.121 13.1976 258.626 12.3667 258.326C11.5359 258.027 10.645 257.931 9.76954 258.049C8.89406 258.166 8.05972 258.492 7.33709 259C6.61447 259.507 6.02481 260.181 5.61801 260.965C5.21121 261.748 4.99923 262.618 5 263.5C5.00033 264.783 5.45283 266.025 6.27809 267.008L6.27023 267.015C6.29775 267.048 6.3292 267.076 6.35751 267.109C6.39289 267.149 6.43102 267.187 6.46759 267.226C6.57714 267.346 6.69115 267.46 6.80962 267.568C6.84631 267.601 6.883 267.632 6.91969 267.663C7.0455 267.772 7.17523 267.874 7.3089 267.97C7.3262 267.982 7.34193 267.998 7.35922 268.01V268.005C8.27997 268.653 9.37841 269 10.5043 269C11.6302 269 12.7287 268.653 13.6494 268.005V268.01C13.6667 267.998 13.6821 267.982 13.6998 267.97C13.8334 267.874 13.9632 267.772 14.089 267.663C14.1257 267.632 14.1623 267.6 14.199 267.568C14.3172 267.46 14.4313 267.346 14.5411 267.226C14.5776 267.187 14.6154 267.149 14.6511 267.109C14.6791 267.076 14.7109 267.048 14.7384 267.014L14.7298 267.008ZM10.5039 260.358C10.8538 260.358 11.1959 260.461 11.4868 260.656C11.7777 260.85 12.0045 261.126 12.1384 261.449C12.2723 261.772 12.3073 262.127 12.2391 262.47C12.1708 262.813 12.0023 263.128 11.7549 263.375C11.5075 263.623 11.1922 263.791 10.8491 263.859C10.5059 263.927 10.1502 263.892 9.82692 263.759C9.50366 263.625 9.22736 263.398 9.03296 263.107C8.83857 262.817 8.73481 262.475 8.73481 262.125C8.73481 261.657 8.9212 261.207 9.25298 260.875C9.58475 260.544 10.0347 260.358 10.5039 260.358ZM7.36158 267.008C7.3684 266.492 7.57818 266 7.94553 265.638C8.31288 265.275 8.80827 265.072 9.32452 265.072H11.6833C12.1996 265.072 12.695 265.275 13.0623 265.638C13.4297 266 13.6395 266.492 13.6463 267.008C12.7841 267.784 11.6646 268.214 10.5039 268.214C9.34329 268.214 8.2238 267.784 7.36158 267.008Z" fill="black"/>
<rect y="254" width="97" height="19" rx="5" fill="white"/>
<path d="M25.0881 260.455H25.8807V264.788C25.8807 265.236 25.7752 265.635 25.5643 265.987C25.3555 266.336 25.0604 266.612 24.679 266.815C24.2976 267.015 23.8501 267.115 23.3366 267.115C22.8232 267.115 22.3757 267.015 21.9943 266.815C21.6129 266.612 21.3168 266.336 21.1058 265.987C20.897 265.635 20.7926 265.236 20.7926 264.788V260.455H21.5852V264.724C21.5852 265.044 21.6555 265.328 21.7962 265.578C21.9368 265.825 22.1371 266.02 22.397 266.163C22.6591 266.303 22.9723 266.374 23.3366 266.374C23.701 266.374 24.0142 266.303 24.2763 266.163C24.5384 266.02 24.7386 265.825 24.8771 265.578C25.0178 265.328 25.0881 265.044 25.0881 264.724V260.455ZM30.8385 263.19L30.161 263.382C30.1183 263.269 30.0555 263.159 29.9724 263.053C29.8914 262.944 29.7806 262.855 29.64 262.784C29.4994 262.714 29.3193 262.679 29.0999 262.679C28.7994 262.679 28.5491 262.748 28.3488 262.887C28.1507 263.023 28.0516 263.197 28.0516 263.408C28.0516 263.595 28.1198 263.743 28.2561 263.852C28.3925 263.961 28.6056 264.051 28.8953 264.124L29.624 264.303C30.0629 264.409 30.39 264.572 30.6052 264.792C30.8204 265.009 30.928 265.289 30.928 265.632C30.928 265.913 30.847 266.165 30.6851 266.386C30.5253 266.608 30.3016 266.783 30.0139 266.911C29.7263 267.038 29.3918 267.102 29.0104 267.102C28.5097 267.102 28.0953 266.994 27.7671 266.776C27.439 266.559 27.2313 266.241 27.1439 265.824L27.8598 265.645C27.928 265.909 28.0569 266.107 28.2465 266.239C28.4383 266.371 28.6887 266.438 28.9976 266.438C29.3492 266.438 29.6283 266.363 29.835 266.214C30.0438 266.062 30.1482 265.881 30.1482 265.67C30.1482 265.5 30.0885 265.357 29.9692 265.242C29.8499 265.125 29.6666 265.038 29.4195 264.98L28.6013 264.788C28.1517 264.682 27.8215 264.517 27.6105 264.293C27.4017 264.067 27.2973 263.785 27.2973 263.446C27.2973 263.169 27.3751 262.924 27.5306 262.711C27.6883 262.498 27.9024 262.331 28.173 262.209C28.4458 262.088 28.7547 262.027 29.0999 262.027C29.5857 262.027 29.9671 262.134 30.2441 262.347C30.5232 262.56 30.7213 262.841 30.8385 263.19ZM34.1216 267.102C33.6486 267.102 33.2406 266.998 32.8975 266.789C32.5566 266.578 32.2935 266.284 32.1081 265.907C31.9249 265.528 31.8333 265.087 31.8333 264.584C31.8333 264.081 31.9249 263.638 32.1081 263.254C32.2935 262.869 32.5513 262.568 32.8816 262.353C33.214 262.136 33.6017 262.027 34.0449 262.027C34.3006 262.027 34.5531 262.07 34.8024 262.155C35.0517 262.24 35.2786 262.379 35.4831 262.57C35.6877 262.76 35.8507 263.011 35.9721 263.325C36.0936 263.638 36.1543 264.023 36.1543 264.482V264.801H32.3702V264.149H35.3873C35.3873 263.872 35.3319 263.625 35.2211 263.408C35.1124 263.19 34.9569 263.019 34.7544 262.893C34.5542 262.767 34.3176 262.705 34.0449 262.705C33.7445 262.705 33.4846 262.779 33.2651 262.928C33.0478 263.075 32.8805 263.267 32.7633 263.504C32.6461 263.74 32.5875 263.994 32.5875 264.264V264.699C32.5875 265.07 32.6515 265.384 32.7793 265.642C32.9093 265.897 33.0893 266.092 33.3194 266.227C33.5495 266.359 33.8169 266.425 34.1216 266.425C34.3198 266.425 34.4988 266.397 34.6586 266.342C34.8205 266.284 34.96 266.199 35.0772 266.086C35.1944 265.971 35.285 265.828 35.3489 265.658L36.0776 265.862C36.0009 266.109 35.872 266.327 35.6909 266.514C35.5098 266.7 35.286 266.844 35.0197 266.949C34.7534 267.051 34.454 267.102 34.1216 267.102ZM37.3017 267V262.091H38.0304V262.832H38.0815C38.171 262.589 38.3329 262.392 38.5673 262.241C38.8017 262.09 39.0659 262.014 39.3599 262.014C39.4153 262.014 39.4846 262.015 39.5676 262.017C39.6507 262.02 39.7136 262.023 39.7562 262.027V262.794C39.7306 262.788 39.6721 262.778 39.5804 262.765C39.4909 262.75 39.3961 262.743 39.296 262.743C39.0574 262.743 38.8443 262.793 38.6568 262.893C38.4714 262.991 38.3244 263.127 38.2157 263.302C38.1092 263.475 38.0559 263.672 38.0559 263.893V267H37.3017ZM43.1816 267V262.091H43.9358V267H43.1816ZM43.5651 261.273C43.4181 261.273 43.2913 261.223 43.1847 261.123C43.0803 261.022 43.0281 260.902 43.0281 260.761C43.0281 260.621 43.0803 260.5 43.1847 260.4C43.2913 260.3 43.4181 260.25 43.5651 260.25C43.7121 260.25 43.8378 260.3 43.9422 260.4C44.0487 260.5 44.102 260.621 44.102 260.761C44.102 260.902 44.0487 261.022 43.9422 261.123C43.8378 261.223 43.7121 261.273 43.5651 261.273ZM48.7946 263.19L48.117 263.382C48.0744 263.269 48.0115 263.159 47.9284 263.053C47.8475 262.944 47.7367 262.855 47.5961 262.784C47.4554 262.714 47.2754 262.679 47.0559 262.679C46.7555 262.679 46.5051 262.748 46.3049 262.887C46.1067 263.023 46.0076 263.197 46.0076 263.408C46.0076 263.595 46.0758 263.743 46.2122 263.852C46.3485 263.961 46.5616 264.051 46.8514 264.124L47.5801 264.303C48.019 264.409 48.3461 264.572 48.5613 264.792C48.7765 265.009 48.8841 265.289 48.8841 265.632C48.8841 265.913 48.8031 266.165 48.6412 266.386C48.4814 266.608 48.2576 266.783 47.97 266.911C47.6824 267.038 47.3478 267.102 46.9664 267.102C46.4657 267.102 46.0513 266.994 45.7232 266.776C45.3951 266.559 45.1873 266.241 45.1 265.824L45.8159 265.645C45.8841 265.909 46.013 266.107 46.2026 266.239C46.3944 266.371 46.6447 266.438 46.9537 266.438C47.3052 266.438 47.5843 266.363 47.791 266.214C47.9998 266.062 48.1042 265.881 48.1042 265.67C48.1042 265.5 48.0446 265.357 47.9252 265.242C47.8059 265.125 47.6227 265.038 47.3755 264.98L46.5574 264.788C46.1078 264.682 45.7775 264.517 45.5666 264.293C45.3578 264.067 45.2534 263.785 45.2534 263.446C45.2534 263.169 45.3311 262.924 45.4867 262.711C45.6444 262.498 45.8585 262.331 46.1291 262.209C46.4018 262.088 46.7108 262.027 47.0559 262.027C47.5417 262.027 47.9231 262.134 48.2001 262.347C48.4792 262.56 48.6774 262.841 48.7946 263.19ZM54.6856 262.091V262.73H52.1416V262.091H54.6856ZM52.8831 260.915H53.6373V265.594C53.6373 265.807 53.6682 265.967 53.73 266.073C53.7939 266.178 53.8749 266.248 53.9729 266.284C54.0731 266.318 54.1785 266.335 54.2893 266.335C54.3724 266.335 54.4406 266.331 54.4939 266.322C54.5471 266.312 54.5898 266.303 54.6217 266.297L54.7751 266.974C54.724 266.994 54.6526 267.013 54.561 267.032C54.4694 267.053 54.3532 267.064 54.2126 267.064C53.9996 267.064 53.7907 267.018 53.5862 266.926C53.3838 266.835 53.2155 266.695 53.0812 266.508C52.9491 266.32 52.8831 266.084 52.8831 265.798V260.915ZM56.306 268.841C56.1782 268.841 56.0642 268.83 55.964 268.809C55.8639 268.79 55.7947 268.771 55.7563 268.751L55.9481 268.087C56.1313 268.134 56.2932 268.151 56.4339 268.138C56.5745 268.125 56.6991 268.062 56.8078 267.949C56.9186 267.838 57.0198 267.658 57.1114 267.409L57.252 267.026L55.4367 262.091H56.2549L57.61 266.003H57.6611L59.0162 262.091H59.8344L57.7506 267.716C57.6569 267.969 57.5407 268.179 57.4023 268.346C57.2638 268.514 57.1029 268.638 56.9197 268.719C56.7385 268.8 56.534 268.841 56.306 268.841ZM60.83 268.841V262.091H61.5587V262.871H61.6482C61.7036 262.786 61.7803 262.677 61.8783 262.545C61.9784 262.411 62.1212 262.291 62.3066 262.187C62.4941 262.08 62.7476 262.027 63.0672 262.027C63.4806 262.027 63.8449 262.13 64.1602 262.337C64.4756 262.544 64.7217 262.837 64.8985 263.216C65.0754 263.595 65.1638 264.043 65.1638 264.558C65.1638 265.078 65.0754 265.529 64.8985 265.91C64.7217 266.289 64.4767 266.583 64.1634 266.792C63.8502 266.999 63.4891 267.102 63.08 267.102C62.7646 267.102 62.5122 267.05 62.3225 266.946C62.1329 266.839 61.9869 266.719 61.8847 266.585C61.7824 266.448 61.7036 266.335 61.6482 266.246H61.5843V268.841H60.83ZM61.5715 264.545C61.5715 264.916 61.6258 265.243 61.7345 265.527C61.8431 265.808 62.0019 266.028 62.2107 266.188C62.4195 266.346 62.6752 266.425 62.9777 266.425C63.2931 266.425 63.5562 266.342 63.7671 266.175C63.9802 266.007 64.14 265.781 64.2465 265.498C64.3552 265.212 64.4095 264.895 64.4095 264.545C64.4095 264.2 64.3563 263.889 64.2497 263.612C64.1453 263.333 63.9866 263.113 63.7735 262.951C63.5626 262.787 63.2973 262.705 62.9777 262.705C62.6709 262.705 62.4131 262.782 62.2043 262.938C61.9955 263.091 61.8378 263.306 61.7313 263.583C61.6247 263.858 61.5715 264.179 61.5715 264.545ZM66.3144 267V262.091H67.0686V267H66.3144ZM66.6979 261.273C66.5509 261.273 66.4241 261.223 66.3176 261.123C66.2132 261.022 66.161 260.902 66.161 260.761C66.161 260.621 66.2132 260.5 66.3176 260.4C66.4241 260.3 66.5509 260.25 66.6979 260.25C66.8449 260.25 66.9706 260.3 67.075 260.4C67.1816 260.5 67.2348 260.621 67.2348 260.761C67.2348 260.902 67.1816 261.022 67.075 261.123C66.9706 261.223 66.8449 261.273 66.6979 261.273ZM69.2044 264.047V267H68.4501V262.091H69.1788V262.858H69.2427C69.3578 262.609 69.5325 262.408 69.7669 262.257C70.0012 262.104 70.3038 262.027 70.6745 262.027C71.0069 262.027 71.2978 262.095 71.5471 262.232C71.7963 262.366 71.9902 262.57 72.1287 262.845C72.2672 263.118 72.3365 263.463 72.3365 263.881V267H71.5822V263.932C71.5822 263.546 71.4821 263.246 71.2818 263.031C71.0815 262.813 70.8066 262.705 70.4572 262.705C70.2164 262.705 70.0012 262.757 69.8116 262.861C69.6241 262.966 69.476 263.118 69.3674 263.318C69.2587 263.518 69.2044 263.761 69.2044 264.047ZM75.6963 268.943C75.3319 268.943 75.0187 268.896 74.7567 268.803C74.4946 268.711 74.2762 268.589 74.1015 268.438C73.9289 268.289 73.7915 268.129 73.6892 267.959L74.29 267.537C74.3582 267.626 74.4445 267.729 74.5489 267.844C74.6533 267.961 74.7961 268.062 74.9772 268.147C75.1604 268.235 75.4001 268.278 75.6963 268.278C76.0926 268.278 76.4197 268.183 76.6775 267.991C76.9353 267.799 77.0642 267.499 77.0642 267.089V266.092H77.0003C76.9449 266.182 76.866 266.293 76.7638 266.425C76.6636 266.555 76.5187 266.671 76.3291 266.773C76.1416 266.873 75.8881 266.923 75.5684 266.923C75.1721 266.923 74.8163 266.83 74.501 266.642C74.1878 266.455 73.9395 266.182 73.7563 265.824C73.5752 265.466 73.4846 265.031 73.4846 264.52C73.4846 264.017 73.5731 263.579 73.7499 263.206C73.9268 262.831 74.1729 262.542 74.4882 262.337C74.8035 262.13 75.1679 262.027 75.5812 262.027C75.9008 262.027 76.1544 262.08 76.3419 262.187C76.5315 262.291 76.6764 262.411 76.7765 262.545C76.8788 262.677 76.9577 262.786 77.0131 262.871H77.0898V262.091H77.8184V267.141C77.8184 267.562 77.7226 267.906 77.5308 268.17C77.3412 268.436 77.0855 268.631 76.7638 268.755C76.4442 268.88 76.0883 268.943 75.6963 268.943ZM75.6707 266.246C75.9733 266.246 76.229 266.176 76.4378 266.038C76.6466 265.9 76.8053 265.7 76.914 265.44C77.0226 265.18 77.077 264.869 77.077 264.507C77.077 264.153 77.0237 263.841 76.9172 263.571C76.8106 263.3 76.653 263.088 76.4442 262.935C76.2354 262.781 75.9775 262.705 75.6707 262.705C75.3511 262.705 75.0848 262.786 74.8717 262.947C74.6608 263.109 74.502 263.327 74.3955 263.599C74.2911 263.872 74.2389 264.175 74.2389 264.507C74.2389 264.848 74.2922 265.15 74.3987 265.412C74.5074 265.672 74.6672 265.876 74.8781 266.025C75.0912 266.172 75.3554 266.246 75.6707 266.246ZM79.7488 267.051C79.5912 267.051 79.4559 266.995 79.343 266.882C79.23 266.769 79.1736 266.634 79.1736 266.476C79.1736 266.318 79.23 266.183 79.343 266.07C79.4559 265.957 79.5912 265.901 79.7488 265.901C79.9065 265.901 80.0418 265.957 80.1547 266.07C80.2677 266.183 80.3241 266.318 80.3241 266.476C80.3241 266.58 80.2975 266.676 80.2442 266.763C80.1931 266.851 80.1238 266.921 80.0365 266.974C79.9513 267.026 79.8554 267.051 79.7488 267.051ZM82.2274 267.051C82.0697 267.051 81.9344 266.995 81.8215 266.882C81.7085 266.769 81.6521 266.634 81.6521 266.476C81.6521 266.318 81.7085 266.183 81.8215 266.07C81.9344 265.957 82.0697 265.901 82.2274 265.901C82.385 265.901 82.5203 265.957 82.6333 266.07C82.7462 266.183 82.8026 266.318 82.8026 266.476C82.8026 266.58 82.776 266.676 82.7227 266.763C82.6716 266.851 82.6024 266.921 82.515 266.974C82.4298 267.026 82.3339 267.051 82.2274 267.051ZM84.7059 267.051C84.5482 267.051 84.4129 266.995 84.3 266.882C84.1871 266.769 84.1306 266.634 84.1306 266.476C84.1306 266.318 84.1871 266.183 84.3 266.07C84.4129 265.957 84.5482 265.901 84.7059 265.901C84.8635 265.901 84.9988 265.957 85.1118 266.07C85.2247 266.183 85.2812 266.318 85.2812 266.476C85.2812 266.58 85.2545 266.676 85.2013 266.763C85.1501 266.851 85.0809 266.921 84.9935 266.974C84.9083 267.026 84.8124 267.051 84.7059 267.051Z" fill="black"/>
<path d="M14.7298 267.008C15.2944 266.329 15.687 265.525 15.8746 264.662C16.0621 263.8 16.039 262.905 15.8072 262.053C15.5754 261.202 15.1418 260.418 14.5429 259.77C13.944 259.121 13.1976 258.626 12.3667 258.326C11.5359 258.027 10.645 257.931 9.76954 258.049C8.89406 258.166 8.05972 258.492 7.33709 259C6.61447 259.507 6.02481 260.181 5.61801 260.965C5.21121 261.748 4.99923 262.618 5 263.5C5.00033 264.783 5.45283 266.025 6.27809 267.008L6.27023 267.015C6.29775 267.048 6.3292 267.076 6.35751 267.109C6.39289 267.149 6.43102 267.187 6.46759 267.226C6.57714 267.346 6.69115 267.46 6.80962 267.568C6.84631 267.601 6.883 267.632 6.91969 267.663C7.0455 267.772 7.17523 267.874 7.3089 267.97C7.3262 267.982 7.34193 267.998 7.35922 268.01V268.005C8.27997 268.653 9.37841 269 10.5043 269C11.6302 269 12.7287 268.653 13.6494 268.005V268.01C13.6667 267.998 13.6821 267.982 13.6998 267.97C13.8334 267.874 13.9632 267.772 14.089 267.663C14.1257 267.632 14.1623 267.6 14.199 267.568C14.3172 267.46 14.4313 267.346 14.5411 267.226C14.5776 267.187 14.6154 267.149 14.6511 267.109C14.6791 267.076 14.7109 267.048 14.7384 267.014L14.7298 267.008ZM10.5039 260.358C10.8538 260.358 11.1959 260.461 11.4868 260.656C11.7777 260.85 12.0045 261.126 12.1384 261.449C12.2723 261.772 12.3073 262.127 12.2391 262.47C12.1708 262.813 12.0023 263.128 11.7549 263.375C11.5075 263.623 11.1922 263.791 10.8491 263.859C10.5059 263.927 10.1502 263.892 9.82692 263.759C9.50366 263.625 9.22736 263.398 9.03296 263.107C8.83857 262.817 8.73481 262.475 8.73481 262.125C8.73481 261.657 8.9212 261.207 9.25298 260.875C9.58475 260.544 10.0347 260.358 10.5039 260.358ZM7.36158 267.008C7.3684 266.492 7.57818 266 7.94553 265.638C8.31288 265.275 8.80827 265.072 9.32452 265.072H11.6833C12.1996 265.072 12.695 265.275 13.0623 265.638C13.4297 266 13.6395 266.492 13.6463 267.008C12.7841 267.784 11.6646 268.214 10.5039 268.214C9.34329 268.214 8.2238 267.784 7.36158 267.008Z" fill="#D9D9D9"/>
<path d="M235.921 147.74C236.845 146.63 237.488 145.313 237.795 143.902C238.102 142.491 238.064 141.026 237.685 139.633C237.305 138.239 236.596 136.957 235.616 135.896C234.636 134.834 233.414 134.024 232.055 133.534C230.695 133.044 229.237 132.888 227.805 133.08C226.372 133.271 225.007 133.805 223.824 134.636C222.642 135.466 221.677 136.569 221.011 137.851C220.346 139.133 219.999 140.556 220 142C220.001 144.1 220.741 146.132 222.091 147.74L222.079 147.751C222.124 147.805 222.175 147.852 222.221 147.905C222.279 147.971 222.342 148.034 222.402 148.098C222.581 148.294 222.767 148.48 222.961 148.657C223.021 148.71 223.081 148.762 223.141 148.813C223.347 148.99 223.559 149.158 223.778 149.315C223.807 149.335 223.832 149.36 223.861 149.38V149.372C225.367 150.431 227.165 151 229.007 151C230.849 151 232.647 150.431 234.154 149.372V149.38C234.182 149.36 234.207 149.335 234.236 149.315C234.455 149.158 234.667 148.99 234.873 148.813C234.933 148.762 234.993 148.71 235.053 148.657C235.246 148.48 235.433 148.294 235.613 148.098C235.672 148.034 235.734 147.971 235.793 147.905C235.838 147.852 235.891 147.805 235.936 147.751L235.921 147.74ZM229.006 136.858C229.579 136.858 230.139 137.028 230.615 137.346C231.091 137.663 231.462 138.115 231.681 138.644C231.9 139.172 231.957 139.754 231.846 140.315C231.734 140.876 231.458 141.391 231.053 141.796C230.649 142.201 230.133 142.476 229.571 142.588C229.01 142.699 228.428 142.642 227.899 142.423C227.37 142.204 226.917 141.833 226.599 141.358C226.281 140.882 226.112 140.323 226.112 139.751C226.112 138.984 226.417 138.248 226.959 137.705C227.502 137.163 228.239 136.858 229.006 136.858ZM223.864 147.74C223.876 146.896 224.219 146.091 224.82 145.498C225.421 144.905 226.232 144.572 227.076 144.572H230.936C231.781 144.572 232.592 144.905 233.193 145.498C233.794 146.091 234.137 146.896 234.148 147.74C232.738 149.011 230.906 149.714 229.006 149.714C227.107 149.714 225.275 149.011 223.864 147.74Z" fill="#D9D9D9"/>
<rect x="220" y="218" width="18" height="10" rx="5" fill="#D9D9D9"/>
<path d="M232.605 225.05C232.371 225.05 232.162 225.009 231.978 224.929C231.796 224.848 231.651 224.737 231.543 224.593C231.437 224.449 231.379 224.281 231.369 224.091H231.817C231.826 224.208 231.866 224.309 231.938 224.395C232.009 224.479 232.101 224.544 232.216 224.59C232.331 224.636 232.458 224.659 232.598 224.659C232.754 224.659 232.893 224.632 233.013 224.577C233.134 224.523 233.229 224.447 233.298 224.35C233.366 224.253 233.401 224.141 233.401 224.013C233.401 223.879 233.367 223.761 233.301 223.659C233.235 223.556 233.138 223.476 233.01 223.418C232.882 223.36 232.726 223.331 232.541 223.331H232.25V222.94H232.541C232.686 222.94 232.812 222.914 232.921 222.862C233.031 222.81 233.117 222.737 233.179 222.642C233.241 222.547 233.273 222.436 233.273 222.308C233.273 222.185 233.246 222.078 233.191 221.987C233.137 221.896 233.06 221.825 232.96 221.774C232.862 221.723 232.746 221.697 232.612 221.697C232.487 221.697 232.368 221.721 232.257 221.767C232.147 221.812 232.057 221.877 231.987 221.964C231.917 222.049 231.879 222.152 231.874 222.273H231.447C231.455 222.082 231.512 221.915 231.62 221.772C231.727 221.628 231.868 221.515 232.042 221.435C232.217 221.354 232.41 221.314 232.619 221.314C232.844 221.314 233.037 221.359 233.198 221.451C233.359 221.541 233.483 221.66 233.569 221.808C233.656 221.955 233.699 222.115 233.699 222.287C233.699 222.492 233.645 222.666 233.537 222.811C233.431 222.955 233.286 223.055 233.102 223.111V223.139C233.332 223.177 233.511 223.275 233.64 223.432C233.769 223.588 233.834 223.782 233.834 224.013C233.834 224.21 233.78 224.388 233.672 224.545C233.566 224.702 233.42 224.825 233.235 224.915C233.051 225.005 232.841 225.05 232.605 225.05Z" fill="black"/>
<path d="M223.583 225.542H223.875V221.75H223.583C223.429 221.75 223.28 221.811 223.171 221.921C223.061 222.03 223 222.179 223 222.333V224.958C223 225.113 223.061 225.261 223.171 225.371C223.28 225.48 223.429 225.542 223.583 225.542ZM228.25 221.75H226.208L226.536 220.768C226.565 220.68 226.573 220.587 226.559 220.495C226.545 220.404 226.509 220.317 226.455 220.242C226.401 220.167 226.33 220.106 226.248 220.064C226.166 220.022 226.075 220 225.982 220H225.917L224.458 221.586V225.542H227.667L228.808 223.035L228.833 222.917V222.333C228.833 222.179 228.772 222.03 228.662 221.921C228.553 221.811 228.405 221.75 228.25 221.75Z" fill="black"/>
<rect x="248" y="139" width="79" height="6" fill="#D9D9D9"/>
<rect x="220" y="161" width="169" height="5" fill="#D9D9D9"/>
<rect x="220" y="170" width="123" height="5" fill="#D9D9D9"/>
<rect x="220" y="179" width="98" height="5" fill="#D9D9D9"/>
<rect x="220" y="188" width="75" height="5" fill="#D9D9D9"/>
<rect x="208" y="123" width="198" height="114" rx="11" fill="white"/>
<rect x="208.5" y="123.5" width="197" height="113" rx="10.5" stroke="black" stroke-opacity="0.13"/>
<path d="M235.921 147.74C236.845 146.63 237.488 145.313 237.795 143.902C238.102 142.491 238.064 141.026 237.685 139.633C237.305 138.239 236.596 136.957 235.616 135.896C234.636 134.834 233.414 134.024 232.055 133.534C230.695 133.044 229.237 132.888 227.805 133.08C226.372 133.271 225.007 133.805 223.824 134.636C222.642 135.466 221.677 136.569 221.011 137.851C220.346 139.133 219.999 140.556 220 142C220.001 144.1 220.741 146.132 222.091 147.74L222.079 147.751C222.124 147.805 222.175 147.852 222.221 147.905C222.279 147.971 222.342 148.034 222.402 148.098C222.581 148.294 222.767 148.48 222.961 148.657C223.021 148.71 223.081 148.762 223.141 148.813C223.347 148.99 223.559 149.158 223.778 149.315C223.807 149.335 223.832 149.36 223.861 149.38V149.372C225.367 150.431 227.165 151 229.007 151C230.849 151 232.647 150.431 234.154 149.372V149.38C234.182 149.36 234.207 149.335 234.236 149.315C234.455 149.158 234.667 148.99 234.873 148.813C234.933 148.762 234.993 148.71 235.053 148.657C235.246 148.48 235.433 148.294 235.613 148.098C235.672 148.034 235.734 147.971 235.793 147.905C235.838 147.852 235.891 147.805 235.936 147.751L235.921 147.74ZM229.006 136.858C229.579 136.858 230.139 137.028 230.615 137.346C231.091 137.663 231.462 138.115 231.681 138.644C231.9 139.172 231.957 139.754 231.846 140.315C231.734 140.876 231.458 141.391 231.053 141.796C230.649 142.201 230.133 142.476 229.571 142.588C229.01 142.699 228.428 142.642 227.899 142.423C227.37 142.204 226.917 141.833 226.599 141.358C226.281 140.882 226.112 140.323 226.112 139.751C226.112 138.984 226.417 138.248 226.959 137.705C227.502 137.163 228.239 136.858 229.006 136.858ZM223.864 147.74C223.876 146.896 224.219 146.091 224.82 145.498C225.421 144.905 226.232 144.572 227.076 144.572H230.936C231.781 144.572 232.592 144.905 233.193 145.498C233.794 146.091 234.137 146.896 234.148 147.74C232.738 149.011 230.906 149.714 229.006 149.714C227.107 149.714 225.275 149.011 223.864 147.74Z" fill="#D9D9D9"/>
<rect x="220" y="218" width="18" height="10" rx="5" fill="#D9D9D9"/>
<path d="M232.605 225.05C232.371 225.05 232.162 225.009 231.978 224.929C231.796 224.848 231.651 224.737 231.543 224.593C231.437 224.449 231.379 224.281 231.369 224.091H231.817C231.826 224.208 231.866 224.309 231.938 224.395C232.009 224.479 232.101 224.544 232.216 224.59C232.331 224.636 232.458 224.659 232.598 224.659C232.754 224.659 232.893 224.632 233.013 224.577C233.134 224.523 233.229 224.447 233.298 224.35C233.366 224.253 233.401 224.141 233.401 224.013C233.401 223.879 233.367 223.761 233.301 223.659C233.235 223.556 233.138 223.476 233.01 223.418C232.882 223.36 232.726 223.331 232.541 223.331H232.25V222.94H232.541C232.686 222.94 232.812 222.914 232.921 222.862C233.031 222.81 233.117 222.737 233.179 222.642C233.241 222.547 233.273 222.436 233.273 222.308C233.273 222.185 233.246 222.078 233.191 221.987C233.137 221.896 233.06 221.825 232.96 221.774C232.862 221.723 232.746 221.697 232.612 221.697C232.487 221.697 232.368 221.721 232.257 221.767C232.147 221.812 232.057 221.877 231.987 221.964C231.917 222.049 231.879 222.152 231.874 222.273H231.447C231.455 222.082 231.512 221.915 231.62 221.772C231.727 221.628 231.868 221.515 232.042 221.435C232.217 221.354 232.41 221.314 232.619 221.314C232.844 221.314 233.037 221.359 233.198 221.451C233.359 221.541 233.483 221.66 233.569 221.808C233.656 221.955 233.699 222.115 233.699 222.287C233.699 222.492 233.645 222.666 233.537 222.811C233.431 222.955 233.286 223.055 233.102 223.111V223.139C233.332 223.177 233.511 223.275 233.64 223.432C233.769 223.588 233.834 223.782 233.834 224.013C233.834 224.21 233.78 224.388 233.672 224.545C233.566 224.702 233.42 224.825 233.235 224.915C233.051 225.005 232.841 225.05 232.605 225.05Z" fill="black"/>
<path d="M223.583 225.542H223.875V221.75H223.583C223.429 221.75 223.28 221.811 223.171 221.921C223.061 222.03 223 222.179 223 222.333V224.958C223 225.113 223.061 225.261 223.171 225.371C223.28 225.48 223.429 225.542 223.583 225.542ZM228.25 221.75H226.208L226.536 220.768C226.565 220.68 226.573 220.587 226.559 220.495C226.545 220.404 226.509 220.317 226.455 220.242C226.401 220.167 226.33 220.106 226.248 220.064C226.166 220.022 226.075 220 225.982 220H225.917L224.458 221.586V225.542H227.667L228.808 223.035L228.833 222.917V222.333C228.833 222.179 228.772 222.03 228.662 221.921C228.553 221.811 228.405 221.75 228.25 221.75Z" fill="black"/>
<path d="M392.501 229.625C391.931 229.625 391.395 229.517 390.893 229.3C390.391 229.084 389.954 228.79 389.582 228.419C389.211 228.047 388.917 227.611 388.7 227.11C388.483 226.608 388.375 226.072 388.375 225.501C388.375 224.931 388.483 224.394 388.7 223.893C388.917 223.391 389.211 222.954 389.582 222.582C389.953 222.211 390.39 221.917 390.891 221.7C391.393 221.483 391.929 221.375 392.5 221.375C392.805 221.375 393.101 221.406 393.389 221.468C393.677 221.53 393.951 221.622 394.21 221.744V222.255C393.954 222.12 393.683 222.016 393.397 221.942C393.11 221.87 392.811 221.833 392.5 221.833C391.484 221.833 390.619 222.191 389.904 222.905C389.19 223.619 388.833 224.484 388.833 225.5C388.834 226.516 389.191 227.381 389.905 228.096C390.619 228.81 391.484 229.167 392.5 229.167C393.516 229.166 394.381 228.809 395.096 228.096C395.81 227.382 396.167 226.517 396.167 225.5C396.167 225.279 396.148 225.064 396.11 224.856C396.072 224.647 396.017 224.444 395.945 224.248H396.437C396.499 224.446 396.546 224.648 396.578 224.855C396.609 225.061 396.625 225.276 396.625 225.5C396.625 226.071 396.517 226.607 396.3 227.109C396.084 227.61 395.79 228.047 395.419 228.419C395.048 228.79 394.611 229.084 394.11 229.3C393.608 229.516 393.072 229.624 392.501 229.625ZM396.396 222.979V222.062H395.479V221.604H396.396V220.688H396.854V221.604H397.771V222.062H396.854V222.979H396.396ZM394.018 224.866C394.161 224.866 394.281 224.816 394.38 224.716C394.478 224.616 394.527 224.495 394.527 224.352C394.527 224.21 394.477 224.089 394.378 223.99C394.278 223.892 394.157 223.843 394.014 223.843C393.871 223.843 393.751 223.893 393.652 223.993C393.554 224.092 393.505 224.213 393.505 224.356C393.505 224.499 393.555 224.619 393.655 224.718C393.754 224.816 393.875 224.866 394.018 224.866ZM390.986 224.866C391.129 224.866 391.249 224.816 391.347 224.716C391.446 224.616 391.495 224.495 391.495 224.352C391.495 224.21 391.445 224.089 391.345 223.99C391.246 223.892 391.124 223.843 390.982 223.843C390.839 223.843 390.719 223.893 390.62 223.993C390.522 224.092 390.473 224.214 390.473 224.356C390.473 224.499 390.523 224.619 390.622 224.718C390.722 224.816 390.843 224.866 390.986 224.866ZM392.5 227.739C392.946 227.739 393.351 227.618 393.715 227.377C394.078 227.135 394.353 226.815 394.538 226.417H390.462C390.647 226.816 390.921 227.136 391.285 227.377C391.649 227.618 392.054 227.738 392.5 227.739Z" fill="black"/>
<rect x="248" y="139" width="79" height="6" fill="#D9D9D9"/>
<rect x="220" y="166" width="169" height="5" fill="#D9D9D9"/>
<rect x="220" y="175" width="123" height="5" fill="#D9D9D9"/>
<rect x="220" y="184" width="98" height="5" fill="#D9D9D9"/>
<rect x="220" y="193" width="75" height="5" fill="#D9D9D9"/>
<path d="M27.9214 148.74C28.8453 147.63 29.4879 146.313 29.7948 144.902C30.1017 143.491 30.0639 142.026 29.6846 140.633C29.3053 139.239 28.5956 137.957 27.6156 136.896C26.6357 135.834 25.4142 135.024 24.0546 134.534C22.695 134.044 21.2373 133.888 19.8047 134.08C18.3721 134.271 17.0068 134.805 15.8243 135.636C14.6419 136.466 13.677 137.569 13.0113 138.851C12.3456 140.133 11.9987 141.556 12 143C12.0005 145.1 12.741 147.132 14.0914 148.74L14.0786 148.751C14.1236 148.805 14.1751 148.852 14.2214 148.905C14.2793 148.971 14.3417 149.034 14.4015 149.098C14.5808 149.294 14.7673 149.48 14.9612 149.657C15.0212 149.71 15.0813 149.762 15.1413 149.813C15.3472 149.99 15.5595 150.158 15.7782 150.315C15.8065 150.335 15.8322 150.36 15.8605 150.38V150.372C17.3672 151.431 19.1647 152 21.0071 152C22.8495 152 24.6469 151.431 26.1536 150.372V150.38C26.1819 150.36 26.207 150.335 26.236 150.315C26.4547 150.158 26.667 149.99 26.8728 149.813C26.9329 149.762 26.9929 149.71 27.053 149.657C27.2464 149.48 27.433 149.294 27.6127 149.098C27.6725 149.034 27.7342 148.971 27.7928 148.905C27.8385 148.852 27.8906 148.805 27.9356 148.751L27.9214 148.74ZM21.0064 137.858C21.579 137.858 22.1387 138.028 22.6148 138.346C23.0908 138.663 23.4619 139.115 23.681 139.644C23.9001 140.172 23.9574 140.754 23.8457 141.315C23.734 141.876 23.4583 142.391 23.0535 142.796C22.6486 143.201 22.1328 143.476 21.5712 143.588C21.0096 143.699 20.4276 143.642 19.8986 143.423C19.3696 143.204 18.9175 142.833 18.5994 142.358C18.2813 141.882 18.1115 141.323 18.1115 140.751C18.1115 139.984 18.4165 139.248 18.9594 138.705C19.5023 138.163 20.2387 137.858 21.0064 137.858ZM15.8644 148.74C15.8756 147.896 16.2188 147.091 16.82 146.498C17.4211 145.905 18.2317 145.572 19.0765 145.572H22.9364C23.7812 145.572 24.5918 145.905 25.1929 146.498C25.794 147.091 26.1373 147.896 26.1485 148.74C24.7376 150.011 22.9057 150.714 21.0064 150.714C19.1072 150.714 17.2753 150.011 15.8644 148.74Z" fill="#D9D9D9"/>
<rect x="12" y="219" width="18" height="10" rx="5" fill="#D9D9D9"/>
<path d="M24.6051 226.05C24.3707 226.05 24.1618 226.009 23.9783 225.929C23.796 225.848 23.651 225.737 23.5433 225.593C23.4368 225.449 23.3788 225.281 23.3693 225.091H23.8168C23.8262 225.208 23.8665 225.309 23.9375 225.395C24.0085 225.479 24.1014 225.544 24.2163 225.59C24.3311 225.636 24.4583 225.659 24.598 225.659C24.7543 225.659 24.8928 225.632 25.0135 225.577C25.1342 225.523 25.2289 225.447 25.2976 225.35C25.3662 225.253 25.4006 225.141 25.4006 225.013C25.4006 224.879 25.3674 224.761 25.3011 224.659C25.2348 224.556 25.1378 224.476 25.0099 224.418C24.8821 224.36 24.7259 224.331 24.5412 224.331H24.25V223.94H24.5412C24.6856 223.94 24.8123 223.914 24.9212 223.862C25.0313 223.81 25.1171 223.737 25.1786 223.642C25.2414 223.547 25.2727 223.436 25.2727 223.308C25.2727 223.185 25.2455 223.078 25.1911 222.987C25.1366 222.896 25.0597 222.825 24.9602 222.774C24.862 222.723 24.746 222.697 24.6122 222.697C24.4867 222.697 24.3684 222.721 24.2571 222.767C24.147 222.812 24.0571 222.877 23.9872 222.964C23.9174 223.049 23.8795 223.152 23.8736 223.273H23.4474C23.4545 223.082 23.512 222.915 23.6197 222.772C23.7274 222.628 23.8683 222.515 24.0423 222.435C24.2174 222.354 24.4098 222.314 24.6193 222.314C24.8442 222.314 25.0372 222.359 25.1982 222.451C25.3591 222.541 25.4828 222.66 25.5692 222.808C25.6557 222.955 25.6989 223.115 25.6989 223.287C25.6989 223.492 25.645 223.666 25.5373 223.811C25.4308 223.955 25.2857 224.055 25.1023 224.111V224.139C25.3319 224.177 25.5112 224.275 25.6403 224.432C25.7693 224.588 25.8338 224.782 25.8338 225.013C25.8338 225.21 25.7799 225.388 25.6722 225.545C25.5657 225.702 25.4201 225.825 25.2354 225.915C25.0508 226.005 24.8407 226.05 24.6051 226.05Z" fill="black"/>
<path d="M15.5833 226.542H15.875V222.75H15.5833C15.4286 222.75 15.2803 222.811 15.1709 222.921C15.0615 223.03 15 223.179 15 223.333V225.958C15 226.113 15.0615 226.261 15.1709 226.371C15.2803 226.48 15.4286 226.542 15.5833 226.542ZM20.25 222.75H18.2083L18.5356 221.768C18.5648 221.68 18.5727 221.587 18.5588 221.495C18.5448 221.404 18.5094 221.317 18.4554 221.242C18.4013 221.167 18.3303 221.106 18.248 221.064C18.1658 221.022 18.0747 221 17.9823 221H17.9167L16.4583 222.586V226.542H19.6667L20.8077 224.035L20.8333 223.917V223.333C20.8333 223.179 20.7719 223.03 20.6625 222.921C20.5531 222.811 20.4047 222.75 20.25 222.75Z" fill="black"/>
<path d="M185.501 228.625C184.931 228.625 184.395 228.517 183.893 228.3C183.391 228.084 182.954 227.79 182.582 227.419C182.211 227.047 181.917 226.611 181.7 226.11C181.483 225.608 181.375 225.072 181.375 224.501C181.375 223.931 181.483 223.394 181.7 222.893C181.917 222.391 182.211 221.954 182.582 221.582C182.953 221.211 183.39 220.917 183.891 220.7C184.393 220.483 184.929 220.375 185.5 220.375C185.805 220.375 186.101 220.406 186.389 220.468C186.677 220.53 186.951 220.622 187.21 220.744V221.255C186.954 221.12 186.683 221.016 186.397 220.942C186.11 220.87 185.811 220.833 185.5 220.833C184.484 220.833 183.619 221.191 182.904 221.905C182.19 222.619 181.833 223.484 181.833 224.5C181.834 225.516 182.191 226.381 182.905 227.096C183.619 227.81 184.484 228.167 185.5 228.167C186.516 228.166 187.381 227.809 188.096 227.096C188.81 226.382 189.167 225.517 189.167 224.5C189.167 224.279 189.148 224.064 189.11 223.856C189.072 223.647 189.017 223.444 188.945 223.248H189.437C189.499 223.446 189.546 223.648 189.578 223.855C189.609 224.061 189.625 224.276 189.625 224.5C189.625 225.071 189.517 225.607 189.3 226.109C189.084 226.61 188.79 227.047 188.419 227.419C188.048 227.79 187.611 228.084 187.11 228.3C186.608 228.516 186.072 228.624 185.501 228.625ZM189.396 221.979V221.062H188.479V220.604H189.396V219.688H189.854V220.604H190.771V221.062H189.854V221.979H189.396ZM187.018 223.866C187.161 223.866 187.281 223.816 187.38 223.716C187.478 223.616 187.527 223.495 187.527 223.352C187.527 223.21 187.477 223.089 187.378 222.99C187.278 222.892 187.157 222.843 187.014 222.843C186.871 222.843 186.751 222.893 186.652 222.993C186.554 223.092 186.505 223.213 186.505 223.356C186.505 223.499 186.555 223.619 186.655 223.718C186.754 223.816 186.875 223.866 187.018 223.866ZM183.986 223.866C184.129 223.866 184.249 223.816 184.347 223.716C184.446 223.616 184.495 223.495 184.495 223.352C184.495 223.21 184.445 223.089 184.345 222.99C184.246 222.892 184.124 222.843 183.982 222.843C183.839 222.843 183.719 222.893 183.62 222.993C183.522 223.092 183.473 223.214 183.473 223.356C183.473 223.499 183.523 223.619 183.622 223.718C183.722 223.816 183.843 223.866 183.986 223.866ZM185.5 226.739C185.946 226.739 186.351 226.618 186.715 226.377C187.078 226.135 187.353 225.815 187.538 225.417H183.462C183.647 225.816 183.921 226.136 184.285 226.377C184.649 226.618 185.054 226.738 185.5 226.739Z" fill="black"/>
<rect x="40" y="140" width="79" height="6" fill="#D9D9D9"/>
<rect x="12" y="162" width="169" height="5" fill="#D9D9D9"/>
<rect x="12" y="171" width="123" height="5" fill="#D9D9D9"/>
<rect x="12" y="180" width="98" height="5" fill="#D9D9D9"/>
<rect x="12" y="189" width="75" height="5" fill="#D9D9D9"/>
<rect y="124" width="198" height="114" rx="11" fill="white"/>
<rect x="0.5" y="124.5" width="197" height="113" rx="10.5" stroke="black" stroke-opacity="0.13"/>
<path d="M27.9214 148.74C28.8453 147.63 29.4879 146.313 29.7948 144.902C30.1017 143.491 30.0639 142.026 29.6846 140.633C29.3053 139.239 28.5956 137.957 27.6156 136.896C26.6357 135.834 25.4142 135.024 24.0546 134.534C22.695 134.044 21.2373 133.888 19.8047 134.08C18.3721 134.271 17.0068 134.805 15.8243 135.636C14.6419 136.466 13.677 137.569 13.0113 138.851C12.3456 140.133 11.9987 141.556 12 143C12.0005 145.1 12.741 147.132 14.0914 148.74L14.0786 148.751C14.1236 148.805 14.1751 148.852 14.2214 148.905C14.2793 148.971 14.3417 149.034 14.4015 149.098C14.5808 149.294 14.7673 149.48 14.9612 149.657C15.0212 149.71 15.0813 149.762 15.1413 149.813C15.3472 149.99 15.5595 150.158 15.7782 150.315C15.8065 150.335 15.8322 150.36 15.8605 150.38V150.372C17.3672 151.431 19.1647 152 21.0071 152C22.8495 152 24.6469 151.431 26.1536 150.372V150.38C26.1819 150.36 26.207 150.335 26.236 150.315C26.4547 150.158 26.667 149.99 26.8728 149.813C26.9329 149.762 26.9929 149.71 27.053 149.657C27.2464 149.48 27.433 149.294 27.6127 149.098C27.6725 149.034 27.7342 148.971 27.7928 148.905C27.8385 148.852 27.8906 148.805 27.9356 148.751L27.9214 148.74ZM21.0064 137.858C21.579 137.858 22.1387 138.028 22.6148 138.346C23.0908 138.663 23.4619 139.115 23.681 139.644C23.9001 140.172 23.9574 140.754 23.8457 141.315C23.734 141.876 23.4583 142.391 23.0535 142.796C22.6486 143.201 22.1328 143.476 21.5712 143.588C21.0096 143.699 20.4276 143.642 19.8986 143.423C19.3696 143.204 18.9175 142.833 18.5994 142.358C18.2813 141.882 18.1115 141.323 18.1115 140.751C18.1115 139.984 18.4165 139.248 18.9594 138.705C19.5023 138.163 20.2387 137.858 21.0064 137.858ZM15.8644 148.74C15.8756 147.896 16.2188 147.091 16.82 146.498C17.4211 145.905 18.2317 145.572 19.0765 145.572H22.9364C23.7812 145.572 24.5918 145.905 25.1929 146.498C25.794 147.091 26.1373 147.896 26.1485 148.74C24.7376 150.011 22.9057 150.714 21.0064 150.714C19.1072 150.714 17.2753 150.011 15.8644 148.74Z" fill="#D9D9D9"/>
<rect x="12" y="219" width="18" height="10" rx="5" fill="#D9D9D9"/>
<path d="M24.6051 226.05C24.3707 226.05 24.1618 226.009 23.9783 225.929C23.796 225.848 23.651 225.737 23.5433 225.593C23.4368 225.449 23.3788 225.281 23.3693 225.091H23.8168C23.8262 225.208 23.8665 225.309 23.9375 225.395C24.0085 225.479 24.1014 225.544 24.2163 225.59C24.3311 225.636 24.4583 225.659 24.598 225.659C24.7543 225.659 24.8928 225.632 25.0135 225.577C25.1342 225.523 25.2289 225.447 25.2976 225.35C25.3662 225.253 25.4006 225.141 25.4006 225.013C25.4006 224.879 25.3674 224.761 25.3011 224.659C25.2348 224.556 25.1378 224.476 25.0099 224.418C24.8821 224.36 24.7259 224.331 24.5412 224.331H24.25V223.94H24.5412C24.6856 223.94 24.8123 223.914 24.9212 223.862C25.0313 223.81 25.1171 223.737 25.1786 223.642C25.2414 223.547 25.2727 223.436 25.2727 223.308C25.2727 223.185 25.2455 223.078 25.1911 222.987C25.1366 222.896 25.0597 222.825 24.9602 222.774C24.862 222.723 24.746 222.697 24.6122 222.697C24.4867 222.697 24.3684 222.721 24.2571 222.767C24.147 222.812 24.0571 222.877 23.9872 222.964C23.9174 223.049 23.8795 223.152 23.8736 223.273H23.4474C23.4545 223.082 23.512 222.915 23.6197 222.772C23.7274 222.628 23.8683 222.515 24.0423 222.435C24.2174 222.354 24.4098 222.314 24.6193 222.314C24.8442 222.314 25.0372 222.359 25.1982 222.451C25.3591 222.541 25.4828 222.66 25.5692 222.808C25.6557 222.955 25.6989 223.115 25.6989 223.287C25.6989 223.492 25.645 223.666 25.5373 223.811C25.4308 223.955 25.2857 224.055 25.1023 224.111V224.139C25.3319 224.177 25.5112 224.275 25.6403 224.432C25.7693 224.588 25.8338 224.782 25.8338 225.013C25.8338 225.21 25.7799 225.388 25.6722 225.545C25.5657 225.702 25.4201 225.825 25.2354 225.915C25.0508 226.005 24.8407 226.05 24.6051 226.05Z" fill="black"/>
<path d="M15.5833 226.542H15.875V222.75H15.5833C15.4286 222.75 15.2803 222.811 15.1709 222.921C15.0615 223.03 15 223.179 15 223.333V225.958C15 226.113 15.0615 226.261 15.1709 226.371C15.2803 226.48 15.4286 226.542 15.5833 226.542ZM20.25 222.75H18.2083L18.5356 221.768C18.5648 221.68 18.5727 221.587 18.5588 221.495C18.5448 221.404 18.5094 221.317 18.4554 221.242C18.4013 221.167 18.3303 221.106 18.248 221.064C18.1658 221.022 18.0747 221 17.9823 221H17.9167L16.4583 222.586V226.542H19.6667L20.8077 224.035L20.8333 223.917V223.333C20.8333 223.179 20.7719 223.03 20.6625 222.921C20.5531 222.811 20.4047 222.75 20.25 222.75Z" fill="black"/>
<path d="M185.501 228.625C184.931 228.625 184.395 228.517 183.893 228.3C183.391 228.084 182.954 227.79 182.582 227.419C182.211 227.047 181.917 226.611 181.7 226.11C181.483 225.608 181.375 225.072 181.375 224.501C181.375 223.931 181.483 223.394 181.7 222.893C181.917 222.391 182.211 221.954 182.582 221.582C182.953 221.211 183.39 220.917 183.891 220.7C184.393 220.483 184.929 220.375 185.5 220.375C185.805 220.375 186.101 220.406 186.389 220.468C186.677 220.53 186.951 220.622 187.21 220.744V221.255C186.954 221.12 186.683 221.016 186.397 220.942C186.11 220.87 185.811 220.833 185.5 220.833C184.484 220.833 183.619 221.191 182.904 221.905C182.19 222.619 181.833 223.484 181.833 224.5C181.834 225.516 182.191 226.381 182.905 227.096C183.619 227.81 184.484 228.167 185.5 228.167C186.516 228.166 187.381 227.809 188.096 227.096C188.81 226.382 189.167 225.517 189.167 224.5C189.167 224.279 189.148 224.064 189.11 223.856C189.072 223.647 189.017 223.444 188.945 223.248H189.437C189.499 223.446 189.546 223.648 189.578 223.855C189.609 224.061 189.625 224.276 189.625 224.5C189.625 225.071 189.517 225.607 189.3 226.109C189.084 226.61 188.79 227.047 188.419 227.419C188.048 227.79 187.611 228.084 187.11 228.3C186.608 228.516 186.072 228.624 185.501 228.625ZM189.396 221.979V221.062H188.479V220.604H189.396V219.688H189.854V220.604H190.771V221.062H189.854V221.979H189.396ZM187.018 223.866C187.161 223.866 187.281 223.816 187.38 223.716C187.478 223.616 187.527 223.495 187.527 223.352C187.527 223.21 187.477 223.089 187.378 222.99C187.278 222.892 187.157 222.843 187.014 222.843C186.871 222.843 186.751 222.893 186.652 222.993C186.554 223.092 186.505 223.213 186.505 223.356C186.505 223.499 186.555 223.619 186.655 223.718C186.754 223.816 186.875 223.866 187.018 223.866ZM183.986 223.866C184.129 223.866 184.249 223.816 184.347 223.716C184.446 223.616 184.495 223.495 184.495 223.352C184.495 223.21 184.445 223.089 184.345 222.99C184.246 222.892 184.124 222.843 183.982 222.843C183.839 222.843 183.719 222.893 183.62 222.993C183.522 223.092 183.473 223.214 183.473 223.356C183.473 223.499 183.523 223.619 183.622 223.718C183.722 223.816 183.843 223.866 183.986 223.866ZM185.5 226.739C185.946 226.739 186.351 226.618 186.715 226.377C187.078 226.135 187.353 225.815 187.538 225.417H183.462C183.647 225.816 183.921 226.136 184.285 226.377C184.649 226.618 185.054 226.738 185.5 226.739Z" fill="black"/>
<rect x="40" y="140" width="79" height="6" fill="#D9D9D9"/>
<rect x="12" y="167" width="169" height="5" fill="#D9D9D9"/>
<rect x="12" y="176" width="123" height="5" fill="#D9D9D9"/>
<rect x="12" y="185" width="98" height="5" fill="#D9D9D9"/>
<rect x="12" y="194" width="75" height="5" fill="#D9D9D9"/>
<path d="M234.921 24.7405C235.845 23.6298 236.488 22.3132 236.795 20.9019C237.102 19.4906 237.064 18.0263 236.685 16.6327C236.305 15.2391 235.596 13.9573 234.616 12.8957C233.636 11.8341 232.414 11.024 231.055 10.5338C229.695 10.0436 228.237 9.88786 226.805 10.0797C225.372 10.2715 224.007 10.8052 222.824 11.6357C221.642 12.4663 220.677 13.5691 220.011 14.851C219.346 16.133 218.999 17.5562 219 19.0004C219.001 21.0999 219.741 23.1321 221.091 24.7405L221.079 24.7514C221.124 24.8054 221.175 24.8517 221.221 24.905C221.279 24.9712 221.342 25.0336 221.402 25.0979C221.581 25.2937 221.767 25.4801 221.961 25.6571C222.021 25.7102 222.081 25.7621 222.141 25.8126C222.347 25.9905 222.559 26.158 222.778 26.3153C222.807 26.3346 222.832 26.3597 222.861 26.3796V26.3719C224.367 27.4314 226.165 28 228.007 28C229.849 28 231.647 27.4314 233.154 26.3719V26.3796C233.182 26.3597 233.207 26.3346 233.236 26.3153C233.455 26.1576 233.667 25.9901 233.873 25.8126C233.933 25.7616 233.993 25.7098 234.053 25.6571C234.246 25.4801 234.433 25.2937 234.613 25.0979C234.672 25.0336 234.734 24.9712 234.793 24.905C234.838 24.8517 234.891 24.8054 234.936 24.7508L234.921 24.7405ZM228.006 13.8582C228.579 13.8582 229.139 14.0278 229.615 14.3456C230.091 14.6635 230.462 15.1152 230.681 15.6438C230.9 16.1723 230.957 16.7539 230.846 17.315C230.734 17.8761 230.458 18.3915 230.053 18.796C229.649 19.2005 229.133 19.476 228.571 19.5876C228.01 19.6992 227.428 19.642 226.899 19.423C226.37 19.2041 225.917 18.8334 225.599 18.3577C225.281 17.882 225.112 17.3228 225.112 16.7507C225.112 15.9835 225.417 15.2478 225.959 14.7054C226.502 14.1629 227.239 13.8582 228.006 13.8582ZM222.864 24.7405C222.876 23.8965 223.219 23.0908 223.82 22.4978C224.421 21.9047 225.232 21.572 226.076 21.5716H229.936C230.781 21.572 231.592 21.9047 232.193 22.4978C232.794 23.0908 233.137 23.8965 233.148 24.7405C231.738 26.0108 229.906 26.7139 228.006 26.7139C226.107 26.7139 224.275 26.0108 222.864 24.7405Z" fill="#D9D9D9"/>
<rect x="219" y="95" width="18" height="10" rx="5" fill="#D9D9D9"/>
<path d="M231.605 102.05C231.371 102.05 231.162 102.009 230.978 101.929C230.796 101.848 230.651 101.737 230.543 101.593C230.437 101.449 230.379 101.281 230.369 101.091H230.817C230.826 101.208 230.866 101.309 230.938 101.395C231.009 101.479 231.101 101.544 231.216 101.59C231.331 101.636 231.458 101.659 231.598 101.659C231.754 101.659 231.893 101.632 232.013 101.577C232.134 101.523 232.229 101.447 232.298 101.35C232.366 101.253 232.401 101.141 232.401 101.013C232.401 100.879 232.367 100.761 232.301 100.659C232.235 100.556 232.138 100.476 232.01 100.418C231.882 100.36 231.726 100.331 231.541 100.331H231.25V99.9403H231.541C231.686 99.9403 231.812 99.9143 231.921 99.8622C232.031 99.8101 232.117 99.7367 232.179 99.642C232.241 99.5473 232.273 99.4361 232.273 99.3082C232.273 99.1851 232.246 99.078 232.191 98.9869C232.137 98.8957 232.06 98.8247 231.96 98.7738C231.862 98.7229 231.746 98.6974 231.612 98.6974C231.487 98.6974 231.368 98.7205 231.257 98.7667C231.147 98.8117 231.057 98.8774 230.987 98.9638C230.917 99.049 230.879 99.152 230.874 99.2727H230.447C230.455 99.0821 230.512 98.9152 230.62 98.772C230.727 98.6276 230.868 98.5152 231.042 98.4347C231.217 98.3542 231.41 98.3139 231.619 98.3139C231.844 98.3139 232.037 98.3595 232.198 98.4506C232.359 98.5406 232.483 98.6596 232.569 98.8075C232.656 98.9555 232.699 99.1153 232.699 99.2869C232.699 99.4917 232.645 99.6663 232.537 99.8107C232.431 99.9551 232.286 100.055 232.102 100.111V100.139C232.332 100.177 232.511 100.275 232.64 100.432C232.769 100.588 232.834 100.782 232.834 101.013C232.834 101.21 232.78 101.388 232.672 101.545C232.566 101.702 232.42 101.825 232.235 101.915C232.051 102.005 231.841 102.05 231.605 102.05Z" fill="black"/>
<path d="M222.583 102.542H222.875V98.75H222.583C222.429 98.75 222.28 98.8115 222.171 98.9209C222.061 99.0303 222 99.1786 222 99.3333V101.958C222 102.113 222.061 102.261 222.171 102.371C222.28 102.48 222.429 102.542 222.583 102.542ZM227.25 98.75H225.208L225.536 97.7677C225.565 97.68 225.573 97.5866 225.559 97.4953C225.545 97.4039 225.509 97.3172 225.455 97.2423C225.401 97.1673 225.33 97.1062 225.248 97.0641C225.166 97.022 225.075 97 224.982 97H224.917L223.458 98.5861V102.542H226.667L227.808 100.035L227.833 99.9167V99.3333C227.833 99.1786 227.772 99.0303 227.662 98.9209C227.553 98.8115 227.405 98.75 227.25 98.75Z" fill="black"/>
<rect x="247" y="16" width="79" height="6" fill="#D9D9D9"/>
<rect x="219" y="38" width="169" height="5" fill="#D9D9D9"/>
<rect x="219" y="47" width="123" height="5" fill="#D9D9D9"/>
<rect x="219" y="56" width="98" height="5" fill="#D9D9D9"/>
<rect x="219" y="65" width="75" height="5" fill="#D9D9D9"/>
<rect x="207" width="198" height="114" rx="11" fill="white"/>
<rect x="207.5" y="0.5" width="197" height="113" rx="10.5" stroke="black" stroke-opacity="0.13"/>
<path d="M234.921 24.7405C235.845 23.6298 236.488 22.3132 236.795 20.9019C237.102 19.4906 237.064 18.0263 236.685 16.6327C236.305 15.2391 235.596 13.9573 234.616 12.8957C233.636 11.8341 232.414 11.024 231.055 10.5338C229.695 10.0436 228.237 9.88786 226.805 10.0797C225.372 10.2715 224.007 10.8052 222.824 11.6357C221.642 12.4663 220.677 13.5691 220.011 14.851C219.346 16.133 218.999 17.5562 219 19.0004C219.001 21.0999 219.741 23.1321 221.091 24.7405L221.079 24.7514C221.124 24.8054 221.175 24.8517 221.221 24.905C221.279 24.9712 221.342 25.0336 221.402 25.0979C221.581 25.2937 221.767 25.4801 221.961 25.6571C222.021 25.7102 222.081 25.7621 222.141 25.8126C222.347 25.9905 222.559 26.158 222.778 26.3153C222.807 26.3346 222.832 26.3597 222.861 26.3796V26.3719C224.367 27.4314 226.165 28 228.007 28C229.849 28 231.647 27.4314 233.154 26.3719V26.3796C233.182 26.3597 233.207 26.3346 233.236 26.3153C233.455 26.1576 233.667 25.9901 233.873 25.8126C233.933 25.7616 233.993 25.7098 234.053 25.6571C234.246 25.4801 234.433 25.2937 234.613 25.0979C234.672 25.0336 234.734 24.9712 234.793 24.905C234.838 24.8517 234.891 24.8054 234.936 24.7508L234.921 24.7405ZM228.006 13.8582C228.579 13.8582 229.139 14.0278 229.615 14.3456C230.091 14.6635 230.462 15.1152 230.681 15.6438C230.9 16.1723 230.957 16.7539 230.846 17.315C230.734 17.8761 230.458 18.3915 230.053 18.796C229.649 19.2005 229.133 19.476 228.571 19.5876C228.01 19.6992 227.428 19.642 226.899 19.423C226.37 19.2041 225.917 18.8334 225.599 18.3577C225.281 17.882 225.112 17.3228 225.112 16.7507C225.112 15.9835 225.417 15.2478 225.959 14.7054C226.502 14.1629 227.239 13.8582 228.006 13.8582ZM222.864 24.7405C222.876 23.8965 223.219 23.0908 223.82 22.4978C224.421 21.9047 225.232 21.572 226.076 21.5716H229.936C230.781 21.572 231.592 21.9047 232.193 22.4978C232.794 23.0908 233.137 23.8965 233.148 24.7405C231.738 26.0108 229.906 26.7139 228.006 26.7139C226.107 26.7139 224.275 26.0108 222.864 24.7405Z" fill="#D9D9D9"/>
<rect x="219" y="95" width="18" height="10" rx="5" fill="#D9D9D9"/>
<path d="M231.605 102.05C231.371 102.05 231.162 102.009 230.978 101.929C230.796 101.848 230.651 101.737 230.543 101.593C230.437 101.449 230.379 101.281 230.369 101.091H230.817C230.826 101.208 230.866 101.309 230.938 101.395C231.009 101.479 231.101 101.544 231.216 101.59C231.331 101.636 231.458 101.659 231.598 101.659C231.754 101.659 231.893 101.632 232.013 101.577C232.134 101.523 232.229 101.447 232.298 101.35C232.366 101.253 232.401 101.141 232.401 101.013C232.401 100.879 232.367 100.761 232.301 100.659C232.235 100.556 232.138 100.476 232.01 100.418C231.882 100.36 231.726 100.331 231.541 100.331H231.25V99.9403H231.541C231.686 99.9403 231.812 99.9143 231.921 99.8622C232.031 99.8101 232.117 99.7367 232.179 99.642C232.241 99.5473 232.273 99.4361 232.273 99.3082C232.273 99.1851 232.246 99.078 232.191 98.9869C232.137 98.8957 232.06 98.8247 231.96 98.7738C231.862 98.7229 231.746 98.6974 231.612 98.6974C231.487 98.6974 231.368 98.7205 231.257 98.7667C231.147 98.8117 231.057 98.8774 230.987 98.9638C230.917 99.049 230.879 99.152 230.874 99.2727H230.447C230.455 99.0821 230.512 98.9152 230.62 98.772C230.727 98.6276 230.868 98.5152 231.042 98.4347C231.217 98.3542 231.41 98.3139 231.619 98.3139C231.844 98.3139 232.037 98.3595 232.198 98.4506C232.359 98.5406 232.483 98.6596 232.569 98.8075C232.656 98.9555 232.699 99.1153 232.699 99.2869C232.699 99.4917 232.645 99.6663 232.537 99.8107C232.431 99.9551 232.286 100.055 232.102 100.111V100.139C232.332 100.177 232.511 100.275 232.64 100.432C232.769 100.588 232.834 100.782 232.834 101.013C232.834 101.21 232.78 101.388 232.672 101.545C232.566 101.702 232.42 101.825 232.235 101.915C232.051 102.005 231.841 102.05 231.605 102.05Z" fill="black"/>
<path d="M222.583 102.542H222.875V98.75H222.583C222.429 98.75 222.28 98.8115 222.171 98.9209C222.061 99.0303 222 99.1786 222 99.3333V101.958C222 102.113 222.061 102.261 222.171 102.371C222.28 102.48 222.429 102.542 222.583 102.542ZM227.25 98.75H225.208L225.536 97.7677C225.565 97.68 225.573 97.5866 225.559 97.4953C225.545 97.4039 225.509 97.3172 225.455 97.2423C225.401 97.1673 225.33 97.1062 225.248 97.0641C225.166 97.022 225.075 97 224.982 97H224.917L223.458 98.5861V102.542H226.667L227.808 100.035L227.833 99.9167V99.3333C227.833 99.1786 227.772 99.0303 227.662 98.9209C227.553 98.8115 227.405 98.75 227.25 98.75Z" fill="black"/>
<path d="M392.501 104.625C391.931 104.625 391.395 104.517 390.893 104.3C390.391 104.084 389.954 103.79 389.582 103.419C389.211 103.047 388.917 102.611 388.7 102.11C388.483 101.608 388.375 101.072 388.375 100.501C388.375 99.9306 388.483 99.3943 388.7 98.8926C388.917 98.3906 389.211 97.9538 389.582 97.5822C389.953 97.2107 390.39 96.9166 390.891 96.7C391.393 96.4833 391.929 96.375 392.5 96.375C392.805 96.375 393.101 96.406 393.389 96.468C393.677 96.5301 393.951 96.6222 394.21 96.7444V97.255C393.954 97.1199 393.683 97.0157 393.397 96.9424C393.11 96.8697 392.811 96.8333 392.5 96.8333C391.484 96.8333 390.619 97.1905 389.904 97.9049C389.19 98.6193 388.833 99.4843 388.833 100.5C388.834 101.516 389.191 102.381 389.905 103.096C390.619 103.81 391.484 104.167 392.5 104.167C393.516 104.166 394.381 103.809 395.096 103.096C395.81 102.382 396.167 101.517 396.167 100.5C396.167 100.279 396.148 100.064 396.11 99.8556C396.072 99.6469 396.017 99.4445 395.945 99.2483H396.437C396.499 99.4463 396.546 99.6484 396.578 99.8547C396.609 100.061 396.625 100.276 396.625 100.5C396.625 101.071 396.517 101.607 396.3 102.109C396.084 102.61 395.79 103.047 395.419 103.419C395.048 103.79 394.611 104.084 394.11 104.3C393.608 104.516 393.072 104.624 392.501 104.625ZM396.396 97.9792V97.0625H395.479V96.6042H396.396V95.6875H396.854V96.6042H397.771V97.0625H396.854V97.9792H396.396ZM394.018 99.8657C394.161 99.8657 394.281 99.8157 394.38 99.7158C394.478 99.6159 394.527 99.4947 394.527 99.3523C394.527 99.2099 394.477 99.0893 394.378 98.9903C394.278 98.8922 394.157 98.8431 394.014 98.8431C393.871 98.8431 393.751 98.8929 393.652 98.9925C393.554 99.0922 393.505 99.2133 393.505 99.356C393.505 99.4987 393.555 99.6194 393.655 99.7181C393.754 99.8165 393.875 99.8657 394.018 99.8657ZM390.986 99.8657C391.129 99.8657 391.249 99.8157 391.347 99.7158C391.446 99.6159 391.495 99.4947 391.495 99.3523C391.495 99.2096 391.445 99.0889 391.345 98.9903C391.246 98.8922 391.124 98.8431 390.982 98.8431C390.839 98.8431 390.719 98.8929 390.62 98.9925C390.522 99.0925 390.473 99.2136 390.473 99.356C390.473 99.4987 390.523 99.6194 390.622 99.7181C390.722 99.8165 390.843 99.8657 390.986 99.8657ZM392.5 102.739C392.946 102.739 393.351 102.618 393.715 102.377C394.078 102.135 394.353 101.815 394.538 101.417H390.462C390.647 101.816 390.921 102.136 391.285 102.377C391.649 102.618 392.054 102.738 392.5 102.739Z" fill="black"/>
<rect x="247" y="16" width="79" height="6" fill="#D9D9D9"/>
<rect x="219" y="43" width="169" height="5" fill="#D9D9D9"/>
<rect x="219" y="52" width="123" height="5" fill="#D9D9D9"/>
<rect x="219" y="61" width="98" height="5" fill="#D9D9D9"/>
<rect x="219" y="70" width="75" height="5" fill="#D9D9D9"/>
<path d="M27.9214 25.7405C28.8453 24.6298 29.4879 23.3132 29.7948 21.9019C30.1017 20.4906 30.0639 19.0263 29.6846 17.6327C29.3053 16.2391 28.5956 14.9573 27.6156 13.8957C26.6357 12.8341 25.4142 12.024 24.0546 11.5338C22.695 11.0436 21.2373 10.8879 19.8047 11.0797C18.3721 11.2715 17.0068 11.8052 15.8243 12.6357C14.6419 13.4663 13.677 14.5691 13.0113 15.851C12.3456 17.133 11.9987 18.5562 12 20.0004C12.0005 22.0999 12.741 24.1321 14.0914 25.7405L14.0786 25.7514C14.1236 25.8054 14.1751 25.8517 14.2214 25.905C14.2793 25.9712 14.3417 26.0336 14.4015 26.0979C14.5808 26.2937 14.7673 26.4801 14.9612 26.6571C15.0212 26.7102 15.0813 26.7621 15.1413 26.8126C15.3472 26.9905 15.5595 27.158 15.7782 27.3153C15.8065 27.3346 15.8322 27.3597 15.8605 27.3796V27.3719C17.3672 28.4314 19.1647 29 21.0071 29C22.8495 29 24.6469 28.4314 26.1536 27.3719V27.3796C26.1819 27.3597 26.207 27.3346 26.236 27.3153C26.4547 27.1576 26.667 26.9901 26.8728 26.8126C26.9329 26.7616 26.9929 26.7098 27.053 26.6571C27.2464 26.4801 27.433 26.2937 27.6127 26.0979C27.6725 26.0336 27.7342 25.9712 27.7928 25.905C27.8385 25.8517 27.8906 25.8054 27.9356 25.7508L27.9214 25.7405ZM21.0064 14.8582C21.579 14.8582 22.1387 15.0278 22.6148 15.3456C23.0908 15.6635 23.4619 16.1152 23.681 16.6438C23.9001 17.1723 23.9574 17.7539 23.8457 18.315C23.734 18.8761 23.4583 19.3915 23.0535 19.796C22.6486 20.2005 22.1328 20.476 21.5712 20.5876C21.0096 20.6992 20.4276 20.642 19.8986 20.423C19.3696 20.2041 18.9175 19.8334 18.5994 19.3577C18.2813 18.882 18.1115 18.3228 18.1115 17.7507C18.1115 16.9835 18.4165 16.2478 18.9594 15.7054C19.5023 15.1629 20.2387 14.8582 21.0064 14.8582ZM15.8644 25.7405C15.8756 24.8965 16.2188 24.0908 16.82 23.4978C17.4211 22.9047 18.2317 22.572 19.0765 22.5716H22.9364C23.7812 22.572 24.5918 22.9047 25.1929 23.4978C25.794 24.0908 26.1373 24.8965 26.1485 25.7405C24.7376 27.0108 22.9057 27.7139 21.0064 27.7139C19.1072 27.7139 17.2753 27.0108 15.8644 25.7405Z" fill="#D9D9D9"/>
<rect x="12" y="96" width="18" height="10" rx="5" fill="#D9D9D9"/>
<path d="M24.6051 103.05C24.3707 103.05 24.1618 103.009 23.9783 102.929C23.796 102.848 23.651 102.737 23.5433 102.593C23.4368 102.449 23.3788 102.281 23.3693 102.091H23.8168C23.8262 102.208 23.8665 102.309 23.9375 102.395C24.0085 102.479 24.1014 102.544 24.2163 102.59C24.3311 102.636 24.4583 102.659 24.598 102.659C24.7543 102.659 24.8928 102.632 25.0135 102.577C25.1342 102.523 25.2289 102.447 25.2976 102.35C25.3662 102.253 25.4006 102.141 25.4006 102.013C25.4006 101.879 25.3674 101.761 25.3011 101.659C25.2348 101.556 25.1378 101.476 25.0099 101.418C24.8821 101.36 24.7259 101.331 24.5412 101.331H24.25V100.94H24.5412C24.6856 100.94 24.8123 100.914 24.9212 100.862C25.0313 100.81 25.1171 100.737 25.1786 100.642C25.2414 100.547 25.2727 100.436 25.2727 100.308C25.2727 100.185 25.2455 100.078 25.1911 99.9869C25.1366 99.8957 25.0597 99.8247 24.9602 99.7738C24.862 99.7229 24.746 99.6974 24.6122 99.6974C24.4867 99.6974 24.3684 99.7205 24.2571 99.7667C24.147 99.8117 24.0571 99.8774 23.9872 99.9638C23.9174 100.049 23.8795 100.152 23.8736 100.273H23.4474C23.4545 100.082 23.512 99.9152 23.6197 99.772C23.7274 99.6276 23.8683 99.5152 24.0423 99.4347C24.2174 99.3542 24.4098 99.3139 24.6193 99.3139C24.8442 99.3139 25.0372 99.3595 25.1982 99.4506C25.3591 99.5406 25.4828 99.6596 25.5692 99.8075C25.6557 99.9555 25.6989 100.115 25.6989 100.287C25.6989 100.492 25.645 100.666 25.5373 100.811C25.4308 100.955 25.2857 101.055 25.1023 101.111V101.139C25.3319 101.177 25.5112 101.275 25.6403 101.432C25.7693 101.588 25.8338 101.782 25.8338 102.013C25.8338 102.21 25.7799 102.388 25.6722 102.545C25.5657 102.702 25.4201 102.825 25.2354 102.915C25.0508 103.005 24.8407 103.05 24.6051 103.05Z" fill="black"/>
<path d="M15.5833 103.542H15.875V99.75H15.5833C15.4286 99.75 15.2803 99.8115 15.1709 99.9209C15.0615 100.03 15 100.179 15 100.333V102.958C15 103.113 15.0615 103.261 15.1709 103.371C15.2803 103.48 15.4286 103.542 15.5833 103.542ZM20.25 99.75H18.2083L18.5356 98.7677C18.5648 98.68 18.5727 98.5866 18.5588 98.4953C18.5448 98.4039 18.5094 98.3172 18.4554 98.2423C18.4013 98.1673 18.3303 98.1062 18.248 98.0641C18.1658 98.022 18.0747 98 17.9823 98H17.9167L16.4583 99.5861V103.542H19.6667L20.8077 101.035L20.8333 100.917V100.333C20.8333 100.179 20.7719 100.03 20.6625 99.9209C20.5531 99.8115 20.4047 99.75 20.25 99.75Z" fill="black"/>
<path d="M185.501 105.625C184.931 105.625 184.395 105.517 183.893 105.3C183.391 105.084 182.954 104.79 182.582 104.419C182.211 104.047 181.917 103.611 181.7 103.11C181.483 102.608 181.375 102.072 181.375 101.501C181.375 100.931 181.483 100.394 181.7 99.8926C181.917 99.3906 182.211 98.9538 182.582 98.5822C182.953 98.2107 183.39 97.9166 183.891 97.7C184.393 97.4833 184.929 97.375 185.5 97.375C185.805 97.375 186.101 97.406 186.389 97.468C186.677 97.5301 186.951 97.6222 187.21 97.7444V98.255C186.954 98.1199 186.683 98.0157 186.397 97.9424C186.11 97.8697 185.811 97.8333 185.5 97.8333C184.484 97.8333 183.619 98.1905 182.904 98.9049C182.19 99.6193 181.833 100.484 181.833 101.5C181.834 102.516 182.191 103.381 182.905 104.096C183.619 104.81 184.484 105.167 185.5 105.167C186.516 105.166 187.381 104.809 188.096 104.096C188.81 103.382 189.167 102.517 189.167 101.5C189.167 101.279 189.148 101.064 189.11 100.856C189.072 100.647 189.017 100.444 188.945 100.248H189.437C189.499 100.446 189.546 100.648 189.578 100.855C189.609 101.061 189.625 101.276 189.625 101.5C189.625 102.071 189.517 102.607 189.3 103.109C189.084 103.61 188.79 104.047 188.419 104.419C188.048 104.79 187.611 105.084 187.11 105.3C186.608 105.516 186.072 105.624 185.501 105.625ZM189.396 98.9792V98.0625H188.479V97.6042H189.396V96.6875H189.854V97.6042H190.771V98.0625H189.854V98.9792H189.396ZM187.018 100.866C187.161 100.866 187.281 100.816 187.38 100.716C187.478 100.616 187.527 100.495 187.527 100.352C187.527 100.21 187.477 100.089 187.378 99.9903C187.278 99.8922 187.157 99.8431 187.014 99.8431C186.871 99.8431 186.751 99.8929 186.652 99.9925C186.554 100.092 186.505 100.213 186.505 100.356C186.505 100.499 186.555 100.619 186.655 100.718C186.754 100.816 186.875 100.866 187.018 100.866ZM183.986 100.866C184.129 100.866 184.249 100.816 184.347 100.716C184.446 100.616 184.495 100.495 184.495 100.352C184.495 100.21 184.445 100.089 184.345 99.9903C184.246 99.8922 184.124 99.8431 183.982 99.8431C183.839 99.8431 183.719 99.8929 183.62 99.9925C183.522 100.092 183.473 100.214 183.473 100.356C183.473 100.499 183.523 100.619 183.622 100.718C183.722 100.816 183.843 100.866 183.986 100.866ZM185.5 103.739C185.946 103.739 186.351 103.618 186.715 103.377C187.078 103.135 187.353 102.815 187.538 102.417H183.462C183.647 102.816 183.921 103.136 184.285 103.377C184.649 103.618 185.054 103.738 185.5 103.739Z" fill="black"/>
<rect x="40" y="17" width="79" height="6" fill="#D9D9D9"/>
<rect x="12" y="39" width="169" height="5" fill="#D9D9D9"/>
<rect x="12" y="48" width="123" height="5" fill="#D9D9D9"/>
<rect x="12" y="57" width="98" height="5" fill="#D9D9D9"/>
<rect x="12" y="66" width="75" height="5" fill="#D9D9D9"/>
<rect y="1" width="198" height="114" rx="11" fill="white"/>
<rect x="0.5" y="1.5" width="197" height="113" rx="10.5" stroke="black" stroke-opacity="0.13"/>
<path d="M27.9214 25.7405C28.8453 24.6298 29.4879 23.3132 29.7948 21.9019C30.1017 20.4906 30.0639 19.0263 29.6846 17.6327C29.3053 16.2391 28.5956 14.9573 27.6156 13.8957C26.6357 12.8341 25.4142 12.024 24.0546 11.5338C22.695 11.0436 21.2373 10.8879 19.8047 11.0797C18.3721 11.2715 17.0068 11.8052 15.8243 12.6357C14.6419 13.4663 13.677 14.5691 13.0113 15.851C12.3456 17.133 11.9987 18.5562 12 20.0004C12.0005 22.0999 12.741 24.1321 14.0914 25.7405L14.0786 25.7514C14.1236 25.8054 14.1751 25.8517 14.2214 25.905C14.2793 25.9712 14.3417 26.0336 14.4015 26.0979C14.5808 26.2937 14.7673 26.4801 14.9612 26.6571C15.0212 26.7102 15.0813 26.7621 15.1413 26.8126C15.3472 26.9905 15.5595 27.158 15.7782 27.3153C15.8065 27.3346 15.8322 27.3597 15.8605 27.3796V27.3719C17.3672 28.4314 19.1647 29 21.0071 29C22.8495 29 24.6469 28.4314 26.1536 27.3719V27.3796C26.1819 27.3597 26.207 27.3346 26.236 27.3153C26.4547 27.1576 26.667 26.9901 26.8728 26.8126C26.9329 26.7616 26.9929 26.7098 27.053 26.6571C27.2464 26.4801 27.433 26.2937 27.6127 26.0979C27.6725 26.0336 27.7342 25.9712 27.7928 25.905C27.8385 25.8517 27.8906 25.8054 27.9356 25.7508L27.9214 25.7405ZM21.0064 14.8582C21.579 14.8582 22.1387 15.0278 22.6148 15.3456C23.0908 15.6635 23.4619 16.1152 23.681 16.6438C23.9001 17.1723 23.9574 17.7539 23.8457 18.315C23.734 18.8761 23.4583 19.3915 23.0535 19.796C22.6486 20.2005 22.1328 20.476 21.5712 20.5876C21.0096 20.6992 20.4276 20.642 19.8986 20.423C19.3696 20.2041 18.9175 19.8334 18.5994 19.3577C18.2813 18.882 18.1115 18.3228 18.1115 17.7507C18.1115 16.9835 18.4165 16.2478 18.9594 15.7054C19.5023 15.1629 20.2387 14.8582 21.0064 14.8582ZM15.8644 25.7405C15.8756 24.8965 16.2188 24.0908 16.82 23.4978C17.4211 22.9047 18.2317 22.572 19.0765 22.5716H22.9364C23.7812 22.572 24.5918 22.9047 25.1929 23.4978C25.794 24.0908 26.1373 24.8965 26.1485 25.7405C24.7376 27.0108 22.9057 27.7139 21.0064 27.7139C19.1072 27.7139 17.2753 27.0108 15.8644 25.7405Z" fill="#D9D9D9"/>
<rect x="12" y="96" width="18" height="10" rx="5" fill="#D9D9D9"/>
<path d="M24.6051 103.05C24.3707 103.05 24.1618 103.009 23.9783 102.929C23.796 102.848 23.651 102.737 23.5433 102.593C23.4368 102.449 23.3788 102.281 23.3693 102.091H23.8168C23.8262 102.208 23.8665 102.309 23.9375 102.395C24.0085 102.479 24.1014 102.544 24.2163 102.59C24.3311 102.636 24.4583 102.659 24.598 102.659C24.7543 102.659 24.8928 102.632 25.0135 102.577C25.1342 102.523 25.2289 102.447 25.2976 102.35C25.3662 102.253 25.4006 102.141 25.4006 102.013C25.4006 101.879 25.3674 101.761 25.3011 101.659C25.2348 101.556 25.1378 101.476 25.0099 101.418C24.8821 101.36 24.7259 101.331 24.5412 101.331H24.25V100.94H24.5412C24.6856 100.94 24.8123 100.914 24.9212 100.862C25.0313 100.81 25.1171 100.737 25.1786 100.642C25.2414 100.547 25.2727 100.436 25.2727 100.308C25.2727 100.185 25.2455 100.078 25.1911 99.9869C25.1366 99.8957 25.0597 99.8247 24.9602 99.7738C24.862 99.7229 24.746 99.6974 24.6122 99.6974C24.4867 99.6974 24.3684 99.7205 24.2571 99.7667C24.147 99.8117 24.0571 99.8774 23.9872 99.9638C23.9174 100.049 23.8795 100.152 23.8736 100.273H23.4474C23.4545 100.082 23.512 99.9152 23.6197 99.772C23.7274 99.6276 23.8683 99.5152 24.0423 99.4347C24.2174 99.3542 24.4098 99.3139 24.6193 99.3139C24.8442 99.3139 25.0372 99.3595 25.1982 99.4506C25.3591 99.5406 25.4828 99.6596 25.5692 99.8075C25.6557 99.9555 25.6989 100.115 25.6989 100.287C25.6989 100.492 25.645 100.666 25.5373 100.811C25.4308 100.955 25.2857 101.055 25.1023 101.111V101.139C25.3319 101.177 25.5112 101.275 25.6403 101.432C25.7693 101.588 25.8338 101.782 25.8338 102.013C25.8338 102.21 25.7799 102.388 25.6722 102.545C25.5657 102.702 25.4201 102.825 25.2354 102.915C25.0508 103.005 24.8407 103.05 24.6051 103.05Z" fill="black"/>
<path d="M15.5833 103.542H15.875V99.75H15.5833C15.4286 99.75 15.2803 99.8115 15.1709 99.9209C15.0615 100.03 15 100.179 15 100.333V102.958C15 103.113 15.0615 103.261 15.1709 103.371C15.2803 103.48 15.4286 103.542 15.5833 103.542ZM20.25 99.75H18.2083L18.5356 98.7677C18.5648 98.68 18.5727 98.5866 18.5588 98.4953C18.5448 98.4039 18.5094 98.3172 18.4554 98.2423C18.4013 98.1673 18.3303 98.1062 18.248 98.0641C18.1658 98.022 18.0747 98 17.9823 98H17.9167L16.4583 99.5861V103.542H19.6667L20.8077 101.035L20.8333 100.917V100.333C20.8333 100.179 20.7719 100.03 20.6625 99.9209C20.5531 99.8115 20.4047 99.75 20.25 99.75Z" fill="black"/>
<path d="M185.501 105.625C184.931 105.625 184.395 105.517 183.893 105.3C183.391 105.084 182.954 104.79 182.582 104.419C182.211 104.047 181.917 103.611 181.7 103.11C181.483 102.608 181.375 102.072 181.375 101.501C181.375 100.931 181.483 100.394 181.7 99.8926C181.917 99.3906 182.211 98.9538 182.582 98.5822C182.953 98.2107 183.39 97.9166 183.891 97.7C184.393 97.4833 184.929 97.375 185.5 97.375C185.805 97.375 186.101 97.406 186.389 97.468C186.677 97.5301 186.951 97.6222 187.21 97.7444V98.255C186.954 98.1199 186.683 98.0157 186.397 97.9424C186.11 97.8697 185.811 97.8333 185.5 97.8333C184.484 97.8333 183.619 98.1905 182.904 98.9049C182.19 99.6193 181.833 100.484 181.833 101.5C181.834 102.516 182.191 103.381 182.905 104.096C183.619 104.81 184.484 105.167 185.5 105.167C186.516 105.166 187.381 104.809 188.096 104.096C188.81 103.382 189.167 102.517 189.167 101.5C189.167 101.279 189.148 101.064 189.11 100.856C189.072 100.647 189.017 100.444 188.945 100.248H189.437C189.499 100.446 189.546 100.648 189.578 100.855C189.609 101.061 189.625 101.276 189.625 101.5C189.625 102.071 189.517 102.607 189.3 103.109C189.084 103.61 188.79 104.047 188.419 104.419C188.048 104.79 187.611 105.084 187.11 105.3C186.608 105.516 186.072 105.624 185.501 105.625ZM189.396 98.9792V98.0625H188.479V97.6042H189.396V96.6875H189.854V97.6042H190.771V98.0625H189.854V98.9792H189.396ZM187.018 100.866C187.161 100.866 187.281 100.816 187.38 100.716C187.478 100.616 187.527 100.495 187.527 100.352C187.527 100.21 187.477 100.089 187.378 99.9903C187.278 99.8922 187.157 99.8431 187.014 99.8431C186.871 99.8431 186.751 99.8929 186.652 99.9925C186.554 100.092 186.505 100.213 186.505 100.356C186.505 100.499 186.555 100.619 186.655 100.718C186.754 100.816 186.875 100.866 187.018 100.866ZM183.986 100.866C184.129 100.866 184.249 100.816 184.347 100.716C184.446 100.616 184.495 100.495 184.495 100.352C184.495 100.21 184.445 100.089 184.345 99.9903C184.246 99.8922 184.124 99.8431 183.982 99.8431C183.839 99.8431 183.719 99.8929 183.62 99.9925C183.522 100.092 183.473 100.214 183.473 100.356C183.473 100.499 183.523 100.619 183.622 100.718C183.722 100.816 183.843 100.866 183.986 100.866ZM185.5 103.739C185.946 103.739 186.351 103.618 186.715 103.377C187.078 103.135 187.353 102.815 187.538 102.417H183.462C183.647 102.816 183.921 103.136 184.285 103.377C184.649 103.618 185.054 103.738 185.5 103.739Z" fill="black"/>
<rect x="40" y="17" width="79" height="6" fill="#D9D9D9"/>
<rect x="12" y="44" width="169" height="5" fill="#D9D9D9"/>
<rect x="12" y="53" width="123" height="5" fill="#D9D9D9"/>
<rect x="12" y="62" width="98" height="5" fill="#D9D9D9"/>
<rect x="12" y="71" width="75" height="5" fill="#D9D9D9"/>
</svg>
