<svg width="451" height="274" viewBox="0 0 451 274" fill="none" xmlns="http://www.w3.org/2000/svg">
<path d="M235.921 183.74C236.845 182.63 237.488 181.313 237.795 179.902C238.102 178.491 238.064 177.026 237.685 175.633C237.305 174.239 236.596 172.957 235.616 171.896C234.636 170.834 233.414 170.024 232.055 169.534C230.695 169.044 229.237 168.888 227.805 169.08C226.372 169.271 225.007 169.805 223.824 170.636C222.642 171.466 221.677 172.569 221.011 173.851C220.346 175.133 219.999 176.556 220 178C220.001 180.1 220.741 182.132 222.091 183.74L222.079 183.751C222.124 183.805 222.175 183.852 222.221 183.905C222.279 183.971 222.342 184.034 222.402 184.098C222.581 184.294 222.767 184.48 222.961 184.657C223.021 184.71 223.081 184.762 223.141 184.813C223.347 184.99 223.559 185.158 223.778 185.315C223.807 185.335 223.832 185.36 223.861 185.38V185.372C225.367 186.431 227.165 187 229.007 187C230.849 187 232.647 186.431 234.154 185.372V185.38C234.182 185.36 234.207 185.335 234.236 185.315C234.455 185.158 234.667 184.99 234.873 184.813C234.933 184.762 234.993 184.71 235.053 184.657C235.246 184.48 235.433 184.294 235.613 184.098C235.672 184.034 235.734 183.971 235.793 183.905C235.838 183.852 235.891 183.805 235.936 183.751L235.921 183.74ZM229.006 172.858C229.579 172.858 230.139 173.028 230.615 173.346C231.091 173.663 231.462 174.115 231.681 174.644C231.9 175.172 231.957 175.754 231.846 176.315C231.734 176.876 231.458 177.391 231.053 177.796C230.649 178.201 230.133 178.476 229.571 178.588C229.01 178.699 228.428 178.642 227.899 178.423C227.37 178.204 226.917 177.833 226.599 177.358C226.281 176.882 226.112 176.323 226.112 175.751C226.112 174.984 226.417 174.248 226.959 173.705C227.502 173.163 228.239 172.858 229.006 172.858ZM223.864 183.74C223.876 182.896 224.219 182.091 224.82 181.498C225.421 180.905 226.232 180.572 227.076 180.572H230.936C231.781 180.572 232.592 180.905 233.193 181.498C233.794 182.091 234.137 182.896 234.148 183.74C232.738 185.011 230.906 185.714 229.006 185.714C227.107 185.714 225.275 185.011 223.864 183.74Z" fill="#D9D9D9"/>
<rect x="220" y="254" width="18" height="10" rx="5" fill="#D9D9D9"/>
<path d="M232.605 261.05C232.371 261.05 232.162 261.009 231.978 260.929C231.796 260.848 231.651 260.737 231.543 260.593C231.437 260.449 231.379 260.281 231.369 260.091H231.817C231.826 260.208 231.866 260.309 231.938 260.395C232.009 260.479 232.101 260.544 232.216 260.59C232.331 260.636 232.458 260.659 232.598 260.659C232.754 260.659 232.893 260.632 233.013 260.577C233.134 260.523 233.229 260.447 233.298 260.35C233.366 260.253 233.401 260.141 233.401 260.013C233.401 259.879 233.367 259.761 233.301 259.659C233.235 259.556 233.138 259.476 233.01 259.418C232.882 259.36 232.726 259.331 232.541 259.331H232.25V258.94H232.541C232.686 258.94 232.812 258.914 232.921 258.862C233.031 258.81 233.117 258.737 233.179 258.642C233.241 258.547 233.273 258.436 233.273 258.308C233.273 258.185 233.246 258.078 233.191 257.987C233.137 257.896 233.06 257.825 232.96 257.774C232.862 257.723 232.746 257.697 232.612 257.697C232.487 257.697 232.368 257.721 232.257 257.767C232.147 257.812 232.057 257.877 231.987 257.964C231.917 258.049 231.879 258.152 231.874 258.273H231.447C231.455 258.082 231.512 257.915 231.62 257.772C231.727 257.628 231.868 257.515 232.042 257.435C232.217 257.354 232.41 257.314 232.619 257.314C232.844 257.314 233.037 257.359 233.198 257.451C233.359 257.541 233.483 257.66 233.569 257.808C233.656 257.955 233.699 258.115 233.699 258.287C233.699 258.492 233.645 258.666 233.537 258.811C233.431 258.955 233.286 259.055 233.102 259.111V259.139C233.332 259.177 233.511 259.275 233.64 259.432C233.769 259.588 233.834 259.782 233.834 260.013C233.834 260.21 233.78 260.388 233.672 260.545C233.566 260.702 233.42 260.825 233.235 260.915C233.051 261.005 232.841 261.05 232.605 261.05Z" fill="black"/>
<path d="M223.583 261.542H223.875V257.75H223.583C223.429 257.75 223.28 257.811 223.171 257.921C223.061 258.03 223 258.179 223 258.333V260.958C223 261.113 223.061 261.261 223.171 261.371C223.28 261.48 223.429 261.542 223.583 261.542ZM228.25 257.75H226.208L226.536 256.768C226.565 256.68 226.573 256.587 226.559 256.495C226.545 256.404 226.509 256.317 226.455 256.242C226.401 256.167 226.33 256.106 226.248 256.064C226.166 256.022 226.075 256 225.982 256H225.917L224.458 257.586V261.542H227.667L228.808 259.035L228.833 258.917V258.333C228.833 258.179 228.772 258.03 228.662 257.921C228.553 257.811 228.405 257.75 228.25 257.75Z" fill="black"/>
<rect x="248" y="175" width="79" height="6" fill="#D9D9D9"/>
<rect x="220" y="197" width="169" height="5" fill="#D9D9D9"/>
<rect x="220" y="206" width="123" height="5" fill="#D9D9D9"/>
<rect x="220" y="215" width="98" height="5" fill="#D9D9D9"/>
<rect x="220" y="224" width="75" height="5" fill="#D9D9D9"/>
<rect x="208" y="159" width="198" height="114" rx="11" fill="white"/>
<rect x="208.5" y="159.5" width="197" height="113" rx="10.5" stroke="black" stroke-opacity="0.13"/>
<path d="M235.921 183.74C236.845 182.63 237.488 181.313 237.795 179.902C238.102 178.491 238.064 177.026 237.685 175.633C237.305 174.239 236.596 172.957 235.616 171.896C234.636 170.834 233.414 170.024 232.055 169.534C230.695 169.044 229.237 168.888 227.805 169.08C226.372 169.271 225.007 169.805 223.824 170.636C222.642 171.466 221.677 172.569 221.011 173.851C220.346 175.133 219.999 176.556 220 178C220.001 180.1 220.741 182.132 222.091 183.74L222.079 183.751C222.124 183.805 222.175 183.852 222.221 183.905C222.279 183.971 222.342 184.034 222.402 184.098C222.581 184.294 222.767 184.48 222.961 184.657C223.021 184.71 223.081 184.762 223.141 184.813C223.347 184.99 223.559 185.158 223.778 185.315C223.807 185.335 223.832 185.36 223.861 185.38V185.372C225.367 186.431 227.165 187 229.007 187C230.849 187 232.647 186.431 234.154 185.372V185.38C234.182 185.36 234.207 185.335 234.236 185.315C234.455 185.158 234.667 184.99 234.873 184.813C234.933 184.762 234.993 184.71 235.053 184.657C235.246 184.48 235.433 184.294 235.613 184.098C235.672 184.034 235.734 183.971 235.793 183.905C235.838 183.852 235.891 183.805 235.936 183.751L235.921 183.74ZM229.006 172.858C229.579 172.858 230.139 173.028 230.615 173.346C231.091 173.663 231.462 174.115 231.681 174.644C231.9 175.172 231.957 175.754 231.846 176.315C231.734 176.876 231.458 177.391 231.053 177.796C230.649 178.201 230.133 178.476 229.571 178.588C229.01 178.699 228.428 178.642 227.899 178.423C227.37 178.204 226.917 177.833 226.599 177.358C226.281 176.882 226.112 176.323 226.112 175.751C226.112 174.984 226.417 174.248 226.959 173.705C227.502 173.163 228.239 172.858 229.006 172.858ZM223.864 183.74C223.876 182.896 224.219 182.091 224.82 181.498C225.421 180.905 226.232 180.572 227.076 180.572H230.936C231.781 180.572 232.592 180.905 233.193 181.498C233.794 182.091 234.137 182.896 234.148 183.74C232.738 185.011 230.906 185.714 229.006 185.714C227.107 185.714 225.275 185.011 223.864 183.74Z" fill="#D9D9D9"/>
<rect x="220" y="254" width="18" height="10" rx="5" fill="#D9D9D9"/>
<path d="M232.605 261.05C232.371 261.05 232.162 261.009 231.978 260.929C231.796 260.848 231.651 260.737 231.543 260.593C231.437 260.449 231.379 260.281 231.369 260.091H231.817C231.826 260.208 231.866 260.309 231.938 260.395C232.009 260.479 232.101 260.544 232.216 260.59C232.331 260.636 232.458 260.659 232.598 260.659C232.754 260.659 232.893 260.632 233.013 260.577C233.134 260.523 233.229 260.447 233.298 260.35C233.366 260.253 233.401 260.141 233.401 260.013C233.401 259.879 233.367 259.761 233.301 259.659C233.235 259.556 233.138 259.476 233.01 259.418C232.882 259.36 232.726 259.331 232.541 259.331H232.25V258.94H232.541C232.686 258.94 232.812 258.914 232.921 258.862C233.031 258.81 233.117 258.737 233.179 258.642C233.241 258.547 233.273 258.436 233.273 258.308C233.273 258.185 233.246 258.078 233.191 257.987C233.137 257.896 233.06 257.825 232.96 257.774C232.862 257.723 232.746 257.697 232.612 257.697C232.487 257.697 232.368 257.721 232.257 257.767C232.147 257.812 232.057 257.877 231.987 257.964C231.917 258.049 231.879 258.152 231.874 258.273H231.447C231.455 258.082 231.512 257.915 231.62 257.772C231.727 257.628 231.868 257.515 232.042 257.435C232.217 257.354 232.41 257.314 232.619 257.314C232.844 257.314 233.037 257.359 233.198 257.451C233.359 257.541 233.483 257.66 233.569 257.808C233.656 257.955 233.699 258.115 233.699 258.287C233.699 258.492 233.645 258.666 233.537 258.811C233.431 258.955 233.286 259.055 233.102 259.111V259.139C233.332 259.177 233.511 259.275 233.64 259.432C233.769 259.588 233.834 259.782 233.834 260.013C233.834 260.21 233.78 260.388 233.672 260.545C233.566 260.702 233.42 260.825 233.235 260.915C233.051 261.005 232.841 261.05 232.605 261.05Z" fill="black"/>
<path d="M223.583 261.542H223.875V257.75H223.583C223.429 257.75 223.28 257.811 223.171 257.921C223.061 258.03 223 258.179 223 258.333V260.958C223 261.113 223.061 261.261 223.171 261.371C223.28 261.48 223.429 261.542 223.583 261.542ZM228.25 257.75H226.208L226.536 256.768C226.565 256.68 226.573 256.587 226.559 256.495C226.545 256.404 226.509 256.317 226.455 256.242C226.401 256.167 226.33 256.106 226.248 256.064C226.166 256.022 226.075 256 225.982 256H225.917L224.458 257.586V261.542H227.667L228.808 259.035L228.833 258.917V258.333C228.833 258.179 228.772 258.03 228.662 257.921C228.553 257.811 228.405 257.75 228.25 257.75Z" fill="black"/>
<path d="M392.501 265.625C391.931 265.625 391.395 265.517 390.893 265.3C390.391 265.084 389.954 264.79 389.582 264.419C389.211 264.047 388.917 263.611 388.7 263.11C388.483 262.608 388.375 262.072 388.375 261.501C388.375 260.931 388.483 260.394 388.7 259.893C388.917 259.391 389.211 258.954 389.582 258.582C389.953 258.211 390.39 257.917 390.891 257.7C391.393 257.483 391.929 257.375 392.5 257.375C392.805 257.375 393.101 257.406 393.389 257.468C393.677 257.53 393.951 257.622 394.21 257.744V258.255C393.954 258.12 393.683 258.016 393.397 257.942C393.11 257.87 392.811 257.833 392.5 257.833C391.484 257.833 390.619 258.191 389.904 258.905C389.19 259.619 388.833 260.484 388.833 261.5C388.834 262.516 389.191 263.381 389.905 264.096C390.619 264.81 391.484 265.167 392.5 265.167C393.516 265.166 394.381 264.809 395.096 264.096C395.81 263.382 396.167 262.517 396.167 261.5C396.167 261.279 396.148 261.064 396.11 260.856C396.072 260.647 396.017 260.444 395.945 260.248H396.437C396.499 260.446 396.546 260.648 396.578 260.855C396.609 261.061 396.625 261.276 396.625 261.5C396.625 262.071 396.517 262.607 396.3 263.109C396.084 263.61 395.79 264.047 395.419 264.419C395.048 264.79 394.611 265.084 394.11 265.3C393.608 265.516 393.072 265.624 392.501 265.625ZM396.396 258.979V258.062H395.479V257.604H396.396V256.688H396.854V257.604H397.771V258.062H396.854V258.979H396.396ZM394.018 260.866C394.161 260.866 394.281 260.816 394.38 260.716C394.478 260.616 394.527 260.495 394.527 260.352C394.527 260.21 394.477 260.089 394.378 259.99C394.278 259.892 394.157 259.843 394.014 259.843C393.871 259.843 393.751 259.893 393.652 259.993C393.554 260.092 393.505 260.213 393.505 260.356C393.505 260.499 393.555 260.619 393.655 260.718C393.754 260.816 393.875 260.866 394.018 260.866ZM390.986 260.866C391.129 260.866 391.249 260.816 391.347 260.716C391.446 260.616 391.495 260.495 391.495 260.352C391.495 260.21 391.445 260.089 391.345 259.99C391.246 259.892 391.124 259.843 390.982 259.843C390.839 259.843 390.719 259.893 390.62 259.993C390.522 260.092 390.473 260.214 390.473 260.356C390.473 260.499 390.523 260.619 390.622 260.718C390.722 260.816 390.843 260.866 390.986 260.866ZM392.5 263.739C392.946 263.739 393.351 263.618 393.715 263.377C394.078 263.135 394.353 262.815 394.538 262.417H390.462C390.647 262.816 390.921 263.136 391.285 263.377C391.649 263.618 392.054 263.738 392.5 263.739Z" fill="black"/>
<rect x="248" y="175" width="79" height="6" fill="#D9D9D9"/>
<rect x="220" y="202" width="169" height="5" fill="#D9D9D9"/>
<rect x="220" y="211" width="123" height="5" fill="#D9D9D9"/>
<rect x="220" y="220" width="98" height="5" fill="#D9D9D9"/>
<rect x="220" y="229" width="75" height="5" fill="#D9D9D9"/>
<path d="M27.9214 184.74C28.8453 183.63 29.4879 182.313 29.7948 180.902C30.1017 179.491 30.0639 178.026 29.6846 176.633C29.3053 175.239 28.5956 173.957 27.6156 172.896C26.6357 171.834 25.4142 171.024 24.0546 170.534C22.695 170.044 21.2373 169.888 19.8047 170.08C18.3721 170.271 17.0068 170.805 15.8243 171.636C14.6419 172.466 13.677 173.569 13.0113 174.851C12.3456 176.133 11.9987 177.556 12 179C12.0005 181.1 12.741 183.132 14.0914 184.74L14.0786 184.751C14.1236 184.805 14.1751 184.852 14.2214 184.905C14.2793 184.971 14.3417 185.034 14.4015 185.098C14.5808 185.294 14.7673 185.48 14.9612 185.657C15.0212 185.71 15.0813 185.762 15.1413 185.813C15.3472 185.99 15.5595 186.158 15.7782 186.315C15.8065 186.335 15.8322 186.36 15.8605 186.38V186.372C17.3672 187.431 19.1647 188 21.0071 188C22.8495 188 24.6469 187.431 26.1536 186.372V186.38C26.1819 186.36 26.207 186.335 26.236 186.315C26.4547 186.158 26.667 185.99 26.8728 185.813C26.9329 185.762 26.9929 185.71 27.053 185.657C27.2464 185.48 27.433 185.294 27.6127 185.098C27.6725 185.034 27.7342 184.971 27.7928 184.905C27.8385 184.852 27.8906 184.805 27.9356 184.751L27.9214 184.74ZM21.0064 173.858C21.579 173.858 22.1387 174.028 22.6148 174.346C23.0908 174.663 23.4619 175.115 23.681 175.644C23.9001 176.172 23.9574 176.754 23.8457 177.315C23.734 177.876 23.4583 178.391 23.0535 178.796C22.6486 179.201 22.1328 179.476 21.5712 179.588C21.0096 179.699 20.4276 179.642 19.8986 179.423C19.3696 179.204 18.9175 178.833 18.5994 178.358C18.2813 177.882 18.1115 177.323 18.1115 176.751C18.1115 175.984 18.4165 175.248 18.9594 174.705C19.5023 174.163 20.2387 173.858 21.0064 173.858ZM15.8644 184.74C15.8756 183.896 16.2188 183.091 16.82 182.498C17.4211 181.905 18.2317 181.572 19.0765 181.572H22.9364C23.7812 181.572 24.5918 181.905 25.1929 182.498C25.794 183.091 26.1373 183.896 26.1485 184.74C24.7376 186.011 22.9057 186.714 21.0064 186.714C19.1072 186.714 17.2753 186.011 15.8644 184.74Z" fill="#D9D9D9"/>
<rect x="12" y="255" width="18" height="10" rx="5" fill="#D9D9D9"/>
<path d="M24.6051 262.05C24.3707 262.05 24.1618 262.009 23.9783 261.929C23.796 261.848 23.651 261.737 23.5433 261.593C23.4368 261.449 23.3788 261.281 23.3693 261.091H23.8168C23.8262 261.208 23.8665 261.309 23.9375 261.395C24.0085 261.479 24.1014 261.544 24.2163 261.59C24.3311 261.636 24.4583 261.659 24.598 261.659C24.7543 261.659 24.8928 261.632 25.0135 261.577C25.1342 261.523 25.2289 261.447 25.2976 261.35C25.3662 261.253 25.4006 261.141 25.4006 261.013C25.4006 260.879 25.3674 260.761 25.3011 260.659C25.2348 260.556 25.1378 260.476 25.0099 260.418C24.8821 260.36 24.7259 260.331 24.5412 260.331H24.25V259.94H24.5412C24.6856 259.94 24.8123 259.914 24.9212 259.862C25.0313 259.81 25.1171 259.737 25.1786 259.642C25.2414 259.547 25.2727 259.436 25.2727 259.308C25.2727 259.185 25.2455 259.078 25.1911 258.987C25.1366 258.896 25.0597 258.825 24.9602 258.774C24.862 258.723 24.746 258.697 24.6122 258.697C24.4867 258.697 24.3684 258.721 24.2571 258.767C24.147 258.812 24.0571 258.877 23.9872 258.964C23.9174 259.049 23.8795 259.152 23.8736 259.273H23.4474C23.4545 259.082 23.512 258.915 23.6197 258.772C23.7274 258.628 23.8683 258.515 24.0423 258.435C24.2174 258.354 24.4098 258.314 24.6193 258.314C24.8442 258.314 25.0372 258.359 25.1982 258.451C25.3591 258.541 25.4828 258.66 25.5692 258.808C25.6557 258.955 25.6989 259.115 25.6989 259.287C25.6989 259.492 25.645 259.666 25.5373 259.811C25.4308 259.955 25.2857 260.055 25.1023 260.111V260.139C25.3319 260.177 25.5112 260.275 25.6403 260.432C25.7693 260.588 25.8338 260.782 25.8338 261.013C25.8338 261.21 25.7799 261.388 25.6722 261.545C25.5657 261.702 25.4201 261.825 25.2354 261.915C25.0508 262.005 24.8407 262.05 24.6051 262.05Z" fill="black"/>
<path d="M15.5833 262.542H15.875V258.75H15.5833C15.4286 258.75 15.2803 258.811 15.1709 258.921C15.0615 259.03 15 259.179 15 259.333V261.958C15 262.113 15.0615 262.261 15.1709 262.371C15.2803 262.48 15.4286 262.542 15.5833 262.542ZM20.25 258.75H18.2083L18.5356 257.768C18.5648 257.68 18.5727 257.587 18.5588 257.495C18.5448 257.404 18.5094 257.317 18.4554 257.242C18.4013 257.167 18.3303 257.106 18.248 257.064C18.1658 257.022 18.0747 257 17.9823 257H17.9167L16.4583 258.586V262.542H19.6667L20.8077 260.035L20.8333 259.917V259.333C20.8333 259.179 20.7719 259.03 20.6625 258.921C20.5531 258.811 20.4047 258.75 20.25 258.75Z" fill="black"/>
<path d="M185.501 264.625C184.931 264.625 184.395 264.517 183.893 264.3C183.391 264.084 182.954 263.79 182.582 263.419C182.211 263.047 181.917 262.611 181.7 262.11C181.483 261.608 181.375 261.072 181.375 260.501C181.375 259.931 181.483 259.394 181.7 258.893C181.917 258.391 182.211 257.954 182.582 257.582C182.953 257.211 183.39 256.917 183.891 256.7C184.393 256.483 184.929 256.375 185.5 256.375C185.805 256.375 186.101 256.406 186.389 256.468C186.677 256.53 186.951 256.622 187.21 256.744V257.255C186.954 257.12 186.683 257.016 186.397 256.942C186.11 256.87 185.811 256.833 185.5 256.833C184.484 256.833 183.619 257.191 182.904 257.905C182.19 258.619 181.833 259.484 181.833 260.5C181.834 261.516 182.191 262.381 182.905 263.096C183.619 263.81 184.484 264.167 185.5 264.167C186.516 264.166 187.381 263.809 188.096 263.096C188.81 262.382 189.167 261.517 189.167 260.5C189.167 260.279 189.148 260.064 189.11 259.856C189.072 259.647 189.017 259.444 188.945 259.248H189.437C189.499 259.446 189.546 259.648 189.578 259.855C189.609 260.061 189.625 260.276 189.625 260.5C189.625 261.071 189.517 261.607 189.3 262.109C189.084 262.61 188.79 263.047 188.419 263.419C188.048 263.79 187.611 264.084 187.11 264.3C186.608 264.516 186.072 264.624 185.501 264.625ZM189.396 257.979V257.062H188.479V256.604H189.396V255.688H189.854V256.604H190.771V257.062H189.854V257.979H189.396ZM187.018 259.866C187.161 259.866 187.281 259.816 187.38 259.716C187.478 259.616 187.527 259.495 187.527 259.352C187.527 259.21 187.477 259.089 187.378 258.99C187.278 258.892 187.157 258.843 187.014 258.843C186.871 258.843 186.751 258.893 186.652 258.993C186.554 259.092 186.505 259.213 186.505 259.356C186.505 259.499 186.555 259.619 186.655 259.718C186.754 259.816 186.875 259.866 187.018 259.866ZM183.986 259.866C184.129 259.866 184.249 259.816 184.347 259.716C184.446 259.616 184.495 259.495 184.495 259.352C184.495 259.21 184.445 259.089 184.345 258.99C184.246 258.892 184.124 258.843 183.982 258.843C183.839 258.843 183.719 258.893 183.62 258.993C183.522 259.092 183.473 259.214 183.473 259.356C183.473 259.499 183.523 259.619 183.622 259.718C183.722 259.816 183.843 259.866 183.986 259.866ZM185.5 262.739C185.946 262.739 186.351 262.618 186.715 262.377C187.078 262.135 187.353 261.815 187.538 261.417H183.462C183.647 261.816 183.921 262.136 184.285 262.377C184.649 262.618 185.054 262.738 185.5 262.739Z" fill="black"/>
<rect x="40" y="176" width="79" height="6" fill="#D9D9D9"/>
<rect x="12" y="198" width="169" height="5" fill="#D9D9D9"/>
<rect x="12" y="207" width="123" height="5" fill="#D9D9D9"/>
<rect x="12" y="216" width="98" height="5" fill="#D9D9D9"/>
<rect x="12" y="225" width="75" height="5" fill="#D9D9D9"/>
<rect y="160" width="198" height="114" rx="11" fill="white"/>
<rect x="0.5" y="160.5" width="197" height="113" rx="10.5" stroke="black" stroke-opacity="0.13"/>
<path d="M27.9214 184.74C28.8453 183.63 29.4879 182.313 29.7948 180.902C30.1017 179.491 30.0639 178.026 29.6846 176.633C29.3053 175.239 28.5956 173.957 27.6156 172.896C26.6357 171.834 25.4142 171.024 24.0546 170.534C22.695 170.044 21.2373 169.888 19.8047 170.08C18.3721 170.271 17.0068 170.805 15.8243 171.636C14.6419 172.466 13.677 173.569 13.0113 174.851C12.3456 176.133 11.9987 177.556 12 179C12.0005 181.1 12.741 183.132 14.0914 184.74L14.0786 184.751C14.1236 184.805 14.1751 184.852 14.2214 184.905C14.2793 184.971 14.3417 185.034 14.4015 185.098C14.5808 185.294 14.7673 185.48 14.9612 185.657C15.0212 185.71 15.0813 185.762 15.1413 185.813C15.3472 185.99 15.5595 186.158 15.7782 186.315C15.8065 186.335 15.8322 186.36 15.8605 186.38V186.372C17.3672 187.431 19.1647 188 21.0071 188C22.8495 188 24.6469 187.431 26.1536 186.372V186.38C26.1819 186.36 26.207 186.335 26.236 186.315C26.4547 186.158 26.667 185.99 26.8728 185.813C26.9329 185.762 26.9929 185.71 27.053 185.657C27.2464 185.48 27.433 185.294 27.6127 185.098C27.6725 185.034 27.7342 184.971 27.7928 184.905C27.8385 184.852 27.8906 184.805 27.9356 184.751L27.9214 184.74ZM21.0064 173.858C21.579 173.858 22.1387 174.028 22.6148 174.346C23.0908 174.663 23.4619 175.115 23.681 175.644C23.9001 176.172 23.9574 176.754 23.8457 177.315C23.734 177.876 23.4583 178.391 23.0535 178.796C22.6486 179.201 22.1328 179.476 21.5712 179.588C21.0096 179.699 20.4276 179.642 19.8986 179.423C19.3696 179.204 18.9175 178.833 18.5994 178.358C18.2813 177.882 18.1115 177.323 18.1115 176.751C18.1115 175.984 18.4165 175.248 18.9594 174.705C19.5023 174.163 20.2387 173.858 21.0064 173.858ZM15.8644 184.74C15.8756 183.896 16.2188 183.091 16.82 182.498C17.4211 181.905 18.2317 181.572 19.0765 181.572H22.9364C23.7812 181.572 24.5918 181.905 25.1929 182.498C25.794 183.091 26.1373 183.896 26.1485 184.74C24.7376 186.011 22.9057 186.714 21.0064 186.714C19.1072 186.714 17.2753 186.011 15.8644 184.74Z" fill="#D9D9D9"/>
<rect x="12" y="255" width="18" height="10" rx="5" fill="#D9D9D9"/>
<path d="M24.6051 262.05C24.3707 262.05 24.1618 262.009 23.9783 261.929C23.796 261.848 23.651 261.737 23.5433 261.593C23.4368 261.449 23.3788 261.281 23.3693 261.091H23.8168C23.8262 261.208 23.8665 261.309 23.9375 261.395C24.0085 261.479 24.1014 261.544 24.2163 261.59C24.3311 261.636 24.4583 261.659 24.598 261.659C24.7543 261.659 24.8928 261.632 25.0135 261.577C25.1342 261.523 25.2289 261.447 25.2976 261.35C25.3662 261.253 25.4006 261.141 25.4006 261.013C25.4006 260.879 25.3674 260.761 25.3011 260.659C25.2348 260.556 25.1378 260.476 25.0099 260.418C24.8821 260.36 24.7259 260.331 24.5412 260.331H24.25V259.94H24.5412C24.6856 259.94 24.8123 259.914 24.9212 259.862C25.0313 259.81 25.1171 259.737 25.1786 259.642C25.2414 259.547 25.2727 259.436 25.2727 259.308C25.2727 259.185 25.2455 259.078 25.1911 258.987C25.1366 258.896 25.0597 258.825 24.9602 258.774C24.862 258.723 24.746 258.697 24.6122 258.697C24.4867 258.697 24.3684 258.721 24.2571 258.767C24.147 258.812 24.0571 258.877 23.9872 258.964C23.9174 259.049 23.8795 259.152 23.8736 259.273H23.4474C23.4545 259.082 23.512 258.915 23.6197 258.772C23.7274 258.628 23.8683 258.515 24.0423 258.435C24.2174 258.354 24.4098 258.314 24.6193 258.314C24.8442 258.314 25.0372 258.359 25.1982 258.451C25.3591 258.541 25.4828 258.66 25.5692 258.808C25.6557 258.955 25.6989 259.115 25.6989 259.287C25.6989 259.492 25.645 259.666 25.5373 259.811C25.4308 259.955 25.2857 260.055 25.1023 260.111V260.139C25.3319 260.177 25.5112 260.275 25.6403 260.432C25.7693 260.588 25.8338 260.782 25.8338 261.013C25.8338 261.21 25.7799 261.388 25.6722 261.545C25.5657 261.702 25.4201 261.825 25.2354 261.915C25.0508 262.005 24.8407 262.05 24.6051 262.05Z" fill="black"/>
<path d="M15.5833 262.542H15.875V258.75H15.5833C15.4286 258.75 15.2803 258.811 15.1709 258.921C15.0615 259.03 15 259.179 15 259.333V261.958C15 262.113 15.0615 262.261 15.1709 262.371C15.2803 262.48 15.4286 262.542 15.5833 262.542ZM20.25 258.75H18.2083L18.5356 257.768C18.5648 257.68 18.5727 257.587 18.5588 257.495C18.5448 257.404 18.5094 257.317 18.4554 257.242C18.4013 257.167 18.3303 257.106 18.248 257.064C18.1658 257.022 18.0747 257 17.9823 257H17.9167L16.4583 258.586V262.542H19.6667L20.8077 260.035L20.8333 259.917V259.333C20.8333 259.179 20.7719 259.03 20.6625 258.921C20.5531 258.811 20.4047 258.75 20.25 258.75Z" fill="black"/>
<path d="M185.501 264.625C184.931 264.625 184.395 264.517 183.893 264.3C183.391 264.084 182.954 263.79 182.582 263.419C182.211 263.047 181.917 262.611 181.7 262.11C181.483 261.608 181.375 261.072 181.375 260.501C181.375 259.931 181.483 259.394 181.7 258.893C181.917 258.391 182.211 257.954 182.582 257.582C182.953 257.211 183.39 256.917 183.891 256.7C184.393 256.483 184.929 256.375 185.5 256.375C185.805 256.375 186.101 256.406 186.389 256.468C186.677 256.53 186.951 256.622 187.21 256.744V257.255C186.954 257.12 186.683 257.016 186.397 256.942C186.11 256.87 185.811 256.833 185.5 256.833C184.484 256.833 183.619 257.191 182.904 257.905C182.19 258.619 181.833 259.484 181.833 260.5C181.834 261.516 182.191 262.381 182.905 263.096C183.619 263.81 184.484 264.167 185.5 264.167C186.516 264.166 187.381 263.809 188.096 263.096C188.81 262.382 189.167 261.517 189.167 260.5C189.167 260.279 189.148 260.064 189.11 259.856C189.072 259.647 189.017 259.444 188.945 259.248H189.437C189.499 259.446 189.546 259.648 189.578 259.855C189.609 260.061 189.625 260.276 189.625 260.5C189.625 261.071 189.517 261.607 189.3 262.109C189.084 262.61 188.79 263.047 188.419 263.419C188.048 263.79 187.611 264.084 187.11 264.3C186.608 264.516 186.072 264.624 185.501 264.625ZM189.396 257.979V257.062H188.479V256.604H189.396V255.688H189.854V256.604H190.771V257.062H189.854V257.979H189.396ZM187.018 259.866C187.161 259.866 187.281 259.816 187.38 259.716C187.478 259.616 187.527 259.495 187.527 259.352C187.527 259.21 187.477 259.089 187.378 258.99C187.278 258.892 187.157 258.843 187.014 258.843C186.871 258.843 186.751 258.893 186.652 258.993C186.554 259.092 186.505 259.213 186.505 259.356C186.505 259.499 186.555 259.619 186.655 259.718C186.754 259.816 186.875 259.866 187.018 259.866ZM183.986 259.866C184.129 259.866 184.249 259.816 184.347 259.716C184.446 259.616 184.495 259.495 184.495 259.352C184.495 259.21 184.445 259.089 184.345 258.99C184.246 258.892 184.124 258.843 183.982 258.843C183.839 258.843 183.719 258.893 183.62 258.993C183.522 259.092 183.473 259.214 183.473 259.356C183.473 259.499 183.523 259.619 183.622 259.718C183.722 259.816 183.843 259.866 183.986 259.866ZM185.5 262.739C185.946 262.739 186.351 262.618 186.715 262.377C187.078 262.135 187.353 261.815 187.538 261.417H183.462C183.647 261.816 183.921 262.136 184.285 262.377C184.649 262.618 185.054 262.738 185.5 262.739Z" fill="black"/>
<rect x="40" y="176" width="79" height="6" fill="#D9D9D9"/>
<rect x="12" y="203" width="169" height="5" fill="#D9D9D9"/>
<rect x="12" y="212" width="123" height="5" fill="#D9D9D9"/>
<rect x="12" y="221" width="98" height="5" fill="#D9D9D9"/>
<rect x="12" y="230" width="75" height="5" fill="#D9D9D9"/>
<path d="M234.921 60.7405C235.845 59.6298 236.488 58.3132 236.795 56.9019C237.102 55.4906 237.064 54.0263 236.685 52.6327C236.305 51.2391 235.596 49.9573 234.616 48.8957C233.636 47.8341 232.414 47.024 231.055 46.5338C229.695 46.0436 228.237 45.8879 226.805 46.0797C225.372 46.2715 224.007 46.8052 222.824 47.6357C221.642 48.4663 220.677 49.5691 220.011 50.851C219.346 52.133 218.999 53.5562 219 55.0004C219.001 57.0999 219.741 59.1321 221.091 60.7405L221.079 60.7514C221.124 60.8054 221.175 60.8517 221.221 60.905C221.279 60.9712 221.342 61.0336 221.402 61.0979C221.581 61.2937 221.767 61.4801 221.961 61.6571C222.021 61.7102 222.081 61.7621 222.141 61.8126C222.347 61.9905 222.559 62.158 222.778 62.3153C222.807 62.3346 222.832 62.3597 222.861 62.3796V62.3719C224.367 63.4314 226.165 64 228.007 64C229.849 64 231.647 63.4314 233.154 62.3719V62.3796C233.182 62.3597 233.207 62.3346 233.236 62.3153C233.455 62.1576 233.667 61.9901 233.873 61.8126C233.933 61.7616 233.993 61.7098 234.053 61.6571C234.246 61.4801 234.433 61.2937 234.613 61.0979C234.672 61.0336 234.734 60.9712 234.793 60.905C234.838 60.8517 234.891 60.8054 234.936 60.7508L234.921 60.7405ZM228.006 49.8582C228.579 49.8582 229.139 50.0278 229.615 50.3456C230.091 50.6635 230.462 51.1152 230.681 51.6438C230.9 52.1723 230.957 52.7539 230.846 53.315C230.734 53.8761 230.458 54.3915 230.053 54.796C229.649 55.2005 229.133 55.476 228.571 55.5876C228.01 55.6992 227.428 55.642 226.899 55.423C226.37 55.2041 225.917 54.8334 225.599 54.3577C225.281 53.882 225.112 53.3228 225.112 52.7507C225.112 51.9835 225.417 51.2478 225.959 50.7054C226.502 50.1629 227.239 49.8582 228.006 49.8582ZM222.864 60.7405C222.876 59.8965 223.219 59.0908 223.82 58.4978C224.421 57.9047 225.232 57.572 226.076 57.5716H229.936C230.781 57.572 231.592 57.9047 232.193 58.4978C232.794 59.0908 233.137 59.8965 233.148 60.7405C231.738 62.0108 229.906 62.7139 228.006 62.7139C226.107 62.7139 224.275 62.0108 222.864 60.7405Z" fill="#D9D9D9"/>
<rect x="219" y="131" width="18" height="10" rx="5" fill="#D9D9D9"/>
<path d="M231.605 138.05C231.371 138.05 231.162 138.009 230.978 137.929C230.796 137.848 230.651 137.737 230.543 137.593C230.437 137.449 230.379 137.281 230.369 137.091H230.817C230.826 137.208 230.866 137.309 230.938 137.395C231.009 137.479 231.101 137.544 231.216 137.59C231.331 137.636 231.458 137.659 231.598 137.659C231.754 137.659 231.893 137.632 232.013 137.577C232.134 137.523 232.229 137.447 232.298 137.35C232.366 137.253 232.401 137.141 232.401 137.013C232.401 136.879 232.367 136.761 232.301 136.659C232.235 136.556 232.138 136.476 232.01 136.418C231.882 136.36 231.726 136.331 231.541 136.331H231.25V135.94H231.541C231.686 135.94 231.812 135.914 231.921 135.862C232.031 135.81 232.117 135.737 232.179 135.642C232.241 135.547 232.273 135.436 232.273 135.308C232.273 135.185 232.246 135.078 232.191 134.987C232.137 134.896 232.06 134.825 231.96 134.774C231.862 134.723 231.746 134.697 231.612 134.697C231.487 134.697 231.368 134.721 231.257 134.767C231.147 134.812 231.057 134.877 230.987 134.964C230.917 135.049 230.879 135.152 230.874 135.273H230.447C230.455 135.082 230.512 134.915 230.62 134.772C230.727 134.628 230.868 134.515 231.042 134.435C231.217 134.354 231.41 134.314 231.619 134.314C231.844 134.314 232.037 134.359 232.198 134.451C232.359 134.541 232.483 134.66 232.569 134.808C232.656 134.955 232.699 135.115 232.699 135.287C232.699 135.492 232.645 135.666 232.537 135.811C232.431 135.955 232.286 136.055 232.102 136.111V136.139C232.332 136.177 232.511 136.275 232.64 136.432C232.769 136.588 232.834 136.782 232.834 137.013C232.834 137.21 232.78 137.388 232.672 137.545C232.566 137.702 232.42 137.825 232.235 137.915C232.051 138.005 231.841 138.05 231.605 138.05Z" fill="black"/>
<path d="M222.583 138.542H222.875V134.75H222.583C222.429 134.75 222.28 134.811 222.171 134.921C222.061 135.03 222 135.179 222 135.333V137.958C222 138.113 222.061 138.261 222.171 138.371C222.28 138.48 222.429 138.542 222.583 138.542ZM227.25 134.75H225.208L225.536 133.768C225.565 133.68 225.573 133.587 225.559 133.495C225.545 133.404 225.509 133.317 225.455 133.242C225.401 133.167 225.33 133.106 225.248 133.064C225.166 133.022 225.075 133 224.982 133H224.917L223.458 134.586V138.542H226.667L227.808 136.035L227.833 135.917V135.333C227.833 135.179 227.772 135.03 227.662 134.921C227.553 134.811 227.405 134.75 227.25 134.75Z" fill="black"/>
<rect x="247" y="52" width="79" height="6" fill="#D9D9D9"/>
<rect x="219" y="74" width="169" height="5" fill="#D9D9D9"/>
<rect x="219" y="83" width="123" height="5" fill="#D9D9D9"/>
<rect x="219" y="92" width="98" height="5" fill="#D9D9D9"/>
<rect x="219" y="101" width="75" height="5" fill="#D9D9D9"/>
<rect x="207" y="36" width="198" height="114" rx="11" fill="white"/>
<rect x="207.5" y="36.5" width="197" height="113" rx="10.5" stroke="black" stroke-opacity="0.13"/>
<path d="M234.921 60.7405C235.845 59.6298 236.488 58.3132 236.795 56.9019C237.102 55.4906 237.064 54.0263 236.685 52.6327C236.305 51.2391 235.596 49.9573 234.616 48.8957C233.636 47.8341 232.414 47.024 231.055 46.5338C229.695 46.0436 228.237 45.8879 226.805 46.0797C225.372 46.2715 224.007 46.8052 222.824 47.6357C221.642 48.4663 220.677 49.5691 220.011 50.851C219.346 52.133 218.999 53.5562 219 55.0004C219.001 57.0999 219.741 59.1321 221.091 60.7405L221.079 60.7514C221.124 60.8054 221.175 60.8517 221.221 60.905C221.279 60.9712 221.342 61.0336 221.402 61.0979C221.581 61.2937 221.767 61.4801 221.961 61.6571C222.021 61.7102 222.081 61.7621 222.141 61.8126C222.347 61.9905 222.559 62.158 222.778 62.3153C222.807 62.3346 222.832 62.3597 222.861 62.3796V62.3719C224.367 63.4314 226.165 64 228.007 64C229.849 64 231.647 63.4314 233.154 62.3719V62.3796C233.182 62.3597 233.207 62.3346 233.236 62.3153C233.455 62.1576 233.667 61.9901 233.873 61.8126C233.933 61.7616 233.993 61.7098 234.053 61.6571C234.246 61.4801 234.433 61.2937 234.613 61.0979C234.672 61.0336 234.734 60.9712 234.793 60.905C234.838 60.8517 234.891 60.8054 234.936 60.7508L234.921 60.7405ZM228.006 49.8582C228.579 49.8582 229.139 50.0278 229.615 50.3456C230.091 50.6635 230.462 51.1152 230.681 51.6438C230.9 52.1723 230.957 52.7539 230.846 53.315C230.734 53.8761 230.458 54.3915 230.053 54.796C229.649 55.2005 229.133 55.476 228.571 55.5876C228.01 55.6992 227.428 55.642 226.899 55.423C226.37 55.2041 225.917 54.8334 225.599 54.3577C225.281 53.882 225.112 53.3228 225.112 52.7507C225.112 51.9835 225.417 51.2478 225.959 50.7054C226.502 50.1629 227.239 49.8582 228.006 49.8582ZM222.864 60.7405C222.876 59.8965 223.219 59.0908 223.82 58.4978C224.421 57.9047 225.232 57.572 226.076 57.5716H229.936C230.781 57.572 231.592 57.9047 232.193 58.4978C232.794 59.0908 233.137 59.8965 233.148 60.7405C231.738 62.0108 229.906 62.7139 228.006 62.7139C226.107 62.7139 224.275 62.0108 222.864 60.7405Z" fill="#D9D9D9"/>
<rect x="219" y="131" width="18" height="10" rx="5" fill="#D9D9D9"/>
<path d="M231.605 138.05C231.371 138.05 231.162 138.009 230.978 137.929C230.796 137.848 230.651 137.737 230.543 137.593C230.437 137.449 230.379 137.281 230.369 137.091H230.817C230.826 137.208 230.866 137.309 230.938 137.395C231.009 137.479 231.101 137.544 231.216 137.59C231.331 137.636 231.458 137.659 231.598 137.659C231.754 137.659 231.893 137.632 232.013 137.577C232.134 137.523 232.229 137.447 232.298 137.35C232.366 137.253 232.401 137.141 232.401 137.013C232.401 136.879 232.367 136.761 232.301 136.659C232.235 136.556 232.138 136.476 232.01 136.418C231.882 136.36 231.726 136.331 231.541 136.331H231.25V135.94H231.541C231.686 135.94 231.812 135.914 231.921 135.862C232.031 135.81 232.117 135.737 232.179 135.642C232.241 135.547 232.273 135.436 232.273 135.308C232.273 135.185 232.246 135.078 232.191 134.987C232.137 134.896 232.06 134.825 231.96 134.774C231.862 134.723 231.746 134.697 231.612 134.697C231.487 134.697 231.368 134.721 231.257 134.767C231.147 134.812 231.057 134.877 230.987 134.964C230.917 135.049 230.879 135.152 230.874 135.273H230.447C230.455 135.082 230.512 134.915 230.62 134.772C230.727 134.628 230.868 134.515 231.042 134.435C231.217 134.354 231.41 134.314 231.619 134.314C231.844 134.314 232.037 134.359 232.198 134.451C232.359 134.541 232.483 134.66 232.569 134.808C232.656 134.955 232.699 135.115 232.699 135.287C232.699 135.492 232.645 135.666 232.537 135.811C232.431 135.955 232.286 136.055 232.102 136.111V136.139C232.332 136.177 232.511 136.275 232.64 136.432C232.769 136.588 232.834 136.782 232.834 137.013C232.834 137.21 232.78 137.388 232.672 137.545C232.566 137.702 232.42 137.825 232.235 137.915C232.051 138.005 231.841 138.05 231.605 138.05Z" fill="black"/>
<path d="M222.583 138.542H222.875V134.75H222.583C222.429 134.75 222.28 134.811 222.171 134.921C222.061 135.03 222 135.179 222 135.333V137.958C222 138.113 222.061 138.261 222.171 138.371C222.28 138.48 222.429 138.542 222.583 138.542ZM227.25 134.75H225.208L225.536 133.768C225.565 133.68 225.573 133.587 225.559 133.495C225.545 133.404 225.509 133.317 225.455 133.242C225.401 133.167 225.33 133.106 225.248 133.064C225.166 133.022 225.075 133 224.982 133H224.917L223.458 134.586V138.542H226.667L227.808 136.035L227.833 135.917V135.333C227.833 135.179 227.772 135.03 227.662 134.921C227.553 134.811 227.405 134.75 227.25 134.75Z" fill="black"/>
<path d="M392.501 140.625C391.931 140.625 391.395 140.517 390.893 140.3C390.391 140.084 389.954 139.79 389.582 139.419C389.211 139.047 388.917 138.611 388.7 138.11C388.483 137.608 388.375 137.072 388.375 136.501C388.375 135.931 388.483 135.394 388.7 134.893C388.917 134.391 389.211 133.954 389.582 133.582C389.953 133.211 390.39 132.917 390.891 132.7C391.393 132.483 391.929 132.375 392.5 132.375C392.805 132.375 393.101 132.406 393.389 132.468C393.677 132.53 393.951 132.622 394.21 132.744V133.255C393.954 133.12 393.683 133.016 393.397 132.942C393.11 132.87 392.811 132.833 392.5 132.833C391.484 132.833 390.619 133.191 389.904 133.905C389.19 134.619 388.833 135.484 388.833 136.5C388.834 137.516 389.191 138.381 389.905 139.096C390.619 139.81 391.484 140.167 392.5 140.167C393.516 140.166 394.381 139.809 395.096 139.096C395.81 138.382 396.167 137.517 396.167 136.5C396.167 136.279 396.148 136.064 396.11 135.856C396.072 135.647 396.017 135.444 395.945 135.248H396.437C396.499 135.446 396.546 135.648 396.578 135.855C396.609 136.061 396.625 136.276 396.625 136.5C396.625 137.071 396.517 137.607 396.3 138.109C396.084 138.61 395.79 139.047 395.419 139.419C395.048 139.79 394.611 140.084 394.11 140.3C393.608 140.516 393.072 140.624 392.501 140.625ZM396.396 133.979V133.062H395.479V132.604H396.396V131.688H396.854V132.604H397.771V133.062H396.854V133.979H396.396ZM394.018 135.866C394.161 135.866 394.281 135.816 394.38 135.716C394.478 135.616 394.527 135.495 394.527 135.352C394.527 135.21 394.477 135.089 394.378 134.99C394.278 134.892 394.157 134.843 394.014 134.843C393.871 134.843 393.751 134.893 393.652 134.993C393.554 135.092 393.505 135.213 393.505 135.356C393.505 135.499 393.555 135.619 393.655 135.718C393.754 135.816 393.875 135.866 394.018 135.866ZM390.986 135.866C391.129 135.866 391.249 135.816 391.347 135.716C391.446 135.616 391.495 135.495 391.495 135.352C391.495 135.21 391.445 135.089 391.345 134.99C391.246 134.892 391.124 134.843 390.982 134.843C390.839 134.843 390.719 134.893 390.62 134.993C390.522 135.092 390.473 135.214 390.473 135.356C390.473 135.499 390.523 135.619 390.622 135.718C390.722 135.816 390.843 135.866 390.986 135.866ZM392.5 138.739C392.946 138.739 393.351 138.618 393.715 138.377C394.078 138.135 394.353 137.815 394.538 137.417H390.462C390.647 137.816 390.921 138.136 391.285 138.377C391.649 138.618 392.054 138.738 392.5 138.739Z" fill="black"/>
<rect x="247" y="52" width="79" height="6" fill="#D9D9D9"/>
<rect x="219" y="79" width="169" height="5" fill="#D9D9D9"/>
<rect x="219" y="88" width="123" height="5" fill="#D9D9D9"/>
<rect x="219" y="97" width="98" height="5" fill="#D9D9D9"/>
<rect x="219" y="106" width="75" height="5" fill="#D9D9D9"/>
<path d="M27.9214 61.7405C28.8453 60.6298 29.4879 59.3132 29.7948 57.9019C30.1017 56.4906 30.0639 55.0263 29.6846 53.6327C29.3053 52.2391 28.5956 50.9573 27.6156 49.8957C26.6357 48.8341 25.4142 48.024 24.0546 47.5338C22.695 47.0436 21.2373 46.8879 19.8047 47.0797C18.3721 47.2715 17.0068 47.8052 15.8243 48.6357C14.6419 49.4663 13.677 50.5691 13.0113 51.851C12.3456 53.133 11.9987 54.5562 12 56.0004C12.0005 58.0999 12.741 60.1321 14.0914 61.7405L14.0786 61.7514C14.1236 61.8054 14.1751 61.8517 14.2214 61.905C14.2793 61.9712 14.3417 62.0336 14.4015 62.0979C14.5808 62.2937 14.7673 62.4801 14.9612 62.6571C15.0212 62.7102 15.0813 62.7621 15.1413 62.8126C15.3472 62.9905 15.5595 63.158 15.7782 63.3153C15.8065 63.3346 15.8322 63.3597 15.8605 63.3796V63.3719C17.3672 64.4314 19.1647 65 21.0071 65C22.8495 65 24.6469 64.4314 26.1536 63.3719V63.3796C26.1819 63.3597 26.207 63.3346 26.236 63.3153C26.4547 63.1576 26.667 62.9901 26.8728 62.8126C26.9329 62.7616 26.9929 62.7098 27.053 62.6571C27.2464 62.4801 27.433 62.2937 27.6127 62.0979C27.6725 62.0336 27.7342 61.9712 27.7928 61.905C27.8385 61.8517 27.8906 61.8054 27.9356 61.7508L27.9214 61.7405ZM21.0064 50.8582C21.579 50.8582 22.1387 51.0278 22.6148 51.3456C23.0908 51.6635 23.4619 52.1152 23.681 52.6438C23.9001 53.1723 23.9574 53.7539 23.8457 54.315C23.734 54.8761 23.4583 55.3915 23.0535 55.796C22.6486 56.2005 22.1328 56.476 21.5712 56.5876C21.0096 56.6992 20.4276 56.642 19.8986 56.423C19.3696 56.2041 18.9175 55.8334 18.5994 55.3577C18.2813 54.882 18.1115 54.3228 18.1115 53.7507C18.1115 52.9835 18.4165 52.2478 18.9594 51.7054C19.5023 51.1629 20.2387 50.8582 21.0064 50.8582ZM15.8644 61.7405C15.8756 60.8965 16.2188 60.0908 16.82 59.4978C17.4211 58.9047 18.2317 58.572 19.0765 58.5716H22.9364C23.7812 58.572 24.5918 58.9047 25.1929 59.4978C25.794 60.0908 26.1373 60.8965 26.1485 61.7405C24.7376 63.0108 22.9057 63.7139 21.0064 63.7139C19.1072 63.7139 17.2753 63.0108 15.8644 61.7405Z" fill="#D9D9D9"/>
<rect x="12" y="132" width="18" height="10" rx="5" fill="#D9D9D9"/>
<path d="M24.6051 139.05C24.3707 139.05 24.1618 139.009 23.9783 138.929C23.796 138.848 23.651 138.737 23.5433 138.593C23.4368 138.449 23.3788 138.281 23.3693 138.091H23.8168C23.8262 138.208 23.8665 138.309 23.9375 138.395C24.0085 138.479 24.1014 138.544 24.2163 138.59C24.3311 138.636 24.4583 138.659 24.598 138.659C24.7543 138.659 24.8928 138.632 25.0135 138.577C25.1342 138.523 25.2289 138.447 25.2976 138.35C25.3662 138.253 25.4006 138.141 25.4006 138.013C25.4006 137.879 25.3674 137.761 25.3011 137.659C25.2348 137.556 25.1378 137.476 25.0099 137.418C24.8821 137.36 24.7259 137.331 24.5412 137.331H24.25V136.94H24.5412C24.6856 136.94 24.8123 136.914 24.9212 136.862C25.0313 136.81 25.1171 136.737 25.1786 136.642C25.2414 136.547 25.2727 136.436 25.2727 136.308C25.2727 136.185 25.2455 136.078 25.1911 135.987C25.1366 135.896 25.0597 135.825 24.9602 135.774C24.862 135.723 24.746 135.697 24.6122 135.697C24.4867 135.697 24.3684 135.721 24.2571 135.767C24.147 135.812 24.0571 135.877 23.9872 135.964C23.9174 136.049 23.8795 136.152 23.8736 136.273H23.4474C23.4545 136.082 23.512 135.915 23.6197 135.772C23.7274 135.628 23.8683 135.515 24.0423 135.435C24.2174 135.354 24.4098 135.314 24.6193 135.314C24.8442 135.314 25.0372 135.359 25.1982 135.451C25.3591 135.541 25.4828 135.66 25.5692 135.808C25.6557 135.955 25.6989 136.115 25.6989 136.287C25.6989 136.492 25.645 136.666 25.5373 136.811C25.4308 136.955 25.2857 137.055 25.1023 137.111V137.139C25.3319 137.177 25.5112 137.275 25.6403 137.432C25.7693 137.588 25.8338 137.782 25.8338 138.013C25.8338 138.21 25.7799 138.388 25.6722 138.545C25.5657 138.702 25.4201 138.825 25.2354 138.915C25.0508 139.005 24.8407 139.05 24.6051 139.05Z" fill="black"/>
<path d="M15.5833 139.542H15.875V135.75H15.5833C15.4286 135.75 15.2803 135.811 15.1709 135.921C15.0615 136.03 15 136.179 15 136.333V138.958C15 139.113 15.0615 139.261 15.1709 139.371C15.2803 139.48 15.4286 139.542 15.5833 139.542ZM20.25 135.75H18.2083L18.5356 134.768C18.5648 134.68 18.5727 134.587 18.5588 134.495C18.5448 134.404 18.5094 134.317 18.4554 134.242C18.4013 134.167 18.3303 134.106 18.248 134.064C18.1658 134.022 18.0747 134 17.9823 134H17.9167L16.4583 135.586V139.542H19.6667L20.8077 137.035L20.8333 136.917V136.333C20.8333 136.179 20.7719 136.03 20.6625 135.921C20.5531 135.811 20.4047 135.75 20.25 135.75Z" fill="black"/>
<path d="M185.501 141.625C184.931 141.625 184.395 141.517 183.893 141.3C183.391 141.084 182.954 140.79 182.582 140.419C182.211 140.047 181.917 139.611 181.7 139.11C181.483 138.608 181.375 138.072 181.375 137.501C181.375 136.931 181.483 136.394 181.7 135.893C181.917 135.391 182.211 134.954 182.582 134.582C182.953 134.211 183.39 133.917 183.891 133.7C184.393 133.483 184.929 133.375 185.5 133.375C185.805 133.375 186.101 133.406 186.389 133.468C186.677 133.53 186.951 133.622 187.21 133.744V134.255C186.954 134.12 186.683 134.016 186.397 133.942C186.11 133.87 185.811 133.833 185.5 133.833C184.484 133.833 183.619 134.191 182.904 134.905C182.19 135.619 181.833 136.484 181.833 137.5C181.834 138.516 182.191 139.381 182.905 140.096C183.619 140.81 184.484 141.167 185.5 141.167C186.516 141.166 187.381 140.809 188.096 140.096C188.81 139.382 189.167 138.517 189.167 137.5C189.167 137.279 189.148 137.064 189.11 136.856C189.072 136.647 189.017 136.444 188.945 136.248H189.437C189.499 136.446 189.546 136.648 189.578 136.855C189.609 137.061 189.625 137.276 189.625 137.5C189.625 138.071 189.517 138.607 189.3 139.109C189.084 139.61 188.79 140.047 188.419 140.419C188.048 140.79 187.611 141.084 187.11 141.3C186.608 141.516 186.072 141.624 185.501 141.625ZM189.396 134.979V134.062H188.479V133.604H189.396V132.688H189.854V133.604H190.771V134.062H189.854V134.979H189.396ZM187.018 136.866C187.161 136.866 187.281 136.816 187.38 136.716C187.478 136.616 187.527 136.495 187.527 136.352C187.527 136.21 187.477 136.089 187.378 135.99C187.278 135.892 187.157 135.843 187.014 135.843C186.871 135.843 186.751 135.893 186.652 135.993C186.554 136.092 186.505 136.213 186.505 136.356C186.505 136.499 186.555 136.619 186.655 136.718C186.754 136.816 186.875 136.866 187.018 136.866ZM183.986 136.866C184.129 136.866 184.249 136.816 184.347 136.716C184.446 136.616 184.495 136.495 184.495 136.352C184.495 136.21 184.445 136.089 184.345 135.99C184.246 135.892 184.124 135.843 183.982 135.843C183.839 135.843 183.719 135.893 183.62 135.993C183.522 136.092 183.473 136.214 183.473 136.356C183.473 136.499 183.523 136.619 183.622 136.718C183.722 136.816 183.843 136.866 183.986 136.866ZM185.5 139.739C185.946 139.739 186.351 139.618 186.715 139.377C187.078 139.135 187.353 138.815 187.538 138.417H183.462C183.647 138.816 183.921 139.136 184.285 139.377C184.649 139.618 185.054 139.738 185.5 139.739Z" fill="black"/>
<rect x="40" y="53" width="79" height="6" fill="#D9D9D9"/>
<rect x="12" y="75" width="169" height="5" fill="#D9D9D9"/>
<rect x="12" y="84" width="123" height="5" fill="#D9D9D9"/>
<rect x="12" y="93" width="98" height="5" fill="#D9D9D9"/>
<rect x="12" y="102" width="75" height="5" fill="#D9D9D9"/>
<rect y="37" width="198" height="114" rx="11" fill="white"/>
<rect x="0.5" y="37.5" width="197" height="113" rx="10.5" stroke="black" stroke-opacity="0.13"/>
<path d="M27.9214 61.7405C28.8453 60.6298 29.4879 59.3132 29.7948 57.9019C30.1017 56.4906 30.0639 55.0263 29.6846 53.6327C29.3053 52.2391 28.5956 50.9573 27.6156 49.8957C26.6357 48.8341 25.4142 48.024 24.0546 47.5338C22.695 47.0436 21.2373 46.8879 19.8047 47.0797C18.3721 47.2715 17.0068 47.8052 15.8243 48.6357C14.6419 49.4663 13.677 50.5691 13.0113 51.851C12.3456 53.133 11.9987 54.5562 12 56.0004C12.0005 58.0999 12.741 60.1321 14.0914 61.7405L14.0786 61.7514C14.1236 61.8054 14.1751 61.8517 14.2214 61.905C14.2793 61.9712 14.3417 62.0336 14.4015 62.0979C14.5808 62.2937 14.7673 62.4801 14.9612 62.6571C15.0212 62.7102 15.0813 62.7621 15.1413 62.8126C15.3472 62.9905 15.5595 63.158 15.7782 63.3153C15.8065 63.3346 15.8322 63.3597 15.8605 63.3796V63.3719C17.3672 64.4314 19.1647 65 21.0071 65C22.8495 65 24.6469 64.4314 26.1536 63.3719V63.3796C26.1819 63.3597 26.207 63.3346 26.236 63.3153C26.4547 63.1576 26.667 62.9901 26.8728 62.8126C26.9329 62.7616 26.9929 62.7098 27.053 62.6571C27.2464 62.4801 27.433 62.2937 27.6127 62.0979C27.6725 62.0336 27.7342 61.9712 27.7928 61.905C27.8385 61.8517 27.8906 61.8054 27.9356 61.7508L27.9214 61.7405ZM21.0064 50.8582C21.579 50.8582 22.1387 51.0278 22.6148 51.3456C23.0908 51.6635 23.4619 52.1152 23.681 52.6438C23.9001 53.1723 23.9574 53.7539 23.8457 54.315C23.734 54.8761 23.4583 55.3915 23.0535 55.796C22.6486 56.2005 22.1328 56.476 21.5712 56.5876C21.0096 56.6992 20.4276 56.642 19.8986 56.423C19.3696 56.2041 18.9175 55.8334 18.5994 55.3577C18.2813 54.882 18.1115 54.3228 18.1115 53.7507C18.1115 52.9835 18.4165 52.2478 18.9594 51.7054C19.5023 51.1629 20.2387 50.8582 21.0064 50.8582ZM15.8644 61.7405C15.8756 60.8965 16.2188 60.0908 16.82 59.4978C17.4211 58.9047 18.2317 58.572 19.0765 58.5716H22.9364C23.7812 58.572 24.5918 58.9047 25.1929 59.4978C25.794 60.0908 26.1373 60.8965 26.1485 61.7405C24.7376 63.0108 22.9057 63.7139 21.0064 63.7139C19.1072 63.7139 17.2753 63.0108 15.8644 61.7405Z" fill="#D9D9D9"/>
<rect x="12" y="132" width="18" height="10" rx="5" fill="#D9D9D9"/>
<path d="M24.6051 139.05C24.3707 139.05 24.1618 139.009 23.9783 138.929C23.796 138.848 23.651 138.737 23.5433 138.593C23.4368 138.449 23.3788 138.281 23.3693 138.091H23.8168C23.8262 138.208 23.8665 138.309 23.9375 138.395C24.0085 138.479 24.1014 138.544 24.2163 138.59C24.3311 138.636 24.4583 138.659 24.598 138.659C24.7543 138.659 24.8928 138.632 25.0135 138.577C25.1342 138.523 25.2289 138.447 25.2976 138.35C25.3662 138.253 25.4006 138.141 25.4006 138.013C25.4006 137.879 25.3674 137.761 25.3011 137.659C25.2348 137.556 25.1378 137.476 25.0099 137.418C24.8821 137.36 24.7259 137.331 24.5412 137.331H24.25V136.94H24.5412C24.6856 136.94 24.8123 136.914 24.9212 136.862C25.0313 136.81 25.1171 136.737 25.1786 136.642C25.2414 136.547 25.2727 136.436 25.2727 136.308C25.2727 136.185 25.2455 136.078 25.1911 135.987C25.1366 135.896 25.0597 135.825 24.9602 135.774C24.862 135.723 24.746 135.697 24.6122 135.697C24.4867 135.697 24.3684 135.721 24.2571 135.767C24.147 135.812 24.0571 135.877 23.9872 135.964C23.9174 136.049 23.8795 136.152 23.8736 136.273H23.4474C23.4545 136.082 23.512 135.915 23.6197 135.772C23.7274 135.628 23.8683 135.515 24.0423 135.435C24.2174 135.354 24.4098 135.314 24.6193 135.314C24.8442 135.314 25.0372 135.359 25.1982 135.451C25.3591 135.541 25.4828 135.66 25.5692 135.808C25.6557 135.955 25.6989 136.115 25.6989 136.287C25.6989 136.492 25.645 136.666 25.5373 136.811C25.4308 136.955 25.2857 137.055 25.1023 137.111V137.139C25.3319 137.177 25.5112 137.275 25.6403 137.432C25.7693 137.588 25.8338 137.782 25.8338 138.013C25.8338 138.21 25.7799 138.388 25.6722 138.545C25.5657 138.702 25.4201 138.825 25.2354 138.915C25.0508 139.005 24.8407 139.05 24.6051 139.05Z" fill="black"/>
<path d="M15.5833 139.542H15.875V135.75H15.5833C15.4286 135.75 15.2803 135.811 15.1709 135.921C15.0615 136.03 15 136.179 15 136.333V138.958C15 139.113 15.0615 139.261 15.1709 139.371C15.2803 139.48 15.4286 139.542 15.5833 139.542ZM20.25 135.75H18.2083L18.5356 134.768C18.5648 134.68 18.5727 134.587 18.5588 134.495C18.5448 134.404 18.5094 134.317 18.4554 134.242C18.4013 134.167 18.3303 134.106 18.248 134.064C18.1658 134.022 18.0747 134 17.9823 134H17.9167L16.4583 135.586V139.542H19.6667L20.8077 137.035L20.8333 136.917V136.333C20.8333 136.179 20.7719 136.03 20.6625 135.921C20.5531 135.811 20.4047 135.75 20.25 135.75Z" fill="black"/>
<path d="M185.501 141.625C184.931 141.625 184.395 141.517 183.893 141.3C183.391 141.084 182.954 140.79 182.582 140.419C182.211 140.047 181.917 139.611 181.7 139.11C181.483 138.608 181.375 138.072 181.375 137.501C181.375 136.931 181.483 136.394 181.7 135.893C181.917 135.391 182.211 134.954 182.582 134.582C182.953 134.211 183.39 133.917 183.891 133.7C184.393 133.483 184.929 133.375 185.5 133.375C185.805 133.375 186.101 133.406 186.389 133.468C186.677 133.53 186.951 133.622 187.21 133.744V134.255C186.954 134.12 186.683 134.016 186.397 133.942C186.11 133.87 185.811 133.833 185.5 133.833C184.484 133.833 183.619 134.191 182.904 134.905C182.19 135.619 181.833 136.484 181.833 137.5C181.834 138.516 182.191 139.381 182.905 140.096C183.619 140.81 184.484 141.167 185.5 141.167C186.516 141.166 187.381 140.809 188.096 140.096C188.81 139.382 189.167 138.517 189.167 137.5C189.167 137.279 189.148 137.064 189.11 136.856C189.072 136.647 189.017 136.444 188.945 136.248H189.437C189.499 136.446 189.546 136.648 189.578 136.855C189.609 137.061 189.625 137.276 189.625 137.5C189.625 138.071 189.517 138.607 189.3 139.109C189.084 139.61 188.79 140.047 188.419 140.419C188.048 140.79 187.611 141.084 187.11 141.3C186.608 141.516 186.072 141.624 185.501 141.625ZM189.396 134.979V134.062H188.479V133.604H189.396V132.688H189.854V133.604H190.771V134.062H189.854V134.979H189.396ZM187.018 136.866C187.161 136.866 187.281 136.816 187.38 136.716C187.478 136.616 187.527 136.495 187.527 136.352C187.527 136.21 187.477 136.089 187.378 135.99C187.278 135.892 187.157 135.843 187.014 135.843C186.871 135.843 186.751 135.893 186.652 135.993C186.554 136.092 186.505 136.213 186.505 136.356C186.505 136.499 186.555 136.619 186.655 136.718C186.754 136.816 186.875 136.866 187.018 136.866ZM183.986 136.866C184.129 136.866 184.249 136.816 184.347 136.716C184.446 136.616 184.495 136.495 184.495 136.352C184.495 136.21 184.445 136.089 184.345 135.99C184.246 135.892 184.124 135.843 183.982 135.843C183.839 135.843 183.719 135.893 183.62 135.993C183.522 136.092 183.473 136.214 183.473 136.356C183.473 136.499 183.523 136.619 183.622 136.718C183.722 136.816 183.843 136.866 183.986 136.866ZM185.5 139.739C185.946 139.739 186.351 139.618 186.715 139.377C187.078 139.135 187.353 138.815 187.538 138.417H183.462C183.647 138.816 183.921 139.136 184.285 139.377C184.649 139.618 185.054 139.738 185.5 139.739Z" fill="black"/>
<rect x="40" y="53" width="79" height="6" fill="#D9D9D9"/>
<rect x="12" y="80" width="169" height="5" fill="#D9D9D9"/>
<rect x="12" y="89" width="123" height="5" fill="#D9D9D9"/>
<rect x="12" y="98" width="98" height="5" fill="#D9D9D9"/>
<rect x="12" y="107" width="75" height="5" fill="#D9D9D9"/>
<circle cx="398" cy="43" r="31" fill="white"/>
<path d="M448.543 81.5695C447.56 82.5518 446.226 83.1036 444.836 83.1036C443.446 83.1036 442.113 82.5518 441.13 81.5695L424.31 64.744L431.723 57.331L448.543 74.177C449.519 75.1595 450.067 76.4882 450.067 77.8732C450.067 79.2582 449.519 80.5869 448.543 81.5695Z" fill="#D8D8D8"/>
<path d="M424.308 64.7766L431.721 57.3634L432.406 58.0485C433.116 58.759 433.516 59.7226 433.516 60.7274C433.516 61.7322 433.116 62.6958 432.406 63.4063L430.351 65.4617C429.64 66.1722 428.676 66.5713 427.672 66.5713C426.667 66.5713 425.703 66.1722 424.993 65.4617L424.308 64.7766Z" fill="#D8D8D8"/>
<path d="M377.648 10.674C372.561 15.7659 369.098 22.2516 367.697 29.3112C366.295 36.3709 367.018 43.6875 369.774 50.3364C372.53 56.9852 377.196 62.6677 383.181 66.6656C389.165 70.6635 396.201 72.7974 403.399 72.7974C410.596 72.7974 417.632 70.6635 423.617 66.6656C429.602 62.6677 434.267 56.9852 437.023 50.3364C439.779 43.6875 440.502 36.3709 439.101 29.3112C437.699 22.2516 434.236 15.7659 429.149 10.674C425.769 7.29013 421.755 4.60572 417.336 2.77421C412.918 0.942699 408.182 0 403.399 0C398.616 0 393.88 0.942699 389.461 2.77421C385.043 4.60572 381.028 7.29013 377.648 10.674ZM427.048 60.0736C422.371 64.7503 416.412 67.9352 409.925 69.2254C403.439 70.5157 396.715 69.8534 390.604 67.3224C384.494 64.7913 379.271 60.5051 375.597 55.0059C371.922 49.5066 369.961 43.0412 369.961 36.4273C369.961 29.8134 371.922 23.348 375.597 17.8487C379.271 12.3495 384.494 8.0633 390.604 5.53224C396.715 3.00118 403.439 2.33891 409.925 3.62917C416.412 4.91943 422.371 8.10429 427.048 12.781C430.153 15.8862 432.616 19.5727 434.297 23.63C435.977 27.6872 436.842 32.0358 436.842 36.4273C436.842 40.8189 435.977 45.1674 434.297 49.2246C432.616 53.2819 430.153 56.9684 427.048 60.0736Z" fill="#D8D8D8"/>
<path d="M422.531 56.7824C422.29 56.7818 422.054 56.71 421.854 56.5759C421.654 56.4417 421.498 56.2514 421.406 56.0288C421.314 55.8062 421.29 55.5614 421.337 55.3251C421.384 55.0888 421.499 54.8717 421.669 54.701C426.507 49.8499 429.224 43.2784 429.224 36.4274C429.224 29.5763 426.507 23.0048 421.669 18.1537C421.545 18.0432 421.445 17.9085 421.374 17.7579C421.304 17.6072 421.265 17.4438 421.26 17.2776C421.255 17.1114 421.285 16.9459 421.346 16.7914C421.407 16.6368 421.5 16.4965 421.617 16.3789C421.735 16.2613 421.875 16.169 422.03 16.1077C422.184 16.0463 422.35 16.0172 422.516 16.0221C422.682 16.027 422.845 16.0658 422.996 16.1361C423.147 16.2065 423.281 16.3069 423.392 16.4312C428.686 21.7382 431.66 28.9285 431.66 36.4248C431.66 43.9211 428.686 51.1114 423.392 56.4184C423.279 56.5328 423.145 56.6238 422.998 56.6862C422.85 56.7487 422.691 56.7814 422.531 56.7824Z" fill="#D8D8D8"/>
<path d="M377.068 43.9045C376.794 43.9048 376.527 43.8122 376.312 43.6418C376.097 43.4715 375.946 43.2334 375.884 42.9663C374.997 39.2111 374.885 35.3145 375.555 31.5146C376.225 27.7147 377.663 24.0913 379.78 20.8657C379.958 20.5937 380.237 20.4037 380.555 20.3374C380.873 20.271 381.205 20.3338 381.477 20.5119C381.749 20.69 381.939 20.9689 382.005 21.2871C382.072 21.6053 382.009 21.9369 381.831 22.2088C379.892 25.1554 378.574 28.466 377.957 31.9387C377.34 35.4115 377.437 38.9735 378.242 42.4075C378.28 42.5631 378.287 42.7246 378.262 42.8828C378.237 43.041 378.181 43.1927 378.097 43.3291C378.013 43.4655 377.903 43.5839 377.773 43.6774C377.643 43.7709 377.496 43.8376 377.34 43.8737C377.25 43.8931 377.159 43.9034 377.068 43.9045Z" fill="#D8D8D8"/>
<path d="M384.266 56.7824C383.943 56.7816 383.633 56.6525 383.405 56.4235C381.209 54.2358 379.39 51.6998 378.022 48.9182C377.951 48.7748 377.91 48.6189 377.899 48.4594C377.889 48.2998 377.91 48.1398 377.961 47.9884C378.013 47.837 378.093 47.6973 378.199 47.5771C378.304 47.4569 378.432 47.3587 378.576 47.288C378.719 47.2173 378.875 47.1755 379.034 47.1651C379.194 47.1547 379.354 47.1757 379.505 47.2272C379.657 47.2786 379.797 47.3593 379.917 47.4647C380.037 47.5702 380.135 47.6982 380.206 47.8416C381.46 50.3819 383.123 52.6992 385.127 54.701C385.355 54.9297 385.483 55.2394 385.483 55.5623C385.483 55.8851 385.355 56.1948 385.127 56.4235C384.898 56.6511 384.589 56.7799 384.266 56.7824Z" fill="#D8D8D8"/>
</svg>
