<svg width="527" height="333" viewBox="0 0 527 333" fill="none" xmlns="http://www.w3.org/2000/svg">
<rect x="0.5" y="0.5" width="526" height="304" rx="26.5" stroke="#E7E0FF"/>
<path d="M63.7227 179.935L48.5152 184.804L54.8088 187.454L55.9372 193.985L63.7227 179.935Z" fill="#FF00AA" stroke="#FF00AA"/>
<rect x="18" y="189" width="35" height="19" rx="4" fill="#FF00AA"/>
<path d="M29.6697 196.727C29.6366 196.416 29.4969 196.175 29.2507 196.002C29.0069 195.829 28.6896 195.743 28.299 195.743C28.0244 195.743 27.7888 195.784 27.5923 195.867C27.3958 195.95 27.2455 196.062 27.1413 196.205C27.0372 196.347 26.9839 196.509 26.9815 196.691C26.9815 196.843 27.0159 196.974 27.0845 197.085C27.1555 197.196 27.2514 197.291 27.3722 197.369C27.4929 197.445 27.6267 197.509 27.7734 197.561C27.9202 197.613 28.0682 197.657 28.2173 197.692L28.8991 197.863C29.1738 197.927 29.4377 198.013 29.6911 198.122C29.9467 198.231 30.1752 198.368 30.3764 198.534C30.58 198.7 30.741 198.9 30.8594 199.134C30.9777 199.369 31.0369 199.643 31.0369 199.958C31.0369 200.384 30.928 200.759 30.7102 201.084C30.4924 201.406 30.1776 201.658 29.7656 201.84C29.3561 202.02 28.8601 202.11 28.2777 202.11C27.7119 202.11 27.2206 202.022 26.804 201.847C26.3897 201.672 26.0653 201.416 25.831 201.08C25.599 200.744 25.4735 200.335 25.4545 199.852H26.7507C26.7696 200.105 26.8478 200.316 26.9851 200.484C27.1224 200.652 27.3011 200.777 27.5213 200.86C27.7438 200.943 27.9924 200.984 28.267 200.984C28.5535 200.984 28.8045 200.942 29.0199 200.857C29.2377 200.769 29.4081 200.648 29.5312 200.494C29.6544 200.338 29.7171 200.156 29.7195 199.947C29.7171 199.758 29.6615 199.602 29.5526 199.479C29.4437 199.353 29.291 199.249 29.0945 199.166C28.9003 199.081 28.6731 199.005 28.4126 198.939L27.5852 198.726C26.9863 198.572 26.5128 198.339 26.1648 198.026C25.8191 197.711 25.6463 197.294 25.6463 196.773C25.6463 196.344 25.7623 195.969 25.9943 195.647C26.2287 195.325 26.5471 195.075 26.9496 194.898C27.352 194.718 27.8078 194.628 28.3168 194.628C28.8329 194.628 29.285 194.718 29.6733 194.898C30.0639 195.075 30.3705 195.323 30.593 195.64C30.8156 195.955 30.9304 196.317 30.9375 196.727H29.6697ZM33.7243 202.11C33.3786 202.11 33.0673 202.049 32.7903 201.925C32.5157 201.8 32.2979 201.615 32.1369 201.371C31.9783 201.128 31.899 200.827 31.899 200.469C31.899 200.162 31.9558 199.907 32.0694 199.706C32.1831 199.505 32.3381 199.344 32.5346 199.223C32.7311 199.102 32.9525 199.011 33.1987 198.95C33.4473 198.886 33.7041 198.839 33.9693 198.811C34.2889 198.778 34.5481 198.748 34.747 198.722C34.9458 198.694 35.0903 198.651 35.1802 198.594C35.2725 198.535 35.3187 198.444 35.3187 198.321V198.3C35.3187 198.032 35.2394 197.825 35.0808 197.678C34.9222 197.531 34.6937 197.458 34.3954 197.458C34.0806 197.458 33.8308 197.527 33.6461 197.664C33.4638 197.801 33.3407 197.964 33.2768 198.151L32.0765 197.98C32.1712 197.649 32.3275 197.372 32.5453 197.149C32.7631 196.924 33.0294 196.756 33.3443 196.645C33.6592 196.531 34.0072 196.474 34.3883 196.474C34.6511 196.474 34.9127 196.505 35.1731 196.567C35.4335 196.628 35.6715 196.73 35.8869 196.872C36.1023 197.012 36.2752 197.202 36.4054 197.444C36.5379 197.685 36.6042 197.987 36.6042 198.349V202H35.3684V201.251H35.3258C35.2477 201.402 35.1376 201.544 34.9956 201.677C34.8559 201.807 34.6795 201.912 34.4664 201.993C34.2557 202.071 34.0083 202.11 33.7243 202.11ZM34.0581 201.165C34.3161 201.165 34.5398 201.115 34.7292 201.013C34.9186 200.909 35.0642 200.771 35.166 200.601C35.2702 200.43 35.3223 200.245 35.3223 200.043V199.401C35.282 199.434 35.2134 199.464 35.1163 199.493C35.0216 199.521 34.9151 199.546 34.7967 199.567C34.6783 199.589 34.5611 199.608 34.4451 199.624C34.3291 199.641 34.2285 199.655 34.1433 199.667C33.9515 199.693 33.7799 199.736 33.6284 199.795C33.4769 199.854 33.3573 199.937 33.2697 200.043C33.1821 200.147 33.1383 200.282 33.1383 200.448C33.1383 200.685 33.2247 200.864 33.3975 200.984C33.5704 201.105 33.7905 201.165 34.0581 201.165ZM37.8968 202V196.545H39.1255V197.472H39.1895C39.3031 197.16 39.4913 196.916 39.7541 196.741C40.0169 196.563 40.3306 196.474 40.6951 196.474C41.0645 196.474 41.3758 196.564 41.6291 196.744C41.8848 196.922 42.0647 197.165 42.1689 197.472H42.2257C42.3464 197.169 42.55 196.928 42.8365 196.748C43.1253 196.566 43.4674 196.474 43.8627 196.474C44.3646 196.474 44.7742 196.633 45.0914 196.95C45.4087 197.268 45.5673 197.73 45.5673 198.339V202H44.2782V198.538C44.2782 198.199 44.1883 197.952 44.0083 197.795C43.8284 197.637 43.6083 197.558 43.3478 197.558C43.0377 197.558 42.795 197.655 42.6199 197.849C42.447 198.04 42.3606 198.29 42.3606 198.598V202H41.1V198.484C41.1 198.203 41.0147 197.978 40.8443 197.81C40.6762 197.642 40.456 197.558 40.1838 197.558C39.9991 197.558 39.831 197.605 39.6795 197.7C39.528 197.792 39.4073 197.923 39.3173 198.094C39.2273 198.262 39.1824 198.458 39.1824 198.683V202H37.8968Z" fill="white"/>
<rect x="282.551" y="225" width="35" height="19" rx="4" fill="#E1B319"/>
<path d="M294.853 231.727H296.171V236.479C296.171 237 296.047 237.458 295.801 237.853C295.557 238.248 295.214 238.557 294.771 238.78C294.329 239 293.811 239.11 293.22 239.11C292.625 239.11 292.107 239 291.664 238.78C291.221 238.557 290.878 238.248 290.634 237.853C290.391 237.458 290.269 237 290.269 236.479V231.727H291.586V236.369C291.586 236.672 291.652 236.942 291.785 237.178C291.92 237.415 292.109 237.601 292.353 237.736C292.597 237.868 292.886 237.935 293.22 237.935C293.553 237.935 293.842 237.868 294.086 237.736C294.332 237.601 294.522 237.415 294.654 237.178C294.787 236.942 294.853 236.672 294.853 236.369V231.727ZM301.857 234.987L300.685 235.115C300.652 234.997 300.594 234.885 300.511 234.781C300.43 234.677 300.322 234.593 300.184 234.529C300.047 234.465 299.879 234.433 299.68 234.433C299.412 234.433 299.188 234.491 299.005 234.607C298.825 234.723 298.737 234.874 298.739 235.058C298.737 235.217 298.795 235.346 298.913 235.445C299.034 235.545 299.233 235.626 299.51 235.69L300.44 235.889C300.956 236 301.34 236.177 301.591 236.418C301.844 236.66 301.972 236.976 301.974 237.366C301.972 237.71 301.871 238.013 301.672 238.276C301.476 238.536 301.202 238.74 300.852 238.886C300.501 239.033 300.099 239.107 299.644 239.107C298.977 239.107 298.439 238.967 298.032 238.688C297.625 238.406 297.382 238.014 297.304 237.512L298.558 237.391C298.615 237.638 298.735 237.823 298.92 237.949C299.105 238.074 299.345 238.137 299.641 238.137C299.946 238.137 300.191 238.074 300.376 237.949C300.563 237.823 300.657 237.668 300.657 237.484C300.657 237.327 300.596 237.198 300.475 237.097C300.357 236.995 300.172 236.917 299.921 236.862L298.991 236.667C298.468 236.558 298.081 236.375 297.83 236.116C297.579 235.856 297.455 235.527 297.457 235.129C297.455 234.793 297.546 234.502 297.73 234.256C297.917 234.007 298.177 233.815 298.508 233.68C298.842 233.543 299.227 233.474 299.662 233.474C300.301 233.474 300.805 233.611 301.171 233.883C301.541 234.155 301.769 234.523 301.857 234.987ZM305.449 239.107C304.902 239.107 304.43 238.993 304.032 238.766C303.637 238.536 303.332 238.212 303.119 237.793C302.906 237.371 302.8 236.875 302.8 236.305C302.8 235.744 302.906 235.251 303.119 234.827C303.335 234.401 303.635 234.07 304.021 233.833C304.407 233.594 304.861 233.474 305.381 233.474C305.718 233.474 306.035 233.529 306.333 233.638C306.634 233.744 306.899 233.91 307.129 234.135C307.361 234.36 307.543 234.646 307.675 234.994C307.808 235.34 307.874 235.752 307.874 236.23V236.624H303.403V235.758H306.642C306.64 235.512 306.586 235.293 306.482 235.101C306.378 234.907 306.232 234.754 306.045 234.643C305.861 234.531 305.645 234.476 305.399 234.476C305.136 234.476 304.905 234.54 304.707 234.668C304.508 234.793 304.353 234.959 304.241 235.165C304.133 235.368 304.077 235.592 304.075 235.836V236.592C304.075 236.91 304.133 237.182 304.249 237.409C304.365 237.634 304.527 237.807 304.735 237.928C304.943 238.046 305.187 238.105 305.467 238.105C305.654 238.105 305.823 238.079 305.974 238.027C306.126 237.973 306.257 237.893 306.369 237.789C306.48 237.685 306.564 237.556 306.621 237.402L307.821 237.537C307.745 237.854 307.601 238.131 307.388 238.368C307.177 238.602 306.907 238.785 306.578 238.915C306.249 239.043 305.873 239.107 305.449 239.107ZM308.962 239V233.545H310.208V234.455H310.265C310.364 234.14 310.535 233.897 310.776 233.727C311.02 233.554 311.298 233.467 311.611 233.467C311.682 233.467 311.761 233.471 311.849 233.478C311.939 233.483 312.013 233.491 312.073 233.503V234.685C312.018 234.666 311.932 234.65 311.813 234.636C311.697 234.619 311.585 234.611 311.476 234.611C311.242 234.611 311.031 234.662 310.844 234.763C310.659 234.863 310.514 235.001 310.407 235.179C310.301 235.357 310.247 235.561 310.247 235.793V239H308.962Z" fill="white"/>
<path d="M114 170V173.167H86V170H114ZM86 189H100V185.833H86V189ZM86 181.083H114V177.917H86V181.083Z" fill="#E7E0FF"/>
<g filter="url(#filter0_d_226_3)">
<rect x="344" y="50" width="92" height="82" fill="white"/>
</g>
<rect x="444" y="104" width="36" height="19" rx="4" fill="#7F34FF"/>
<path d="M449.717 117V109.727H451.035V112.806H454.405V109.727H455.726V117H454.405V113.911H451.035V117H449.717ZM458.672 117.11C458.326 117.11 458.015 117.049 457.738 116.925C457.463 116.8 457.245 116.615 457.084 116.371C456.926 116.128 456.846 115.827 456.846 115.469C456.846 115.162 456.903 114.907 457.017 114.706C457.13 114.505 457.285 114.344 457.482 114.223C457.678 114.102 457.9 114.011 458.146 113.95C458.395 113.886 458.651 113.839 458.917 113.811C459.236 113.778 459.495 113.748 459.694 113.722C459.893 113.694 460.038 113.651 460.127 113.594C460.22 113.535 460.266 113.444 460.266 113.321V113.3C460.266 113.032 460.187 112.825 460.028 112.678C459.869 112.531 459.641 112.458 459.343 112.458C459.028 112.458 458.778 112.527 458.593 112.664C458.411 112.801 458.288 112.964 458.224 113.151L457.024 112.98C457.118 112.649 457.275 112.372 457.493 112.149C457.71 111.924 457.977 111.756 458.292 111.645C458.606 111.531 458.954 111.474 459.336 111.474C459.598 111.474 459.86 111.505 460.12 111.567C460.381 111.628 460.619 111.73 460.834 111.872C461.05 112.012 461.222 112.202 461.353 112.444C461.485 112.685 461.551 112.987 461.551 113.349V117H460.316V116.251H460.273C460.195 116.402 460.085 116.544 459.943 116.677C459.803 116.807 459.627 116.912 459.414 116.993C459.203 117.071 458.956 117.11 458.672 117.11ZM459.005 116.165C459.263 116.165 459.487 116.115 459.676 116.013C459.866 115.909 460.011 115.771 460.113 115.601C460.217 115.43 460.27 115.245 460.27 115.043V114.401C460.229 114.434 460.161 114.464 460.064 114.493C459.969 114.521 459.862 114.546 459.744 114.567C459.626 114.589 459.508 114.608 459.392 114.624C459.276 114.641 459.176 114.655 459.091 114.667C458.899 114.693 458.727 114.736 458.576 114.795C458.424 114.854 458.305 114.937 458.217 115.043C458.129 115.147 458.086 115.282 458.086 115.448C458.086 115.685 458.172 115.864 458.345 115.984C458.518 116.105 458.738 116.165 459.005 116.165ZM462.844 117V111.545H464.091V112.455H464.147C464.247 112.14 464.417 111.897 464.659 111.727C464.903 111.554 465.181 111.467 465.493 111.467C465.564 111.467 465.644 111.471 465.731 111.478C465.821 111.483 465.896 111.491 465.955 111.503V112.685C465.9 112.666 465.814 112.65 465.696 112.636C465.58 112.619 465.467 112.611 465.358 112.611C465.124 112.611 464.913 112.662 464.726 112.763C464.542 112.863 464.396 113.001 464.289 113.179C464.183 113.357 464.13 113.561 464.13 113.793V117H462.844ZM466.809 117V111.545H468.055V112.455H468.112C468.212 112.14 468.382 111.897 468.624 111.727C468.867 111.554 469.146 111.467 469.458 111.467C469.529 111.467 469.608 111.471 469.696 111.478C469.786 111.483 469.861 111.491 469.92 111.503V112.685C469.865 112.666 469.779 112.65 469.661 112.636C469.545 112.619 469.432 112.611 469.323 112.611C469.089 112.611 468.878 112.662 468.691 112.763C468.506 112.863 468.361 113.001 468.254 113.179C468.148 113.357 468.094 113.561 468.094 113.793V117H466.809ZM471.739 119.045C471.564 119.045 471.401 119.031 471.252 119.003C471.106 118.977 470.988 118.946 470.901 118.911L471.199 117.909C471.386 117.964 471.553 117.99 471.7 117.987C471.847 117.985 471.976 117.939 472.087 117.849C472.2 117.761 472.296 117.614 472.374 117.408L472.485 117.114L470.507 111.545H471.87L473.127 115.665H473.184L474.445 111.545H475.812L473.628 117.661C473.526 117.949 473.391 118.197 473.223 118.403C473.055 118.611 472.849 118.77 472.605 118.879C472.364 118.99 472.075 119.045 471.739 119.045Z" fill="white"/>
<path d="M432 94.2404L438.227 108.944L440.296 102.436L446.698 100.721L432 94.2404Z" fill="#7C3AED"/>
<rect x="356" y="58" width="68" height="16" fill="#E7E0FF"/>
<rect x="356" y="80" width="68" height="3" fill="#E7E0FF"/>
<rect x="356" y="88" width="68" height="3" fill="#E7E0FF"/>
<rect x="356" y="96" width="68" height="3" fill="#E7E0FF"/>
<g filter="url(#filter1_d_226_3)">
<path d="M57.0001 236.644L142.974 255.373L163.374 161.73L77.4006 143L57.0001 236.644Z" fill="white"/>
<path d="M61.1587 233.245L138.687 249.858L156.782 165.411L79.2544 148.798L61.1587 233.245Z" fill="#E7E0FF"/>
<path opacity="0.6" d="M61.1587 233.245L138.687 249.858L156.782 165.411L79.2544 148.798L61.1587 233.245Z" fill="white"/>
<path d="M93.8999 210.677L145.69 221.947L125.44 190.397L93.8999 210.677Z" fill="#E7E0FF"/>
<path opacity="0.2" d="M93.8999 210.677L145.69 221.947L125.44 190.397L93.8999 210.677Z" fill="white"/>
<path d="M68.3896 205.147L114.32 215.147L95.0296 193.267L68.3896 205.147Z" fill="#E7E0FF"/>
<path d="M145.674 221.963L68.377 205.123L62.1742 233.595L139.471 250.435L145.674 221.963Z" fill="#E7E0FF"/>
<path opacity="0.6" d="M100.2 174.357C99.896 175.759 99.1831 177.039 98.1515 178.035C97.1198 179.032 95.8158 179.7 94.4044 179.955C92.9929 180.21 91.5376 180.041 90.2223 179.468C88.9071 178.896 87.7912 177.947 87.0157 176.74C86.2403 175.534 85.8401 174.124 85.8659 172.69C85.8917 171.256 86.3423 169.862 87.1606 168.684C87.979 167.506 89.1283 166.597 90.4633 166.073C91.7982 165.548 93.2587 165.431 94.66 165.737C96.5372 166.147 98.175 167.284 99.2138 168.901C100.253 170.517 100.607 172.479 100.2 174.357Z" fill="white"/>
</g>
<path d="M92.08 33H36V37.23H92.08V33Z" fill="#BBADE8"/>
<path d="M124.25 41.79H36V44.15H124.25V41.79Z" fill="#BBADE8"/>
<path d="M124.25 47.7H36V50.06H124.25V47.7Z" fill="#BBADE8"/>
<path d="M124.25 53.6099H36V55.9699H124.25V53.6099Z" fill="#BBADE8"/>
<path d="M124.25 59.52H36V61.88H124.25V59.52Z" fill="#BBADE8"/>
<path d="M75.95 65.4299H36V67.7899H75.95V65.4299Z" fill="#BBADE8"/>
<path d="M256.08 49H200V53.23H256.08V49Z" fill="#BBADE8"/>
<path d="M288.25 57.79H200V60.15H288.25V57.79Z" fill="#BBADE8"/>
<path d="M288.25 63.7H200V66.06H288.25V63.7Z" fill="#BBADE8"/>
<path d="M288.25 69.6099H200V71.9699H288.25V69.6099Z" fill="#BBADE8"/>
<path d="M288.25 75.52H200V77.88H288.25V75.52Z" fill="#BBADE8"/>
<path d="M239.95 81.4299H200V83.7899H239.95V81.4299Z" fill="#BBADE8"/>
<path d="M124.25 77.25H36V79.61H124.25V77.25Z" fill="#BBADE8"/>
<path d="M124.25 83.1599H36V85.5199H124.25V83.1599Z" fill="#BBADE8"/>
<path d="M124.25 89.0601H36V91.42H124.25V89.0601Z" fill="#BBADE8"/>
<path d="M416.08 197H360V201.23H416.08V197Z" fill="#BBADE8"/>
<path d="M448.25 205.79H360V208.15H448.25V205.79Z" fill="#BBADE8"/>
<path d="M448.25 211.7H360V214.06H448.25V211.7Z" fill="#BBADE8"/>
<path d="M448.25 217.61H360V219.97H448.25V217.61Z" fill="#BBADE8"/>
<path d="M448.25 223.52H360V225.88H448.25V223.52Z" fill="#BBADE8"/>
<path d="M399.95 229.43H360V231.79H399.95V229.43Z" fill="#BBADE8"/>
<path d="M448.25 241.25H360V243.61H448.25V241.25Z" fill="#BBADE8"/>
<path d="M448.25 247.16H360V249.52H448.25V247.16Z" fill="#BBADE8"/>
<path d="M448.25 253.06H360V255.42H448.25V253.06Z" fill="#BBADE8"/>
<path d="M175 170.686L182.293 176.76L224.47 140.722L278.324 151.608L319.367 112.896L323.046 117.944L332.777 96L308.908 98.5451L312.587 103.593L276.57 143.481L222.652 133.001L175 170.686Z" fill="#ECE6FF"/>
<g opacity="0.3">
<path d="M175 170.686L182.293 176.76L224.47 140.722L278.324 151.608L319.367 112.896L323.046 117.944L332.777 96L308.908 98.5451L312.587 103.593L276.57 143.481L222.652 133.001L175 170.686Z" fill="white"/>
</g>
<path d="M250.753 203.141C251.015 203.094 251.255 202.963 251.437 202.768C251.618 202.572 251.731 202.323 251.759 202.058L252.999 189.54C253.016 189.381 253.002 189.22 252.956 189.067C252.911 188.914 252.835 188.772 252.734 188.649C252.632 188.525 252.507 188.424 252.366 188.349C252.225 188.275 252.07 188.23 251.911 188.216C251.591 188.186 251.272 188.284 251.024 188.488C250.775 188.692 250.617 188.986 250.584 189.305L249.344 201.824C249.327 201.982 249.341 202.143 249.387 202.296C249.432 202.449 249.508 202.592 249.609 202.715C249.711 202.838 249.836 202.94 249.977 203.014C250.118 203.089 250.273 203.134 250.433 203.148C250.539 203.16 250.647 203.158 250.753 203.141Z" fill="#E7E0FF"/>
<path d="M264.989 210.462C265.196 210.425 265.391 210.336 265.554 210.202L275.081 202.382C275.304 202.17 275.44 201.881 275.459 201.573C275.479 201.266 275.381 200.963 275.185 200.725C274.99 200.487 274.711 200.332 274.406 200.291C274.1 200.25 273.791 200.327 273.539 200.505L264.012 208.326C263.807 208.497 263.664 208.731 263.604 208.991C263.545 209.252 263.573 209.524 263.684 209.767C263.795 210.01 263.983 210.209 264.219 210.335C264.454 210.46 264.725 210.505 264.989 210.462Z" fill="#E7E0FF"/>
<path d="M228.405 221.822C228.692 221.769 228.95 221.614 229.132 221.386C229.315 221.159 229.41 220.874 229.4 220.582C229.39 220.291 229.276 220.013 229.078 219.799C228.88 219.585 228.612 219.449 228.322 219.416L215.417 218.154C215.126 218.163 214.847 218.277 214.633 218.476C214.419 218.674 214.284 218.943 214.252 219.233C214.221 219.523 214.296 219.814 214.463 220.053C214.629 220.292 214.877 220.463 215.16 220.533L228.065 221.795C228.176 221.821 228.291 221.83 228.405 221.822Z" fill="#E7E0FF"/>
<path d="M281.904 227.067C282.194 227.018 282.457 226.865 282.643 226.637C282.83 226.409 282.928 226.122 282.919 225.828C282.91 225.534 282.794 225.253 282.594 225.038C282.394 224.822 282.122 224.686 281.83 224.656L269.691 223.464C269.532 223.449 269.371 223.465 269.218 223.511C269.064 223.558 268.922 223.634 268.798 223.735C268.674 223.837 268.571 223.962 268.496 224.103C268.42 224.244 268.373 224.399 268.357 224.558C268.341 224.718 268.357 224.878 268.403 225.032C268.45 225.185 268.526 225.327 268.627 225.451C268.729 225.575 268.854 225.677 268.995 225.753C269.136 225.828 269.291 225.875 269.45 225.891L281.583 227.073C281.69 227.084 281.798 227.082 281.904 227.067Z" fill="#E7E0FF"/>
<path d="M235.716 207.996C235.925 207.96 236.122 207.87 236.286 207.734C236.45 207.599 236.575 207.423 236.65 207.224C236.725 207.025 236.746 206.81 236.713 206.601C236.679 206.391 236.59 206.194 236.457 206.029L228.306 196.11C228.209 195.974 228.086 195.859 227.942 195.773C227.799 195.686 227.64 195.63 227.474 195.608C227.308 195.586 227.14 195.598 226.979 195.644C226.818 195.69 226.668 195.768 226.539 195.874C226.409 195.98 226.303 196.112 226.227 196.261C226.151 196.41 226.106 196.573 226.095 196.74C226.085 196.906 226.109 197.074 226.165 197.231C226.222 197.388 226.311 197.532 226.426 197.653L234.562 207.547C234.696 207.719 234.874 207.851 235.077 207.93C235.28 208.01 235.501 208.032 235.716 207.996Z" fill="#E7E0FF"/>
<g opacity="0.5">
<path d="M250.753 203.141C251.015 203.094 251.255 202.963 251.437 202.768C251.618 202.572 251.731 202.323 251.759 202.058L252.999 189.54C253.016 189.381 253.002 189.22 252.956 189.067C252.911 188.914 252.835 188.772 252.734 188.649C252.632 188.525 252.507 188.424 252.366 188.349C252.225 188.275 252.07 188.23 251.911 188.216C251.591 188.186 251.272 188.284 251.024 188.488C250.775 188.692 250.617 188.986 250.584 189.305L249.344 201.824C249.327 201.982 249.341 202.143 249.387 202.296C249.432 202.449 249.508 202.592 249.609 202.715C249.711 202.838 249.836 202.94 249.977 203.014C250.118 203.089 250.273 203.134 250.433 203.148C250.539 203.16 250.647 203.158 250.753 203.141Z" fill="white"/>
<path d="M264.989 210.462C265.196 210.425 265.391 210.336 265.554 210.202L275.081 202.382C275.304 202.17 275.44 201.881 275.459 201.573C275.479 201.266 275.381 200.963 275.185 200.725C274.99 200.487 274.711 200.332 274.406 200.291C274.1 200.25 273.791 200.327 273.539 200.505L264.012 208.326C263.807 208.497 263.664 208.731 263.604 208.991C263.545 209.252 263.573 209.524 263.684 209.767C263.795 210.01 263.983 210.209 264.219 210.335C264.454 210.46 264.725 210.505 264.989 210.462Z" fill="white"/>
<path d="M228.405 221.822C228.692 221.769 228.95 221.614 229.132 221.386C229.315 221.159 229.41 220.874 229.4 220.582C229.39 220.291 229.276 220.013 229.078 219.799C228.88 219.585 228.612 219.449 228.322 219.416L215.417 218.154C215.126 218.163 214.847 218.277 214.633 218.476C214.419 218.674 214.284 218.943 214.252 219.233C214.221 219.523 214.296 219.814 214.463 220.053C214.629 220.292 214.877 220.463 215.16 220.533L228.065 221.795C228.176 221.821 228.291 221.83 228.405 221.822Z" fill="white"/>
<path d="M281.904 227.067C282.194 227.018 282.457 226.865 282.643 226.637C282.83 226.409 282.928 226.122 282.919 225.828C282.91 225.534 282.794 225.253 282.594 225.038C282.394 224.822 282.122 224.686 281.83 224.656L269.691 223.464C269.532 223.449 269.371 223.465 269.218 223.511C269.064 223.558 268.922 223.634 268.798 223.735C268.674 223.837 268.571 223.962 268.496 224.103C268.42 224.244 268.373 224.399 268.357 224.558C268.341 224.718 268.357 224.878 268.403 225.032C268.45 225.185 268.526 225.327 268.627 225.451C268.729 225.575 268.854 225.677 268.995 225.753C269.136 225.828 269.291 225.875 269.45 225.891L281.583 227.073C281.69 227.084 281.798 227.082 281.904 227.067Z" fill="white"/>
<path d="M235.716 207.996C235.925 207.96 236.122 207.87 236.286 207.734C236.45 207.599 236.575 207.423 236.65 207.224C236.725 207.025 236.746 206.81 236.713 206.601C236.679 206.391 236.59 206.194 236.457 206.029L228.306 196.11C228.209 195.974 228.086 195.859 227.942 195.773C227.799 195.686 227.64 195.63 227.474 195.608C227.308 195.586 227.14 195.598 226.979 195.644C226.818 195.69 226.668 195.768 226.539 195.874C226.409 195.98 226.303 196.112 226.227 196.261C226.151 196.41 226.106 196.573 226.095 196.74C226.085 196.906 226.109 197.074 226.165 197.231C226.222 197.388 226.311 197.532 226.426 197.653L234.562 207.547C234.696 207.719 234.874 207.851 235.077 207.93C235.28 208.01 235.501 208.032 235.716 207.996Z" fill="white"/>
</g>
<path d="M232.455 223.478C233.115 219.324 235.343 215.58 238.68 213.015C242.017 210.451 246.209 209.261 250.394 209.691C254.579 210.121 258.437 212.138 261.175 215.327C263.914 218.516 265.323 222.634 265.113 226.833C264.423 233.378 258.765 237.258 254.937 242.101C253.748 243.602 253.239 249.607 253.239 249.607L239.388 248.178C239.388 248.178 240.114 242.181 239.273 240.491C236.523 234.973 231.774 230.018 232.455 223.478Z" fill="#E7E0FF"/>
<path opacity="0.4" d="M232.455 223.478C233.115 219.324 235.343 215.58 238.68 213.015C242.017 210.451 246.209 209.261 250.394 209.691C254.579 210.121 258.437 212.138 261.175 215.327C263.914 218.516 265.323 222.634 265.113 226.833C264.423 233.378 258.765 237.258 254.937 242.101C253.748 243.602 253.239 249.607 253.239 249.607L239.388 248.178C239.388 248.178 240.114 242.181 239.273 240.491C236.523 234.973 231.774 230.018 232.455 223.478Z" fill="white"/>
<path d="M242.828 253.498L248.756 254.092C249.278 254.146 249.806 254.097 250.309 253.947C250.812 253.797 251.281 253.55 251.689 253.219C252.096 252.889 252.435 252.481 252.685 252.02C252.935 251.559 253.092 251.053 253.146 250.531L239.292 249.115C239.183 250.164 239.494 251.214 240.156 252.035C240.818 252.856 241.779 253.382 242.828 253.498Z" fill="#263238"/>
<path d="M245.393 257.941C246.251 258.029 247.109 257.772 247.78 257.229C248.45 256.685 248.877 255.898 248.968 255.04L242.494 254.372C242.406 255.23 242.661 256.087 243.204 256.756C243.748 257.425 244.535 257.851 245.393 257.941Z" fill="#263238"/>
<path opacity="0.5" d="M245.393 257.941C246.251 258.029 247.109 257.772 247.78 257.229C248.45 256.685 248.877 255.898 248.968 255.04L242.494 254.372C242.406 255.23 242.661 256.087 243.204 256.756C243.748 257.425 244.535 257.851 245.393 257.941Z" fill="white"/>
<g opacity="0.7">
<path d="M242.828 253.498L248.756 254.092C249.278 254.146 249.806 254.097 250.309 253.947C250.812 253.797 251.281 253.55 251.689 253.219C252.096 252.889 252.435 252.481 252.685 252.02C252.935 251.559 253.092 251.053 253.146 250.531L239.292 249.115C239.183 250.164 239.494 251.214 240.156 252.035C240.818 252.856 241.779 253.382 242.828 253.498Z" fill="white"/>
</g>
<path opacity="0.3" d="M234.696 220.644C233.674 230.929 238.962 243.203 246.903 243.973C254.843 244.743 262.548 232.375 263.457 223.461C264.002 217.981 258.006 212.898 250.066 212.128C242.125 211.358 235.224 215.174 234.696 220.644Z" fill="white"/>
<path opacity="0.4" d="M238.761 231.149C238.577 232.981 238.941 234.826 239.807 236.45C240.673 238.074 242.002 239.404 243.626 240.272C245.249 241.141 247.095 241.508 248.929 241.328C250.762 241.147 252.502 240.428 253.928 239.259C255.353 238.091 256.401 236.527 256.937 234.765C257.474 233.003 257.476 231.122 256.942 229.361C256.409 227.599 255.364 226.036 253.941 224.868C252.517 223.701 250.779 222.982 248.945 222.803C246.489 222.563 244.037 223.307 242.128 224.872C240.218 226.437 239.007 228.694 238.761 231.149Z" fill="white"/>
<path opacity="0.4" d="M241.355 233.745C240.977 237.31 243.799 238.715 247.399 239.068C250.999 239.421 254.001 238.603 254.379 235.039C254.756 231.474 251.92 230.122 248.328 229.764C244.736 229.405 241.724 230.185 241.355 233.745Z" fill="white"/>
<rect x="316" y="170" width="40" height="19" rx="4" fill="#28AA0D"/>
<path d="M321.717 175.727H323.33L325.489 180.997H325.574L327.733 175.727H329.345V183H328.081V178.004H328.013L326.004 182.979H325.059L323.049 177.993H322.982V183H321.717V175.727ZM333.102 183.107C332.57 183.107 332.108 182.989 331.717 182.755C331.327 182.521 331.024 182.193 330.808 181.771C330.595 181.35 330.489 180.857 330.489 180.294C330.489 179.731 330.595 179.237 330.808 178.813C331.024 178.389 331.327 178.06 331.717 177.826C332.108 177.592 332.57 177.474 333.102 177.474C333.635 177.474 334.097 177.592 334.487 177.826C334.878 178.06 335.18 178.389 335.393 178.813C335.608 179.237 335.716 179.731 335.716 180.294C335.716 180.857 335.608 181.35 335.393 181.771C335.18 182.193 334.878 182.521 334.487 182.755C334.097 182.989 333.635 183.107 333.102 183.107ZM333.109 182.077C333.398 182.077 333.64 181.997 333.834 181.839C334.028 181.678 334.172 181.462 334.267 181.192C334.364 180.923 334.413 180.622 334.413 180.29C334.413 179.957 334.364 179.655 334.267 179.385C334.172 179.113 334.028 178.896 333.834 178.735C333.64 178.574 333.398 178.494 333.109 178.494C332.813 178.494 332.567 178.574 332.371 178.735C332.177 178.896 332.031 179.113 331.934 179.385C331.839 179.655 331.792 179.957 331.792 180.29C331.792 180.622 331.839 180.923 331.934 181.192C332.031 181.462 332.177 181.678 332.371 181.839C332.567 181.997 332.813 182.077 333.109 182.077ZM338.093 179.804V183H336.807V177.545H338.036V178.472H338.1C338.225 178.167 338.425 177.924 338.7 177.744C338.977 177.564 339.319 177.474 339.726 177.474C340.102 177.474 340.43 177.555 340.71 177.716C340.991 177.877 341.209 178.11 341.363 178.415C341.519 178.721 341.596 179.091 341.594 179.527V183H340.308V179.726C340.308 179.361 340.214 179.076 340.024 178.87C339.837 178.664 339.578 178.561 339.247 178.561C339.022 178.561 338.822 178.611 338.646 178.71C338.474 178.807 338.338 178.948 338.238 179.133C338.141 179.317 338.093 179.541 338.093 179.804ZM345.624 177.545V178.54H342.489V177.545H345.624ZM343.263 176.239H344.548V181.359C344.548 181.532 344.575 181.665 344.627 181.757C344.681 181.847 344.752 181.909 344.84 181.942C344.927 181.975 345.024 181.991 345.131 181.991C345.211 181.991 345.285 181.986 345.351 181.974C345.42 181.962 345.472 181.951 345.507 181.942L345.724 182.947C345.655 182.97 345.557 182.996 345.429 183.025C345.304 183.053 345.15 183.07 344.968 183.075C344.646 183.084 344.356 183.036 344.097 182.929C343.839 182.82 343.635 182.652 343.483 182.425C343.334 182.197 343.261 181.913 343.263 181.572V176.239ZM349.056 183.107C348.509 183.107 348.037 182.993 347.639 182.766C347.243 182.536 346.939 182.212 346.726 181.793C346.513 181.371 346.407 180.875 346.407 180.305C346.407 179.744 346.513 179.251 346.726 178.827C346.942 178.401 347.242 178.07 347.628 177.833C348.014 177.594 348.467 177.474 348.988 177.474C349.324 177.474 349.642 177.529 349.94 177.638C350.241 177.744 350.506 177.91 350.735 178.135C350.967 178.36 351.15 178.646 351.282 178.994C351.415 179.34 351.481 179.752 351.481 180.23V180.624H347.01V179.758H350.249C350.247 179.512 350.193 179.293 350.089 179.101C349.985 178.907 349.839 178.754 349.652 178.643C349.468 178.531 349.252 178.476 349.006 178.476C348.743 178.476 348.512 178.54 348.314 178.668C348.115 178.793 347.96 178.959 347.848 179.165C347.739 179.368 347.684 179.592 347.681 179.836V180.592C347.681 180.91 347.739 181.182 347.855 181.409C347.971 181.634 348.134 181.807 348.342 181.928C348.55 182.046 348.794 182.105 349.074 182.105C349.261 182.105 349.43 182.079 349.581 182.027C349.733 181.973 349.864 181.893 349.975 181.789C350.087 181.685 350.171 181.556 350.228 181.402L351.428 181.537C351.352 181.854 351.208 182.131 350.995 182.368C350.784 182.602 350.514 182.785 350.185 182.915C349.856 183.043 349.48 183.107 349.056 183.107Z" fill="white"/>
<path d="M368.156 196.683L359.329 183.377L358.493 190.154L352.516 193.019L368.156 196.683Z" fill="#28AA0D"/>
<path d="M269.06 251.356L284.63 247.817L278.589 244.634L278.028 238.03L269.06 251.356Z" fill="#E1B319"/>
<rect x="119" y="11" width="34" height="19" rx="4" fill="#C622C9"/>
<path d="M125.269 24V16.7273H126.586V19.8061H129.956V16.7273H131.277V24H129.956V20.9105H126.586V24H125.269ZM135.032 24.1065C134.5 24.1065 134.038 23.9893 133.648 23.755C133.257 23.5206 132.954 23.1927 132.738 22.7713C132.525 22.3499 132.419 21.8575 132.419 21.294C132.419 20.7306 132.525 20.237 132.738 19.8132C132.954 19.3894 133.257 19.0604 133.648 18.826C134.038 18.5916 134.5 18.4744 135.032 18.4744C135.565 18.4744 136.027 18.5916 136.417 18.826C136.808 19.0604 137.11 19.3894 137.323 19.8132C137.538 20.237 137.646 20.7306 137.646 21.294C137.646 21.8575 137.538 22.3499 137.323 22.7713C137.11 23.1927 136.808 23.5206 136.417 23.755C136.027 23.9893 135.565 24.1065 135.032 24.1065ZM135.04 23.0767C135.328 23.0767 135.57 22.9974 135.764 22.8388C135.958 22.6778 136.103 22.4624 136.197 22.1925C136.294 21.9226 136.343 21.6219 136.343 21.2905C136.343 20.9567 136.294 20.6548 136.197 20.3849C136.103 20.1127 135.958 19.8961 135.764 19.7351C135.57 19.5741 135.328 19.4936 135.04 19.4936C134.744 19.4936 134.497 19.5741 134.301 19.7351C134.107 19.8961 133.961 20.1127 133.864 20.3849C133.769 20.6548 133.722 20.9567 133.722 21.2905C133.722 21.6219 133.769 21.9226 133.864 22.1925C133.961 22.4624 134.107 22.6778 134.301 22.8388C134.497 22.9974 134.744 23.0767 135.04 23.0767ZM143.048 19.9872L141.876 20.1151C141.843 19.9967 141.785 19.8854 141.702 19.7812C141.622 19.6771 141.513 19.593 141.376 19.5291C141.238 19.4652 141.07 19.4332 140.871 19.4332C140.604 19.4332 140.379 19.4912 140.197 19.6072C140.017 19.7232 139.928 19.8736 139.93 20.0582C139.928 20.2169 139.986 20.3459 140.104 20.4453C140.225 20.5447 140.424 20.6264 140.701 20.6903L141.631 20.8892C142.147 21.0005 142.531 21.1768 142.782 21.4183C143.035 21.6598 143.163 21.9759 143.165 22.3665C143.163 22.7098 143.062 23.0128 142.864 23.2756C142.667 23.536 142.394 23.7396 142.043 23.8864C141.693 24.0331 141.29 24.1065 140.836 24.1065C140.168 24.1065 139.631 23.9669 139.224 23.6875C138.816 23.4058 138.574 23.014 138.496 22.5121L139.749 22.3913C139.806 22.6375 139.927 22.8234 140.111 22.9489C140.296 23.0743 140.536 23.1371 140.832 23.1371C141.138 23.1371 141.383 23.0743 141.567 22.9489C141.754 22.8234 141.848 22.6683 141.848 22.4837C141.848 22.3274 141.788 22.1984 141.667 22.0966C141.548 21.9948 141.364 21.9167 141.113 21.8622L140.182 21.6669C139.659 21.558 139.272 21.3745 139.021 21.1165C138.77 20.8561 138.646 20.527 138.648 20.1293C138.646 19.7931 138.737 19.5019 138.922 19.2557C139.109 19.0071 139.368 18.8153 139.7 18.6804C140.033 18.5431 140.418 18.4744 140.854 18.4744C141.493 18.4744 141.996 18.6106 142.363 18.8828C142.732 19.1551 142.961 19.5232 143.048 19.9872ZM146.949 18.5455V19.5398H143.814V18.5455H146.949ZM144.588 17.2386H145.873V22.3594C145.873 22.5322 145.899 22.6648 145.951 22.7571C146.006 22.8471 146.077 22.9086 146.164 22.9418C146.252 22.9749 146.349 22.9915 146.456 22.9915C146.536 22.9915 146.609 22.9856 146.676 22.9737C146.744 22.9619 146.796 22.9512 146.832 22.9418L147.049 23.9467C146.98 23.9704 146.882 23.9964 146.754 24.0249C146.628 24.0533 146.475 24.0698 146.292 24.0746C145.97 24.084 145.68 24.0355 145.422 23.929C145.164 23.8201 144.959 23.652 144.808 23.4247C144.659 23.1974 144.585 22.9134 144.588 22.5724V17.2386Z" fill="white"/>
<path d="M108.06 35.3563L120.374 32.557L115.596 30.0402L115.152 24.8172L108.06 35.3563Z" fill="#C622C9"/>
<g filter="url(#filter2_d_226_3)">
<rect x="140" y="280" width="76" height="45" rx="13" fill="white"/>
<rect x="140.5" y="280.5" width="75" height="44" rx="12.5" stroke="#CEC0FF"/>
</g>
<path d="M165.793 314V307.455H168.004C168.516 307.455 168.935 307.542 169.263 307.717C169.592 307.889 169.835 308.127 169.992 308.429C170.15 308.732 170.229 309.076 170.229 309.462C170.229 309.847 170.15 310.189 169.992 310.488C169.835 310.786 169.593 311.02 169.267 311.191C168.941 311.359 168.524 311.443 168.017 311.443H166.227V310.727H167.991C168.341 310.727 168.622 310.676 168.835 310.574C169.05 310.472 169.206 310.327 169.302 310.139C169.4 309.95 169.449 309.724 169.449 309.462C169.449 309.2 169.4 308.971 169.302 308.775C169.204 308.578 169.047 308.427 168.832 308.321C168.617 308.212 168.332 308.158 167.979 308.158H166.585V314H165.793ZM168.874 311.06L170.484 314H169.564L167.979 311.06H168.874ZM173.389 314.102C172.946 314.102 172.557 313.997 172.222 313.786C171.89 313.575 171.63 313.28 171.442 312.901C171.257 312.521 171.164 312.078 171.164 311.571C171.164 311.06 171.257 310.613 171.442 310.232C171.63 309.85 171.89 309.554 172.222 309.343C172.557 309.132 172.946 309.027 173.389 309.027C173.832 309.027 174.22 309.132 174.552 309.343C174.887 309.554 175.147 309.85 175.332 310.232C175.519 310.613 175.613 311.06 175.613 311.571C175.613 312.078 175.519 312.521 175.332 312.901C175.147 313.28 174.887 313.575 174.552 313.786C174.22 313.997 173.832 314.102 173.389 314.102ZM173.389 313.425C173.725 313.425 174.002 313.338 174.22 313.166C174.437 312.993 174.598 312.766 174.702 312.485C174.807 312.204 174.859 311.899 174.859 311.571C174.859 311.243 174.807 310.937 174.702 310.654C174.598 310.37 174.437 310.141 174.22 309.967C174.002 309.792 173.725 309.705 173.389 309.705C173.052 309.705 172.775 309.792 172.558 309.967C172.34 310.141 172.18 310.37 172.075 310.654C171.971 310.937 171.919 311.243 171.919 311.571C171.919 311.899 171.971 312.204 172.075 312.485C172.18 312.766 172.34 312.993 172.558 313.166C172.775 313.338 173.052 313.425 173.389 313.425ZM178.759 314.102C178.316 314.102 177.927 313.997 177.592 313.786C177.26 313.575 177 313.28 176.812 312.901C176.627 312.521 176.534 312.078 176.534 311.571C176.534 311.06 176.627 310.613 176.812 310.232C177 309.85 177.26 309.554 177.592 309.343C177.927 309.132 178.316 309.027 178.759 309.027C179.202 309.027 179.59 309.132 179.922 309.343C180.257 309.554 180.517 309.85 180.702 310.232C180.89 310.613 180.983 311.06 180.983 311.571C180.983 312.078 180.89 312.521 180.702 312.901C180.517 313.28 180.257 313.575 179.922 313.786C179.59 313.997 179.202 314.102 178.759 314.102ZM178.759 313.425C179.096 313.425 179.373 313.338 179.59 313.166C179.807 312.993 179.968 312.766 180.072 312.485C180.177 312.204 180.229 311.899 180.229 311.571C180.229 311.243 180.177 310.937 180.072 310.654C179.968 310.37 179.807 310.141 179.59 309.967C179.373 309.792 179.096 309.705 178.759 309.705C178.422 309.705 178.145 309.792 177.928 309.967C177.711 310.141 177.55 310.37 177.445 310.654C177.341 310.937 177.289 311.243 177.289 311.571C177.289 311.899 177.341 312.204 177.445 312.485C177.55 312.766 177.711 312.993 177.928 313.166C178.145 313.338 178.422 313.425 178.759 313.425ZM182.135 314V309.091H182.863V309.858H182.927C183.03 309.596 183.195 309.392 183.423 309.248C183.651 309.1 183.924 309.027 184.244 309.027C184.568 309.027 184.837 309.1 185.053 309.248C185.27 309.392 185.439 309.596 185.561 309.858H185.612C185.738 309.604 185.926 309.403 186.178 309.254C186.429 309.103 186.731 309.027 187.082 309.027C187.521 309.027 187.88 309.164 188.159 309.439C188.438 309.712 188.578 310.137 188.578 310.714V314H187.824V310.714C187.824 310.352 187.725 310.093 187.526 309.938C187.328 309.782 187.095 309.705 186.826 309.705C186.481 309.705 186.214 309.809 186.024 310.018C185.835 310.224 185.74 310.487 185.74 310.804V314H184.973V310.638C184.973 310.359 184.882 310.134 184.701 309.963C184.52 309.791 184.287 309.705 184.001 309.705C183.805 309.705 183.622 309.757 183.451 309.861C183.283 309.966 183.147 310.11 183.042 310.296C182.94 310.479 182.889 310.691 182.889 310.932V314H182.135Z" fill="#444444"/>
<g filter="url(#filter3_d_226_3)">
<rect x="224" y="280" width="76" height="45" rx="13" fill="white"/>
<rect x="224.5" y="280.5" width="75" height="44" rx="12.5" stroke="#CEC0FF"/>
</g>
<path d="M249.793 314V307.455H252.004C252.516 307.455 252.935 307.542 253.263 307.717C253.592 307.889 253.835 308.127 253.992 308.429C254.15 308.732 254.229 309.076 254.229 309.462C254.229 309.847 254.15 310.189 253.992 310.488C253.835 310.786 253.593 311.02 253.267 311.191C252.941 311.359 252.524 311.443 252.017 311.443H250.227V310.727H251.991C252.341 310.727 252.622 310.676 252.835 310.574C253.05 310.472 253.206 310.327 253.302 310.139C253.4 309.95 253.449 309.724 253.449 309.462C253.449 309.2 253.4 308.971 253.302 308.775C253.204 308.578 253.047 308.427 252.832 308.321C252.617 308.212 252.332 308.158 251.979 308.158H250.585V314H249.793ZM252.874 311.06L254.484 314H253.564L251.979 311.06H252.874ZM257.389 314.102C256.946 314.102 256.557 313.997 256.222 313.786C255.89 313.575 255.63 313.28 255.442 312.901C255.257 312.521 255.164 312.078 255.164 311.571C255.164 311.06 255.257 310.613 255.442 310.232C255.63 309.85 255.89 309.554 256.222 309.343C256.557 309.132 256.946 309.027 257.389 309.027C257.832 309.027 258.22 309.132 258.552 309.343C258.887 309.554 259.147 309.85 259.332 310.232C259.519 310.613 259.613 311.06 259.613 311.571C259.613 312.078 259.519 312.521 259.332 312.901C259.147 313.28 258.887 313.575 258.552 313.786C258.22 313.997 257.832 314.102 257.389 314.102ZM257.389 313.425C257.725 313.425 258.002 313.338 258.22 313.166C258.437 312.993 258.598 312.766 258.702 312.485C258.807 312.204 258.859 311.899 258.859 311.571C258.859 311.243 258.807 310.937 258.702 310.654C258.598 310.37 258.437 310.141 258.22 309.967C258.002 309.792 257.725 309.705 257.389 309.705C257.052 309.705 256.775 309.792 256.558 309.967C256.34 310.141 256.18 310.37 256.075 310.654C255.971 310.937 255.919 311.243 255.919 311.571C255.919 311.899 255.971 312.204 256.075 312.485C256.18 312.766 256.34 312.993 256.558 313.166C256.775 313.338 257.052 313.425 257.389 313.425ZM262.759 314.102C262.316 314.102 261.927 313.997 261.592 313.786C261.26 313.575 261 313.28 260.812 312.901C260.627 312.521 260.534 312.078 260.534 311.571C260.534 311.06 260.627 310.613 260.812 310.232C261 309.85 261.26 309.554 261.592 309.343C261.927 309.132 262.316 309.027 262.759 309.027C263.202 309.027 263.59 309.132 263.922 309.343C264.257 309.554 264.517 309.85 264.702 310.232C264.89 310.613 264.983 311.06 264.983 311.571C264.983 312.078 264.89 312.521 264.702 312.901C264.517 313.28 264.257 313.575 263.922 313.786C263.59 313.997 263.202 314.102 262.759 314.102ZM262.759 313.425C263.096 313.425 263.373 313.338 263.59 313.166C263.807 312.993 263.968 312.766 264.072 312.485C264.177 312.204 264.229 311.899 264.229 311.571C264.229 311.243 264.177 310.937 264.072 310.654C263.968 310.37 263.807 310.141 263.59 309.967C263.373 309.792 263.096 309.705 262.759 309.705C262.422 309.705 262.145 309.792 261.928 309.967C261.711 310.141 261.55 310.37 261.445 310.654C261.341 310.937 261.289 311.243 261.289 311.571C261.289 311.899 261.341 312.204 261.445 312.485C261.55 312.766 261.711 312.993 261.928 313.166C262.145 313.338 262.422 313.425 262.759 313.425ZM266.135 314V309.091H266.863V309.858H266.927C267.03 309.596 267.195 309.392 267.423 309.248C267.651 309.1 267.924 309.027 268.244 309.027C268.568 309.027 268.837 309.1 269.053 309.248C269.27 309.392 269.439 309.596 269.561 309.858H269.612C269.738 309.604 269.926 309.403 270.178 309.254C270.429 309.103 270.731 309.027 271.082 309.027C271.521 309.027 271.88 309.164 272.159 309.439C272.438 309.712 272.578 310.137 272.578 310.714V314H271.824V310.714C271.824 310.352 271.725 310.093 271.526 309.938C271.328 309.782 271.095 309.705 270.826 309.705C270.481 309.705 270.214 309.809 270.024 310.018C269.835 310.224 269.74 310.487 269.74 310.804V314H268.973V310.638C268.973 310.359 268.882 310.134 268.701 309.963C268.52 309.791 268.287 309.705 268.001 309.705C267.805 309.705 267.622 309.757 267.451 309.861C267.283 309.966 267.147 310.11 267.042 310.296C266.94 310.479 266.889 310.691 266.889 310.932V314H266.135Z" fill="#444444"/>
<g filter="url(#filter4_d_226_3)">
<rect x="307" y="280" width="76" height="45" rx="13" fill="white"/>
<rect x="307.5" y="280.5" width="75" height="44" rx="12.5" stroke="#CEC0FF"/>
</g>
<path d="M332.793 314V307.455H335.004C335.516 307.455 335.935 307.542 336.263 307.717C336.592 307.889 336.835 308.127 336.992 308.429C337.15 308.732 337.229 309.076 337.229 309.462C337.229 309.847 337.15 310.189 336.992 310.488C336.835 310.786 336.593 311.02 336.267 311.191C335.941 311.359 335.524 311.443 335.017 311.443H333.227V310.727H334.991C335.341 310.727 335.622 310.676 335.835 310.574C336.05 310.472 336.206 310.327 336.302 310.139C336.4 309.95 336.449 309.724 336.449 309.462C336.449 309.2 336.4 308.971 336.302 308.775C336.204 308.578 336.047 308.427 335.832 308.321C335.617 308.212 335.332 308.158 334.979 308.158H333.585V314H332.793ZM335.874 311.06L337.484 314H336.564L334.979 311.06H335.874ZM340.389 314.102C339.946 314.102 339.557 313.997 339.222 313.786C338.89 313.575 338.63 313.28 338.442 312.901C338.257 312.521 338.164 312.078 338.164 311.571C338.164 311.06 338.257 310.613 338.442 310.232C338.63 309.85 338.89 309.554 339.222 309.343C339.557 309.132 339.946 309.027 340.389 309.027C340.832 309.027 341.22 309.132 341.552 309.343C341.887 309.554 342.147 309.85 342.332 310.232C342.519 310.613 342.613 311.06 342.613 311.571C342.613 312.078 342.519 312.521 342.332 312.901C342.147 313.28 341.887 313.575 341.552 313.786C341.22 313.997 340.832 314.102 340.389 314.102ZM340.389 313.425C340.725 313.425 341.002 313.338 341.22 313.166C341.437 312.993 341.598 312.766 341.702 312.485C341.807 312.204 341.859 311.899 341.859 311.571C341.859 311.243 341.807 310.937 341.702 310.654C341.598 310.37 341.437 310.141 341.22 309.967C341.002 309.792 340.725 309.705 340.389 309.705C340.052 309.705 339.775 309.792 339.558 309.967C339.34 310.141 339.18 310.37 339.075 310.654C338.971 310.937 338.919 311.243 338.919 311.571C338.919 311.899 338.971 312.204 339.075 312.485C339.18 312.766 339.34 312.993 339.558 313.166C339.775 313.338 340.052 313.425 340.389 313.425ZM345.759 314.102C345.316 314.102 344.927 313.997 344.592 313.786C344.26 313.575 344 313.28 343.812 312.901C343.627 312.521 343.534 312.078 343.534 311.571C343.534 311.06 343.627 310.613 343.812 310.232C344 309.85 344.26 309.554 344.592 309.343C344.927 309.132 345.316 309.027 345.759 309.027C346.202 309.027 346.59 309.132 346.922 309.343C347.257 309.554 347.517 309.85 347.702 310.232C347.89 310.613 347.983 311.06 347.983 311.571C347.983 312.078 347.89 312.521 347.702 312.901C347.517 313.28 347.257 313.575 346.922 313.786C346.59 313.997 346.202 314.102 345.759 314.102ZM345.759 313.425C346.096 313.425 346.373 313.338 346.59 313.166C346.807 312.993 346.968 312.766 347.072 312.485C347.177 312.204 347.229 311.899 347.229 311.571C347.229 311.243 347.177 310.937 347.072 310.654C346.968 310.37 346.807 310.141 346.59 309.967C346.373 309.792 346.096 309.705 345.759 309.705C345.422 309.705 345.145 309.792 344.928 309.967C344.711 310.141 344.55 310.37 344.445 310.654C344.341 310.937 344.289 311.243 344.289 311.571C344.289 311.899 344.341 312.204 344.445 312.485C344.55 312.766 344.711 312.993 344.928 313.166C345.145 313.338 345.422 313.425 345.759 313.425ZM349.135 314V309.091H349.863V309.858H349.927C350.03 309.596 350.195 309.392 350.423 309.248C350.651 309.1 350.924 309.027 351.244 309.027C351.568 309.027 351.837 309.1 352.053 309.248C352.27 309.392 352.439 309.596 352.561 309.858H352.612C352.738 309.604 352.926 309.403 353.178 309.254C353.429 309.103 353.731 309.027 354.082 309.027C354.521 309.027 354.88 309.164 355.159 309.439C355.438 309.712 355.578 310.137 355.578 310.714V314H354.824V310.714C354.824 310.352 354.725 310.093 354.526 309.938C354.328 309.782 354.095 309.705 353.826 309.705C353.481 309.705 353.214 309.809 353.024 310.018C352.835 310.224 352.74 310.487 352.74 310.804V314H351.973V310.638C351.973 310.359 351.882 310.134 351.701 309.963C351.52 309.791 351.287 309.705 351.001 309.705C350.805 309.705 350.622 309.757 350.451 309.861C350.283 309.966 350.147 310.11 350.042 310.296C349.94 310.479 349.889 310.691 349.889 310.932V314H349.135Z" fill="#444444"/>
<rect x="300" y="304" width="7" height="1" fill="white"/>
<rect x="216" y="304" width="8" height="1" fill="white"/>
<rect x="383" y="298" width="9" height="15" fill="white"/>
<rect x="131" y="298" width="9" height="15" fill="white"/>
<defs>
<filter id="filter0_d_226_3" x="340" y="50" width="100" height="90" filterUnits="userSpaceOnUse" color-interpolation-filters="sRGB">
<feFlood flood-opacity="0" result="BackgroundImageFix"/>
<feColorMatrix in="SourceAlpha" type="matrix" values="0 0 0 0 0 0 0 0 0 0 0 0 0 0 0 0 0 0 127 0" result="hardAlpha"/>
<feOffset dy="4"/>
<feGaussianBlur stdDeviation="2"/>
<feComposite in2="hardAlpha" operator="out"/>
<feColorMatrix type="matrix" values="0 0 0 0 0 0 0 0 0 0 0 0 0 0 0 0 0 0 0.05 0"/>
<feBlend mode="normal" in2="BackgroundImageFix" result="effect1_dropShadow_226_3"/>
<feBlend mode="normal" in="SourceGraphic" in2="effect1_dropShadow_226_3" result="shape"/>
</filter>
<filter id="filter1_d_226_3" x="53" y="143" width="114.374" height="120.373" filterUnits="userSpaceOnUse" color-interpolation-filters="sRGB">
<feFlood flood-opacity="0" result="BackgroundImageFix"/>
<feColorMatrix in="SourceAlpha" type="matrix" values="0 0 0 0 0 0 0 0 0 0 0 0 0 0 0 0 0 0 127 0" result="hardAlpha"/>
<feOffset dy="4"/>
<feGaussianBlur stdDeviation="2"/>
<feComposite in2="hardAlpha" operator="out"/>
<feColorMatrix type="matrix" values="0 0 0 0 0 0 0 0 0 0 0 0 0 0 0 0 0 0 0.06 0"/>
<feBlend mode="normal" in2="BackgroundImageFix" result="effect1_dropShadow_226_3"/>
<feBlend mode="normal" in="SourceGraphic" in2="effect1_dropShadow_226_3" result="shape"/>
</filter>
<filter id="filter2_d_226_3" x="136" y="280" width="84" height="53" filterUnits="userSpaceOnUse" color-interpolation-filters="sRGB">
<feFlood flood-opacity="0" result="BackgroundImageFix"/>
<feColorMatrix in="SourceAlpha" type="matrix" values="0 0 0 0 0 0 0 0 0 0 0 0 0 0 0 0 0 0 127 0" result="hardAlpha"/>
<feOffset dy="4"/>
<feGaussianBlur stdDeviation="2"/>
<feComposite in2="hardAlpha" operator="out"/>
<feColorMatrix type="matrix" values="0 0 0 0 0 0 0 0 0 0 0 0 0 0 0 0 0 0 0.05 0"/>
<feBlend mode="normal" in2="BackgroundImageFix" result="effect1_dropShadow_226_3"/>
<feBlend mode="normal" in="SourceGraphic" in2="effect1_dropShadow_226_3" result="shape"/>
</filter>
<filter id="filter3_d_226_3" x="220" y="280" width="84" height="53" filterUnits="userSpaceOnUse" color-interpolation-filters="sRGB">
<feFlood flood-opacity="0" result="BackgroundImageFix"/>
<feColorMatrix in="SourceAlpha" type="matrix" values="0 0 0 0 0 0 0 0 0 0 0 0 0 0 0 0 0 0 127 0" result="hardAlpha"/>
<feOffset dy="4"/>
<feGaussianBlur stdDeviation="2"/>
<feComposite in2="hardAlpha" operator="out"/>
<feColorMatrix type="matrix" values="0 0 0 0 0 0 0 0 0 0 0 0 0 0 0 0 0 0 0.05 0"/>
<feBlend mode="normal" in2="BackgroundImageFix" result="effect1_dropShadow_226_3"/>
<feBlend mode="normal" in="SourceGraphic" in2="effect1_dropShadow_226_3" result="shape"/>
</filter>
<filter id="filter4_d_226_3" x="303" y="280" width="84" height="53" filterUnits="userSpaceOnUse" color-interpolation-filters="sRGB">
<feFlood flood-opacity="0" result="BackgroundImageFix"/>
<feColorMatrix in="SourceAlpha" type="matrix" values="0 0 0 0 0 0 0 0 0 0 0 0 0 0 0 0 0 0 127 0" result="hardAlpha"/>
<feOffset dy="4"/>
<feGaussianBlur stdDeviation="2"/>
<feComposite in2="hardAlpha" operator="out"/>
<feColorMatrix type="matrix" values="0 0 0 0 0 0 0 0 0 0 0 0 0 0 0 0 0 0 0.05 0"/>
<feBlend mode="normal" in2="BackgroundImageFix" result="effect1_dropShadow_226_3"/>
<feBlend mode="normal" in="SourceGraphic" in2="effect1_dropShadow_226_3" result="shape"/>
</filter>
</defs>
</svg>
